<?xml version="1.0" encoding="UTF-8" standalone="no"?>
<!DOCTYPE svg PUBLIC "-//W3C//DTD SVG 1.1//EN"
 "http://www.w3.org/Graphics/SVG/1.1/DTD/svg11.dtd">
<!-- Generated by graphviz version 2.40.1 (20161225.0304)
 -->
<!-- Title: holiday_applicatoin Pages: 1 -->
<svg width="245pt" height="260pt"
 viewBox="0.00 0.00 245.00 260.00" xmlns="http://www.w3.org/2000/svg" xmlns:xlink="http://www.w3.org/1999/xlink">
<g id="graph0" class="graph" transform="scale(1 1) rotate(0) translate(4 256)">
<title>holiday_applicatoin</title>
<polygon fill="#ffffff" stroke="transparent" points="-4,4 -4,-256 241,-256 241,4 -4,4"/>
<!-- holiday_applicatoin -->
<g id="node1" class="node">
<title>holiday_applicatoin</title>
<g id="a_node1"><a xlink:href="../../tables/holiday_applicatoin.html" xlink:title="holiday_applicatoin" target="_top">
<polygon fill="#ffffff" stroke="transparent" points="8,-4 8,-248 229,-248 229,-4 8,-4"/>
<polygon fill="#f5f5f5" stroke="transparent" points="10.5,-223 10.5,-246 227.5,-246 227.5,-223 10.5,-223"/>
<polygon fill="none" stroke="#000000" points="10.5,-223 10.5,-246 227.5,-246 227.5,-223 10.5,-223"/>
<text text-anchor="start" x="15.5" y="-232.1" font-family="Helvetica,sans-Serif" font-weight="bold" font-size="11.00" fill="#000000">holiday_applicatoin</text>
<text text-anchor="start" x="192.5437" y="-231.1" font-family="Helvetica,sans-Serif" font-size="11.00" fill="#000000">[table]</text>
<polygon fill="none" stroke="#000000" points="10.5,-201 10.5,-223 143.5,-223 143.5,-201 10.5,-201"/>
<image xlink:href="../../images/primaryKeys.png" width="11px" height="12px" preserveAspectRatio="xMinYMin meet" x="15.5" y="-218"/>
<text text-anchor="start" x="30.5" y="-208.1" font-family="Helvetica,sans-Serif" font-size="11.00" fill="#000000">id</text>
<polygon fill="none" stroke="#000000" points="143.5,-201 143.5,-223 227.5,-223 227.5,-201 143.5,-201"/>
<text text-anchor="start" x="146.5" y="-208.7" font-family="Helvetica,sans-Serif" font-size="11.00" fill="#000000">varchar[36]</text>
<polygon fill="none" stroke="#000000" points="10.5,-179 10.5,-201 143.5,-201 143.5,-179 10.5,-179"/>
<text text-anchor="start" x="30.5" y="-186.1" font-family="Helvetica,sans-Serif" font-size="11.00" fill="#000000">applicant_id</text>
<polygon fill="none" stroke="#000000" points="143.5,-179 143.5,-201 227.5,-201 227.5,-179 143.5,-179"/>
<text text-anchor="start" x="146.5" y="-186.7" font-family="Helvetica,sans-Serif" font-size="11.00" fill="#000000">int4[10]</text>
<polygon fill="none" stroke="#000000" points="10.5,-157 10.5,-179 143.5,-179 143.5,-157 10.5,-157"/>
<text text-anchor="start" x="30.5" y="-164.1" font-family="Helvetica,sans-Serif" font-size="11.00" fill="#000000">approver_id</text>
<polygon fill="none" stroke="#000000" points="143.5,-157 143.5,-179 227.5,-179 227.5,-157 143.5,-157"/>
<text text-anchor="start" x="146.5" y="-164.7" font-family="Helvetica,sans-Serif" font-size="11.00" fill="#000000">int4[10]</text>
<polygon fill="none" stroke="#000000" points="10.5,-135 10.5,-157 143.5,-157 143.5,-135 10.5,-135"/>
<text text-anchor="start" x="30.5" y="-142.1" font-family="Helvetica,sans-Serif" font-size="11.00" fill="#000000">date</text>
<polygon fill="none" stroke="#000000" points="143.5,-135 143.5,-157 227.5,-157 227.5,-135 143.5,-135"/>
<text text-anchor="start" x="146.3807" y="-142.7" font-family="Helvetica,sans-Serif" font-size="11.00" fill="#000000">timestamp[29,6]</text>
<polygon fill="none" stroke="#000000" points="10.5,-113 10.5,-135 143.5,-135 143.5,-113 10.5,-113"/>
<text text-anchor="start" x="30.5" y="-120.1" font-family="Helvetica,sans-Serif" font-size="11.00" fill="#000000">kind</text>
<polygon fill="none" stroke="#000000" points="143.5,-113 143.5,-135 227.5,-135 227.5,-113 143.5,-113"/>
<text text-anchor="start" x="146.5" y="-120.7" font-family="Helvetica,sans-Serif" font-size="11.00" fill="#000000">varchar[20]</text>
<polygon fill="none" stroke="#000000" points="10.5,-91 10.5,-113 143.5,-113 143.5,-91 10.5,-91"/>
<text text-anchor="start" x="30.5" y="-98.1" font-family="Helvetica,sans-Serif" font-size="11.00" fill="#000000">status</text>
<polygon fill="none" stroke="#000000" points="143.5,-91 143.5,-113 227.5,-113 227.5,-91 143.5,-91"/>
<text text-anchor="start" x="146.5" y="-98.7" font-family="Helvetica,sans-Serif" font-size="11.00" fill="#000000">varchar[20]</text>
<polygon fill="none" stroke="#000000" points="10.5,-69 10.5,-91 143.5,-91 143.5,-69 10.5,-69"/>
<text text-anchor="start" x="30.5" y="-76.1" font-family="Helvetica,sans-Serif" font-size="11.00" fill="#000000">type</text>
<polygon fill="none" stroke="#000000" points="143.5,-69 143.5,-91 227.5,-91 227.5,-69 143.5,-69"/>
<text text-anchor="start" x="146.5" y="-76.7" font-family="Helvetica,sans-Serif" font-size="11.00" fill="#000000">varchar[20]</text>
<polygon fill="none" stroke="#000000" points="10.5,-47 10.5,-69 143.5,-69 143.5,-47 10.5,-47"/>
<text text-anchor="start" x="30.5" y="-54.1" font-family="Helvetica,sans-Serif" font-size="11.00" fill="#000000">created_at</text>
<polygon fill="none" stroke="#000000" points="143.5,-47 143.5,-69 227.5,-69 227.5,-47 143.5,-47"/>
<text text-anchor="start" x="146.3807" y="-54.7" font-family="Helvetica,sans-Serif" font-size="11.00" fill="#000000">timestamp[29,6]</text>
<polygon fill="none" stroke="#000000" points="10.5,-25 10.5,-47 143.5,-47 143.5,-25 10.5,-25"/>
<text text-anchor="start" x="30.5" y="-32.1" font-family="Helvetica,sans-Serif" font-size="11.00" fill="#000000">updated_at</text>
<polygon fill="none" stroke="#000000" points="143.5,-25 143.5,-47 227.5,-47 227.5,-25 143.5,-25"/>
<text text-anchor="start" x="146.3807" y="-32.7" font-family="Helvetica,sans-Serif" font-size="11.00" fill="#000000">timestamp[29,6]</text>
<polygon fill="#ffffff" stroke="transparent" points="10.5,-6 10.5,-25 68.5,-25 68.5,-6 10.5,-6"/>
<polygon fill="none" stroke="#000000" points="10.5,-6 10.5,-25 68.5,-25 68.5,-6 10.5,-6"/>
<text text-anchor="start" x="13.5" y="-12.1" font-family="Helvetica,sans-Serif" font-size="11.00" fill="#000000">&lt; 0</text>
<polygon fill="#ffffff" stroke="transparent" points="68.5,-6 68.5,-25 143.5,-25 143.5,-6 68.5,-6"/>
<polygon fill="none" stroke="#000000" points="68.5,-6 68.5,-25 143.5,-25 143.5,-6 68.5,-6"/>
<text text-anchor="start" x="108.1105" y="-12.1" font-family="Helvetica,sans-Serif" font-size="11.00" fill="#000000">0 rows</text>
<polygon fill="#ffffff" stroke="transparent" points="143.5,-6 143.5,-25 227.5,-25 227.5,-6 143.5,-6"/>
<polygon fill="none" stroke="#000000" points="143.5,-6 143.5,-25 227.5,-25 227.5,-6 143.5,-6"/>
<text text-anchor="start" x="208.9053" y="-12.1" font-family="Helvetica,sans-Serif" font-size="11.00" fill="#000000">0 &gt;</text>
<polygon fill="none" stroke="#000000" stroke-width="2" points="9,-5 9,-247 228,-247 228,-5 9,-5"/>
</a>
</g>
</g>
</g>
</svg>
