<?xml version="1.0" encoding="UTF-8" standalone="no"?>
<!DOCTYPE svg PUBLIC "-//W3C//DTD SVG 1.1//EN"
 "http://www.w3.org/Graphics/SVG/1.1/DTD/svg11.dtd">
<!-- Generated by graphviz version 2.40.1 (20161225.0304)
 -->
<!-- Title: oneDegreeRelationshipsDiagram Pages: 1 -->
<svg width="403pt" height="228pt"
 viewBox="0.00 0.00 403.00 228.20" xmlns="http://www.w3.org/2000/svg" xmlns:xlink="http://www.w3.org/1999/xlink">
<g id="graph0" class="graph" transform="scale(1 1) rotate(0) translate(4 224.2)">
<title>oneDegreeRelationshipsDiagram</title>
<polygon fill="#ffffff" stroke="transparent" points="-4,4 -4,-224.2 399,-224.2 399,4 -4,4"/>
<text text-anchor="middle" x="72.4936" y="-7.3" font-family="Helvetica,sans-Serif" font-size="11.00" fill="#000000">Generated by SchemaSpy</text>
<!-- account -->
<g id="node1" class="node">
<title>account</title>
<g id="a_node1"><a xlink:href="../../tables/account.html" xlink:title="account" target="_top">
<polygon fill="#ffffff" stroke="transparent" points="178,-38.2 178,-216.2 387,-216.2 387,-38.2 178,-38.2"/>
<polygon fill="#f5f5f5" stroke="transparent" points="180.5,-191.2 180.5,-214.2 385.5,-214.2 385.5,-191.2 180.5,-191.2"/>
<polygon fill="none" stroke="#000000" points="180.5,-191.2 180.5,-214.2 385.5,-214.2 385.5,-191.2 180.5,-191.2"/>
<text text-anchor="start" x="185.5" y="-200.3" font-family="Helvetica,sans-Serif" font-weight="bold" font-size="11.00" fill="#000000">account</text>
<text text-anchor="start" x="350.5437" y="-199.3" font-family="Helvetica,sans-Serif" font-size="11.00" fill="#000000">[table]</text>
<polygon fill="none" stroke="#000000" points="180.5,-169.2 180.5,-191.2 301.5,-191.2 301.5,-169.2 180.5,-169.2"/>
<image xlink:href="../../images/primaryKeys.png" width="11px" height="12px" preserveAspectRatio="xMinYMin meet" x="185.5" y="-186.2"/>
<text text-anchor="start" x="200.5" y="-176.3" font-family="Helvetica,sans-Serif" font-size="11.00" fill="#000000">user_id</text>
<polygon fill="none" stroke="#000000" points="301.5,-169.2 301.5,-191.2 385.5,-191.2 385.5,-169.2 301.5,-169.2"/>
<text text-anchor="start" x="304.5" y="-176.9" font-family="Helvetica,sans-Serif" font-size="11.00" fill="#000000">int4[10]</text>
<polygon fill="none" stroke="#000000" points="180.5,-147.2 180.5,-169.2 301.5,-169.2 301.5,-147.2 180.5,-147.2"/>
<text text-anchor="start" x="200.5" y="-154.3" font-family="Helvetica,sans-Serif" font-size="11.00" fill="#000000">account_id</text>
<polygon fill="none" stroke="#000000" points="301.5,-147.2 301.5,-169.2 385.5,-169.2 385.5,-147.2 301.5,-147.2"/>
<text text-anchor="start" x="304.5" y="-154.9" font-family="Helvetica,sans-Serif" font-size="11.00" fill="#000000">varchar[100]</text>
<polygon fill="none" stroke="#000000" points="180.5,-125.2 180.5,-147.2 301.5,-147.2 301.5,-125.2 180.5,-125.2"/>
<text text-anchor="start" x="200.5" y="-132.3" font-family="Helvetica,sans-Serif" font-size="11.00" fill="#000000">password</text>
<polygon fill="none" stroke="#000000" points="301.5,-125.2 301.5,-147.2 385.5,-147.2 385.5,-125.2 301.5,-125.2"/>
<text text-anchor="start" x="304.5" y="-132.9" font-family="Helvetica,sans-Serif" font-size="11.00" fill="#000000">varchar[100]</text>
<polygon fill="none" stroke="#000000" points="180.5,-103.2 180.5,-125.2 301.5,-125.2 301.5,-103.2 180.5,-103.2"/>
<text text-anchor="start" x="200.5" y="-110.3" font-family="Helvetica,sans-Serif" font-size="11.00" fill="#000000">admin_flg</text>
<polygon fill="none" stroke="#000000" points="301.5,-103.2 301.5,-125.2 385.5,-125.2 385.5,-103.2 301.5,-103.2"/>
<text text-anchor="start" x="304.5" y="-110.9" font-family="Helvetica,sans-Serif" font-size="11.00" fill="#000000">bool[1]</text>
<polygon fill="none" stroke="#000000" points="180.5,-81.2 180.5,-103.2 301.5,-103.2 301.5,-81.2 180.5,-81.2"/>
<text text-anchor="start" x="200.5" y="-88.3" font-family="Helvetica,sans-Serif" font-size="11.00" fill="#000000">register_datetime</text>
<polygon fill="none" stroke="#000000" points="301.5,-81.2 301.5,-103.2 385.5,-103.2 385.5,-81.2 301.5,-81.2"/>
<text text-anchor="start" x="304.3807" y="-88.9" font-family="Helvetica,sans-Serif" font-size="11.00" fill="#000000">timestamp[29,6]</text>
<polygon fill="none" stroke="#000000" points="180.5,-59.2 180.5,-81.2 301.5,-81.2 301.5,-59.2 180.5,-59.2"/>
<text text-anchor="start" x="200.5" y="-66.3" font-family="Helvetica,sans-Serif" font-size="11.00" fill="#000000">update_datetime</text>
<polygon fill="none" stroke="#000000" points="301.5,-59.2 301.5,-81.2 385.5,-81.2 385.5,-59.2 301.5,-59.2"/>
<text text-anchor="start" x="304.3807" y="-66.9" font-family="Helvetica,sans-Serif" font-size="11.00" fill="#000000">timestamp[29,6]</text>
<polygon fill="#ffffff" stroke="transparent" points="180.5,-40.2 180.5,-59.2 232.5,-59.2 232.5,-40.2 180.5,-40.2"/>
<polygon fill="none" stroke="#000000" points="180.5,-40.2 180.5,-59.2 232.5,-59.2 232.5,-40.2 180.5,-40.2"/>
<text text-anchor="start" x="183.5" y="-46.3" font-family="Helvetica,sans-Serif" font-size="11.00" fill="#000000">&lt; 1</text>
<polygon fill="#ffffff" stroke="transparent" points="232.5,-40.2 232.5,-59.2 301.5,-59.2 301.5,-40.2 232.5,-40.2"/>
<polygon fill="none" stroke="#000000" points="232.5,-40.2 232.5,-59.2 301.5,-59.2 301.5,-40.2 232.5,-40.2"/>
<text text-anchor="start" x="266.1105" y="-46.3" font-family="Helvetica,sans-Serif" font-size="11.00" fill="#000000">3 rows</text>
<polygon fill="#ffffff" stroke="transparent" points="301.5,-40.2 301.5,-59.2 385.5,-59.2 385.5,-40.2 301.5,-40.2"/>
<polygon fill="none" stroke="#000000" points="301.5,-40.2 301.5,-59.2 385.5,-59.2 385.5,-40.2 301.5,-40.2"/>
<text text-anchor="start" x="366.9053" y="-46.3" font-family="Helvetica,sans-Serif" font-size="11.00" fill="#000000">0 &gt;</text>
<polygon fill="none" stroke="#000000" stroke-width="2" points="179,-39.2 179,-215.2 386,-215.2 386,-39.2 179,-39.2"/>
</a>
</g>
</g>
<!-- user -->
<g id="node2" class="node">
<title>user</title>
<g id="a_node2"><a xlink:href="../../tables/user.html" xlink:title="user" target="_top">
<polygon fill="#ffffff" stroke="transparent" points="8,-109.7 8,-214.7 129,-214.7 129,-109.7 8,-109.7"/>
<polygon fill="#f5f5f5" stroke="transparent" points="8.5,-191.2 8.5,-214.2 129.5,-214.2 129.5,-191.2 8.5,-191.2"/>
<polygon fill="none" stroke="#000000" points="8.5,-191.2 8.5,-214.2 129.5,-214.2 129.5,-191.2 8.5,-191.2"/>
<text text-anchor="start" x="13.5" y="-200.3" font-family="Helvetica,sans-Serif" font-weight="bold" font-size="11.00" fill="#000000">user</text>
<text text-anchor="start" x="94.5437" y="-199.3" font-family="Helvetica,sans-Serif" font-size="11.00" fill="#000000">[table]</text>
<polygon fill="none" stroke="#000000" points="8.5,-169.2 8.5,-191.2 129.5,-191.2 129.5,-169.2 8.5,-169.2"/>
<image xlink:href="../../images/primaryKeys.png" width="11px" height="12px" preserveAspectRatio="xMinYMin meet" x="13.5" y="-186.2"/>
<text text-anchor="start" x="28.5" y="-176.3" font-family="Helvetica,sans-Serif" font-size="11.00" fill="#000000">id</text>
<polygon fill="none" stroke="#000000" points="8.5,-147.2 8.5,-169.2 129.5,-169.2 129.5,-147.2 8.5,-147.2"/>
<image xlink:href="../../images/foreignKeys.png" width="11px" height="12px" preserveAspectRatio="xMinYMin meet" x="13.5" y="-164.2"/>
<text text-anchor="start" x="28.5" y="-154.3" font-family="Helvetica,sans-Serif" font-size="11.00" fill="#000000">status</text>
<polygon fill="none" stroke="#000000" points="8.5,-128.2 8.5,-147.2 129.5,-147.2 129.5,-128.2 8.5,-128.2"/>
<text text-anchor="start" x="11.5" y="-134.3" font-family="Helvetica,sans-Serif" font-size="11.00" fill="#000000">...</text>
<polygon fill="#ffffff" stroke="transparent" points="8.5,-109.2 8.5,-128.2 49.5,-128.2 49.5,-109.2 8.5,-109.2"/>
<polygon fill="none" stroke="#000000" points="8.5,-109.2 8.5,-128.2 49.5,-128.2 49.5,-109.2 8.5,-109.2"/>
<text text-anchor="start" x="11.5" y="-115.3" font-family="Helvetica,sans-Serif" font-size="11.00" fill="#000000">&lt; 1</text>
<polygon fill="#ffffff" stroke="transparent" points="49.5,-109.2 49.5,-128.2 97.5,-128.2 97.5,-109.2 49.5,-109.2"/>
<polygon fill="none" stroke="#000000" points="49.5,-109.2 49.5,-128.2 97.5,-128.2 97.5,-109.2 49.5,-109.2"/>
<text text-anchor="start" x="62.1105" y="-115.3" font-family="Helvetica,sans-Serif" font-size="11.00" fill="#000000">3 rows</text>
<polygon fill="#ffffff" stroke="transparent" points="97.5,-109.2 97.5,-128.2 129.5,-128.2 129.5,-109.2 97.5,-109.2"/>
<polygon fill="none" stroke="#000000" points="97.5,-109.2 97.5,-128.2 129.5,-128.2 129.5,-109.2 97.5,-109.2"/>
<text text-anchor="start" x="110.9053" y="-115.3" font-family="Helvetica,sans-Serif" font-size="11.00" fill="#000000">7 &gt;</text>
</a>
</g>
</g>
<!-- account&#45;&gt;user -->
<g id="edge1" class="edge">
<title>account:w&#45;&gt;user:e</title>
<path fill="none" stroke="#000000" d="M169.7307,-180.2C155.248,-180.2 148.0938,-180.2 129.5,-180.2"/>
<polygon fill="#000000" stroke="#000000" points="179.7,-176.2 179.7,-184.2 178.1,-184.2 178.1,-176.2 179.7,-176.2"/>
<polyline fill="none" stroke="#000000" points="180.5,-180.2 176.5,-180.2 "/>
<ellipse fill="none" stroke="#000000" cx="173.3" cy="-180.2001" rx="3.2" ry="3.2"/>
</g>
</g>
</svg>
