<?xml version="1.0" encoding="UTF-8" standalone="no"?>
<!DOCTYPE svg PUBLIC "-//W3C//DTD SVG 1.1//EN"
 "http://www.w3.org/Graphics/SVG/1.1/DTD/svg11.dtd">
<!-- Generated by graphviz version 2.40.1 (20161225.0304)
 -->
<!-- Title: twoDegreesRelationshipsDiagram Pages: 1 -->
<svg width="551pt" height="721pt"
 viewBox="0.00 0.00 551.00 720.70" xmlns="http://www.w3.org/2000/svg" xmlns:xlink="http://www.w3.org/1999/xlink">
<g id="graph0" class="graph" transform="scale(1 1) rotate(0) translate(4 716.7)">
<title>twoDegreesRelationshipsDiagram</title>
<polygon fill="#ffffff" stroke="transparent" points="-4,4 -4,-716.7 547,-716.7 547,4 -4,4"/>
<text text-anchor="middle" x="72.4936" y="-7.3" font-family="Helvetica,sans-Serif" font-size="11.00" fill="#000000">Generated by SchemaSpy</text>
<!-- account -->
<g id="node1" class="node">
<title>account</title>
<g id="a_node1"><a xlink:href="../../tables/account.html" xlink:title="account" target="_top">
<polygon fill="#ffffff" stroke="transparent" points="326,-530.7 326,-708.7 535,-708.7 535,-530.7 326,-530.7"/>
<polygon fill="#f5f5f5" stroke="transparent" points="328.5,-683.7 328.5,-706.7 533.5,-706.7 533.5,-683.7 328.5,-683.7"/>
<polygon fill="none" stroke="#000000" points="328.5,-683.7 328.5,-706.7 533.5,-706.7 533.5,-683.7 328.5,-683.7"/>
<text text-anchor="start" x="333.5" y="-692.8" font-family="Helvetica,sans-Serif" font-weight="bold" font-size="11.00" fill="#000000">account</text>
<text text-anchor="start" x="498.5437" y="-691.8" font-family="Helvetica,sans-Serif" font-size="11.00" fill="#000000">[table]</text>
<polygon fill="none" stroke="#000000" points="328.5,-661.7 328.5,-683.7 449.5,-683.7 449.5,-661.7 328.5,-661.7"/>
<image xlink:href="../../images/primaryKeys.png" width="11px" height="12px" preserveAspectRatio="xMinYMin meet" x="333.5" y="-678.7"/>
<text text-anchor="start" x="348.5" y="-668.8" font-family="Helvetica,sans-Serif" font-size="11.00" fill="#000000">user_id</text>
<polygon fill="none" stroke="#000000" points="449.5,-661.7 449.5,-683.7 533.5,-683.7 533.5,-661.7 449.5,-661.7"/>
<text text-anchor="start" x="452.5" y="-669.4" font-family="Helvetica,sans-Serif" font-size="11.00" fill="#000000">int4[10]</text>
<polygon fill="none" stroke="#000000" points="328.5,-639.7 328.5,-661.7 449.5,-661.7 449.5,-639.7 328.5,-639.7"/>
<text text-anchor="start" x="348.5" y="-646.8" font-family="Helvetica,sans-Serif" font-size="11.00" fill="#000000">account_id</text>
<polygon fill="none" stroke="#000000" points="449.5,-639.7 449.5,-661.7 533.5,-661.7 533.5,-639.7 449.5,-639.7"/>
<text text-anchor="start" x="452.5" y="-647.4" font-family="Helvetica,sans-Serif" font-size="11.00" fill="#000000">varchar[100]</text>
<polygon fill="none" stroke="#000000" points="328.5,-617.7 328.5,-639.7 449.5,-639.7 449.5,-617.7 328.5,-617.7"/>
<text text-anchor="start" x="348.5" y="-624.8" font-family="Helvetica,sans-Serif" font-size="11.00" fill="#000000">password</text>
<polygon fill="none" stroke="#000000" points="449.5,-617.7 449.5,-639.7 533.5,-639.7 533.5,-617.7 449.5,-617.7"/>
<text text-anchor="start" x="452.5" y="-625.4" font-family="Helvetica,sans-Serif" font-size="11.00" fill="#000000">varchar[100]</text>
<polygon fill="none" stroke="#000000" points="328.5,-595.7 328.5,-617.7 449.5,-617.7 449.5,-595.7 328.5,-595.7"/>
<text text-anchor="start" x="348.5" y="-602.8" font-family="Helvetica,sans-Serif" font-size="11.00" fill="#000000">admin_flg</text>
<polygon fill="none" stroke="#000000" points="449.5,-595.7 449.5,-617.7 533.5,-617.7 533.5,-595.7 449.5,-595.7"/>
<text text-anchor="start" x="452.5" y="-603.4" font-family="Helvetica,sans-Serif" font-size="11.00" fill="#000000">bool[1]</text>
<polygon fill="none" stroke="#000000" points="328.5,-573.7 328.5,-595.7 449.5,-595.7 449.5,-573.7 328.5,-573.7"/>
<text text-anchor="start" x="348.5" y="-580.8" font-family="Helvetica,sans-Serif" font-size="11.00" fill="#000000">register_datetime</text>
<polygon fill="none" stroke="#000000" points="449.5,-573.7 449.5,-595.7 533.5,-595.7 533.5,-573.7 449.5,-573.7"/>
<text text-anchor="start" x="452.3807" y="-581.4" font-family="Helvetica,sans-Serif" font-size="11.00" fill="#000000">timestamp[29,6]</text>
<polygon fill="none" stroke="#000000" points="328.5,-551.7 328.5,-573.7 449.5,-573.7 449.5,-551.7 328.5,-551.7"/>
<text text-anchor="start" x="348.5" y="-558.8" font-family="Helvetica,sans-Serif" font-size="11.00" fill="#000000">update_datetime</text>
<polygon fill="none" stroke="#000000" points="449.5,-551.7 449.5,-573.7 533.5,-573.7 533.5,-551.7 449.5,-551.7"/>
<text text-anchor="start" x="452.3807" y="-559.4" font-family="Helvetica,sans-Serif" font-size="11.00" fill="#000000">timestamp[29,6]</text>
<polygon fill="#ffffff" stroke="transparent" points="328.5,-532.7 328.5,-551.7 380.5,-551.7 380.5,-532.7 328.5,-532.7"/>
<polygon fill="none" stroke="#000000" points="328.5,-532.7 328.5,-551.7 380.5,-551.7 380.5,-532.7 328.5,-532.7"/>
<text text-anchor="start" x="331.5" y="-538.8" font-family="Helvetica,sans-Serif" font-size="11.00" fill="#000000">&lt; 1</text>
<polygon fill="#ffffff" stroke="transparent" points="380.5,-532.7 380.5,-551.7 449.5,-551.7 449.5,-532.7 380.5,-532.7"/>
<polygon fill="none" stroke="#000000" points="380.5,-532.7 380.5,-551.7 449.5,-551.7 449.5,-532.7 380.5,-532.7"/>
<text text-anchor="start" x="414.1105" y="-538.8" font-family="Helvetica,sans-Serif" font-size="11.00" fill="#000000">3 rows</text>
<polygon fill="#ffffff" stroke="transparent" points="449.5,-532.7 449.5,-551.7 533.5,-551.7 533.5,-532.7 449.5,-532.7"/>
<polygon fill="none" stroke="#000000" points="449.5,-532.7 449.5,-551.7 533.5,-551.7 533.5,-532.7 449.5,-532.7"/>
<text text-anchor="start" x="514.9053" y="-538.8" font-family="Helvetica,sans-Serif" font-size="11.00" fill="#000000">0 &gt;</text>
<polygon fill="none" stroke="#000000" stroke-width="2" points="327,-531.7 327,-707.7 534,-707.7 534,-531.7 327,-531.7"/>
</a>
</g>
</g>
<!-- user -->
<g id="node2" class="node">
<title>user</title>
<g id="a_node2"><a xlink:href="../../tables/user.html" xlink:title="user" target="_top">
<polygon fill="#ffffff" stroke="transparent" points="156,-241.2 156,-346.2 277,-346.2 277,-241.2 156,-241.2"/>
<polygon fill="#f5f5f5" stroke="transparent" points="156.5,-322.7 156.5,-345.7 277.5,-345.7 277.5,-322.7 156.5,-322.7"/>
<polygon fill="none" stroke="#000000" points="156.5,-322.7 156.5,-345.7 277.5,-345.7 277.5,-322.7 156.5,-322.7"/>
<text text-anchor="start" x="161.5" y="-331.8" font-family="Helvetica,sans-Serif" font-weight="bold" font-size="11.00" fill="#000000">user</text>
<text text-anchor="start" x="242.5437" y="-330.8" font-family="Helvetica,sans-Serif" font-size="11.00" fill="#000000">[table]</text>
<polygon fill="none" stroke="#000000" points="156.5,-300.7 156.5,-322.7 277.5,-322.7 277.5,-300.7 156.5,-300.7"/>
<image xlink:href="../../images/primaryKeys.png" width="11px" height="12px" preserveAspectRatio="xMinYMin meet" x="161.5" y="-317.7"/>
<text text-anchor="start" x="176.5" y="-307.8" font-family="Helvetica,sans-Serif" font-size="11.00" fill="#000000">id</text>
<polygon fill="none" stroke="#000000" points="156.5,-278.7 156.5,-300.7 277.5,-300.7 277.5,-278.7 156.5,-278.7"/>
<image xlink:href="../../images/foreignKeys.png" width="11px" height="12px" preserveAspectRatio="xMinYMin meet" x="161.5" y="-295.7"/>
<text text-anchor="start" x="176.5" y="-285.8" font-family="Helvetica,sans-Serif" font-size="11.00" fill="#000000">status</text>
<polygon fill="none" stroke="#000000" points="156.5,-259.7 156.5,-278.7 277.5,-278.7 277.5,-259.7 156.5,-259.7"/>
<text text-anchor="start" x="159.5" y="-265.8" font-family="Helvetica,sans-Serif" font-size="11.00" fill="#000000">...</text>
<polygon fill="#ffffff" stroke="transparent" points="156.5,-240.7 156.5,-259.7 197.5,-259.7 197.5,-240.7 156.5,-240.7"/>
<polygon fill="none" stroke="#000000" points="156.5,-240.7 156.5,-259.7 197.5,-259.7 197.5,-240.7 156.5,-240.7"/>
<text text-anchor="start" x="159.5" y="-246.8" font-family="Helvetica,sans-Serif" font-size="11.00" fill="#000000">&lt; 1</text>
<polygon fill="#ffffff" stroke="transparent" points="197.5,-240.7 197.5,-259.7 245.5,-259.7 245.5,-240.7 197.5,-240.7"/>
<polygon fill="none" stroke="#000000" points="197.5,-240.7 197.5,-259.7 245.5,-259.7 245.5,-240.7 197.5,-240.7"/>
<text text-anchor="start" x="210.1105" y="-246.8" font-family="Helvetica,sans-Serif" font-size="11.00" fill="#000000">3 rows</text>
<polygon fill="#ffffff" stroke="transparent" points="245.5,-240.7 245.5,-259.7 277.5,-259.7 277.5,-240.7 245.5,-240.7"/>
<polygon fill="none" stroke="#000000" points="245.5,-240.7 245.5,-259.7 277.5,-259.7 277.5,-240.7 245.5,-240.7"/>
<text text-anchor="start" x="258.9053" y="-246.8" font-family="Helvetica,sans-Serif" font-size="11.00" fill="#000000">7 &gt;</text>
</a>
</g>
</g>
<!-- account&#45;&gt;user -->
<g id="edge1" class="edge">
<title>account:w&#45;&gt;user:e</title>
<path fill="none" stroke="#000000" d="M318.3332,-670.3947C257.469,-639.6495 354.7211,-311.7 277.5,-311.7"/>
<polygon fill="#000000" stroke="#000000" points="328.6044,-668.6221 326.8352,-676.4241 325.2749,-676.0702 327.044,-668.2683 328.6044,-668.6221"/>
<polyline fill="none" stroke="#000000" points="328.5,-672.7 324.599,-671.8154 "/>
<ellipse fill="none" stroke="#000000" cx="321.4782" cy="-671.1078" rx="3.2" ry="3.2"/>
</g>
<!-- user_status -->
<g id="node8" class="node">
<title>user_status</title>
<g id="a_node8"><a xlink:href="../../tables/user_status.html" xlink:title="user_status" target="_top">
<polygon fill="#ffffff" stroke="transparent" points="8,-262.2 8,-323.2 107,-323.2 107,-262.2 8,-262.2"/>
<polygon fill="#f5f5f5" stroke="transparent" points="8.5,-299.7 8.5,-322.7 107.5,-322.7 107.5,-299.7 8.5,-299.7"/>
<polygon fill="none" stroke="#000000" points="8.5,-299.7 8.5,-322.7 107.5,-322.7 107.5,-299.7 8.5,-299.7"/>
<text text-anchor="start" x="13.0749" y="-308.8" font-family="Helvetica,sans-Serif" font-weight="bold" font-size="11.00" fill="#000000">user_status</text>
<text text-anchor="start" x="73.0219" y="-307.8" font-family="Helvetica,sans-Serif" font-size="11.00" fill="#000000">[table]</text>
<polygon fill="none" stroke="#000000" points="8.5,-280.7 8.5,-299.7 107.5,-299.7 107.5,-280.7 8.5,-280.7"/>
<text text-anchor="start" x="11.5" y="-286.8" font-family="Helvetica,sans-Serif" font-size="11.00" fill="#000000">...</text>
<polygon fill="#ffffff" stroke="transparent" points="8.5,-261.7 8.5,-280.7 34.5,-280.7 34.5,-261.7 8.5,-261.7"/>
<polygon fill="none" stroke="#000000" points="8.5,-261.7 8.5,-280.7 34.5,-280.7 34.5,-261.7 8.5,-261.7"/>
<text text-anchor="start" x="11.5" y="-267.8" font-family="Helvetica,sans-Serif" font-size="11.00" fill="#000000"> &#160;</text>
<polygon fill="#ffffff" stroke="transparent" points="34.5,-261.7 34.5,-280.7 79.5,-280.7 79.5,-261.7 34.5,-261.7"/>
<polygon fill="none" stroke="#000000" points="34.5,-261.7 34.5,-280.7 79.5,-280.7 79.5,-261.7 34.5,-261.7"/>
<text text-anchor="start" x="44.1105" y="-267.8" font-family="Helvetica,sans-Serif" font-size="11.00" fill="#000000">3 rows</text>
<polygon fill="#ffffff" stroke="transparent" points="79.5,-261.7 79.5,-280.7 107.5,-280.7 107.5,-261.7 79.5,-261.7"/>
<polygon fill="none" stroke="#000000" points="79.5,-261.7 79.5,-280.7 107.5,-280.7 107.5,-261.7 79.5,-261.7"/>
<text text-anchor="start" x="88.9053" y="-267.8" font-family="Helvetica,sans-Serif" font-size="11.00" fill="#000000">1 &gt;</text>
</a>
</g>
</g>
<!-- user&#45;&gt;user_status -->
<g id="edge7" class="edge">
<title>user:w&#45;&gt;user_status:e</title>
<path fill="none" stroke="#000000" d="M141.9909,-289.7C130.6774,-289.7 123.4931,-289.7 107.5,-289.7"/>
<polygon fill="#000000" stroke="#000000" points="148.5,-289.7001 156.5,-293.3 152.5,-289.7 156.5,-289.7 156.5,-289.7 156.5,-289.7 152.5,-289.7 156.5,-286.1 148.5,-289.7001 148.5,-289.7001"/>
<ellipse fill="none" stroke="#000000" cx="145.3" cy="-289.7001" rx="3.2" ry="3.2"/>
</g>
<!-- alert_for_taking_paid_leave -->
<g id="node3" class="node">
<title>alert_for_taking_paid_leave</title>
<g id="a_node3"><a xlink:href="../../tables/alert_for_taking_paid_leave.html" xlink:title="alert_for_taking_paid_leave" target="_top">
<polygon fill="#ffffff" stroke="transparent" points="341.5,-448.2 341.5,-509.2 519.5,-509.2 519.5,-448.2 341.5,-448.2"/>
<polygon fill="#f5f5f5" stroke="transparent" points="341.5,-485.7 341.5,-508.7 519.5,-508.7 519.5,-485.7 341.5,-485.7"/>
<polygon fill="none" stroke="#000000" points="341.5,-485.7 341.5,-508.7 519.5,-508.7 519.5,-485.7 341.5,-485.7"/>
<text text-anchor="start" x="346.4518" y="-494.8" font-family="Helvetica,sans-Serif" font-weight="bold" font-size="11.00" fill="#000000">alert_for_taking_paid_leave</text>
<text text-anchor="start" x="485.0219" y="-493.8" font-family="Helvetica,sans-Serif" font-size="11.00" fill="#000000">[table]</text>
<polygon fill="none" stroke="#000000" points="341.5,-466.7 341.5,-485.7 519.5,-485.7 519.5,-466.7 341.5,-466.7"/>
<text text-anchor="start" x="344.5" y="-472.8" font-family="Helvetica,sans-Serif" font-size="11.00" fill="#000000">...</text>
<polygon fill="#ffffff" stroke="transparent" points="341.5,-447.7 341.5,-466.7 418.5,-466.7 418.5,-447.7 341.5,-447.7"/>
<polygon fill="none" stroke="#000000" points="341.5,-447.7 341.5,-466.7 418.5,-466.7 418.5,-447.7 341.5,-447.7"/>
<text text-anchor="start" x="344.5" y="-453.8" font-family="Helvetica,sans-Serif" font-size="11.00" fill="#000000">&lt; 1</text>
<polygon fill="#ffffff" stroke="transparent" points="418.5,-447.7 418.5,-466.7 478.5,-466.7 478.5,-447.7 418.5,-447.7"/>
<polygon fill="none" stroke="#000000" points="418.5,-447.7 418.5,-466.7 478.5,-466.7 478.5,-447.7 418.5,-447.7"/>
<text text-anchor="start" x="448.6105" y="-453.8" font-family="Helvetica,sans-Serif" font-size="11.00" fill="#000000">1 row</text>
<polygon fill="#ffffff" stroke="transparent" points="478.5,-447.7 478.5,-466.7 519.5,-466.7 519.5,-447.7 478.5,-447.7"/>
<polygon fill="none" stroke="#000000" points="478.5,-447.7 478.5,-466.7 519.5,-466.7 519.5,-447.7 478.5,-447.7"/>
<text text-anchor="start" x="510.3862" y="-453.8" font-family="Helvetica,sans-Serif" font-size="11.00" fill="#000000"> &#160;</text>
</a>
</g>
</g>
<!-- alert_for_taking_paid_leave&#45;&gt;user -->
<g id="edge2" class="edge">
<title>alert_for_taking_paid_leave:w&#45;&gt;user:e</title>
<path fill="none" stroke="#000000" d="M330.8563,-474.4742C272.2103,-459.4667 351.7692,-311.7 277.5,-311.7"/>
<polygon fill="#000000" stroke="#000000" points="341.1629,-471.6347 340.2476,-479.5822 338.6581,-479.3991 339.5734,-471.4517 341.1629,-471.6347"/>
<polyline fill="none" stroke="#000000" points="341.5,-475.7 337.5263,-475.2423 "/>
<ellipse fill="none" stroke="#000000" cx="334.3473" cy="-474.8762" rx="3.2" ry="3.2"/>
</g>
<!-- leave_period -->
<g id="node4" class="node">
<title>leave_period</title>
<g id="a_node4"><a xlink:href="../../tables/leave_period.html" xlink:title="leave_period" target="_top">
<polygon fill="#ffffff" stroke="transparent" points="378,-366.2 378,-427.2 483,-427.2 483,-366.2 378,-366.2"/>
<polygon fill="#f5f5f5" stroke="transparent" points="378.5,-403.7 378.5,-426.7 483.5,-426.7 483.5,-403.7 378.5,-403.7"/>
<polygon fill="none" stroke="#000000" points="378.5,-403.7 378.5,-426.7 483.5,-426.7 483.5,-403.7 378.5,-403.7"/>
<text text-anchor="start" x="383.0186" y="-412.8" font-family="Helvetica,sans-Serif" font-weight="bold" font-size="11.00" fill="#000000">leave_period</text>
<text text-anchor="start" x="449.0219" y="-411.8" font-family="Helvetica,sans-Serif" font-size="11.00" fill="#000000">[table]</text>
<polygon fill="none" stroke="#000000" points="378.5,-384.7 378.5,-403.7 483.5,-403.7 483.5,-384.7 378.5,-384.7"/>
<text text-anchor="start" x="381.5" y="-390.8" font-family="Helvetica,sans-Serif" font-size="11.00" fill="#000000">...</text>
<polygon fill="#ffffff" stroke="transparent" points="378.5,-365.7 378.5,-384.7 416.5,-384.7 416.5,-365.7 378.5,-365.7"/>
<polygon fill="none" stroke="#000000" points="378.5,-365.7 378.5,-384.7 416.5,-384.7 416.5,-365.7 378.5,-365.7"/>
<text text-anchor="start" x="381.5" y="-371.8" font-family="Helvetica,sans-Serif" font-size="11.00" fill="#000000">&lt; 1</text>
<polygon fill="#ffffff" stroke="transparent" points="416.5,-365.7 416.5,-384.7 462.5,-384.7 462.5,-365.7 416.5,-365.7"/>
<polygon fill="none" stroke="#000000" points="416.5,-365.7 416.5,-384.7 462.5,-384.7 462.5,-365.7 416.5,-365.7"/>
<text text-anchor="start" x="427.1105" y="-371.8" font-family="Helvetica,sans-Serif" font-size="11.00" fill="#000000">0 rows</text>
<polygon fill="#ffffff" stroke="transparent" points="462.5,-365.7 462.5,-384.7 483.5,-384.7 483.5,-365.7 462.5,-365.7"/>
<polygon fill="none" stroke="#000000" points="462.5,-365.7 462.5,-384.7 483.5,-384.7 483.5,-365.7 462.5,-365.7"/>
<text text-anchor="start" x="474.3862" y="-371.8" font-family="Helvetica,sans-Serif" font-size="11.00" fill="#000000"> &#160;</text>
</a>
</g>
</g>
<!-- leave_period&#45;&gt;user -->
<g id="edge3" class="edge">
<title>leave_period:w&#45;&gt;user:e</title>
<path fill="none" stroke="#000000" d="M364.0389,-392.1417C344.6027,-387.3985 338.1209,-372.4358 318,-355.7 297.566,-338.7038 304.0786,-311.7 277.5,-311.7"/>
<polygon fill="#000000" stroke="#000000" points="370.546,-392.8428 378.1143,-397.2793 374.523,-393.2714 378.5,-393.7 378.5,-393.7 378.5,-393.7 374.523,-393.2714 378.8857,-390.1207 370.546,-392.8428 370.546,-392.8428"/>
<ellipse fill="none" stroke="#000000" cx="367.3645" cy="-392.5" rx="3.2" ry="3.2"/>
</g>
<!-- manager -->
<g id="node5" class="node">
<title>manager</title>
<g id="a_node5"><a xlink:href="../../tables/manager.html" xlink:title="manager" target="_top">
<polygon fill="#ffffff" stroke="transparent" points="387.5,-284.2 387.5,-345.2 473.5,-345.2 473.5,-284.2 387.5,-284.2"/>
<polygon fill="#f5f5f5" stroke="transparent" points="387.5,-321.7 387.5,-344.7 473.5,-344.7 473.5,-321.7 387.5,-321.7"/>
<polygon fill="none" stroke="#000000" points="387.5,-321.7 387.5,-344.7 473.5,-344.7 473.5,-321.7 387.5,-321.7"/>
<text text-anchor="start" x="392.3009" y="-330.8" font-family="Helvetica,sans-Serif" font-weight="bold" font-size="11.00" fill="#000000">manager</text>
<text text-anchor="start" x="439.0219" y="-329.8" font-family="Helvetica,sans-Serif" font-size="11.00" fill="#000000">[table]</text>
<polygon fill="none" stroke="#000000" points="387.5,-302.7 387.5,-321.7 473.5,-321.7 473.5,-302.7 387.5,-302.7"/>
<text text-anchor="start" x="390.5" y="-308.8" font-family="Helvetica,sans-Serif" font-size="11.00" fill="#000000">...</text>
<polygon fill="#ffffff" stroke="transparent" points="387.5,-283.7 387.5,-302.7 415.5,-302.7 415.5,-283.7 387.5,-283.7"/>
<polygon fill="none" stroke="#000000" points="387.5,-283.7 387.5,-302.7 415.5,-302.7 415.5,-283.7 387.5,-283.7"/>
<text text-anchor="start" x="390.5" y="-289.8" font-family="Helvetica,sans-Serif" font-size="11.00" fill="#000000">&lt; 2</text>
<polygon fill="#ffffff" stroke="transparent" points="415.5,-283.7 415.5,-302.7 457.5,-302.7 457.5,-283.7 415.5,-283.7"/>
<polygon fill="none" stroke="#000000" points="415.5,-283.7 415.5,-302.7 457.5,-302.7 457.5,-283.7 415.5,-283.7"/>
<text text-anchor="start" x="422.1105" y="-289.8" font-family="Helvetica,sans-Serif" font-size="11.00" fill="#000000">0 rows</text>
<polygon fill="#ffffff" stroke="transparent" points="457.5,-283.7 457.5,-302.7 473.5,-302.7 473.5,-283.7 457.5,-283.7"/>
<polygon fill="none" stroke="#000000" points="457.5,-283.7 457.5,-302.7 473.5,-302.7 473.5,-283.7 457.5,-283.7"/>
<text text-anchor="start" x="464.3862" y="-289.8" font-family="Helvetica,sans-Serif" font-size="11.00" fill="#000000"> &#160;</text>
</a>
</g>
</g>
<!-- manager&#45;&gt;user -->
<g id="edge4" class="edge">
<title>manager:w&#45;&gt;user:e</title>
<path fill="none" stroke="#000000" d="M372.6783,-311.7C335.4989,-311.7 321.0417,-311.7 277.5,-311.7"/>
<polygon fill="#000000" stroke="#000000" points="379.5,-311.7001 387.5,-315.3 383.5,-311.7 387.5,-311.7 387.5,-311.7 387.5,-311.7 383.5,-311.7 387.5,-308.1 379.5,-311.7001 379.5,-311.7001"/>
<ellipse fill="none" stroke="#000000" cx="376.3" cy="-311.7001" rx="3.2" ry="3.2"/>
</g>
<!-- member -->
<g id="node6" class="node">
<title>member</title>
<g id="a_node6"><a xlink:href="../../tables/member.html" xlink:title="member" target="_top">
<polygon fill="#ffffff" stroke="transparent" points="389,-202.2 389,-263.2 472,-263.2 472,-202.2 389,-202.2"/>
<polygon fill="#f5f5f5" stroke="transparent" points="389.5,-239.7 389.5,-262.7 472.5,-262.7 472.5,-239.7 389.5,-239.7"/>
<polygon fill="none" stroke="#000000" points="389.5,-239.7 389.5,-262.7 472.5,-262.7 472.5,-239.7 389.5,-239.7"/>
<text text-anchor="start" x="394.3348" y="-248.8" font-family="Helvetica,sans-Serif" font-weight="bold" font-size="11.00" fill="#000000">member</text>
<text text-anchor="start" x="438.0219" y="-247.8" font-family="Helvetica,sans-Serif" font-size="11.00" fill="#000000">[table]</text>
<polygon fill="none" stroke="#000000" points="389.5,-220.7 389.5,-239.7 472.5,-239.7 472.5,-220.7 389.5,-220.7"/>
<text text-anchor="start" x="392.5" y="-226.8" font-family="Helvetica,sans-Serif" font-size="11.00" fill="#000000">...</text>
<polygon fill="#ffffff" stroke="transparent" points="389.5,-201.7 389.5,-220.7 416.5,-220.7 416.5,-201.7 389.5,-201.7"/>
<polygon fill="none" stroke="#000000" points="389.5,-201.7 389.5,-220.7 416.5,-220.7 416.5,-201.7 389.5,-201.7"/>
<text text-anchor="start" x="392.5" y="-207.8" font-family="Helvetica,sans-Serif" font-size="11.00" fill="#000000">&lt; 2</text>
<polygon fill="#ffffff" stroke="transparent" points="416.5,-201.7 416.5,-220.7 457.5,-220.7 457.5,-201.7 416.5,-201.7"/>
<polygon fill="none" stroke="#000000" points="416.5,-201.7 416.5,-220.7 457.5,-220.7 457.5,-201.7 416.5,-201.7"/>
<text text-anchor="start" x="422.1105" y="-207.8" font-family="Helvetica,sans-Serif" font-size="11.00" fill="#000000">0 rows</text>
<polygon fill="#ffffff" stroke="transparent" points="457.5,-201.7 457.5,-220.7 472.5,-220.7 472.5,-201.7 457.5,-201.7"/>
<polygon fill="none" stroke="#000000" points="457.5,-201.7 457.5,-220.7 472.5,-220.7 472.5,-201.7 457.5,-201.7"/>
<text text-anchor="start" x="463.3862" y="-207.8" font-family="Helvetica,sans-Serif" font-size="11.00" fill="#000000"> &#160;</text>
</a>
</g>
</g>
<!-- member&#45;&gt;user -->
<g id="edge5" class="edge">
<title>member:w&#45;&gt;user:e</title>
<path fill="none" stroke="#000000" d="M374.861,-231.0452C350.2856,-236.0647 343.2447,-254.4048 318,-273.7 298.3896,-288.6888 302.1827,-311.7 277.5,-311.7"/>
<polygon fill="#000000" stroke="#000000" points="381.5336,-230.4321 389.8294,-233.2849 385.5168,-230.066 389.5,-229.7 389.5,-229.7 389.5,-229.7 385.5168,-230.066 389.1706,-226.1151 381.5336,-230.4321 381.5336,-230.4321"/>
<ellipse fill="none" stroke="#000000" cx="378.347" cy="-230.7249" rx="3.2" ry="3.2"/>
</g>
<!-- paid_leave_grant_history -->
<g id="node7" class="node">
<title>paid_leave_grant_history</title>
<g id="a_node7"><a xlink:href="../../tables/paid_leave_grant_history.html" xlink:title="paid_leave_grant_history" target="_top">
<polygon fill="#ffffff" stroke="transparent" points="348,-120.2 348,-181.2 513,-181.2 513,-120.2 348,-120.2"/>
<polygon fill="#f5f5f5" stroke="transparent" points="348.5,-157.7 348.5,-180.7 513.5,-180.7 513.5,-157.7 348.5,-157.7"/>
<polygon fill="none" stroke="#000000" points="348.5,-157.7 348.5,-180.7 513.5,-180.7 513.5,-157.7 348.5,-157.7"/>
<text text-anchor="start" x="353.0656" y="-166.8" font-family="Helvetica,sans-Serif" font-weight="bold" font-size="11.00" fill="#000000">paid_leave_grant_history</text>
<text text-anchor="start" x="479.0219" y="-165.8" font-family="Helvetica,sans-Serif" font-size="11.00" fill="#000000">[table]</text>
<polygon fill="none" stroke="#000000" points="348.5,-138.7 348.5,-157.7 513.5,-157.7 513.5,-138.7 348.5,-138.7"/>
<text text-anchor="start" x="351.5" y="-144.8" font-family="Helvetica,sans-Serif" font-size="11.00" fill="#000000">...</text>
<polygon fill="#ffffff" stroke="transparent" points="348.5,-119.7 348.5,-138.7 416.5,-138.7 416.5,-119.7 348.5,-119.7"/>
<polygon fill="none" stroke="#000000" points="348.5,-119.7 348.5,-138.7 416.5,-138.7 416.5,-119.7 348.5,-119.7"/>
<text text-anchor="start" x="351.5" y="-125.8" font-family="Helvetica,sans-Serif" font-size="11.00" fill="#000000">&lt; 2</text>
<polygon fill="#ffffff" stroke="transparent" points="416.5,-119.7 416.5,-138.7 477.5,-138.7 477.5,-119.7 416.5,-119.7"/>
<polygon fill="none" stroke="#000000" points="416.5,-119.7 416.5,-138.7 477.5,-138.7 477.5,-119.7 416.5,-119.7"/>
<text text-anchor="start" x="442.1105" y="-125.8" font-family="Helvetica,sans-Serif" font-size="11.00" fill="#000000">0 rows</text>
<polygon fill="#ffffff" stroke="transparent" points="477.5,-119.7 477.5,-138.7 513.5,-138.7 513.5,-119.7 477.5,-119.7"/>
<polygon fill="none" stroke="#000000" points="477.5,-119.7 477.5,-138.7 513.5,-138.7 513.5,-119.7 477.5,-119.7"/>
<text text-anchor="start" x="504.3862" y="-125.8" font-family="Helvetica,sans-Serif" font-size="11.00" fill="#000000"> &#160;</text>
</a>
</g>
</g>
<!-- paid_leave_grant_history&#45;&gt;user -->
<g id="edge6" class="edge">
<title>paid_leave_grant_history:w&#45;&gt;user:e</title>
<path fill="none" stroke="#000000" d="M334.1107,-150.0184C280.6009,-169.9517 351.3417,-311.7 277.5,-311.7"/>
<polygon fill="#000000" stroke="#000000" points="340.6019,-148.9726 349.0727,-151.2542 344.5509,-148.3363 348.5,-147.7 348.5,-147.7 348.5,-147.7 344.5509,-148.3363 347.9273,-144.1458 340.6019,-148.9726 340.6019,-148.9726"/>
<ellipse fill="none" stroke="#000000" cx="337.4426" cy="-149.4816" rx="3.2" ry="3.2"/>
</g>
<!-- user_rule -->
<g id="node9" class="node">
<title>user_rule</title>
<g id="a_node9"><a xlink:href="../../tables/user_rule.html" xlink:title="user_rule" target="_top">
<polygon fill="#ffffff" stroke="transparent" points="386.5,-38.2 386.5,-99.2 474.5,-99.2 474.5,-38.2 386.5,-38.2"/>
<polygon fill="#f5f5f5" stroke="transparent" points="386.5,-75.7 386.5,-98.7 474.5,-98.7 474.5,-75.7 386.5,-75.7"/>
<polygon fill="none" stroke="#000000" points="386.5,-75.7 386.5,-98.7 474.5,-98.7 474.5,-75.7 386.5,-75.7"/>
<text text-anchor="start" x="391.0804" y="-84.8" font-family="Helvetica,sans-Serif" font-weight="bold" font-size="11.00" fill="#000000">user_rule</text>
<text text-anchor="start" x="440.0219" y="-83.8" font-family="Helvetica,sans-Serif" font-size="11.00" fill="#000000">[table]</text>
<polygon fill="none" stroke="#000000" points="386.5,-56.7 386.5,-75.7 474.5,-75.7 474.5,-56.7 386.5,-56.7"/>
<text text-anchor="start" x="389.5" y="-62.8" font-family="Helvetica,sans-Serif" font-size="11.00" fill="#000000">...</text>
<polygon fill="#ffffff" stroke="transparent" points="386.5,-37.7 386.5,-56.7 415.5,-56.7 415.5,-37.7 386.5,-37.7"/>
<polygon fill="none" stroke="#000000" points="386.5,-37.7 386.5,-56.7 415.5,-56.7 415.5,-37.7 386.5,-37.7"/>
<text text-anchor="start" x="389.5" y="-43.8" font-family="Helvetica,sans-Serif" font-size="11.00" fill="#000000">&lt; 2</text>
<polygon fill="#ffffff" stroke="transparent" points="415.5,-37.7 415.5,-56.7 457.5,-56.7 457.5,-37.7 415.5,-37.7"/>
<polygon fill="none" stroke="#000000" points="415.5,-37.7 415.5,-56.7 457.5,-56.7 457.5,-37.7 415.5,-37.7"/>
<text text-anchor="start" x="422.1105" y="-43.8" font-family="Helvetica,sans-Serif" font-size="11.00" fill="#000000">2 rows</text>
<polygon fill="#ffffff" stroke="transparent" points="457.5,-37.7 457.5,-56.7 474.5,-56.7 474.5,-37.7 457.5,-37.7"/>
<polygon fill="none" stroke="#000000" points="457.5,-37.7 457.5,-56.7 474.5,-56.7 474.5,-37.7 457.5,-37.7"/>
<text text-anchor="start" x="465.3862" y="-43.8" font-family="Helvetica,sans-Serif" font-size="11.00" fill="#000000"> &#160;</text>
</a>
</g>
</g>
<!-- user_rule&#45;&gt;user -->
<g id="edge8" class="edge">
<title>user_rule:w&#45;&gt;user:e</title>
<path fill="none" stroke="#000000" d="M375.8225,-66.1729C347.7074,-68.8523 336.2455,-82.9647 318,-109.7 266.3858,-185.3308 369.0645,-311.7 277.5,-311.7"/>
<polygon fill="#000000" stroke="#000000" points="385.5238,-61.7393 385.8778,-69.7315 384.2794,-69.8023 383.9253,-61.8101 385.5238,-61.7393"/>
<polyline fill="none" stroke="#000000" points="386.5,-65.7 382.5039,-65.877 "/>
<ellipse fill="none" stroke="#000000" cx="379.3071" cy="-66.0186" rx="3.2" ry="3.2"/>
</g>
</g>
</svg>
