<?xml version="1.0" encoding="UTF-8" standalone="no"?>
<!DOCTYPE svg PUBLIC "-//W3C//DTD SVG 1.1//EN"
 "http://www.w3.org/Graphics/SVG/1.1/DTD/svg11.dtd">
<!-- Generated by graphviz version 2.40.1 (20161225.0304)
 -->
<!-- Title: oneDegreeRelationshipsDiagram Pages: 1 -->
<svg width="464pt" height="206pt"
 viewBox="0.00 0.00 464.00 206.20" xmlns="http://www.w3.org/2000/svg" xmlns:xlink="http://www.w3.org/1999/xlink">
<g id="graph0" class="graph" transform="scale(1 1) rotate(0) translate(4 202.2)">
<title>oneDegreeRelationshipsDiagram</title>
<polygon fill="#ffffff" stroke="transparent" points="-4,4 -4,-202.2 460,-202.2 460,4 -4,4"/>
<text text-anchor="middle" x="72.4936" y="-7.3" font-family="Helvetica,sans-Serif" font-size="11.00" fill="#000000">Generated by SchemaSpy</text>
<!-- alert_for_taking_paid_leave -->
<g id="node1" class="node">
<title>alert_for_taking_paid_leave</title>
<g id="a_node1"><a xlink:href="../../tables/alert_for_taking_paid_leave.html" xlink:title="alert_for_taking_paid_leave" target="_top">
<polygon fill="#ffffff" stroke="transparent" points="178,-38.2 178,-194.2 448,-194.2 448,-38.2 178,-38.2"/>
<polygon fill="#f5f5f5" stroke="transparent" points="180,-169.2 180,-192.2 446,-192.2 446,-169.2 180,-169.2"/>
<polygon fill="none" stroke="#000000" points="180,-169.2 180,-192.2 446,-192.2 446,-169.2 180,-169.2"/>
<text text-anchor="start" x="185" y="-178.3" font-family="Helvetica,sans-Serif" font-weight="bold" font-size="11.00" fill="#000000">alert_for_taking_paid_leave</text>
<text text-anchor="start" x="411.0437" y="-177.3" font-family="Helvetica,sans-Serif" font-size="11.00" fill="#000000">[table]</text>
<polygon fill="none" stroke="#000000" points="180,-147.2 180,-169.2 359,-169.2 359,-147.2 180,-147.2"/>
<image xlink:href="../../images/primaryKeys.png" width="11px" height="12px" preserveAspectRatio="xMinYMin meet" x="185" y="-164.2"/>
<text text-anchor="start" x="200" y="-154.3" font-family="Helvetica,sans-Serif" font-size="11.00" fill="#000000">user_id</text>
<polygon fill="none" stroke="#000000" points="359,-147.2 359,-169.2 446,-169.2 446,-147.2 359,-147.2"/>
<text text-anchor="start" x="362" y="-154.9" font-family="Helvetica,sans-Serif" font-size="11.00" fill="#000000">int4[10]</text>
<polygon fill="none" stroke="#000000" points="180,-125.2 180,-147.2 359,-147.2 359,-125.2 180,-125.2"/>
<text text-anchor="start" x="200" y="-132.3" font-family="Helvetica,sans-Serif" font-size="11.00" fill="#000000">days</text>
<polygon fill="none" stroke="#000000" points="359,-125.2 359,-147.2 446,-147.2 446,-125.2 359,-125.2"/>
<text text-anchor="start" x="361.5437" y="-132.9" font-family="Helvetica,sans-Serif" font-size="11.00" fill="#000000">numeric[131089]</text>
<polygon fill="none" stroke="#000000" points="180,-103.2 180,-125.2 359,-125.2 359,-103.2 180,-103.2"/>
<text text-anchor="start" x="200" y="-110.3" font-family="Helvetica,sans-Serif" font-size="11.00" fill="#000000">deadline</text>
<polygon fill="none" stroke="#000000" points="359,-103.2 359,-125.2 446,-125.2 446,-103.2 359,-103.2"/>
<text text-anchor="start" x="362" y="-110.9" font-family="Helvetica,sans-Serif" font-size="11.00" fill="#000000">date[13]</text>
<polygon fill="none" stroke="#000000" points="180,-81.2 180,-103.2 359,-103.2 359,-81.2 180,-81.2"/>
<text text-anchor="start" x="200" y="-88.3" font-family="Helvetica,sans-Serif" font-size="11.00" fill="#000000">register_datetime</text>
<polygon fill="none" stroke="#000000" points="359,-81.2 359,-103.2 446,-103.2 446,-81.2 359,-81.2"/>
<text text-anchor="start" x="362" y="-88.9" font-family="Helvetica,sans-Serif" font-size="11.00" fill="#000000">timestamp[29,6]</text>
<polygon fill="none" stroke="#000000" points="180,-59.2 180,-81.2 359,-81.2 359,-59.2 180,-59.2"/>
<text text-anchor="start" x="200" y="-66.3" font-family="Helvetica,sans-Serif" font-size="11.00" fill="#000000">update_datetime</text>
<polygon fill="none" stroke="#000000" points="359,-59.2 359,-81.2 446,-81.2 446,-59.2 359,-59.2"/>
<text text-anchor="start" x="362" y="-66.9" font-family="Helvetica,sans-Serif" font-size="11.00" fill="#000000">timestamp[29,6]</text>
<polygon fill="#ffffff" stroke="transparent" points="180,-40.2 180,-59.2 264,-59.2 264,-40.2 180,-40.2"/>
<polygon fill="none" stroke="#000000" points="180,-40.2 180,-59.2 264,-59.2 264,-40.2 180,-40.2"/>
<text text-anchor="start" x="183" y="-46.3" font-family="Helvetica,sans-Serif" font-size="11.00" fill="#000000">&lt; 1</text>
<polygon fill="#ffffff" stroke="transparent" points="264,-40.2 264,-59.2 359,-59.2 359,-40.2 264,-40.2"/>
<polygon fill="none" stroke="#000000" points="264,-40.2 264,-59.2 359,-59.2 359,-40.2 264,-40.2"/>
<text text-anchor="start" x="329.1105" y="-46.3" font-family="Helvetica,sans-Serif" font-size="11.00" fill="#000000">1 row</text>
<polygon fill="#ffffff" stroke="transparent" points="359,-40.2 359,-59.2 446,-59.2 446,-40.2 359,-40.2"/>
<polygon fill="none" stroke="#000000" points="359,-40.2 359,-59.2 446,-59.2 446,-40.2 359,-40.2"/>
<text text-anchor="start" x="427.4053" y="-46.3" font-family="Helvetica,sans-Serif" font-size="11.00" fill="#000000">0 &gt;</text>
<polygon fill="none" stroke="#000000" stroke-width="2" points="179,-39.2 179,-193.2 447,-193.2 447,-39.2 179,-39.2"/>
</a>
</g>
</g>
<!-- user -->
<g id="node2" class="node">
<title>user</title>
<g id="a_node2"><a xlink:href="../../tables/user.html" xlink:title="user" target="_top">
<polygon fill="#ffffff" stroke="transparent" points="8,-87.7 8,-192.7 129,-192.7 129,-87.7 8,-87.7"/>
<polygon fill="#f5f5f5" stroke="transparent" points="8.5,-169.2 8.5,-192.2 129.5,-192.2 129.5,-169.2 8.5,-169.2"/>
<polygon fill="none" stroke="#000000" points="8.5,-169.2 8.5,-192.2 129.5,-192.2 129.5,-169.2 8.5,-169.2"/>
<text text-anchor="start" x="13.5" y="-178.3" font-family="Helvetica,sans-Serif" font-weight="bold" font-size="11.00" fill="#000000">user</text>
<text text-anchor="start" x="94.5437" y="-177.3" font-family="Helvetica,sans-Serif" font-size="11.00" fill="#000000">[table]</text>
<polygon fill="none" stroke="#000000" points="8.5,-147.2 8.5,-169.2 129.5,-169.2 129.5,-147.2 8.5,-147.2"/>
<image xlink:href="../../images/primaryKeys.png" width="11px" height="12px" preserveAspectRatio="xMinYMin meet" x="13.5" y="-164.2"/>
<text text-anchor="start" x="28.5" y="-154.3" font-family="Helvetica,sans-Serif" font-size="11.00" fill="#000000">id</text>
<polygon fill="none" stroke="#000000" points="8.5,-125.2 8.5,-147.2 129.5,-147.2 129.5,-125.2 8.5,-125.2"/>
<image xlink:href="../../images/foreignKeys.png" width="11px" height="12px" preserveAspectRatio="xMinYMin meet" x="13.5" y="-142.2"/>
<text text-anchor="start" x="28.5" y="-132.3" font-family="Helvetica,sans-Serif" font-size="11.00" fill="#000000">status</text>
<polygon fill="none" stroke="#000000" points="8.5,-106.2 8.5,-125.2 129.5,-125.2 129.5,-106.2 8.5,-106.2"/>
<text text-anchor="start" x="11.5" y="-112.3" font-family="Helvetica,sans-Serif" font-size="11.00" fill="#000000">...</text>
<polygon fill="#ffffff" stroke="transparent" points="8.5,-87.2 8.5,-106.2 49.5,-106.2 49.5,-87.2 8.5,-87.2"/>
<polygon fill="none" stroke="#000000" points="8.5,-87.2 8.5,-106.2 49.5,-106.2 49.5,-87.2 8.5,-87.2"/>
<text text-anchor="start" x="11.5" y="-93.3" font-family="Helvetica,sans-Serif" font-size="11.00" fill="#000000">&lt; 1</text>
<polygon fill="#ffffff" stroke="transparent" points="49.5,-87.2 49.5,-106.2 97.5,-106.2 97.5,-87.2 49.5,-87.2"/>
<polygon fill="none" stroke="#000000" points="49.5,-87.2 49.5,-106.2 97.5,-106.2 97.5,-87.2 49.5,-87.2"/>
<text text-anchor="start" x="62.1105" y="-93.3" font-family="Helvetica,sans-Serif" font-size="11.00" fill="#000000">3 rows</text>
<polygon fill="#ffffff" stroke="transparent" points="97.5,-87.2 97.5,-106.2 129.5,-106.2 129.5,-87.2 97.5,-87.2"/>
<polygon fill="none" stroke="#000000" points="97.5,-87.2 97.5,-106.2 129.5,-106.2 129.5,-87.2 97.5,-87.2"/>
<text text-anchor="start" x="110.9053" y="-93.3" font-family="Helvetica,sans-Serif" font-size="11.00" fill="#000000">7 &gt;</text>
</a>
</g>
</g>
<!-- alert_for_taking_paid_leave&#45;&gt;user -->
<g id="edge1" class="edge">
<title>alert_for_taking_paid_leave:w&#45;&gt;user:e</title>
<path fill="none" stroke="#000000" d="M169.3362,-158.2C154.9956,-158.2 147.9115,-158.2 129.5,-158.2"/>
<polygon fill="#000000" stroke="#000000" points="179.2,-154.2 179.2,-162.2 177.6,-162.2 177.6,-154.2 179.2,-154.2"/>
<polyline fill="none" stroke="#000000" points="180,-158.2 176,-158.2 "/>
<ellipse fill="none" stroke="#000000" cx="172.8" cy="-158.2001" rx="3.2" ry="3.2"/>
</g>
</g>
</svg>
