<?xml version="1.0" encoding="UTF-8" standalone="no"?>
<!DOCTYPE svg PUBLIC "-//W3C//DTD SVG 1.1//EN"
 "http://www.w3.org/Graphics/SVG/1.1/DTD/svg11.dtd">
<!-- Generated by graphviz version 2.40.1 (20161225.0304)
 -->
<!-- Title: twoDegreesRelationshipsDiagram Pages: 1 -->
<svg width="612pt" height="699pt"
 viewBox="0.00 0.00 612.00 699.20" xmlns="http://www.w3.org/2000/svg" xmlns:xlink="http://www.w3.org/1999/xlink">
<g id="graph0" class="graph" transform="scale(1 1) rotate(0) translate(4 695.2)">
<title>twoDegreesRelationshipsDiagram</title>
<polygon fill="#ffffff" stroke="transparent" points="-4,4 -4,-695.2 608,-695.2 608,4 -4,4"/>
<text text-anchor="middle" x="72.4936" y="-7.3" font-family="Helvetica,sans-Serif" font-size="11.00" fill="#000000">Generated by SchemaSpy</text>
<!-- account -->
<g id="node1" class="node">
<title>account</title>
<g id="a_node1"><a xlink:href="../../tables/account.html" xlink:title="account" target="_top">
<polygon fill="#ffffff" stroke="transparent" points="420.5,-626.2 420.5,-687.2 501.5,-687.2 501.5,-626.2 420.5,-626.2"/>
<polygon fill="#f5f5f5" stroke="transparent" points="421,-663.7 421,-686.7 502,-686.7 502,-663.7 421,-663.7"/>
<polygon fill="none" stroke="#000000" points="421,-663.7 421,-686.7 502,-686.7 502,-663.7 421,-663.7"/>
<text text-anchor="start" x="425.7418" y="-672.8" font-family="Helvetica,sans-Serif" font-weight="bold" font-size="11.00" fill="#000000">account</text>
<text text-anchor="start" x="467.5219" y="-671.8" font-family="Helvetica,sans-Serif" font-size="11.00" fill="#000000">[table]</text>
<polygon fill="none" stroke="#000000" points="421,-644.7 421,-663.7 502,-663.7 502,-644.7 421,-644.7"/>
<text text-anchor="start" x="424" y="-650.8" font-family="Helvetica,sans-Serif" font-size="11.00" fill="#000000">...</text>
<polygon fill="#ffffff" stroke="transparent" points="421,-625.7 421,-644.7 447,-644.7 447,-625.7 421,-625.7"/>
<polygon fill="none" stroke="#000000" points="421,-625.7 421,-644.7 447,-644.7 447,-625.7 421,-625.7"/>
<text text-anchor="start" x="424" y="-631.8" font-family="Helvetica,sans-Serif" font-size="11.00" fill="#000000">&lt; 1</text>
<polygon fill="#ffffff" stroke="transparent" points="447,-625.7 447,-644.7 487,-644.7 487,-625.7 447,-625.7"/>
<polygon fill="none" stroke="#000000" points="447,-625.7 447,-644.7 487,-644.7 487,-625.7 447,-625.7"/>
<text text-anchor="start" x="451.6105" y="-631.8" font-family="Helvetica,sans-Serif" font-size="11.00" fill="#000000">3 rows</text>
<polygon fill="#ffffff" stroke="transparent" points="487,-625.7 487,-644.7 502,-644.7 502,-625.7 487,-625.7"/>
<polygon fill="none" stroke="#000000" points="487,-625.7 487,-644.7 502,-644.7 502,-625.7 487,-625.7"/>
<text text-anchor="start" x="492.8862" y="-631.8" font-family="Helvetica,sans-Serif" font-size="11.00" fill="#000000"> &#160;</text>
</a>
</g>
</g>
<!-- user -->
<g id="node2" class="node">
<title>user</title>
<g id="a_node2"><a xlink:href="../../tables/user.html" xlink:title="user" target="_top">
<polygon fill="#ffffff" stroke="transparent" points="156,-241.2 156,-346.2 277,-346.2 277,-241.2 156,-241.2"/>
<polygon fill="#f5f5f5" stroke="transparent" points="156.5,-322.7 156.5,-345.7 277.5,-345.7 277.5,-322.7 156.5,-322.7"/>
<polygon fill="none" stroke="#000000" points="156.5,-322.7 156.5,-345.7 277.5,-345.7 277.5,-322.7 156.5,-322.7"/>
<text text-anchor="start" x="161.5" y="-331.8" font-family="Helvetica,sans-Serif" font-weight="bold" font-size="11.00" fill="#000000">user</text>
<text text-anchor="start" x="242.5437" y="-330.8" font-family="Helvetica,sans-Serif" font-size="11.00" fill="#000000">[table]</text>
<polygon fill="none" stroke="#000000" points="156.5,-300.7 156.5,-322.7 277.5,-322.7 277.5,-300.7 156.5,-300.7"/>
<image xlink:href="../../images/primaryKeys.png" width="11px" height="12px" preserveAspectRatio="xMinYMin meet" x="161.5" y="-317.7"/>
<text text-anchor="start" x="176.5" y="-307.8" font-family="Helvetica,sans-Serif" font-size="11.00" fill="#000000">id</text>
<polygon fill="none" stroke="#000000" points="156.5,-278.7 156.5,-300.7 277.5,-300.7 277.5,-278.7 156.5,-278.7"/>
<image xlink:href="../../images/foreignKeys.png" width="11px" height="12px" preserveAspectRatio="xMinYMin meet" x="161.5" y="-295.7"/>
<text text-anchor="start" x="176.5" y="-285.8" font-family="Helvetica,sans-Serif" font-size="11.00" fill="#000000">status</text>
<polygon fill="none" stroke="#000000" points="156.5,-259.7 156.5,-278.7 277.5,-278.7 277.5,-259.7 156.5,-259.7"/>
<text text-anchor="start" x="159.5" y="-265.8" font-family="Helvetica,sans-Serif" font-size="11.00" fill="#000000">...</text>
<polygon fill="#ffffff" stroke="transparent" points="156.5,-240.7 156.5,-259.7 197.5,-259.7 197.5,-240.7 156.5,-240.7"/>
<polygon fill="none" stroke="#000000" points="156.5,-240.7 156.5,-259.7 197.5,-259.7 197.5,-240.7 156.5,-240.7"/>
<text text-anchor="start" x="159.5" y="-246.8" font-family="Helvetica,sans-Serif" font-size="11.00" fill="#000000">&lt; 1</text>
<polygon fill="#ffffff" stroke="transparent" points="197.5,-240.7 197.5,-259.7 245.5,-259.7 245.5,-240.7 197.5,-240.7"/>
<polygon fill="none" stroke="#000000" points="197.5,-240.7 197.5,-259.7 245.5,-259.7 245.5,-240.7 197.5,-240.7"/>
<text text-anchor="start" x="210.1105" y="-246.8" font-family="Helvetica,sans-Serif" font-size="11.00" fill="#000000">3 rows</text>
<polygon fill="#ffffff" stroke="transparent" points="245.5,-240.7 245.5,-259.7 277.5,-259.7 277.5,-240.7 245.5,-240.7"/>
<polygon fill="none" stroke="#000000" points="245.5,-240.7 245.5,-259.7 277.5,-259.7 277.5,-240.7 245.5,-240.7"/>
<text text-anchor="start" x="258.9053" y="-246.8" font-family="Helvetica,sans-Serif" font-size="11.00" fill="#000000">7 &gt;</text>
</a>
</g>
</g>
<!-- account&#45;&gt;user -->
<g id="edge1" class="edge">
<title>account:w&#45;&gt;user:e</title>
<path fill="none" stroke="#000000" d="M410.5371,-653.6859C368.6481,-653.504 346.2246,-650.9693 318,-615.7 275.4171,-562.4887 345.6524,-311.7 277.5,-311.7"/>
<polygon fill="#000000" stroke="#000000" points="420.2054,-649.6989 420.1946,-657.6989 418.5946,-657.6967 418.6054,-649.6968 420.2054,-649.6989"/>
<polyline fill="none" stroke="#000000" points="421,-653.7 417,-653.6946 "/>
<ellipse fill="none" stroke="#000000" cx="413.8" cy="-653.6903" rx="3.2" ry="3.2"/>
</g>
<!-- user_status -->
<g id="node8" class="node">
<title>user_status</title>
<g id="a_node8"><a xlink:href="../../tables/user_status.html" xlink:title="user_status" target="_top">
<polygon fill="#ffffff" stroke="transparent" points="8,-262.2 8,-323.2 107,-323.2 107,-262.2 8,-262.2"/>
<polygon fill="#f5f5f5" stroke="transparent" points="8.5,-299.7 8.5,-322.7 107.5,-322.7 107.5,-299.7 8.5,-299.7"/>
<polygon fill="none" stroke="#000000" points="8.5,-299.7 8.5,-322.7 107.5,-322.7 107.5,-299.7 8.5,-299.7"/>
<text text-anchor="start" x="13.0749" y="-308.8" font-family="Helvetica,sans-Serif" font-weight="bold" font-size="11.00" fill="#000000">user_status</text>
<text text-anchor="start" x="73.0219" y="-307.8" font-family="Helvetica,sans-Serif" font-size="11.00" fill="#000000">[table]</text>
<polygon fill="none" stroke="#000000" points="8.5,-280.7 8.5,-299.7 107.5,-299.7 107.5,-280.7 8.5,-280.7"/>
<text text-anchor="start" x="11.5" y="-286.8" font-family="Helvetica,sans-Serif" font-size="11.00" fill="#000000">...</text>
<polygon fill="#ffffff" stroke="transparent" points="8.5,-261.7 8.5,-280.7 34.5,-280.7 34.5,-261.7 8.5,-261.7"/>
<polygon fill="none" stroke="#000000" points="8.5,-261.7 8.5,-280.7 34.5,-280.7 34.5,-261.7 8.5,-261.7"/>
<text text-anchor="start" x="11.5" y="-267.8" font-family="Helvetica,sans-Serif" font-size="11.00" fill="#000000"> &#160;</text>
<polygon fill="#ffffff" stroke="transparent" points="34.5,-261.7 34.5,-280.7 79.5,-280.7 79.5,-261.7 34.5,-261.7"/>
<polygon fill="none" stroke="#000000" points="34.5,-261.7 34.5,-280.7 79.5,-280.7 79.5,-261.7 34.5,-261.7"/>
<text text-anchor="start" x="44.1105" y="-267.8" font-family="Helvetica,sans-Serif" font-size="11.00" fill="#000000">3 rows</text>
<polygon fill="#ffffff" stroke="transparent" points="79.5,-261.7 79.5,-280.7 107.5,-280.7 107.5,-261.7 79.5,-261.7"/>
<polygon fill="none" stroke="#000000" points="79.5,-261.7 79.5,-280.7 107.5,-280.7 107.5,-261.7 79.5,-261.7"/>
<text text-anchor="start" x="88.9053" y="-267.8" font-family="Helvetica,sans-Serif" font-size="11.00" fill="#000000">1 &gt;</text>
</a>
</g>
</g>
<!-- user&#45;&gt;user_status -->
<g id="edge7" class="edge">
<title>user:w&#45;&gt;user_status:e</title>
<path fill="none" stroke="#000000" d="M141.9909,-289.7C130.6774,-289.7 123.4931,-289.7 107.5,-289.7"/>
<polygon fill="#000000" stroke="#000000" points="148.5,-289.7001 156.5,-293.3 152.5,-289.7 156.5,-289.7 156.5,-289.7 156.5,-289.7 152.5,-289.7 156.5,-286.1 148.5,-289.7001 148.5,-289.7001"/>
<ellipse fill="none" stroke="#000000" cx="145.3" cy="-289.7001" rx="3.2" ry="3.2"/>
</g>
<!-- alert_for_taking_paid_leave -->
<g id="node3" class="node">
<title>alert_for_taking_paid_leave</title>
<g id="a_node3"><a xlink:href="../../tables/alert_for_taking_paid_leave.html" xlink:title="alert_for_taking_paid_leave" target="_top">
<polygon fill="#ffffff" stroke="transparent" points="326,-448.7 326,-604.7 596,-604.7 596,-448.7 326,-448.7"/>
<polygon fill="#f5f5f5" stroke="transparent" points="328,-579.7 328,-602.7 594,-602.7 594,-579.7 328,-579.7"/>
<polygon fill="none" stroke="#000000" points="328,-579.7 328,-602.7 594,-602.7 594,-579.7 328,-579.7"/>
<text text-anchor="start" x="333" y="-588.8" font-family="Helvetica,sans-Serif" font-weight="bold" font-size="11.00" fill="#000000">alert_for_taking_paid_leave</text>
<text text-anchor="start" x="559.0437" y="-587.8" font-family="Helvetica,sans-Serif" font-size="11.00" fill="#000000">[table]</text>
<polygon fill="none" stroke="#000000" points="328,-557.7 328,-579.7 507,-579.7 507,-557.7 328,-557.7"/>
<image xlink:href="../../images/primaryKeys.png" width="11px" height="12px" preserveAspectRatio="xMinYMin meet" x="333" y="-574.7"/>
<text text-anchor="start" x="348" y="-564.8" font-family="Helvetica,sans-Serif" font-size="11.00" fill="#000000">user_id</text>
<polygon fill="none" stroke="#000000" points="507,-557.7 507,-579.7 594,-579.7 594,-557.7 507,-557.7"/>
<text text-anchor="start" x="510" y="-565.4" font-family="Helvetica,sans-Serif" font-size="11.00" fill="#000000">int4[10]</text>
<polygon fill="none" stroke="#000000" points="328,-535.7 328,-557.7 507,-557.7 507,-535.7 328,-535.7"/>
<text text-anchor="start" x="348" y="-542.8" font-family="Helvetica,sans-Serif" font-size="11.00" fill="#000000">days</text>
<polygon fill="none" stroke="#000000" points="507,-535.7 507,-557.7 594,-557.7 594,-535.7 507,-535.7"/>
<text text-anchor="start" x="509.5437" y="-543.4" font-family="Helvetica,sans-Serif" font-size="11.00" fill="#000000">numeric[131089]</text>
<polygon fill="none" stroke="#000000" points="328,-513.7 328,-535.7 507,-535.7 507,-513.7 328,-513.7"/>
<text text-anchor="start" x="348" y="-520.8" font-family="Helvetica,sans-Serif" font-size="11.00" fill="#000000">deadline</text>
<polygon fill="none" stroke="#000000" points="507,-513.7 507,-535.7 594,-535.7 594,-513.7 507,-513.7"/>
<text text-anchor="start" x="510" y="-521.4" font-family="Helvetica,sans-Serif" font-size="11.00" fill="#000000">date[13]</text>
<polygon fill="none" stroke="#000000" points="328,-491.7 328,-513.7 507,-513.7 507,-491.7 328,-491.7"/>
<text text-anchor="start" x="348" y="-498.8" font-family="Helvetica,sans-Serif" font-size="11.00" fill="#000000">register_datetime</text>
<polygon fill="none" stroke="#000000" points="507,-491.7 507,-513.7 594,-513.7 594,-491.7 507,-491.7"/>
<text text-anchor="start" x="510" y="-499.4" font-family="Helvetica,sans-Serif" font-size="11.00" fill="#000000">timestamp[29,6]</text>
<polygon fill="none" stroke="#000000" points="328,-469.7 328,-491.7 507,-491.7 507,-469.7 328,-469.7"/>
<text text-anchor="start" x="348" y="-476.8" font-family="Helvetica,sans-Serif" font-size="11.00" fill="#000000">update_datetime</text>
<polygon fill="none" stroke="#000000" points="507,-469.7 507,-491.7 594,-491.7 594,-469.7 507,-469.7"/>
<text text-anchor="start" x="510" y="-477.4" font-family="Helvetica,sans-Serif" font-size="11.00" fill="#000000">timestamp[29,6]</text>
<polygon fill="#ffffff" stroke="transparent" points="328,-450.7 328,-469.7 412,-469.7 412,-450.7 328,-450.7"/>
<polygon fill="none" stroke="#000000" points="328,-450.7 328,-469.7 412,-469.7 412,-450.7 328,-450.7"/>
<text text-anchor="start" x="331" y="-456.8" font-family="Helvetica,sans-Serif" font-size="11.00" fill="#000000">&lt; 1</text>
<polygon fill="#ffffff" stroke="transparent" points="412,-450.7 412,-469.7 507,-469.7 507,-450.7 412,-450.7"/>
<polygon fill="none" stroke="#000000" points="412,-450.7 412,-469.7 507,-469.7 507,-450.7 412,-450.7"/>
<text text-anchor="start" x="477.1105" y="-456.8" font-family="Helvetica,sans-Serif" font-size="11.00" fill="#000000">1 row</text>
<polygon fill="#ffffff" stroke="transparent" points="507,-450.7 507,-469.7 594,-469.7 594,-450.7 507,-450.7"/>
<polygon fill="none" stroke="#000000" points="507,-450.7 507,-469.7 594,-469.7 594,-450.7 507,-450.7"/>
<text text-anchor="start" x="575.4053" y="-456.8" font-family="Helvetica,sans-Serif" font-size="11.00" fill="#000000">0 &gt;</text>
<polygon fill="none" stroke="#000000" stroke-width="2" points="327,-449.7 327,-603.7 595,-603.7 595,-449.7 327,-449.7"/>
</a>
</g>
</g>
<!-- alert_for_taking_paid_leave&#45;&gt;user -->
<g id="edge2" class="edge">
<title>alert_for_taking_paid_leave:w&#45;&gt;user:e</title>
<path fill="none" stroke="#000000" d="M317.974,-565.4506C278.0027,-535.7005 331.8382,-311.7 277.5,-311.7"/>
<polygon fill="#000000" stroke="#000000" points="328.4722,-564.6482 326.0057,-572.2585 324.4836,-571.7652 326.9502,-564.1549 328.4722,-564.6482"/>
<polyline fill="none" stroke="#000000" points="328,-568.7 324.1949,-567.4667 "/>
<ellipse fill="none" stroke="#000000" cx="321.1507" cy="-566.4801" rx="3.2" ry="3.2"/>
</g>
<!-- leave_period -->
<g id="node4" class="node">
<title>leave_period</title>
<g id="a_node4"><a xlink:href="../../tables/leave_period.html" xlink:title="leave_period" target="_top">
<polygon fill="#ffffff" stroke="transparent" points="408.5,-366.2 408.5,-427.2 513.5,-427.2 513.5,-366.2 408.5,-366.2"/>
<polygon fill="#f5f5f5" stroke="transparent" points="409,-403.7 409,-426.7 514,-426.7 514,-403.7 409,-403.7"/>
<polygon fill="none" stroke="#000000" points="409,-403.7 409,-426.7 514,-426.7 514,-403.7 409,-403.7"/>
<text text-anchor="start" x="413.5186" y="-412.8" font-family="Helvetica,sans-Serif" font-weight="bold" font-size="11.00" fill="#000000">leave_period</text>
<text text-anchor="start" x="479.5219" y="-411.8" font-family="Helvetica,sans-Serif" font-size="11.00" fill="#000000">[table]</text>
<polygon fill="none" stroke="#000000" points="409,-384.7 409,-403.7 514,-403.7 514,-384.7 409,-384.7"/>
<text text-anchor="start" x="412" y="-390.8" font-family="Helvetica,sans-Serif" font-size="11.00" fill="#000000">...</text>
<polygon fill="#ffffff" stroke="transparent" points="409,-365.7 409,-384.7 447,-384.7 447,-365.7 409,-365.7"/>
<polygon fill="none" stroke="#000000" points="409,-365.7 409,-384.7 447,-384.7 447,-365.7 409,-365.7"/>
<text text-anchor="start" x="412" y="-371.8" font-family="Helvetica,sans-Serif" font-size="11.00" fill="#000000">&lt; 1</text>
<polygon fill="#ffffff" stroke="transparent" points="447,-365.7 447,-384.7 493,-384.7 493,-365.7 447,-365.7"/>
<polygon fill="none" stroke="#000000" points="447,-365.7 447,-384.7 493,-384.7 493,-365.7 447,-365.7"/>
<text text-anchor="start" x="457.6105" y="-371.8" font-family="Helvetica,sans-Serif" font-size="11.00" fill="#000000">0 rows</text>
<polygon fill="#ffffff" stroke="transparent" points="493,-365.7 493,-384.7 514,-384.7 514,-365.7 493,-365.7"/>
<polygon fill="none" stroke="#000000" points="493,-365.7 493,-384.7 514,-384.7 514,-365.7 493,-365.7"/>
<text text-anchor="start" x="504.8862" y="-371.8" font-family="Helvetica,sans-Serif" font-size="11.00" fill="#000000"> &#160;</text>
</a>
</g>
</g>
<!-- leave_period&#45;&gt;user -->
<g id="edge3" class="edge">
<title>leave_period:w&#45;&gt;user:e</title>
<path fill="none" stroke="#000000" d="M394.4082,-393.1357C362.079,-390.4077 349.5481,-377.8051 318,-355.7 296.233,-340.4483 304.0786,-311.7 277.5,-311.7"/>
<polygon fill="#000000" stroke="#000000" points="401.006,-393.3908 408.8609,-397.2973 405.003,-393.5454 409,-393.7 409,-393.7 409,-393.7 405.003,-393.5454 409.1391,-390.1027 401.006,-393.3908 401.006,-393.3908"/>
<ellipse fill="none" stroke="#000000" cx="397.8084" cy="-393.2671" rx="3.2" ry="3.2"/>
</g>
<!-- manager -->
<g id="node5" class="node">
<title>manager</title>
<g id="a_node5"><a xlink:href="../../tables/manager.html" xlink:title="manager" target="_top">
<polygon fill="#ffffff" stroke="transparent" points="418,-284.2 418,-345.2 504,-345.2 504,-284.2 418,-284.2"/>
<polygon fill="#f5f5f5" stroke="transparent" points="418,-321.7 418,-344.7 504,-344.7 504,-321.7 418,-321.7"/>
<polygon fill="none" stroke="#000000" points="418,-321.7 418,-344.7 504,-344.7 504,-321.7 418,-321.7"/>
<text text-anchor="start" x="422.8009" y="-330.8" font-family="Helvetica,sans-Serif" font-weight="bold" font-size="11.00" fill="#000000">manager</text>
<text text-anchor="start" x="469.5219" y="-329.8" font-family="Helvetica,sans-Serif" font-size="11.00" fill="#000000">[table]</text>
<polygon fill="none" stroke="#000000" points="418,-302.7 418,-321.7 504,-321.7 504,-302.7 418,-302.7"/>
<text text-anchor="start" x="421" y="-308.8" font-family="Helvetica,sans-Serif" font-size="11.00" fill="#000000">...</text>
<polygon fill="#ffffff" stroke="transparent" points="418,-283.7 418,-302.7 446,-302.7 446,-283.7 418,-283.7"/>
<polygon fill="none" stroke="#000000" points="418,-283.7 418,-302.7 446,-302.7 446,-283.7 418,-283.7"/>
<text text-anchor="start" x="421" y="-289.8" font-family="Helvetica,sans-Serif" font-size="11.00" fill="#000000">&lt; 2</text>
<polygon fill="#ffffff" stroke="transparent" points="446,-283.7 446,-302.7 488,-302.7 488,-283.7 446,-283.7"/>
<polygon fill="none" stroke="#000000" points="446,-283.7 446,-302.7 488,-302.7 488,-283.7 446,-283.7"/>
<text text-anchor="start" x="452.6105" y="-289.8" font-family="Helvetica,sans-Serif" font-size="11.00" fill="#000000">0 rows</text>
<polygon fill="#ffffff" stroke="transparent" points="488,-283.7 488,-302.7 504,-302.7 504,-283.7 488,-283.7"/>
<polygon fill="none" stroke="#000000" points="488,-283.7 488,-302.7 504,-302.7 504,-283.7 488,-283.7"/>
<text text-anchor="start" x="494.8862" y="-289.8" font-family="Helvetica,sans-Serif" font-size="11.00" fill="#000000"> &#160;</text>
</a>
</g>
</g>
<!-- manager&#45;&gt;user -->
<g id="edge4" class="edge">
<title>manager:w&#45;&gt;user:e</title>
<path fill="none" stroke="#000000" d="M403.5266,-311.7C352.6792,-311.7 334.822,-311.7 277.5,-311.7"/>
<polygon fill="#000000" stroke="#000000" points="410,-311.7001 418,-315.3 414,-311.7 418,-311.7 418,-311.7 418,-311.7 414,-311.7 418,-308.1 410,-311.7001 410,-311.7001"/>
<ellipse fill="none" stroke="#000000" cx="406.8" cy="-311.7001" rx="3.2" ry="3.2"/>
</g>
<!-- member -->
<g id="node6" class="node">
<title>member</title>
<g id="a_node6"><a xlink:href="../../tables/member.html" xlink:title="member" target="_top">
<polygon fill="#ffffff" stroke="transparent" points="419.5,-202.2 419.5,-263.2 502.5,-263.2 502.5,-202.2 419.5,-202.2"/>
<polygon fill="#f5f5f5" stroke="transparent" points="420,-239.7 420,-262.7 503,-262.7 503,-239.7 420,-239.7"/>
<polygon fill="none" stroke="#000000" points="420,-239.7 420,-262.7 503,-262.7 503,-239.7 420,-239.7"/>
<text text-anchor="start" x="424.8348" y="-248.8" font-family="Helvetica,sans-Serif" font-weight="bold" font-size="11.00" fill="#000000">member</text>
<text text-anchor="start" x="468.5219" y="-247.8" font-family="Helvetica,sans-Serif" font-size="11.00" fill="#000000">[table]</text>
<polygon fill="none" stroke="#000000" points="420,-220.7 420,-239.7 503,-239.7 503,-220.7 420,-220.7"/>
<text text-anchor="start" x="423" y="-226.8" font-family="Helvetica,sans-Serif" font-size="11.00" fill="#000000">...</text>
<polygon fill="#ffffff" stroke="transparent" points="420,-201.7 420,-220.7 447,-220.7 447,-201.7 420,-201.7"/>
<polygon fill="none" stroke="#000000" points="420,-201.7 420,-220.7 447,-220.7 447,-201.7 420,-201.7"/>
<text text-anchor="start" x="423" y="-207.8" font-family="Helvetica,sans-Serif" font-size="11.00" fill="#000000">&lt; 2</text>
<polygon fill="#ffffff" stroke="transparent" points="447,-201.7 447,-220.7 488,-220.7 488,-201.7 447,-201.7"/>
<polygon fill="none" stroke="#000000" points="447,-201.7 447,-220.7 488,-220.7 488,-201.7 447,-201.7"/>
<text text-anchor="start" x="452.6105" y="-207.8" font-family="Helvetica,sans-Serif" font-size="11.00" fill="#000000">0 rows</text>
<polygon fill="#ffffff" stroke="transparent" points="488,-201.7 488,-220.7 503,-220.7 503,-201.7 488,-201.7"/>
<polygon fill="none" stroke="#000000" points="488,-201.7 488,-220.7 503,-220.7 503,-201.7 488,-201.7"/>
<text text-anchor="start" x="493.8862" y="-207.8" font-family="Helvetica,sans-Serif" font-size="11.00" fill="#000000"> &#160;</text>
</a>
</g>
</g>
<!-- member&#45;&gt;user -->
<g id="edge5" class="edge">
<title>member:w&#45;&gt;user:e</title>
<path fill="none" stroke="#000000" d="M405.5679,-230.2569C367.903,-233.3833 354.9318,-249.4818 318,-273.7 297.3594,-287.2351 302.1827,-311.7 277.5,-311.7"/>
<polygon fill="#000000" stroke="#000000" points="412.0059,-230.0085 420.1388,-233.2973 416.003,-229.8543 420,-229.7 420,-229.7 420,-229.7 416.003,-229.8543 419.8612,-226.1027 412.0059,-230.0085 412.0059,-230.0085"/>
<ellipse fill="none" stroke="#000000" cx="408.8083" cy="-230.1319" rx="3.2" ry="3.2"/>
</g>
<!-- paid_leave_grant_history -->
<g id="node7" class="node">
<title>paid_leave_grant_history</title>
<g id="a_node7"><a xlink:href="../../tables/paid_leave_grant_history.html" xlink:title="paid_leave_grant_history" target="_top">
<polygon fill="#ffffff" stroke="transparent" points="378.5,-120.2 378.5,-181.2 543.5,-181.2 543.5,-120.2 378.5,-120.2"/>
<polygon fill="#f5f5f5" stroke="transparent" points="379,-157.7 379,-180.7 544,-180.7 544,-157.7 379,-157.7"/>
<polygon fill="none" stroke="#000000" points="379,-157.7 379,-180.7 544,-180.7 544,-157.7 379,-157.7"/>
<text text-anchor="start" x="383.5656" y="-166.8" font-family="Helvetica,sans-Serif" font-weight="bold" font-size="11.00" fill="#000000">paid_leave_grant_history</text>
<text text-anchor="start" x="509.5219" y="-165.8" font-family="Helvetica,sans-Serif" font-size="11.00" fill="#000000">[table]</text>
<polygon fill="none" stroke="#000000" points="379,-138.7 379,-157.7 544,-157.7 544,-138.7 379,-138.7"/>
<text text-anchor="start" x="382" y="-144.8" font-family="Helvetica,sans-Serif" font-size="11.00" fill="#000000">...</text>
<polygon fill="#ffffff" stroke="transparent" points="379,-119.7 379,-138.7 447,-138.7 447,-119.7 379,-119.7"/>
<polygon fill="none" stroke="#000000" points="379,-119.7 379,-138.7 447,-138.7 447,-119.7 379,-119.7"/>
<text text-anchor="start" x="382" y="-125.8" font-family="Helvetica,sans-Serif" font-size="11.00" fill="#000000">&lt; 2</text>
<polygon fill="#ffffff" stroke="transparent" points="447,-119.7 447,-138.7 508,-138.7 508,-119.7 447,-119.7"/>
<polygon fill="none" stroke="#000000" points="447,-119.7 447,-138.7 508,-138.7 508,-119.7 447,-119.7"/>
<text text-anchor="start" x="472.6105" y="-125.8" font-family="Helvetica,sans-Serif" font-size="11.00" fill="#000000">0 rows</text>
<polygon fill="#ffffff" stroke="transparent" points="508,-119.7 508,-138.7 544,-138.7 544,-119.7 508,-119.7"/>
<polygon fill="none" stroke="#000000" points="508,-119.7 508,-138.7 544,-138.7 544,-119.7 508,-119.7"/>
<text text-anchor="start" x="534.8862" y="-125.8" font-family="Helvetica,sans-Serif" font-size="11.00" fill="#000000"> &#160;</text>
</a>
</g>
</g>
<!-- paid_leave_grant_history&#45;&gt;user -->
<g id="edge6" class="edge">
<title>paid_leave_grant_history:w&#45;&gt;user:e</title>
<path fill="none" stroke="#000000" d="M364.4557,-149.0487C342.7111,-153.5753 334.5914,-169.215 318,-191.7 284.5788,-236.9931 333.7889,-311.7 277.5,-311.7"/>
<polygon fill="#000000" stroke="#000000" points="371.0342,-148.4387 379.3324,-151.2846 375.0171,-148.0694 379,-147.7 379,-147.7 379,-147.7 375.0171,-148.0694 378.6676,-144.1154 371.0342,-148.4387 371.0342,-148.4387"/>
<ellipse fill="none" stroke="#000000" cx="367.8478" cy="-148.7342" rx="3.2" ry="3.2"/>
</g>
<!-- user_rule -->
<g id="node9" class="node">
<title>user_rule</title>
<g id="a_node9"><a xlink:href="../../tables/user_rule.html" xlink:title="user_rule" target="_top">
<polygon fill="#ffffff" stroke="transparent" points="417,-38.2 417,-99.2 505,-99.2 505,-38.2 417,-38.2"/>
<polygon fill="#f5f5f5" stroke="transparent" points="417,-75.7 417,-98.7 505,-98.7 505,-75.7 417,-75.7"/>
<polygon fill="none" stroke="#000000" points="417,-75.7 417,-98.7 505,-98.7 505,-75.7 417,-75.7"/>
<text text-anchor="start" x="421.5804" y="-84.8" font-family="Helvetica,sans-Serif" font-weight="bold" font-size="11.00" fill="#000000">user_rule</text>
<text text-anchor="start" x="470.5219" y="-83.8" font-family="Helvetica,sans-Serif" font-size="11.00" fill="#000000">[table]</text>
<polygon fill="none" stroke="#000000" points="417,-56.7 417,-75.7 505,-75.7 505,-56.7 417,-56.7"/>
<text text-anchor="start" x="420" y="-62.8" font-family="Helvetica,sans-Serif" font-size="11.00" fill="#000000">...</text>
<polygon fill="#ffffff" stroke="transparent" points="417,-37.7 417,-56.7 446,-56.7 446,-37.7 417,-37.7"/>
<polygon fill="none" stroke="#000000" points="417,-37.7 417,-56.7 446,-56.7 446,-37.7 417,-37.7"/>
<text text-anchor="start" x="420" y="-43.8" font-family="Helvetica,sans-Serif" font-size="11.00" fill="#000000">&lt; 2</text>
<polygon fill="#ffffff" stroke="transparent" points="446,-37.7 446,-56.7 488,-56.7 488,-37.7 446,-37.7"/>
<polygon fill="none" stroke="#000000" points="446,-37.7 446,-56.7 488,-56.7 488,-37.7 446,-37.7"/>
<text text-anchor="start" x="452.6105" y="-43.8" font-family="Helvetica,sans-Serif" font-size="11.00" fill="#000000">2 rows</text>
<polygon fill="#ffffff" stroke="transparent" points="488,-37.7 488,-56.7 505,-56.7 505,-37.7 488,-37.7"/>
<polygon fill="none" stroke="#000000" points="488,-37.7 488,-56.7 505,-56.7 505,-37.7 488,-37.7"/>
<text text-anchor="start" x="495.8862" y="-43.8" font-family="Helvetica,sans-Serif" font-size="11.00" fill="#000000"> &#160;</text>
</a>
</g>
</g>
<!-- user_rule&#45;&gt;user -->
<g id="edge8" class="edge">
<title>user_rule:w&#45;&gt;user:e</title>
<path fill="none" stroke="#000000" d="M406.4576,-65.8226C365.6342,-66.8582 345.8046,-74.9785 318,-109.7 260.7658,-181.1723 369.0645,-311.7 277.5,-311.7"/>
<polygon fill="#000000" stroke="#000000" points="416.1535,-61.7096 416.2466,-69.709 414.6467,-69.7277 414.5536,-61.7282 416.1535,-61.7096"/>
<polyline fill="none" stroke="#000000" points="417,-65.7 413.0003,-65.7466 "/>
<ellipse fill="none" stroke="#000000" cx="409.8005" cy="-65.7838" rx="3.2" ry="3.2"/>
</g>
</g>
</svg>
