<?xml version="1.0" encoding="UTF-8" standalone="no"?>
<!DOCTYPE svg PUBLIC "-//W3C//DTD SVG 1.1//EN"
 "http://www.w3.org/Graphics/SVG/1.1/DTD/svg11.dtd">
<!-- Generated by graphviz version 2.40.1 (20161225.0304)
 -->
<!-- Title: oneDegreeRelationshipsDiagram Pages: 1 -->
<svg width="744pt" height="293pt"
 viewBox="0.00 0.00 744.00 292.70" xmlns="http://www.w3.org/2000/svg" xmlns:xlink="http://www.w3.org/1999/xlink">
<g id="graph0" class="graph" transform="scale(1 1) rotate(0) translate(4 288.7)">
<title>oneDegreeRelationshipsDiagram</title>
<polygon fill="#ffffff" stroke="transparent" points="-4,4 -4,-288.7 740,-288.7 740,4 -4,4"/>
<text text-anchor="middle" x="72.4936" y="-7.3" font-family="Helvetica,sans-Serif" font-size="11.00" fill="#000000">Generated by SchemaSpy</text>
<!-- granting_paid_leave_rule_detail -->
<g id="node1" class="node">
<title>granting_paid_leave_rule_detail</title>
<g id="a_node1"><a xlink:href="../../tables/granting_paid_leave_rule_detail.html" xlink:title="granting_paid_leave_rule_detail" target="_top">
<polygon fill="#ffffff" stroke="transparent" points="223,-38.2 223,-260.2 514,-260.2 514,-38.2 223,-38.2"/>
<polygon fill="#f5f5f5" stroke="transparent" points="225.5,-235.2 225.5,-258.2 512.5,-258.2 512.5,-235.2 225.5,-235.2"/>
<polygon fill="none" stroke="#000000" points="225.5,-235.2 225.5,-258.2 512.5,-258.2 512.5,-235.2 225.5,-235.2"/>
<text text-anchor="start" x="230.5" y="-244.3" font-family="Helvetica,sans-Serif" font-weight="bold" font-size="11.00" fill="#000000">granting_paid_leave_rule_detail</text>
<text text-anchor="start" x="477.5437" y="-243.3" font-family="Helvetica,sans-Serif" font-size="11.00" fill="#000000">[table]</text>
<polygon fill="none" stroke="#000000" points="225.5,-213.2 225.5,-235.2 428.5,-235.2 428.5,-213.2 225.5,-213.2"/>
<image xlink:href="../../images/primaryKeys.png" width="11px" height="12px" preserveAspectRatio="xMinYMin meet" x="230.5" y="-230.2"/>
<text text-anchor="start" x="245.5" y="-220.3" font-family="Helvetica,sans-Serif" font-size="11.00" fill="#000000">id</text>
<polygon fill="none" stroke="#000000" points="428.5,-213.2 428.5,-235.2 512.5,-235.2 512.5,-213.2 428.5,-213.2"/>
<text text-anchor="start" x="431.5" y="-220.9" font-family="Helvetica,sans-Serif" font-size="11.00" fill="#000000">serial[10]</text>
<polygon fill="none" stroke="#000000" points="225.5,-191.2 225.5,-213.2 428.5,-213.2 428.5,-191.2 225.5,-191.2"/>
<image xlink:href="../../images/foreignKeys.png" width="11px" height="12px" preserveAspectRatio="xMinYMin meet" x="230.5" y="-208.2"/>
<text text-anchor="start" x="245.5" y="-198.3" font-family="Helvetica,sans-Serif" font-size="11.00" fill="#000000">rule_id</text>
<polygon fill="none" stroke="#000000" points="428.5,-191.2 428.5,-213.2 512.5,-213.2 512.5,-191.2 428.5,-191.2"/>
<text text-anchor="start" x="431.5" y="-198.9" font-family="Helvetica,sans-Serif" font-size="11.00" fill="#000000">int4[10]</text>
<polygon fill="none" stroke="#000000" points="225.5,-169.2 225.5,-191.2 428.5,-191.2 428.5,-169.2 225.5,-169.2"/>
<text text-anchor="start" x="245.5" y="-176.3" font-family="Helvetica,sans-Serif" font-size="11.00" fill="#000000">elapsed_year</text>
<polygon fill="none" stroke="#000000" points="428.5,-169.2 428.5,-191.2 512.5,-191.2 512.5,-169.2 428.5,-169.2"/>
<text text-anchor="start" x="431.5" y="-176.9" font-family="Helvetica,sans-Serif" font-size="11.00" fill="#000000">int4[10]</text>
<polygon fill="none" stroke="#000000" points="225.5,-147.2 225.5,-169.2 428.5,-169.2 428.5,-147.2 225.5,-147.2"/>
<text text-anchor="start" x="245.5" y="-154.3" font-family="Helvetica,sans-Serif" font-size="11.00" fill="#000000">elapsed_month</text>
<polygon fill="none" stroke="#000000" points="428.5,-147.2 428.5,-169.2 512.5,-169.2 512.5,-147.2 428.5,-147.2"/>
<text text-anchor="start" x="431.5" y="-154.9" font-family="Helvetica,sans-Serif" font-size="11.00" fill="#000000">int4[10]</text>
<polygon fill="none" stroke="#000000" points="225.5,-125.2 225.5,-147.2 428.5,-147.2 428.5,-125.2 225.5,-125.2"/>
<text text-anchor="start" x="245.5" y="-132.3" font-family="Helvetica,sans-Serif" font-size="11.00" fill="#000000">elapsed_days</text>
<polygon fill="none" stroke="#000000" points="428.5,-125.2 428.5,-147.2 512.5,-147.2 512.5,-125.2 428.5,-125.2"/>
<text text-anchor="start" x="431.5" y="-132.9" font-family="Helvetica,sans-Serif" font-size="11.00" fill="#000000">int4[10]</text>
<polygon fill="none" stroke="#000000" points="225.5,-103.2 225.5,-125.2 428.5,-125.2 428.5,-103.2 225.5,-103.2"/>
<text text-anchor="start" x="245.5" y="-110.3" font-family="Helvetica,sans-Serif" font-size="11.00" fill="#000000">grant_days</text>
<polygon fill="none" stroke="#000000" points="428.5,-103.2 428.5,-125.2 512.5,-125.2 512.5,-103.2 428.5,-103.2"/>
<text text-anchor="start" x="431.5" y="-110.9" font-family="Helvetica,sans-Serif" font-size="11.00" fill="#000000">float4[8,8]</text>
<polygon fill="none" stroke="#000000" points="225.5,-81.2 225.5,-103.2 428.5,-103.2 428.5,-81.2 225.5,-81.2"/>
<text text-anchor="start" x="245.5" y="-88.3" font-family="Helvetica,sans-Serif" font-size="11.00" fill="#000000">created_at</text>
<polygon fill="none" stroke="#000000" points="428.5,-81.2 428.5,-103.2 512.5,-103.2 512.5,-81.2 428.5,-81.2"/>
<text text-anchor="start" x="431.3807" y="-88.9" font-family="Helvetica,sans-Serif" font-size="11.00" fill="#000000">timestamp[29,6]</text>
<polygon fill="none" stroke="#000000" points="225.5,-59.2 225.5,-81.2 428.5,-81.2 428.5,-59.2 225.5,-59.2"/>
<text text-anchor="start" x="245.5" y="-66.3" font-family="Helvetica,sans-Serif" font-size="11.00" fill="#000000">updated_at</text>
<polygon fill="none" stroke="#000000" points="428.5,-59.2 428.5,-81.2 512.5,-81.2 512.5,-59.2 428.5,-59.2"/>
<text text-anchor="start" x="431.3807" y="-66.9" font-family="Helvetica,sans-Serif" font-size="11.00" fill="#000000">timestamp[29,6]</text>
<polygon fill="#ffffff" stroke="transparent" points="225.5,-40.2 225.5,-59.2 315.5,-59.2 315.5,-40.2 225.5,-40.2"/>
<polygon fill="none" stroke="#000000" points="225.5,-40.2 225.5,-59.2 315.5,-59.2 315.5,-40.2 225.5,-40.2"/>
<text text-anchor="start" x="228.5" y="-46.3" font-family="Helvetica,sans-Serif" font-size="11.00" fill="#000000">&lt; 1</text>
<polygon fill="#ffffff" stroke="transparent" points="315.5,-40.2 315.5,-59.2 428.5,-59.2 428.5,-40.2 315.5,-40.2"/>
<polygon fill="none" stroke="#000000" points="315.5,-40.2 315.5,-59.2 428.5,-59.2 428.5,-40.2 315.5,-40.2"/>
<text text-anchor="start" x="386.9956" y="-46.3" font-family="Helvetica,sans-Serif" font-size="11.00" fill="#000000">32 rows</text>
<polygon fill="#ffffff" stroke="transparent" points="428.5,-40.2 428.5,-59.2 512.5,-59.2 512.5,-40.2 428.5,-40.2"/>
<polygon fill="none" stroke="#000000" points="428.5,-40.2 428.5,-59.2 512.5,-59.2 512.5,-40.2 428.5,-40.2"/>
<text text-anchor="start" x="493.9053" y="-46.3" font-family="Helvetica,sans-Serif" font-size="11.00" fill="#000000">1 &gt;</text>
<polygon fill="none" stroke="#000000" stroke-width="2" points="224,-39.2 224,-259.2 513,-259.2 513,-39.2 224,-39.2"/>
</a>
</g>
</g>
<!-- granting_paid_leave_rule -->
<g id="node2" class="node">
<title>granting_paid_leave_rule</title>
<g id="a_node2"><a xlink:href="../../tables/granting_paid_leave_rule.html" xlink:title="granting_paid_leave_rule" target="_top">
<polygon fill="#ffffff" stroke="transparent" points="8,-153.7 8,-236.7 174,-236.7 174,-153.7 8,-153.7"/>
<polygon fill="#f5f5f5" stroke="transparent" points="8,-213.2 8,-236.2 174,-236.2 174,-213.2 8,-213.2"/>
<polygon fill="none" stroke="#000000" points="8,-213.2 8,-236.2 174,-236.2 174,-213.2 8,-213.2"/>
<text text-anchor="start" x="12.7587" y="-222.3" font-family="Helvetica,sans-Serif" font-weight="bold" font-size="11.00" fill="#000000">granting_paid_leave_rule</text>
<text text-anchor="start" x="139.5219" y="-221.3" font-family="Helvetica,sans-Serif" font-size="11.00" fill="#000000">[table]</text>
<polygon fill="none" stroke="#000000" points="8,-191.2 8,-213.2 174,-213.2 174,-191.2 8,-191.2"/>
<image xlink:href="../../images/primaryKeys.png" width="11px" height="12px" preserveAspectRatio="xMinYMin meet" x="13" y="-208.2"/>
<text text-anchor="start" x="29" y="-198.3" font-family="Helvetica,sans-Serif" font-size="11.00" fill="#000000">id</text>
<polygon fill="none" stroke="#000000" points="8,-172.2 8,-191.2 174,-191.2 174,-172.2 8,-172.2"/>
<text text-anchor="start" x="11" y="-178.3" font-family="Helvetica,sans-Serif" font-size="11.00" fill="#000000">...</text>
<polygon fill="#ffffff" stroke="transparent" points="8,-153.2 8,-172.2 70,-172.2 70,-153.2 8,-153.2"/>
<polygon fill="none" stroke="#000000" points="8,-153.2 8,-172.2 70,-172.2 70,-153.2 8,-153.2"/>
<text text-anchor="start" x="11" y="-159.3" font-family="Helvetica,sans-Serif" font-size="11.00" fill="#000000"> &#160;</text>
<polygon fill="#ffffff" stroke="transparent" points="70,-153.2 70,-172.2 127,-172.2 127,-153.2 70,-153.2"/>
<polygon fill="none" stroke="#000000" points="70,-153.2 70,-172.2 127,-172.2 127,-153.2 70,-153.2"/>
<text text-anchor="start" x="97.1105" y="-159.3" font-family="Helvetica,sans-Serif" font-size="11.00" fill="#000000">1 row</text>
<polygon fill="#ffffff" stroke="transparent" points="127,-153.2 127,-172.2 174,-172.2 174,-153.2 127,-153.2"/>
<polygon fill="none" stroke="#000000" points="127,-153.2 127,-172.2 174,-172.2 174,-153.2 127,-153.2"/>
<text text-anchor="start" x="155.4053" y="-159.3" font-family="Helvetica,sans-Serif" font-size="11.00" fill="#000000">2 &gt;</text>
</a>
</g>
</g>
<!-- granting_paid_leave_rule_detail&#45;&gt;granting_paid_leave_rule -->
<g id="edge1" class="edge">
<title>granting_paid_leave_rule_detail:w&#45;&gt;granting_paid_leave_rule:e</title>
<path fill="none" stroke="#000000" d="M211.0156,-202.2C198.6771,-202.2 191.1667,-202.2 174,-202.2"/>
<polygon fill="#000000" stroke="#000000" points="217.5,-202.2001 225.5,-205.8 221.5,-202.2 225.5,-202.2 225.5,-202.2 225.5,-202.2 221.5,-202.2 225.5,-198.6 217.5,-202.2001 217.5,-202.2001"/>
<ellipse fill="none" stroke="#000000" cx="214.3" cy="-202.2001" rx="3.2" ry="3.2"/>
</g>
<!-- paid_leave_grant_history -->
<g id="node3" class="node">
<title>paid_leave_grant_history</title>
<g id="a_node3"><a xlink:href="../../tables/paid_leave_grant_history.html" xlink:title="paid_leave_grant_history" target="_top">
<polygon fill="#ffffff" stroke="transparent" points="563,-175.7 563,-280.7 728,-280.7 728,-175.7 563,-175.7"/>
<polygon fill="#f5f5f5" stroke="transparent" points="563.5,-257.2 563.5,-280.2 728.5,-280.2 728.5,-257.2 563.5,-257.2"/>
<polygon fill="none" stroke="#000000" points="563.5,-257.2 563.5,-280.2 728.5,-280.2 728.5,-257.2 563.5,-257.2"/>
<text text-anchor="start" x="568.0656" y="-266.3" font-family="Helvetica,sans-Serif" font-weight="bold" font-size="11.00" fill="#000000">paid_leave_grant_history</text>
<text text-anchor="start" x="694.0219" y="-265.3" font-family="Helvetica,sans-Serif" font-size="11.00" fill="#000000">[table]</text>
<polygon fill="none" stroke="#000000" points="563.5,-235.2 563.5,-257.2 728.5,-257.2 728.5,-235.2 563.5,-235.2"/>
<image xlink:href="../../images/primaryKeys.png" width="11px" height="12px" preserveAspectRatio="xMinYMin meet" x="568.5" y="-252.2"/>
<text text-anchor="start" x="583.5" y="-242.3" font-family="Helvetica,sans-Serif" font-size="11.00" fill="#000000">user_id</text>
<polygon fill="none" stroke="#000000" points="563.5,-213.2 563.5,-235.2 728.5,-235.2 728.5,-213.2 563.5,-213.2"/>
<image xlink:href="../../images/primaryKeys.png" width="11px" height="12px" preserveAspectRatio="xMinYMin meet" x="568.5" y="-230.2"/>
<text text-anchor="start" x="583.5" y="-220.3" font-family="Helvetica,sans-Serif" font-size="11.00" fill="#000000">rule_detail_id</text>
<polygon fill="none" stroke="#000000" points="563.5,-194.2 563.5,-213.2 728.5,-213.2 728.5,-194.2 563.5,-194.2"/>
<text text-anchor="start" x="566.5" y="-200.3" font-family="Helvetica,sans-Serif" font-size="11.00" fill="#000000">...</text>
<polygon fill="#ffffff" stroke="transparent" points="563.5,-175.2 563.5,-194.2 631.5,-194.2 631.5,-175.2 563.5,-175.2"/>
<polygon fill="none" stroke="#000000" points="563.5,-175.2 563.5,-194.2 631.5,-194.2 631.5,-175.2 563.5,-175.2"/>
<text text-anchor="start" x="566.5" y="-181.3" font-family="Helvetica,sans-Serif" font-size="11.00" fill="#000000">&lt; 2</text>
<polygon fill="#ffffff" stroke="transparent" points="631.5,-175.2 631.5,-194.2 692.5,-194.2 692.5,-175.2 631.5,-175.2"/>
<polygon fill="none" stroke="#000000" points="631.5,-175.2 631.5,-194.2 692.5,-194.2 692.5,-175.2 631.5,-175.2"/>
<text text-anchor="start" x="657.1105" y="-181.3" font-family="Helvetica,sans-Serif" font-size="11.00" fill="#000000">0 rows</text>
<polygon fill="#ffffff" stroke="transparent" points="692.5,-175.2 692.5,-194.2 728.5,-194.2 728.5,-175.2 692.5,-175.2"/>
<polygon fill="none" stroke="#000000" points="692.5,-175.2 692.5,-194.2 728.5,-194.2 728.5,-175.2 692.5,-175.2"/>
<text text-anchor="start" x="719.3862" y="-181.3" font-family="Helvetica,sans-Serif" font-size="11.00" fill="#000000"> &#160;</text>
</a>
</g>
</g>
<!-- paid_leave_grant_history&#45;&gt;granting_paid_leave_rule_detail -->
<g id="edge2" class="edge">
<title>paid_leave_grant_history:w&#45;&gt;granting_paid_leave_rule_detail:e</title>
<path fill="none" stroke="#000000" d="M548.776,-224.2C536.7815,-224.2 529.3229,-224.2 512.5,-224.2"/>
<polygon fill="#000000" stroke="#000000" points="555.5,-224.2001 563.5,-227.8 559.5,-224.2 563.5,-224.2 563.5,-224.2 563.5,-224.2 559.5,-224.2 563.5,-220.6 555.5,-224.2001 555.5,-224.2001"/>
<ellipse fill="none" stroke="#000000" cx="552.3" cy="-224.2001" rx="3.2" ry="3.2"/>
</g>
</g>
</svg>
