<?xml version="1.0" encoding="UTF-8" standalone="no"?>
<!DOCTYPE svg PUBLIC "-//W3C//DTD SVG 1.1//EN"
 "http://www.w3.org/Graphics/SVG/1.1/DTD/svg11.dtd">
<!-- Generated by graphviz version 2.40.1 (20161225.0304)
 -->
<!-- Title: twoDegreesRelationshipsDiagram Pages: 1 -->
<svg width="744pt" height="403pt"
 viewBox="0.00 0.00 744.00 402.70" xmlns="http://www.w3.org/2000/svg" xmlns:xlink="http://www.w3.org/1999/xlink">
<g id="graph0" class="graph" transform="scale(1 1) rotate(0) translate(4 398.7)">
<title>twoDegreesRelationshipsDiagram</title>
<polygon fill="#ffffff" stroke="transparent" points="-4,4 -4,-398.7 740,-398.7 740,4 -4,4"/>
<text text-anchor="middle" x="72.4936" y="-7.3" font-family="Helvetica,sans-Serif" font-size="11.00" fill="#000000">Generated by SchemaSpy</text>
<!-- granting_paid_leave_rule_detail -->
<g id="node1" class="node">
<title>granting_paid_leave_rule_detail</title>
<g id="a_node1"><a xlink:href="../../tables/granting_paid_leave_rule_detail.html" xlink:title="granting_paid_leave_rule_detail" target="_top">
<polygon fill="#ffffff" stroke="transparent" points="223,-38.2 223,-260.2 514,-260.2 514,-38.2 223,-38.2"/>
<polygon fill="#f5f5f5" stroke="transparent" points="225.5,-235.2 225.5,-258.2 512.5,-258.2 512.5,-235.2 225.5,-235.2"/>
<polygon fill="none" stroke="#000000" points="225.5,-235.2 225.5,-258.2 512.5,-258.2 512.5,-235.2 225.5,-235.2"/>
<text text-anchor="start" x="230.5" y="-244.3" font-family="Helvetica,sans-Serif" font-weight="bold" font-size="11.00" fill="#000000">granting_paid_leave_rule_detail</text>
<text text-anchor="start" x="477.5437" y="-243.3" font-family="Helvetica,sans-Serif" font-size="11.00" fill="#000000">[table]</text>
<polygon fill="none" stroke="#000000" points="225.5,-213.2 225.5,-235.2 428.5,-235.2 428.5,-213.2 225.5,-213.2"/>
<image xlink:href="../../images/primaryKeys.png" width="11px" height="12px" preserveAspectRatio="xMinYMin meet" x="230.5" y="-230.2"/>
<text text-anchor="start" x="245.5" y="-220.3" font-family="Helvetica,sans-Serif" font-size="11.00" fill="#000000">id</text>
<polygon fill="none" stroke="#000000" points="428.5,-213.2 428.5,-235.2 512.5,-235.2 512.5,-213.2 428.5,-213.2"/>
<text text-anchor="start" x="431.5" y="-220.9" font-family="Helvetica,sans-Serif" font-size="11.00" fill="#000000">serial[10]</text>
<polygon fill="none" stroke="#000000" points="225.5,-191.2 225.5,-213.2 428.5,-213.2 428.5,-191.2 225.5,-191.2"/>
<image xlink:href="../../images/foreignKeys.png" width="11px" height="12px" preserveAspectRatio="xMinYMin meet" x="230.5" y="-208.2"/>
<text text-anchor="start" x="245.5" y="-198.3" font-family="Helvetica,sans-Serif" font-size="11.00" fill="#000000">rule_id</text>
<polygon fill="none" stroke="#000000" points="428.5,-191.2 428.5,-213.2 512.5,-213.2 512.5,-191.2 428.5,-191.2"/>
<text text-anchor="start" x="431.5" y="-198.9" font-family="Helvetica,sans-Serif" font-size="11.00" fill="#000000">int4[10]</text>
<polygon fill="none" stroke="#000000" points="225.5,-169.2 225.5,-191.2 428.5,-191.2 428.5,-169.2 225.5,-169.2"/>
<text text-anchor="start" x="245.5" y="-176.3" font-family="Helvetica,sans-Serif" font-size="11.00" fill="#000000">elapsed_year</text>
<polygon fill="none" stroke="#000000" points="428.5,-169.2 428.5,-191.2 512.5,-191.2 512.5,-169.2 428.5,-169.2"/>
<text text-anchor="start" x="431.5" y="-176.9" font-family="Helvetica,sans-Serif" font-size="11.00" fill="#000000">int4[10]</text>
<polygon fill="none" stroke="#000000" points="225.5,-147.2 225.5,-169.2 428.5,-169.2 428.5,-147.2 225.5,-147.2"/>
<text text-anchor="start" x="245.5" y="-154.3" font-family="Helvetica,sans-Serif" font-size="11.00" fill="#000000">elapsed_month</text>
<polygon fill="none" stroke="#000000" points="428.5,-147.2 428.5,-169.2 512.5,-169.2 512.5,-147.2 428.5,-147.2"/>
<text text-anchor="start" x="431.5" y="-154.9" font-family="Helvetica,sans-Serif" font-size="11.00" fill="#000000">int4[10]</text>
<polygon fill="none" stroke="#000000" points="225.5,-125.2 225.5,-147.2 428.5,-147.2 428.5,-125.2 225.5,-125.2"/>
<text text-anchor="start" x="245.5" y="-132.3" font-family="Helvetica,sans-Serif" font-size="11.00" fill="#000000">elapsed_days</text>
<polygon fill="none" stroke="#000000" points="428.5,-125.2 428.5,-147.2 512.5,-147.2 512.5,-125.2 428.5,-125.2"/>
<text text-anchor="start" x="431.5" y="-132.9" font-family="Helvetica,sans-Serif" font-size="11.00" fill="#000000">int4[10]</text>
<polygon fill="none" stroke="#000000" points="225.5,-103.2 225.5,-125.2 428.5,-125.2 428.5,-103.2 225.5,-103.2"/>
<text text-anchor="start" x="245.5" y="-110.3" font-family="Helvetica,sans-Serif" font-size="11.00" fill="#000000">grant_days</text>
<polygon fill="none" stroke="#000000" points="428.5,-103.2 428.5,-125.2 512.5,-125.2 512.5,-103.2 428.5,-103.2"/>
<text text-anchor="start" x="431.5" y="-110.9" font-family="Helvetica,sans-Serif" font-size="11.00" fill="#000000">float4[8,8]</text>
<polygon fill="none" stroke="#000000" points="225.5,-81.2 225.5,-103.2 428.5,-103.2 428.5,-81.2 225.5,-81.2"/>
<text text-anchor="start" x="245.5" y="-88.3" font-family="Helvetica,sans-Serif" font-size="11.00" fill="#000000">created_at</text>
<polygon fill="none" stroke="#000000" points="428.5,-81.2 428.5,-103.2 512.5,-103.2 512.5,-81.2 428.5,-81.2"/>
<text text-anchor="start" x="431.3807" y="-88.9" font-family="Helvetica,sans-Serif" font-size="11.00" fill="#000000">timestamp[29,6]</text>
<polygon fill="none" stroke="#000000" points="225.5,-59.2 225.5,-81.2 428.5,-81.2 428.5,-59.2 225.5,-59.2"/>
<text text-anchor="start" x="245.5" y="-66.3" font-family="Helvetica,sans-Serif" font-size="11.00" fill="#000000">updated_at</text>
<polygon fill="none" stroke="#000000" points="428.5,-59.2 428.5,-81.2 512.5,-81.2 512.5,-59.2 428.5,-59.2"/>
<text text-anchor="start" x="431.3807" y="-66.9" font-family="Helvetica,sans-Serif" font-size="11.00" fill="#000000">timestamp[29,6]</text>
<polygon fill="#ffffff" stroke="transparent" points="225.5,-40.2 225.5,-59.2 315.5,-59.2 315.5,-40.2 225.5,-40.2"/>
<polygon fill="none" stroke="#000000" points="225.5,-40.2 225.5,-59.2 315.5,-59.2 315.5,-40.2 225.5,-40.2"/>
<text text-anchor="start" x="228.5" y="-46.3" font-family="Helvetica,sans-Serif" font-size="11.00" fill="#000000">&lt; 1</text>
<polygon fill="#ffffff" stroke="transparent" points="315.5,-40.2 315.5,-59.2 428.5,-59.2 428.5,-40.2 315.5,-40.2"/>
<polygon fill="none" stroke="#000000" points="315.5,-40.2 315.5,-59.2 428.5,-59.2 428.5,-40.2 315.5,-40.2"/>
<text text-anchor="start" x="386.9956" y="-46.3" font-family="Helvetica,sans-Serif" font-size="11.00" fill="#000000">32 rows</text>
<polygon fill="#ffffff" stroke="transparent" points="428.5,-40.2 428.5,-59.2 512.5,-59.2 512.5,-40.2 428.5,-40.2"/>
<polygon fill="none" stroke="#000000" points="428.5,-40.2 428.5,-59.2 512.5,-59.2 512.5,-40.2 428.5,-40.2"/>
<text text-anchor="start" x="493.9053" y="-46.3" font-family="Helvetica,sans-Serif" font-size="11.00" fill="#000000">1 &gt;</text>
<polygon fill="none" stroke="#000000" stroke-width="2" points="224,-39.2 224,-259.2 513,-259.2 513,-39.2 224,-39.2"/>
</a>
</g>
</g>
<!-- granting_paid_leave_rule -->
<g id="node2" class="node">
<title>granting_paid_leave_rule</title>
<g id="a_node2"><a xlink:href="../../tables/granting_paid_leave_rule.html" xlink:title="granting_paid_leave_rule" target="_top">
<polygon fill="#ffffff" stroke="transparent" points="8,-235.7 8,-318.7 174,-318.7 174,-235.7 8,-235.7"/>
<polygon fill="#f5f5f5" stroke="transparent" points="8,-295.2 8,-318.2 174,-318.2 174,-295.2 8,-295.2"/>
<polygon fill="none" stroke="#000000" points="8,-295.2 8,-318.2 174,-318.2 174,-295.2 8,-295.2"/>
<text text-anchor="start" x="12.7587" y="-304.3" font-family="Helvetica,sans-Serif" font-weight="bold" font-size="11.00" fill="#000000">granting_paid_leave_rule</text>
<text text-anchor="start" x="139.5219" y="-303.3" font-family="Helvetica,sans-Serif" font-size="11.00" fill="#000000">[table]</text>
<polygon fill="none" stroke="#000000" points="8,-273.2 8,-295.2 174,-295.2 174,-273.2 8,-273.2"/>
<image xlink:href="../../images/primaryKeys.png" width="11px" height="12px" preserveAspectRatio="xMinYMin meet" x="13" y="-290.2"/>
<text text-anchor="start" x="29" y="-280.3" font-family="Helvetica,sans-Serif" font-size="11.00" fill="#000000">id</text>
<polygon fill="none" stroke="#000000" points="8,-254.2 8,-273.2 174,-273.2 174,-254.2 8,-254.2"/>
<text text-anchor="start" x="11" y="-260.3" font-family="Helvetica,sans-Serif" font-size="11.00" fill="#000000">...</text>
<polygon fill="#ffffff" stroke="transparent" points="8,-235.2 8,-254.2 70,-254.2 70,-235.2 8,-235.2"/>
<polygon fill="none" stroke="#000000" points="8,-235.2 8,-254.2 70,-254.2 70,-235.2 8,-235.2"/>
<text text-anchor="start" x="11" y="-241.3" font-family="Helvetica,sans-Serif" font-size="11.00" fill="#000000"> &#160;</text>
<polygon fill="#ffffff" stroke="transparent" points="70,-235.2 70,-254.2 127,-254.2 127,-235.2 70,-235.2"/>
<polygon fill="none" stroke="#000000" points="70,-235.2 70,-254.2 127,-254.2 127,-235.2 70,-235.2"/>
<text text-anchor="start" x="97.1105" y="-241.3" font-family="Helvetica,sans-Serif" font-size="11.00" fill="#000000">1 row</text>
<polygon fill="#ffffff" stroke="transparent" points="127,-235.2 127,-254.2 174,-254.2 174,-235.2 127,-235.2"/>
<polygon fill="none" stroke="#000000" points="127,-235.2 127,-254.2 174,-254.2 174,-235.2 127,-235.2"/>
<text text-anchor="start" x="155.4053" y="-241.3" font-family="Helvetica,sans-Serif" font-size="11.00" fill="#000000">2 &gt;</text>
</a>
</g>
</g>
<!-- granting_paid_leave_rule_detail&#45;&gt;granting_paid_leave_rule -->
<g id="edge1" class="edge">
<title>granting_paid_leave_rule_detail:w&#45;&gt;granting_paid_leave_rule:e</title>
<path fill="none" stroke="#000000" d="M211.5167,-206.6087C190.6526,-223.6409 210.9841,-284.2 174,-284.2"/>
<polygon fill="#000000" stroke="#000000" points="217.8702,-204.6056 226.5825,-205.6334 221.6851,-203.4028 225.5,-202.2 225.5,-202.2 225.5,-202.2 221.6851,-203.4028 224.4175,-198.7666 217.8702,-204.6056 217.8702,-204.6056"/>
<ellipse fill="none" stroke="#000000" cx="214.8183" cy="-205.5678" rx="3.2" ry="3.2"/>
</g>
<!-- paid_leave_grant_history -->
<g id="node3" class="node">
<title>paid_leave_grant_history</title>
<g id="a_node3"><a xlink:href="../../tables/paid_leave_grant_history.html" xlink:title="paid_leave_grant_history" target="_top">
<polygon fill="#ffffff" stroke="transparent" points="563,-194.7 563,-299.7 728,-299.7 728,-194.7 563,-194.7"/>
<polygon fill="#f5f5f5" stroke="transparent" points="563.5,-276.2 563.5,-299.2 728.5,-299.2 728.5,-276.2 563.5,-276.2"/>
<polygon fill="none" stroke="#000000" points="563.5,-276.2 563.5,-299.2 728.5,-299.2 728.5,-276.2 563.5,-276.2"/>
<text text-anchor="start" x="568.0656" y="-285.3" font-family="Helvetica,sans-Serif" font-weight="bold" font-size="11.00" fill="#000000">paid_leave_grant_history</text>
<text text-anchor="start" x="694.0219" y="-284.3" font-family="Helvetica,sans-Serif" font-size="11.00" fill="#000000">[table]</text>
<polygon fill="none" stroke="#000000" points="563.5,-254.2 563.5,-276.2 728.5,-276.2 728.5,-254.2 563.5,-254.2"/>
<image xlink:href="../../images/primaryKeys.png" width="11px" height="12px" preserveAspectRatio="xMinYMin meet" x="568.5" y="-271.2"/>
<text text-anchor="start" x="583.5" y="-261.3" font-family="Helvetica,sans-Serif" font-size="11.00" fill="#000000">user_id</text>
<polygon fill="none" stroke="#000000" points="563.5,-232.2 563.5,-254.2 728.5,-254.2 728.5,-232.2 563.5,-232.2"/>
<image xlink:href="../../images/primaryKeys.png" width="11px" height="12px" preserveAspectRatio="xMinYMin meet" x="568.5" y="-249.2"/>
<text text-anchor="start" x="583.5" y="-239.3" font-family="Helvetica,sans-Serif" font-size="11.00" fill="#000000">rule_detail_id</text>
<polygon fill="none" stroke="#000000" points="563.5,-213.2 563.5,-232.2 728.5,-232.2 728.5,-213.2 563.5,-213.2"/>
<text text-anchor="start" x="566.5" y="-219.3" font-family="Helvetica,sans-Serif" font-size="11.00" fill="#000000">...</text>
<polygon fill="#ffffff" stroke="transparent" points="563.5,-194.2 563.5,-213.2 631.5,-213.2 631.5,-194.2 563.5,-194.2"/>
<polygon fill="none" stroke="#000000" points="563.5,-194.2 563.5,-213.2 631.5,-213.2 631.5,-194.2 563.5,-194.2"/>
<text text-anchor="start" x="566.5" y="-200.3" font-family="Helvetica,sans-Serif" font-size="11.00" fill="#000000">&lt; 2</text>
<polygon fill="#ffffff" stroke="transparent" points="631.5,-194.2 631.5,-213.2 692.5,-213.2 692.5,-194.2 631.5,-194.2"/>
<polygon fill="none" stroke="#000000" points="631.5,-194.2 631.5,-213.2 692.5,-213.2 692.5,-194.2 631.5,-194.2"/>
<text text-anchor="start" x="657.1105" y="-200.3" font-family="Helvetica,sans-Serif" font-size="11.00" fill="#000000">0 rows</text>
<polygon fill="#ffffff" stroke="transparent" points="692.5,-194.2 692.5,-213.2 728.5,-213.2 728.5,-194.2 692.5,-194.2"/>
<polygon fill="none" stroke="#000000" points="692.5,-194.2 692.5,-213.2 728.5,-213.2 728.5,-194.2 692.5,-194.2"/>
<text text-anchor="start" x="719.3862" y="-200.3" font-family="Helvetica,sans-Serif" font-size="11.00" fill="#000000"> &#160;</text>
</a>
</g>
</g>
<!-- paid_leave_grant_history&#45;&gt;granting_paid_leave_rule_detail -->
<g id="edge2" class="edge">
<title>paid_leave_grant_history:w&#45;&gt;granting_paid_leave_rule_detail:e</title>
<path fill="none" stroke="#000000" d="M549.1076,-240.3965C536.7761,-235.1113 530.8304,-224.2 512.5,-224.2"/>
<polygon fill="#000000" stroke="#000000" points="555.6476,-241.6704 562.8117,-246.7336 559.5738,-242.4352 563.5,-243.2 563.5,-243.2 563.5,-243.2 559.5738,-242.4352 564.1883,-239.6664 555.6476,-241.6704 555.6476,-241.6704"/>
<ellipse fill="none" stroke="#000000" cx="552.5066" cy="-241.0585" rx="3.2" ry="3.2"/>
</g>
<!-- user -->
<g id="node4" class="node">
<title>user</title>
<g id="a_node4"><a xlink:href="../../tables/user.html" xlink:title="user" target="_top">
<polygon fill="#ffffff" stroke="transparent" points="328.5,-281.7 328.5,-342.7 408.5,-342.7 408.5,-281.7 328.5,-281.7"/>
<polygon fill="#f5f5f5" stroke="transparent" points="328.5,-319.2 328.5,-342.2 408.5,-342.2 408.5,-319.2 328.5,-319.2"/>
<polygon fill="none" stroke="#000000" points="328.5,-319.2 328.5,-342.2 408.5,-342.2 408.5,-319.2 328.5,-319.2"/>
<text text-anchor="start" x="333.5" y="-328.3" font-family="Helvetica,sans-Serif" font-weight="bold" font-size="11.00" fill="#000000">user</text>
<text text-anchor="start" x="373.5437" y="-327.3" font-family="Helvetica,sans-Serif" font-size="11.00" fill="#000000">[table]</text>
<polygon fill="none" stroke="#000000" points="328.5,-300.2 328.5,-319.2 408.5,-319.2 408.5,-300.2 328.5,-300.2"/>
<text text-anchor="start" x="331.5" y="-306.3" font-family="Helvetica,sans-Serif" font-size="11.00" fill="#000000">...</text>
<polygon fill="#ffffff" stroke="transparent" points="328.5,-281.2 328.5,-300.2 349.5,-300.2 349.5,-281.2 328.5,-281.2"/>
<polygon fill="none" stroke="#000000" points="328.5,-281.2 328.5,-300.2 349.5,-300.2 349.5,-281.2 328.5,-281.2"/>
<text text-anchor="start" x="331.2027" y="-287.3" font-family="Helvetica,sans-Serif" font-size="11.00" fill="#000000">&lt; 1</text>
<polygon fill="#ffffff" stroke="transparent" points="349.5,-281.2 349.5,-300.2 387.5,-300.2 387.5,-281.2 349.5,-281.2"/>
<polygon fill="none" stroke="#000000" points="349.5,-281.2 349.5,-300.2 387.5,-300.2 387.5,-281.2 349.5,-281.2"/>
<text text-anchor="start" x="352.3053" y="-287.3" font-family="Helvetica,sans-Serif" font-size="11.00" fill="#000000">3 rows</text>
<polygon fill="#ffffff" stroke="transparent" points="387.5,-281.2 387.5,-300.2 408.5,-300.2 408.5,-281.2 387.5,-281.2"/>
<polygon fill="none" stroke="#000000" points="387.5,-281.2 387.5,-300.2 408.5,-300.2 408.5,-281.2 387.5,-281.2"/>
<text text-anchor="start" x="390.2027" y="-287.3" font-family="Helvetica,sans-Serif" font-size="11.00" fill="#000000">7 &gt;</text>
</a>
</g>
</g>
<!-- paid_leave_grant_history&#45;&gt;user -->
<g id="edge3" class="edge">
<title>paid_leave_grant_history:w&#45;&gt;user:e</title>
<path fill="none" stroke="#000000" d="M549.1049,-266.8711C508.8037,-274.9083 440.1094,-309.2 408.5,-309.2"/>
<polygon fill="#000000" stroke="#000000" points="555.5534,-266.1226 563.9152,-268.776 559.5267,-265.6613 563.5,-265.2 563.5,-265.2 563.5,-265.2 559.5267,-265.6613 563.0848,-261.624 555.5534,-266.1226 555.5534,-266.1226"/>
<ellipse fill="none" stroke="#000000" cx="552.3747" cy="-266.4916" rx="3.2" ry="3.2"/>
</g>
<!-- user_rule -->
<g id="node5" class="node">
<title>user_rule</title>
<g id="a_node5"><a xlink:href="../../tables/user_rule.html" xlink:title="user_rule" target="_top">
<polygon fill="#ffffff" stroke="transparent" points="601.5,-329.7 601.5,-390.7 689.5,-390.7 689.5,-329.7 601.5,-329.7"/>
<polygon fill="#f5f5f5" stroke="transparent" points="601.5,-367.2 601.5,-390.2 689.5,-390.2 689.5,-367.2 601.5,-367.2"/>
<polygon fill="none" stroke="#000000" points="601.5,-367.2 601.5,-390.2 689.5,-390.2 689.5,-367.2 601.5,-367.2"/>
<text text-anchor="start" x="606.0804" y="-376.3" font-family="Helvetica,sans-Serif" font-weight="bold" font-size="11.00" fill="#000000">user_rule</text>
<text text-anchor="start" x="655.0219" y="-375.3" font-family="Helvetica,sans-Serif" font-size="11.00" fill="#000000">[table]</text>
<polygon fill="none" stroke="#000000" points="601.5,-348.2 601.5,-367.2 689.5,-367.2 689.5,-348.2 601.5,-348.2"/>
<text text-anchor="start" x="604.5" y="-354.3" font-family="Helvetica,sans-Serif" font-size="11.00" fill="#000000">...</text>
<polygon fill="#ffffff" stroke="transparent" points="601.5,-329.2 601.5,-348.2 630.5,-348.2 630.5,-329.2 601.5,-329.2"/>
<polygon fill="none" stroke="#000000" points="601.5,-329.2 601.5,-348.2 630.5,-348.2 630.5,-329.2 601.5,-329.2"/>
<text text-anchor="start" x="604.5" y="-335.3" font-family="Helvetica,sans-Serif" font-size="11.00" fill="#000000">&lt; 2</text>
<polygon fill="#ffffff" stroke="transparent" points="630.5,-329.2 630.5,-348.2 672.5,-348.2 672.5,-329.2 630.5,-329.2"/>
<polygon fill="none" stroke="#000000" points="630.5,-329.2 630.5,-348.2 672.5,-348.2 672.5,-329.2 630.5,-329.2"/>
<text text-anchor="start" x="637.1105" y="-335.3" font-family="Helvetica,sans-Serif" font-size="11.00" fill="#000000">2 rows</text>
<polygon fill="#ffffff" stroke="transparent" points="672.5,-329.2 672.5,-348.2 689.5,-348.2 689.5,-329.2 672.5,-329.2"/>
<polygon fill="none" stroke="#000000" points="672.5,-329.2 672.5,-348.2 689.5,-348.2 689.5,-329.2 672.5,-329.2"/>
<text text-anchor="start" x="680.3862" y="-335.3" font-family="Helvetica,sans-Serif" font-size="11.00" fill="#000000"> &#160;</text>
</a>
</g>
</g>
<!-- user_rule&#45;&gt;granting_paid_leave_rule -->
<g id="edge4" class="edge">
<title>user_rule:w&#45;&gt;granting_paid_leave_rule:e</title>
<path fill="none" stroke="#000000" d="M586.6696,-357.4042C425.7836,-361.8451 359.5049,-436.4183 215,-353.2 184.0875,-335.398 209.672,-284.2 174,-284.2"/>
<polygon fill="#000000" stroke="#000000" points="593.5008,-357.3102 601.5496,-360.7997 597.5004,-357.2551 601.5,-357.2 601.5,-357.2 601.5,-357.2 597.5004,-357.2551 601.4504,-353.6003 593.5008,-357.3102 593.5008,-357.3102"/>
<ellipse fill="none" stroke="#000000" cx="590.3011" cy="-357.3543" rx="3.2" ry="3.2"/>
</g>
<!-- user_rule&#45;&gt;user -->
<g id="edge5" class="edge">
<title>user_rule:w&#45;&gt;user:e</title>
<path fill="none" stroke="#000000" d="M590.9781,-356.9644C511.6573,-353.3432 493.2654,-309.2 408.5,-309.2"/>
<polygon fill="#000000" stroke="#000000" points="600.7898,-353.1831 600.6106,-361.1811 599.011,-361.1452 599.1902,-353.1472 600.7898,-353.1831"/>
<polyline fill="none" stroke="#000000" points="601.5,-357.2 597.501,-357.1104 "/>
<ellipse fill="none" stroke="#000000" cx="594.3018" cy="-357.0387" rx="3.2" ry="3.2"/>
</g>
</g>
</svg>
