<?xml version="1.0" encoding="UTF-8" standalone="no"?>
<!DOCTYPE svg PUBLIC "-//W3C//DTD SVG 1.1//EN"
 "http://www.w3.org/Graphics/SVG/1.1/DTD/svg11.dtd">
<!-- Generated by graphviz version 2.40.1 (20161225.0304)
 -->
<!-- Title: oneDegreeRelationshipsDiagram Pages: 1 -->
<svg width="529pt" height="268pt"
 viewBox="0.00 0.00 529.00 267.70" xmlns="http://www.w3.org/2000/svg" xmlns:xlink="http://www.w3.org/1999/xlink">
<g id="graph0" class="graph" transform="scale(1 1) rotate(0) translate(4 263.7)">
<title>oneDegreeRelationshipsDiagram</title>
<polygon fill="#ffffff" stroke="transparent" points="-4,4 -4,-263.7 525,-263.7 525,4 -4,4"/>
<text text-anchor="middle" x="72.4936" y="-7.3" font-family="Helvetica,sans-Serif" font-size="11.00" fill="#000000">Generated by SchemaSpy</text>
<!-- granting_paid_leave_rule_detail -->
<g id="node1" class="node">
<title>granting_paid_leave_rule_detail</title>
<g id="a_node1"><a xlink:href="../../tables/granting_paid_leave_rule_detail.html" xlink:title="granting_paid_leave_rule_detail" target="_top">
<polygon fill="#ffffff" stroke="transparent" points="310,-150.7 310,-255.7 513,-255.7 513,-150.7 310,-150.7"/>
<polygon fill="#f5f5f5" stroke="transparent" points="310.5,-232.2 310.5,-255.2 513.5,-255.2 513.5,-232.2 310.5,-232.2"/>
<polygon fill="none" stroke="#000000" points="310.5,-232.2 310.5,-255.2 513.5,-255.2 513.5,-232.2 310.5,-232.2"/>
<text text-anchor="start" x="315.5" y="-241.3" font-family="Helvetica,sans-Serif" font-weight="bold" font-size="11.00" fill="#000000">granting_paid_leave_rule_detail</text>
<text text-anchor="start" x="478.5437" y="-240.3" font-family="Helvetica,sans-Serif" font-size="11.00" fill="#000000">[table]</text>
<polygon fill="none" stroke="#000000" points="310.5,-210.2 310.5,-232.2 513.5,-232.2 513.5,-210.2 310.5,-210.2"/>
<image xlink:href="../../images/primaryKeys.png" width="11px" height="12px" preserveAspectRatio="xMinYMin meet" x="315.5" y="-227.2"/>
<text text-anchor="start" x="330.5" y="-217.3" font-family="Helvetica,sans-Serif" font-size="11.00" fill="#000000">id</text>
<polygon fill="none" stroke="#000000" points="310.5,-188.2 310.5,-210.2 513.5,-210.2 513.5,-188.2 310.5,-188.2"/>
<image xlink:href="../../images/foreignKeys.png" width="11px" height="12px" preserveAspectRatio="xMinYMin meet" x="315.5" y="-205.2"/>
<text text-anchor="start" x="330.5" y="-195.3" font-family="Helvetica,sans-Serif" font-size="11.00" fill="#000000">rule_id</text>
<polygon fill="none" stroke="#000000" points="310.5,-169.2 310.5,-188.2 513.5,-188.2 513.5,-169.2 310.5,-169.2"/>
<text text-anchor="start" x="313.5" y="-175.3" font-family="Helvetica,sans-Serif" font-size="11.00" fill="#000000">...</text>
<polygon fill="#ffffff" stroke="transparent" points="310.5,-150.2 310.5,-169.2 389.5,-169.2 389.5,-150.2 310.5,-150.2"/>
<polygon fill="none" stroke="#000000" points="310.5,-150.2 310.5,-169.2 389.5,-169.2 389.5,-150.2 310.5,-150.2"/>
<text text-anchor="start" x="313.5" y="-156.3" font-family="Helvetica,sans-Serif" font-size="11.00" fill="#000000">&lt; 1</text>
<polygon fill="#ffffff" stroke="transparent" points="389.5,-150.2 389.5,-169.2 462.5,-169.2 462.5,-150.2 389.5,-150.2"/>
<polygon fill="none" stroke="#000000" points="389.5,-150.2 389.5,-169.2 462.5,-169.2 462.5,-150.2 389.5,-150.2"/>
<text text-anchor="start" x="420.9956" y="-156.3" font-family="Helvetica,sans-Serif" font-size="11.00" fill="#000000">32 rows</text>
<polygon fill="#ffffff" stroke="transparent" points="462.5,-150.2 462.5,-169.2 513.5,-169.2 513.5,-150.2 462.5,-150.2"/>
<polygon fill="none" stroke="#000000" points="462.5,-150.2 462.5,-169.2 513.5,-169.2 513.5,-150.2 462.5,-150.2"/>
<text text-anchor="start" x="494.9053" y="-156.3" font-family="Helvetica,sans-Serif" font-size="11.00" fill="#000000">1 &gt;</text>
</a>
</g>
</g>
<!-- granting_paid_leave_rule -->
<g id="node2" class="node">
<title>granting_paid_leave_rule</title>
<g id="a_node2"><a xlink:href="../../tables/granting_paid_leave_rule.html" xlink:title="granting_paid_leave_rule" target="_top">
<polygon fill="#ffffff" stroke="transparent" points="8,-38.2 8,-172.2 261,-172.2 261,-38.2 8,-38.2"/>
<polygon fill="#f5f5f5" stroke="transparent" points="10.5,-147.2 10.5,-170.2 259.5,-170.2 259.5,-147.2 10.5,-147.2"/>
<polygon fill="none" stroke="#000000" points="10.5,-147.2 10.5,-170.2 259.5,-170.2 259.5,-147.2 10.5,-147.2"/>
<text text-anchor="start" x="15.5" y="-156.3" font-family="Helvetica,sans-Serif" font-weight="bold" font-size="11.00" fill="#000000">granting_paid_leave_rule</text>
<text text-anchor="start" x="224.5437" y="-155.3" font-family="Helvetica,sans-Serif" font-size="11.00" fill="#000000">[table]</text>
<polygon fill="none" stroke="#000000" points="10.5,-125.2 10.5,-147.2 175.5,-147.2 175.5,-125.2 10.5,-125.2"/>
<image xlink:href="../../images/primaryKeys.png" width="11px" height="12px" preserveAspectRatio="xMinYMin meet" x="15.5" y="-142.2"/>
<text text-anchor="start" x="30.5" y="-132.3" font-family="Helvetica,sans-Serif" font-size="11.00" fill="#000000">id</text>
<polygon fill="none" stroke="#000000" points="175.5,-125.2 175.5,-147.2 259.5,-147.2 259.5,-125.2 175.5,-125.2"/>
<text text-anchor="start" x="178.5" y="-132.9" font-family="Helvetica,sans-Serif" font-size="11.00" fill="#000000">serial[10]</text>
<polygon fill="none" stroke="#000000" points="10.5,-103.2 10.5,-125.2 175.5,-125.2 175.5,-103.2 10.5,-103.2"/>
<text text-anchor="start" x="30.5" y="-110.3" font-family="Helvetica,sans-Serif" font-size="11.00" fill="#000000">name</text>
<polygon fill="none" stroke="#000000" points="175.5,-103.2 175.5,-125.2 259.5,-125.2 259.5,-103.2 175.5,-103.2"/>
<text text-anchor="start" x="178.5" y="-110.9" font-family="Helvetica,sans-Serif" font-size="11.00" fill="#000000">varchar[255]</text>
<polygon fill="none" stroke="#000000" points="10.5,-81.2 10.5,-103.2 175.5,-103.2 175.5,-81.2 10.5,-81.2"/>
<text text-anchor="start" x="30.5" y="-88.3" font-family="Helvetica,sans-Serif" font-size="11.00" fill="#000000">created_at</text>
<polygon fill="none" stroke="#000000" points="175.5,-81.2 175.5,-103.2 259.5,-103.2 259.5,-81.2 175.5,-81.2"/>
<text text-anchor="start" x="178.3807" y="-88.9" font-family="Helvetica,sans-Serif" font-size="11.00" fill="#000000">timestamp[29,6]</text>
<polygon fill="none" stroke="#000000" points="10.5,-59.2 10.5,-81.2 175.5,-81.2 175.5,-59.2 10.5,-59.2"/>
<text text-anchor="start" x="30.5" y="-66.3" font-family="Helvetica,sans-Serif" font-size="11.00" fill="#000000">updated_at</text>
<polygon fill="none" stroke="#000000" points="175.5,-59.2 175.5,-81.2 259.5,-81.2 259.5,-59.2 175.5,-59.2"/>
<text text-anchor="start" x="178.3807" y="-66.9" font-family="Helvetica,sans-Serif" font-size="11.00" fill="#000000">timestamp[29,6]</text>
<polygon fill="#ffffff" stroke="transparent" points="10.5,-40.2 10.5,-59.2 87.5,-59.2 87.5,-40.2 10.5,-40.2"/>
<polygon fill="none" stroke="#000000" points="10.5,-40.2 10.5,-59.2 87.5,-59.2 87.5,-40.2 10.5,-40.2"/>
<text text-anchor="start" x="13.5" y="-46.3" font-family="Helvetica,sans-Serif" font-size="11.00" fill="#000000">&lt; 0</text>
<polygon fill="#ffffff" stroke="transparent" points="87.5,-40.2 87.5,-59.2 175.5,-59.2 175.5,-40.2 87.5,-40.2"/>
<polygon fill="none" stroke="#000000" points="87.5,-40.2 87.5,-59.2 175.5,-59.2 175.5,-40.2 87.5,-40.2"/>
<text text-anchor="start" x="145.6105" y="-46.3" font-family="Helvetica,sans-Serif" font-size="11.00" fill="#000000">1 row</text>
<polygon fill="#ffffff" stroke="transparent" points="175.5,-40.2 175.5,-59.2 259.5,-59.2 259.5,-40.2 175.5,-40.2"/>
<polygon fill="none" stroke="#000000" points="175.5,-40.2 175.5,-59.2 259.5,-59.2 259.5,-40.2 175.5,-40.2"/>
<text text-anchor="start" x="240.9053" y="-46.3" font-family="Helvetica,sans-Serif" font-size="11.00" fill="#000000">2 &gt;</text>
<polygon fill="none" stroke="#000000" stroke-width="2" points="9,-39.2 9,-171.2 260,-171.2 260,-39.2 9,-39.2"/>
</a>
</g>
</g>
<!-- granting_paid_leave_rule_detail&#45;&gt;granting_paid_leave_rule -->
<g id="edge1" class="edge">
<title>granting_paid_leave_rule_detail:w&#45;&gt;granting_paid_leave_rule:e</title>
<path fill="none" stroke="#000000" d="M296.4033,-194.2565C280.025,-179.4048 289.3329,-136.2 259.5,-136.2"/>
<polygon fill="#000000" stroke="#000000" points="302.9507,-196.5526 309.3087,-202.5972 306.7254,-197.8763 310.5,-199.2 310.5,-199.2 310.5,-199.2 306.7254,-197.8763 311.6913,-195.8028 302.9507,-196.5526 302.9507,-196.5526"/>
<ellipse fill="none" stroke="#000000" cx="299.931" cy="-195.4936" rx="3.2" ry="3.2"/>
</g>
<!-- user_rule -->
<g id="node3" class="node">
<title>user_rule</title>
<g id="a_node3"><a xlink:href="../../tables/user_rule.html" xlink:title="user_rule" target="_top">
<polygon fill="#ffffff" stroke="transparent" points="367.5,-43.2 367.5,-129.2 455.5,-129.2 455.5,-43.2 367.5,-43.2"/>
<polygon fill="#f5f5f5" stroke="transparent" points="367.5,-106.2 367.5,-129.2 455.5,-129.2 455.5,-106.2 367.5,-106.2"/>
<polygon fill="none" stroke="#000000" points="367.5,-106.2 367.5,-129.2 455.5,-129.2 455.5,-106.2 367.5,-106.2"/>
<text text-anchor="start" x="372.0804" y="-115.3" font-family="Helvetica,sans-Serif" font-weight="bold" font-size="11.00" fill="#000000">user_rule</text>
<text text-anchor="start" x="421.0219" y="-114.3" font-family="Helvetica,sans-Serif" font-size="11.00" fill="#000000">[table]</text>
<polygon fill="none" stroke="#000000" points="367.5,-84.2 367.5,-106.2 455.5,-106.2 455.5,-84.2 367.5,-84.2"/>
<image xlink:href="../../images/primaryKeys.png" width="11px" height="12px" preserveAspectRatio="xMinYMin meet" x="372.5" y="-101.2"/>
<text text-anchor="start" x="394.5" y="-91.3" font-family="Helvetica,sans-Serif" font-size="11.00" fill="#000000">user_id</text>
<polygon fill="none" stroke="#000000" points="367.5,-62.2 367.5,-84.2 455.5,-84.2 455.5,-62.2 367.5,-62.2"/>
<image xlink:href="../../images/foreignKeys.png" width="11px" height="12px" preserveAspectRatio="xMinYMin meet" x="372.5" y="-79.2"/>
<text text-anchor="start" x="394.5" y="-69.3" font-family="Helvetica,sans-Serif" font-size="11.00" fill="#000000">rule_id</text>
<polygon fill="#ffffff" stroke="transparent" points="367.5,-43.2 367.5,-62.2 396.5,-62.2 396.5,-43.2 367.5,-43.2"/>
<polygon fill="none" stroke="#000000" points="367.5,-43.2 367.5,-62.2 396.5,-62.2 396.5,-43.2 367.5,-43.2"/>
<text text-anchor="start" x="370.5" y="-49.3" font-family="Helvetica,sans-Serif" font-size="11.00" fill="#000000">&lt; 2</text>
<polygon fill="#ffffff" stroke="transparent" points="396.5,-43.2 396.5,-62.2 438.5,-62.2 438.5,-43.2 396.5,-43.2"/>
<polygon fill="none" stroke="#000000" points="396.5,-43.2 396.5,-62.2 438.5,-62.2 438.5,-43.2 396.5,-43.2"/>
<text text-anchor="start" x="403.1105" y="-49.3" font-family="Helvetica,sans-Serif" font-size="11.00" fill="#000000">2 rows</text>
<polygon fill="#ffffff" stroke="transparent" points="438.5,-43.2 438.5,-62.2 455.5,-62.2 455.5,-43.2 438.5,-43.2"/>
<polygon fill="none" stroke="#000000" points="438.5,-43.2 438.5,-62.2 455.5,-62.2 455.5,-43.2 438.5,-43.2"/>
<text text-anchor="start" x="446.3862" y="-49.3" font-family="Helvetica,sans-Serif" font-size="11.00" fill="#000000"> &#160;</text>
</a>
</g>
</g>
<!-- user_rule&#45;&gt;granting_paid_leave_rule -->
<g id="edge2" class="edge">
<title>user_rule:w&#45;&gt;granting_paid_leave_rule:e</title>
<path fill="none" stroke="#000000" d="M353.0556,-74.8206C311.9934,-84.6816 309.7516,-136.2 259.5,-136.2"/>
<polygon fill="#000000" stroke="#000000" points="359.5499,-74.092 367.9014,-76.7776 363.5249,-73.646 367.5,-73.2 367.5,-73.2 367.5,-73.2 363.5249,-73.646 367.0986,-69.6224 359.5499,-74.092 359.5499,-74.092"/>
<ellipse fill="none" stroke="#000000" cx="356.3698" cy="-74.4488" rx="3.2" ry="3.2"/>
</g>
</g>
</svg>
