<?xml version="1.0" encoding="UTF-8" standalone="no"?>
<!DOCTYPE svg PUBLIC "-//W3C//DTD SVG 1.1//EN"
 "http://www.w3.org/Graphics/SVG/1.1/DTD/svg11.dtd">
<!-- Generated by graphviz version 2.40.1 (20161225.0304)
 -->
<!-- Title: twoDegreesRelationshipsDiagram Pages: 1 -->
<svg width="743pt" height="283pt"
 viewBox="0.00 0.00 743.00 282.70" xmlns="http://www.w3.org/2000/svg" xmlns:xlink="http://www.w3.org/1999/xlink">
<g id="graph0" class="graph" transform="scale(1 1) rotate(0) translate(4 278.7)">
<title>twoDegreesRelationshipsDiagram</title>
<polygon fill="#ffffff" stroke="transparent" points="-4,4 -4,-278.7 739,-278.7 739,4 -4,4"/>
<text text-anchor="middle" x="72.4936" y="-7.3" font-family="Helvetica,sans-Serif" font-size="11.00" fill="#000000">Generated by SchemaSpy</text>
<!-- granting_paid_leave_rule_detail -->
<g id="node1" class="node">
<title>granting_paid_leave_rule_detail</title>
<g id="a_node1"><a xlink:href="../../tables/granting_paid_leave_rule_detail.html" xlink:title="granting_paid_leave_rule_detail" target="_top">
<polygon fill="#ffffff" stroke="transparent" points="310,-165.7 310,-270.7 513,-270.7 513,-165.7 310,-165.7"/>
<polygon fill="#f5f5f5" stroke="transparent" points="310.5,-247.2 310.5,-270.2 513.5,-270.2 513.5,-247.2 310.5,-247.2"/>
<polygon fill="none" stroke="#000000" points="310.5,-247.2 310.5,-270.2 513.5,-270.2 513.5,-247.2 310.5,-247.2"/>
<text text-anchor="start" x="315.5" y="-256.3" font-family="Helvetica,sans-Serif" font-weight="bold" font-size="11.00" fill="#000000">granting_paid_leave_rule_detail</text>
<text text-anchor="start" x="478.5437" y="-255.3" font-family="Helvetica,sans-Serif" font-size="11.00" fill="#000000">[table]</text>
<polygon fill="none" stroke="#000000" points="310.5,-225.2 310.5,-247.2 513.5,-247.2 513.5,-225.2 310.5,-225.2"/>
<image xlink:href="../../images/primaryKeys.png" width="11px" height="12px" preserveAspectRatio="xMinYMin meet" x="315.5" y="-242.2"/>
<text text-anchor="start" x="330.5" y="-232.3" font-family="Helvetica,sans-Serif" font-size="11.00" fill="#000000">id</text>
<polygon fill="none" stroke="#000000" points="310.5,-203.2 310.5,-225.2 513.5,-225.2 513.5,-203.2 310.5,-203.2"/>
<image xlink:href="../../images/foreignKeys.png" width="11px" height="12px" preserveAspectRatio="xMinYMin meet" x="315.5" y="-220.2"/>
<text text-anchor="start" x="330.5" y="-210.3" font-family="Helvetica,sans-Serif" font-size="11.00" fill="#000000">rule_id</text>
<polygon fill="none" stroke="#000000" points="310.5,-184.2 310.5,-203.2 513.5,-203.2 513.5,-184.2 310.5,-184.2"/>
<text text-anchor="start" x="313.5" y="-190.3" font-family="Helvetica,sans-Serif" font-size="11.00" fill="#000000">...</text>
<polygon fill="#ffffff" stroke="transparent" points="310.5,-165.2 310.5,-184.2 389.5,-184.2 389.5,-165.2 310.5,-165.2"/>
<polygon fill="none" stroke="#000000" points="310.5,-165.2 310.5,-184.2 389.5,-184.2 389.5,-165.2 310.5,-165.2"/>
<text text-anchor="start" x="313.5" y="-171.3" font-family="Helvetica,sans-Serif" font-size="11.00" fill="#000000">&lt; 1</text>
<polygon fill="#ffffff" stroke="transparent" points="389.5,-165.2 389.5,-184.2 462.5,-184.2 462.5,-165.2 389.5,-165.2"/>
<polygon fill="none" stroke="#000000" points="389.5,-165.2 389.5,-184.2 462.5,-184.2 462.5,-165.2 389.5,-165.2"/>
<text text-anchor="start" x="420.9956" y="-171.3" font-family="Helvetica,sans-Serif" font-size="11.00" fill="#000000">32 rows</text>
<polygon fill="#ffffff" stroke="transparent" points="462.5,-165.2 462.5,-184.2 513.5,-184.2 513.5,-165.2 462.5,-165.2"/>
<polygon fill="none" stroke="#000000" points="462.5,-165.2 462.5,-184.2 513.5,-184.2 513.5,-165.2 462.5,-165.2"/>
<text text-anchor="start" x="494.9053" y="-171.3" font-family="Helvetica,sans-Serif" font-size="11.00" fill="#000000">1 &gt;</text>
</a>
</g>
</g>
<!-- granting_paid_leave_rule -->
<g id="node2" class="node">
<title>granting_paid_leave_rule</title>
<g id="a_node2"><a xlink:href="../../tables/granting_paid_leave_rule.html" xlink:title="granting_paid_leave_rule" target="_top">
<polygon fill="#ffffff" stroke="transparent" points="8,-38.2 8,-172.2 261,-172.2 261,-38.2 8,-38.2"/>
<polygon fill="#f5f5f5" stroke="transparent" points="10.5,-147.2 10.5,-170.2 259.5,-170.2 259.5,-147.2 10.5,-147.2"/>
<polygon fill="none" stroke="#000000" points="10.5,-147.2 10.5,-170.2 259.5,-170.2 259.5,-147.2 10.5,-147.2"/>
<text text-anchor="start" x="15.5" y="-156.3" font-family="Helvetica,sans-Serif" font-weight="bold" font-size="11.00" fill="#000000">granting_paid_leave_rule</text>
<text text-anchor="start" x="224.5437" y="-155.3" font-family="Helvetica,sans-Serif" font-size="11.00" fill="#000000">[table]</text>
<polygon fill="none" stroke="#000000" points="10.5,-125.2 10.5,-147.2 175.5,-147.2 175.5,-125.2 10.5,-125.2"/>
<image xlink:href="../../images/primaryKeys.png" width="11px" height="12px" preserveAspectRatio="xMinYMin meet" x="15.5" y="-142.2"/>
<text text-anchor="start" x="30.5" y="-132.3" font-family="Helvetica,sans-Serif" font-size="11.00" fill="#000000">id</text>
<polygon fill="none" stroke="#000000" points="175.5,-125.2 175.5,-147.2 259.5,-147.2 259.5,-125.2 175.5,-125.2"/>
<text text-anchor="start" x="178.5" y="-132.9" font-family="Helvetica,sans-Serif" font-size="11.00" fill="#000000">serial[10]</text>
<polygon fill="none" stroke="#000000" points="10.5,-103.2 10.5,-125.2 175.5,-125.2 175.5,-103.2 10.5,-103.2"/>
<text text-anchor="start" x="30.5" y="-110.3" font-family="Helvetica,sans-Serif" font-size="11.00" fill="#000000">name</text>
<polygon fill="none" stroke="#000000" points="175.5,-103.2 175.5,-125.2 259.5,-125.2 259.5,-103.2 175.5,-103.2"/>
<text text-anchor="start" x="178.5" y="-110.9" font-family="Helvetica,sans-Serif" font-size="11.00" fill="#000000">varchar[255]</text>
<polygon fill="none" stroke="#000000" points="10.5,-81.2 10.5,-103.2 175.5,-103.2 175.5,-81.2 10.5,-81.2"/>
<text text-anchor="start" x="30.5" y="-88.3" font-family="Helvetica,sans-Serif" font-size="11.00" fill="#000000">created_at</text>
<polygon fill="none" stroke="#000000" points="175.5,-81.2 175.5,-103.2 259.5,-103.2 259.5,-81.2 175.5,-81.2"/>
<text text-anchor="start" x="178.3807" y="-88.9" font-family="Helvetica,sans-Serif" font-size="11.00" fill="#000000">timestamp[29,6]</text>
<polygon fill="none" stroke="#000000" points="10.5,-59.2 10.5,-81.2 175.5,-81.2 175.5,-59.2 10.5,-59.2"/>
<text text-anchor="start" x="30.5" y="-66.3" font-family="Helvetica,sans-Serif" font-size="11.00" fill="#000000">updated_at</text>
<polygon fill="none" stroke="#000000" points="175.5,-59.2 175.5,-81.2 259.5,-81.2 259.5,-59.2 175.5,-59.2"/>
<text text-anchor="start" x="178.3807" y="-66.9" font-family="Helvetica,sans-Serif" font-size="11.00" fill="#000000">timestamp[29,6]</text>
<polygon fill="#ffffff" stroke="transparent" points="10.5,-40.2 10.5,-59.2 87.5,-59.2 87.5,-40.2 10.5,-40.2"/>
<polygon fill="none" stroke="#000000" points="10.5,-40.2 10.5,-59.2 87.5,-59.2 87.5,-40.2 10.5,-40.2"/>
<text text-anchor="start" x="13.5" y="-46.3" font-family="Helvetica,sans-Serif" font-size="11.00" fill="#000000">&lt; 0</text>
<polygon fill="#ffffff" stroke="transparent" points="87.5,-40.2 87.5,-59.2 175.5,-59.2 175.5,-40.2 87.5,-40.2"/>
<polygon fill="none" stroke="#000000" points="87.5,-40.2 87.5,-59.2 175.5,-59.2 175.5,-40.2 87.5,-40.2"/>
<text text-anchor="start" x="145.6105" y="-46.3" font-family="Helvetica,sans-Serif" font-size="11.00" fill="#000000">1 row</text>
<polygon fill="#ffffff" stroke="transparent" points="175.5,-40.2 175.5,-59.2 259.5,-59.2 259.5,-40.2 175.5,-40.2"/>
<polygon fill="none" stroke="#000000" points="175.5,-40.2 175.5,-59.2 259.5,-59.2 259.5,-40.2 175.5,-40.2"/>
<text text-anchor="start" x="240.9053" y="-46.3" font-family="Helvetica,sans-Serif" font-size="11.00" fill="#000000">2 &gt;</text>
<polygon fill="none" stroke="#000000" stroke-width="2" points="9,-39.2 9,-171.2 260,-171.2 260,-39.2 9,-39.2"/>
</a>
</g>
</g>
<!-- granting_paid_leave_rule_detail&#45;&gt;granting_paid_leave_rule -->
<g id="edge1" class="edge">
<title>granting_paid_leave_rule_detail:w&#45;&gt;granting_paid_leave_rule:e</title>
<path fill="none" stroke="#000000" d="M296.6894,-209.7829C276.7538,-193.2825 294.9329,-136.2 259.5,-136.2"/>
<polygon fill="#000000" stroke="#000000" points="302.8802,-211.7629 309.4033,-217.6289 306.6901,-212.9814 310.5,-214.2 310.5,-214.2 310.5,-214.2 306.6901,-212.9814 311.5967,-210.7711 302.8802,-211.7629 302.8802,-211.7629"/>
<ellipse fill="none" stroke="#000000" cx="299.8323" cy="-210.7881" rx="3.2" ry="3.2"/>
</g>
<!-- paid_leave_grant_history -->
<g id="node3" class="node">
<title>paid_leave_grant_history</title>
<g id="a_node3"><a xlink:href="../../tables/paid_leave_grant_history.html" xlink:title="paid_leave_grant_history" target="_top">
<polygon fill="#ffffff" stroke="transparent" points="562,-179.7 562,-240.7 727,-240.7 727,-179.7 562,-179.7"/>
<polygon fill="#f5f5f5" stroke="transparent" points="562.5,-217.2 562.5,-240.2 727.5,-240.2 727.5,-217.2 562.5,-217.2"/>
<polygon fill="none" stroke="#000000" points="562.5,-217.2 562.5,-240.2 727.5,-240.2 727.5,-217.2 562.5,-217.2"/>
<text text-anchor="start" x="567.0656" y="-226.3" font-family="Helvetica,sans-Serif" font-weight="bold" font-size="11.00" fill="#000000">paid_leave_grant_history</text>
<text text-anchor="start" x="693.0219" y="-225.3" font-family="Helvetica,sans-Serif" font-size="11.00" fill="#000000">[table]</text>
<polygon fill="none" stroke="#000000" points="562.5,-198.2 562.5,-217.2 727.5,-217.2 727.5,-198.2 562.5,-198.2"/>
<text text-anchor="start" x="565.5" y="-204.3" font-family="Helvetica,sans-Serif" font-size="11.00" fill="#000000">...</text>
<polygon fill="#ffffff" stroke="transparent" points="562.5,-179.2 562.5,-198.2 630.5,-198.2 630.5,-179.2 562.5,-179.2"/>
<polygon fill="none" stroke="#000000" points="562.5,-179.2 562.5,-198.2 630.5,-198.2 630.5,-179.2 562.5,-179.2"/>
<text text-anchor="start" x="565.5" y="-185.3" font-family="Helvetica,sans-Serif" font-size="11.00" fill="#000000">&lt; 2</text>
<polygon fill="#ffffff" stroke="transparent" points="630.5,-179.2 630.5,-198.2 691.5,-198.2 691.5,-179.2 630.5,-179.2"/>
<polygon fill="none" stroke="#000000" points="630.5,-179.2 630.5,-198.2 691.5,-198.2 691.5,-179.2 630.5,-179.2"/>
<text text-anchor="start" x="656.1105" y="-185.3" font-family="Helvetica,sans-Serif" font-size="11.00" fill="#000000">0 rows</text>
<polygon fill="#ffffff" stroke="transparent" points="691.5,-179.2 691.5,-198.2 727.5,-198.2 727.5,-179.2 691.5,-179.2"/>
<polygon fill="none" stroke="#000000" points="691.5,-179.2 691.5,-198.2 727.5,-198.2 727.5,-179.2 691.5,-179.2"/>
<text text-anchor="start" x="718.3862" y="-185.3" font-family="Helvetica,sans-Serif" font-size="11.00" fill="#000000"> &#160;</text>
</a>
</g>
</g>
<!-- paid_leave_grant_history&#45;&gt;granting_paid_leave_rule_detail -->
<g id="edge2" class="edge">
<title>paid_leave_grant_history:w&#45;&gt;granting_paid_leave_rule_detail:e</title>
<path fill="none" stroke="#000000" d="M548.4495,-211.2323C536.471,-219.2007 532.8749,-236.2 513.5,-236.2"/>
<polygon fill="#000000" stroke="#000000" points="554.8104,-209.4069 563.4931,-210.6603 558.6552,-208.3034 562.5,-207.2 562.5,-207.2 562.5,-207.2 558.6552,-208.3034 561.5069,-203.7397 554.8104,-209.4069 554.8104,-209.4069"/>
<ellipse fill="none" stroke="#000000" cx="551.7346" cy="-210.2896" rx="3.2" ry="3.2"/>
</g>
<!-- user -->
<g id="node4" class="node">
<title>user</title>
<g id="a_node4"><a xlink:href="../../tables/user.html" xlink:title="user" target="_top">
<polygon fill="#ffffff" stroke="transparent" points="371.5,-83.7 371.5,-144.7 451.5,-144.7 451.5,-83.7 371.5,-83.7"/>
<polygon fill="#f5f5f5" stroke="transparent" points="371.5,-121.2 371.5,-144.2 451.5,-144.2 451.5,-121.2 371.5,-121.2"/>
<polygon fill="none" stroke="#000000" points="371.5,-121.2 371.5,-144.2 451.5,-144.2 451.5,-121.2 371.5,-121.2"/>
<text text-anchor="start" x="376.5" y="-130.3" font-family="Helvetica,sans-Serif" font-weight="bold" font-size="11.00" fill="#000000">user</text>
<text text-anchor="start" x="416.5437" y="-129.3" font-family="Helvetica,sans-Serif" font-size="11.00" fill="#000000">[table]</text>
<polygon fill="none" stroke="#000000" points="371.5,-102.2 371.5,-121.2 451.5,-121.2 451.5,-102.2 371.5,-102.2"/>
<text text-anchor="start" x="374.5" y="-108.3" font-family="Helvetica,sans-Serif" font-size="11.00" fill="#000000">...</text>
<polygon fill="#ffffff" stroke="transparent" points="371.5,-83.2 371.5,-102.2 392.5,-102.2 392.5,-83.2 371.5,-83.2"/>
<polygon fill="none" stroke="#000000" points="371.5,-83.2 371.5,-102.2 392.5,-102.2 392.5,-83.2 371.5,-83.2"/>
<text text-anchor="start" x="374.2027" y="-89.3" font-family="Helvetica,sans-Serif" font-size="11.00" fill="#000000">&lt; 1</text>
<polygon fill="#ffffff" stroke="transparent" points="392.5,-83.2 392.5,-102.2 430.5,-102.2 430.5,-83.2 392.5,-83.2"/>
<polygon fill="none" stroke="#000000" points="392.5,-83.2 392.5,-102.2 430.5,-102.2 430.5,-83.2 392.5,-83.2"/>
<text text-anchor="start" x="395.3053" y="-89.3" font-family="Helvetica,sans-Serif" font-size="11.00" fill="#000000">3 rows</text>
<polygon fill="#ffffff" stroke="transparent" points="430.5,-83.2 430.5,-102.2 451.5,-102.2 451.5,-83.2 430.5,-83.2"/>
<polygon fill="none" stroke="#000000" points="430.5,-83.2 430.5,-102.2 451.5,-102.2 451.5,-83.2 430.5,-83.2"/>
<text text-anchor="start" x="433.2027" y="-89.3" font-family="Helvetica,sans-Serif" font-size="11.00" fill="#000000">7 &gt;</text>
</a>
</g>
</g>
<!-- paid_leave_grant_history&#45;&gt;user -->
<g id="edge3" class="edge">
<title>paid_leave_grant_history:w&#45;&gt;user:e</title>
<path fill="none" stroke="#000000" d="M548.4083,-203.3137C535.758,-194.1462 538.3735,-170.7734 521,-155.2 493.7772,-130.7979 488.0588,-111.2 451.5,-111.2"/>
<polygon fill="#000000" stroke="#000000" points="554.7879,-205.0731 561.5429,-210.6704 558.644,-206.1365 562.5,-207.2 562.5,-207.2 562.5,-207.2 558.644,-206.1365 563.4571,-203.7296 554.7879,-205.0731 554.7879,-205.0731"/>
<ellipse fill="none" stroke="#000000" cx="551.7031" cy="-204.2223" rx="3.2" ry="3.2"/>
</g>
<!-- user_rule -->
<g id="node5" class="node">
<title>user_rule</title>
<g id="a_node5"><a xlink:href="../../tables/user_rule.html" xlink:title="user_rule" target="_top">
<polygon fill="#ffffff" stroke="transparent" points="600.5,-44.2 600.5,-130.2 688.5,-130.2 688.5,-44.2 600.5,-44.2"/>
<polygon fill="#f5f5f5" stroke="transparent" points="600.5,-107.2 600.5,-130.2 688.5,-130.2 688.5,-107.2 600.5,-107.2"/>
<polygon fill="none" stroke="#000000" points="600.5,-107.2 600.5,-130.2 688.5,-130.2 688.5,-107.2 600.5,-107.2"/>
<text text-anchor="start" x="605.0804" y="-116.3" font-family="Helvetica,sans-Serif" font-weight="bold" font-size="11.00" fill="#000000">user_rule</text>
<text text-anchor="start" x="654.0219" y="-115.3" font-family="Helvetica,sans-Serif" font-size="11.00" fill="#000000">[table]</text>
<polygon fill="none" stroke="#000000" points="600.5,-85.2 600.5,-107.2 688.5,-107.2 688.5,-85.2 600.5,-85.2"/>
<image xlink:href="../../images/primaryKeys.png" width="11px" height="12px" preserveAspectRatio="xMinYMin meet" x="605.5" y="-102.2"/>
<text text-anchor="start" x="627.5" y="-92.3" font-family="Helvetica,sans-Serif" font-size="11.00" fill="#000000">user_id</text>
<polygon fill="none" stroke="#000000" points="600.5,-63.2 600.5,-85.2 688.5,-85.2 688.5,-63.2 600.5,-63.2"/>
<image xlink:href="../../images/foreignKeys.png" width="11px" height="12px" preserveAspectRatio="xMinYMin meet" x="605.5" y="-80.2"/>
<text text-anchor="start" x="627.5" y="-70.3" font-family="Helvetica,sans-Serif" font-size="11.00" fill="#000000">rule_id</text>
<polygon fill="#ffffff" stroke="transparent" points="600.5,-44.2 600.5,-63.2 629.5,-63.2 629.5,-44.2 600.5,-44.2"/>
<polygon fill="none" stroke="#000000" points="600.5,-44.2 600.5,-63.2 629.5,-63.2 629.5,-44.2 600.5,-44.2"/>
<text text-anchor="start" x="603.5" y="-50.3" font-family="Helvetica,sans-Serif" font-size="11.00" fill="#000000">&lt; 2</text>
<polygon fill="#ffffff" stroke="transparent" points="629.5,-44.2 629.5,-63.2 671.5,-63.2 671.5,-44.2 629.5,-44.2"/>
<polygon fill="none" stroke="#000000" points="629.5,-44.2 629.5,-63.2 671.5,-63.2 671.5,-44.2 629.5,-44.2"/>
<text text-anchor="start" x="636.1105" y="-50.3" font-family="Helvetica,sans-Serif" font-size="11.00" fill="#000000">2 rows</text>
<polygon fill="#ffffff" stroke="transparent" points="671.5,-44.2 671.5,-63.2 688.5,-63.2 688.5,-44.2 671.5,-44.2"/>
<polygon fill="none" stroke="#000000" points="671.5,-44.2 671.5,-63.2 688.5,-63.2 688.5,-44.2 671.5,-44.2"/>
<text text-anchor="start" x="679.3862" y="-50.3" font-family="Helvetica,sans-Serif" font-size="11.00" fill="#000000"> &#160;</text>
</a>
</g>
</g>
<!-- user_rule&#45;&gt;granting_paid_leave_rule -->
<g id="edge4" class="edge">
<title>user_rule:w&#45;&gt;granting_paid_leave_rule:e</title>
<path fill="none" stroke="#000000" d="M586.0695,-73.9482C464.1245,-69.6764 414.7934,-13.2314 302,-73.2 272.1774,-89.0557 293.2756,-136.2 259.5,-136.2"/>
<polygon fill="#000000" stroke="#000000" points="592.5012,-74.0604 600.4372,-77.7995 596.5006,-74.1302 600.5,-74.2 600.5,-74.2 600.5,-74.2 596.5006,-74.1302 600.5628,-70.6005 592.5012,-74.0604 592.5012,-74.0604"/>
<ellipse fill="none" stroke="#000000" cx="589.3017" cy="-74.0045" rx="3.2" ry="3.2"/>
</g>
<!-- user_rule&#45;&gt;user -->
<g id="edge5" class="edge">
<title>user_rule:w&#45;&gt;user:e</title>
<path fill="none" stroke="#000000" d="M590.0186,-96.3297C532.054,-97.7958 514.4171,-111.2 451.5,-111.2"/>
<polygon fill="#000000" stroke="#000000" points="599.6505,-92.2102 599.7496,-100.2096 598.1497,-100.2294 598.0507,-92.23 599.6505,-92.2102"/>
<polyline fill="none" stroke="#000000" points="600.5,-96.2 596.5003,-96.2495 "/>
<ellipse fill="none" stroke="#000000" cx="593.3006" cy="-96.2891" rx="3.2" ry="3.2"/>
</g>
</g>
</svg>
