<?xml version="1.0" encoding="UTF-8" standalone="no"?>
<!DOCTYPE svg PUBLIC "-//W3C//DTD SVG 1.1//EN"
 "http://www.w3.org/Graphics/SVG/1.1/DTD/svg11.dtd">
<!-- Generated by graphviz version 2.40.1 (20161225.0304)
 -->
<!-- Title: oneDegreeRelationshipsDiagram Pages: 1 -->
<svg width="403pt" height="281pt"
 viewBox="0.00 0.00 403.00 281.20" xmlns="http://www.w3.org/2000/svg" xmlns:xlink="http://www.w3.org/1999/xlink">
<g id="graph0" class="graph" transform="scale(1 1) rotate(0) translate(4 277.2)">
<title>oneDegreeRelationshipsDiagram</title>
<polygon fill="#ffffff" stroke="transparent" points="-4,4 -4,-277.2 399,-277.2 399,4 -4,4"/>
<text text-anchor="middle" x="72.4936" y="-7.3" font-family="Helvetica,sans-Serif" font-size="11.00" fill="#000000">Generated by SchemaSpy</text>
<!-- manager -->
<g id="node1" class="node">
<title>manager</title>
<g id="a_node1"><a xlink:href="../../tables/manager.html" xlink:title="manager" target="_top">
<polygon fill="#ffffff" stroke="transparent" points="266,-164.2 266,-269.2 387,-269.2 387,-164.2 266,-164.2"/>
<polygon fill="#f5f5f5" stroke="transparent" points="266.5,-245.7 266.5,-268.7 387.5,-268.7 387.5,-245.7 266.5,-245.7"/>
<polygon fill="none" stroke="#000000" points="266.5,-245.7 266.5,-268.7 387.5,-268.7 387.5,-245.7 266.5,-245.7"/>
<text text-anchor="start" x="271.5" y="-254.8" font-family="Helvetica,sans-Serif" font-weight="bold" font-size="11.00" fill="#000000">manager</text>
<text text-anchor="start" x="352.5437" y="-253.8" font-family="Helvetica,sans-Serif" font-size="11.00" fill="#000000">[table]</text>
<polygon fill="none" stroke="#000000" points="266.5,-223.7 266.5,-245.7 387.5,-245.7 387.5,-223.7 266.5,-223.7"/>
<image xlink:href="../../images/primaryKeys.png" width="11px" height="12px" preserveAspectRatio="xMinYMin meet" x="271.5" y="-240.7"/>
<text text-anchor="start" x="286.5" y="-230.8" font-family="Helvetica,sans-Serif" font-size="11.00" fill="#000000">group_id</text>
<polygon fill="none" stroke="#000000" points="266.5,-201.7 266.5,-223.7 387.5,-223.7 387.5,-201.7 266.5,-201.7"/>
<image xlink:href="../../images/primaryKeys.png" width="11px" height="12px" preserveAspectRatio="xMinYMin meet" x="271.5" y="-218.7"/>
<text text-anchor="start" x="286.5" y="-208.8" font-family="Helvetica,sans-Serif" font-size="11.00" fill="#000000">user_id</text>
<polygon fill="none" stroke="#000000" points="266.5,-182.7 266.5,-201.7 387.5,-201.7 387.5,-182.7 266.5,-182.7"/>
<text text-anchor="start" x="269.5" y="-188.8" font-family="Helvetica,sans-Serif" font-size="11.00" fill="#000000">...</text>
<polygon fill="#ffffff" stroke="transparent" points="266.5,-163.7 266.5,-182.7 312.5,-182.7 312.5,-163.7 266.5,-163.7"/>
<polygon fill="none" stroke="#000000" points="266.5,-163.7 266.5,-182.7 312.5,-182.7 312.5,-163.7 266.5,-163.7"/>
<text text-anchor="start" x="269.5" y="-169.8" font-family="Helvetica,sans-Serif" font-size="11.00" fill="#000000">&lt; 2</text>
<polygon fill="#ffffff" stroke="transparent" points="312.5,-163.7 312.5,-182.7 362.5,-182.7 362.5,-163.7 312.5,-163.7"/>
<polygon fill="none" stroke="#000000" points="312.5,-163.7 312.5,-182.7 362.5,-182.7 362.5,-163.7 312.5,-163.7"/>
<text text-anchor="start" x="327.1105" y="-169.8" font-family="Helvetica,sans-Serif" font-size="11.00" fill="#000000">0 rows</text>
<polygon fill="#ffffff" stroke="transparent" points="362.5,-163.7 362.5,-182.7 387.5,-182.7 387.5,-163.7 362.5,-163.7"/>
<polygon fill="none" stroke="#000000" points="362.5,-163.7 362.5,-182.7 387.5,-182.7 387.5,-163.7 362.5,-163.7"/>
<text text-anchor="start" x="378.3862" y="-169.8" font-family="Helvetica,sans-Serif" font-size="11.00" fill="#000000"> &#160;</text>
</a>
</g>
</g>
<!-- group -->
<g id="node2" class="node">
<title>group</title>
<g id="a_node2"><a xlink:href="../../tables/group.html" xlink:title="group" target="_top">
<polygon fill="#ffffff" stroke="transparent" points="8,-51.7 8,-207.7 217,-207.7 217,-51.7 8,-51.7"/>
<polygon fill="#f5f5f5" stroke="transparent" points="10.5,-182.7 10.5,-205.7 215.5,-205.7 215.5,-182.7 10.5,-182.7"/>
<polygon fill="none" stroke="#000000" points="10.5,-182.7 10.5,-205.7 215.5,-205.7 215.5,-182.7 10.5,-182.7"/>
<text text-anchor="start" x="15.5" y="-191.8" font-family="Helvetica,sans-Serif" font-weight="bold" font-size="11.00" fill="#000000">group</text>
<text text-anchor="start" x="180.5437" y="-190.8" font-family="Helvetica,sans-Serif" font-size="11.00" fill="#000000">[table]</text>
<polygon fill="none" stroke="#000000" points="10.5,-160.7 10.5,-182.7 131.5,-182.7 131.5,-160.7 10.5,-160.7"/>
<image xlink:href="../../images/primaryKeys.png" width="11px" height="12px" preserveAspectRatio="xMinYMin meet" x="15.5" y="-177.7"/>
<text text-anchor="start" x="30.5" y="-167.8" font-family="Helvetica,sans-Serif" font-size="11.00" fill="#000000">id</text>
<polygon fill="none" stroke="#000000" points="131.5,-160.7 131.5,-182.7 215.5,-182.7 215.5,-160.7 131.5,-160.7"/>
<text text-anchor="start" x="134.5" y="-168.4" font-family="Helvetica,sans-Serif" font-size="11.00" fill="#000000">int4[10]</text>
<polygon fill="none" stroke="#000000" points="10.5,-138.7 10.5,-160.7 131.5,-160.7 131.5,-138.7 10.5,-138.7"/>
<text text-anchor="start" x="30.5" y="-145.8" font-family="Helvetica,sans-Serif" font-size="11.00" fill="#000000">name</text>
<polygon fill="none" stroke="#000000" points="131.5,-138.7 131.5,-160.7 215.5,-160.7 215.5,-138.7 131.5,-138.7"/>
<text text-anchor="start" x="134.5" y="-146.4" font-family="Helvetica,sans-Serif" font-size="11.00" fill="#000000">varchar[100]</text>
<polygon fill="none" stroke="#000000" points="10.5,-116.7 10.5,-138.7 131.5,-138.7 131.5,-116.7 10.5,-116.7"/>
<text text-anchor="start" x="30.5" y="-123.8" font-family="Helvetica,sans-Serif" font-size="11.00" fill="#000000">register_datetime</text>
<polygon fill="none" stroke="#000000" points="131.5,-116.7 131.5,-138.7 215.5,-138.7 215.5,-116.7 131.5,-116.7"/>
<text text-anchor="start" x="134.3807" y="-124.4" font-family="Helvetica,sans-Serif" font-size="11.00" fill="#000000">timestamp[29,6]</text>
<polygon fill="none" stroke="#000000" points="10.5,-94.7 10.5,-116.7 131.5,-116.7 131.5,-94.7 10.5,-94.7"/>
<text text-anchor="start" x="30.5" y="-101.8" font-family="Helvetica,sans-Serif" font-size="11.00" fill="#000000">update_datetime</text>
<polygon fill="none" stroke="#000000" points="131.5,-94.7 131.5,-116.7 215.5,-116.7 215.5,-94.7 131.5,-94.7"/>
<text text-anchor="start" x="134.3807" y="-102.4" font-family="Helvetica,sans-Serif" font-size="11.00" fill="#000000">timestamp[29,6]</text>
<polygon fill="none" stroke="#000000" points="10.5,-72.7 10.5,-94.7 131.5,-94.7 131.5,-72.7 10.5,-72.7"/>
<text text-anchor="start" x="30.5" y="-79.8" font-family="Helvetica,sans-Serif" font-size="11.00" fill="#000000">deleted</text>
<polygon fill="none" stroke="#000000" points="131.5,-72.7 131.5,-94.7 215.5,-94.7 215.5,-72.7 131.5,-72.7"/>
<text text-anchor="start" x="134.5" y="-80.4" font-family="Helvetica,sans-Serif" font-size="11.00" fill="#000000">bool[1]</text>
<polygon fill="#ffffff" stroke="transparent" points="10.5,-53.7 10.5,-72.7 65.5,-72.7 65.5,-53.7 10.5,-53.7"/>
<polygon fill="none" stroke="#000000" points="10.5,-53.7 10.5,-72.7 65.5,-72.7 65.5,-53.7 10.5,-53.7"/>
<text text-anchor="start" x="13.5" y="-59.8" font-family="Helvetica,sans-Serif" font-size="11.00" fill="#000000">&lt; 0</text>
<polygon fill="#ffffff" stroke="transparent" points="65.5,-53.7 65.5,-72.7 131.5,-72.7 131.5,-53.7 65.5,-53.7"/>
<polygon fill="none" stroke="#000000" points="65.5,-53.7 65.5,-72.7 131.5,-72.7 131.5,-53.7 65.5,-53.7"/>
<text text-anchor="start" x="101.6105" y="-59.8" font-family="Helvetica,sans-Serif" font-size="11.00" fill="#000000">1 row</text>
<polygon fill="#ffffff" stroke="transparent" points="131.5,-53.7 131.5,-72.7 215.5,-72.7 215.5,-53.7 131.5,-53.7"/>
<polygon fill="none" stroke="#000000" points="131.5,-53.7 131.5,-72.7 215.5,-72.7 215.5,-53.7 131.5,-53.7"/>
<text text-anchor="start" x="196.9053" y="-59.8" font-family="Helvetica,sans-Serif" font-size="11.00" fill="#000000">2 &gt;</text>
<polygon fill="none" stroke="#000000" stroke-width="2" points="9,-52.7 9,-206.7 216,-206.7 216,-52.7 9,-52.7"/>
</a>
</g>
</g>
<!-- manager&#45;&gt;group -->
<g id="edge1" class="edge">
<title>manager:w&#45;&gt;group:e</title>
<path fill="none" stroke="#000000" d="M252.4033,-229.7565C236.025,-214.9048 245.3329,-171.7 215.5,-171.7"/>
<polygon fill="#000000" stroke="#000000" points="258.9507,-232.0526 265.3087,-238.0972 262.7254,-233.3763 266.5,-234.7 266.5,-234.7 266.5,-234.7 262.7254,-233.3763 267.6913,-231.3028 258.9507,-232.0526 258.9507,-232.0526"/>
<ellipse fill="none" stroke="#000000" cx="255.931" cy="-230.9936" rx="3.2" ry="3.2"/>
</g>
<!-- member -->
<g id="node3" class="node">
<title>member</title>
<g id="a_node3"><a xlink:href="../../tables/member.html" xlink:title="member" target="_top">
<polygon fill="#ffffff" stroke="transparent" points="266,-38.2 266,-143.2 387,-143.2 387,-38.2 266,-38.2"/>
<polygon fill="#f5f5f5" stroke="transparent" points="266.5,-119.7 266.5,-142.7 387.5,-142.7 387.5,-119.7 266.5,-119.7"/>
<polygon fill="none" stroke="#000000" points="266.5,-119.7 266.5,-142.7 387.5,-142.7 387.5,-119.7 266.5,-119.7"/>
<text text-anchor="start" x="271.5" y="-128.8" font-family="Helvetica,sans-Serif" font-weight="bold" font-size="11.00" fill="#000000">member</text>
<text text-anchor="start" x="352.5437" y="-127.8" font-family="Helvetica,sans-Serif" font-size="11.00" fill="#000000">[table]</text>
<polygon fill="none" stroke="#000000" points="266.5,-97.7 266.5,-119.7 387.5,-119.7 387.5,-97.7 266.5,-97.7"/>
<image xlink:href="../../images/primaryKeys.png" width="11px" height="12px" preserveAspectRatio="xMinYMin meet" x="271.5" y="-114.7"/>
<text text-anchor="start" x="286.5" y="-104.8" font-family="Helvetica,sans-Serif" font-size="11.00" fill="#000000">group_id</text>
<polygon fill="none" stroke="#000000" points="266.5,-75.7 266.5,-97.7 387.5,-97.7 387.5,-75.7 266.5,-75.7"/>
<image xlink:href="../../images/primaryKeys.png" width="11px" height="12px" preserveAspectRatio="xMinYMin meet" x="271.5" y="-92.7"/>
<text text-anchor="start" x="286.5" y="-82.8" font-family="Helvetica,sans-Serif" font-size="11.00" fill="#000000">user_id</text>
<polygon fill="none" stroke="#000000" points="266.5,-56.7 266.5,-75.7 387.5,-75.7 387.5,-56.7 266.5,-56.7"/>
<text text-anchor="start" x="269.5" y="-62.8" font-family="Helvetica,sans-Serif" font-size="11.00" fill="#000000">...</text>
<polygon fill="#ffffff" stroke="transparent" points="266.5,-37.7 266.5,-56.7 312.5,-56.7 312.5,-37.7 266.5,-37.7"/>
<polygon fill="none" stroke="#000000" points="266.5,-37.7 266.5,-56.7 312.5,-56.7 312.5,-37.7 266.5,-37.7"/>
<text text-anchor="start" x="269.5" y="-43.8" font-family="Helvetica,sans-Serif" font-size="11.00" fill="#000000">&lt; 2</text>
<polygon fill="#ffffff" stroke="transparent" points="312.5,-37.7 312.5,-56.7 362.5,-56.7 362.5,-37.7 312.5,-37.7"/>
<polygon fill="none" stroke="#000000" points="312.5,-37.7 312.5,-56.7 362.5,-56.7 362.5,-37.7 312.5,-37.7"/>
<text text-anchor="start" x="327.1105" y="-43.8" font-family="Helvetica,sans-Serif" font-size="11.00" fill="#000000">0 rows</text>
<polygon fill="#ffffff" stroke="transparent" points="362.5,-37.7 362.5,-56.7 387.5,-56.7 387.5,-37.7 362.5,-37.7"/>
<polygon fill="none" stroke="#000000" points="362.5,-37.7 362.5,-56.7 387.5,-56.7 387.5,-37.7 362.5,-37.7"/>
<text text-anchor="start" x="378.3862" y="-43.8" font-family="Helvetica,sans-Serif" font-size="11.00" fill="#000000"> &#160;</text>
</a>
</g>
</g>
<!-- member&#45;&gt;group -->
<g id="edge2" class="edge">
<title>member:w&#45;&gt;group:e</title>
<path fill="none" stroke="#000000" d="M252.4033,-113.6435C236.025,-128.4952 245.3329,-171.7 215.5,-171.7"/>
<polygon fill="#000000" stroke="#000000" points="258.9507,-111.3474 267.6913,-112.0972 262.7254,-110.0237 266.5,-108.7 266.5,-108.7 266.5,-108.7 262.7254,-110.0237 265.3087,-105.3028 258.9507,-111.3474 258.9507,-111.3474"/>
<ellipse fill="none" stroke="#000000" cx="255.931" cy="-112.4064" rx="3.2" ry="3.2"/>
</g>
</g>
</svg>
