<?xml version="1.0" encoding="UTF-8" standalone="no"?>
<!DOCTYPE svg PUBLIC "-//W3C//DTD SVG 1.1//EN"
 "http://www.w3.org/Graphics/SVG/1.1/DTD/svg11.dtd">
<!-- Generated by graphviz version 2.40.1 (20161225.0304)
 -->
<!-- Title: twoDegreesRelationshipsDiagram Pages: 1 -->
<svg width="403pt" height="303pt"
 viewBox="0.00 0.00 403.00 302.70" xmlns="http://www.w3.org/2000/svg" xmlns:xlink="http://www.w3.org/1999/xlink">
<g id="graph0" class="graph" transform="scale(1 1) rotate(0) translate(4 298.7)">
<title>twoDegreesRelationshipsDiagram</title>
<polygon fill="#ffffff" stroke="transparent" points="-4,4 -4,-298.7 399,-298.7 399,4 -4,4"/>
<text text-anchor="middle" x="72.4936" y="-7.3" font-family="Helvetica,sans-Serif" font-size="11.00" fill="#000000">Generated by SchemaSpy</text>
<!-- manager -->
<g id="node1" class="node">
<title>manager</title>
<g id="a_node1"><a xlink:href="../../tables/manager.html" xlink:title="manager" target="_top">
<polygon fill="#ffffff" stroke="transparent" points="266,-177.2 266,-282.2 387,-282.2 387,-177.2 266,-177.2"/>
<polygon fill="#f5f5f5" stroke="transparent" points="266.5,-258.7 266.5,-281.7 387.5,-281.7 387.5,-258.7 266.5,-258.7"/>
<polygon fill="none" stroke="#000000" points="266.5,-258.7 266.5,-281.7 387.5,-281.7 387.5,-258.7 266.5,-258.7"/>
<text text-anchor="start" x="271.5" y="-267.8" font-family="Helvetica,sans-Serif" font-weight="bold" font-size="11.00" fill="#000000">manager</text>
<text text-anchor="start" x="352.5437" y="-266.8" font-family="Helvetica,sans-Serif" font-size="11.00" fill="#000000">[table]</text>
<polygon fill="none" stroke="#000000" points="266.5,-236.7 266.5,-258.7 387.5,-258.7 387.5,-236.7 266.5,-236.7"/>
<image xlink:href="../../images/primaryKeys.png" width="11px" height="12px" preserveAspectRatio="xMinYMin meet" x="271.5" y="-253.7"/>
<text text-anchor="start" x="286.5" y="-243.8" font-family="Helvetica,sans-Serif" font-size="11.00" fill="#000000">group_id</text>
<polygon fill="none" stroke="#000000" points="266.5,-214.7 266.5,-236.7 387.5,-236.7 387.5,-214.7 266.5,-214.7"/>
<image xlink:href="../../images/primaryKeys.png" width="11px" height="12px" preserveAspectRatio="xMinYMin meet" x="271.5" y="-231.7"/>
<text text-anchor="start" x="286.5" y="-221.8" font-family="Helvetica,sans-Serif" font-size="11.00" fill="#000000">user_id</text>
<polygon fill="none" stroke="#000000" points="266.5,-195.7 266.5,-214.7 387.5,-214.7 387.5,-195.7 266.5,-195.7"/>
<text text-anchor="start" x="269.5" y="-201.8" font-family="Helvetica,sans-Serif" font-size="11.00" fill="#000000">...</text>
<polygon fill="#ffffff" stroke="transparent" points="266.5,-176.7 266.5,-195.7 312.5,-195.7 312.5,-176.7 266.5,-176.7"/>
<polygon fill="none" stroke="#000000" points="266.5,-176.7 266.5,-195.7 312.5,-195.7 312.5,-176.7 266.5,-176.7"/>
<text text-anchor="start" x="269.5" y="-182.8" font-family="Helvetica,sans-Serif" font-size="11.00" fill="#000000">&lt; 2</text>
<polygon fill="#ffffff" stroke="transparent" points="312.5,-176.7 312.5,-195.7 362.5,-195.7 362.5,-176.7 312.5,-176.7"/>
<polygon fill="none" stroke="#000000" points="312.5,-176.7 312.5,-195.7 362.5,-195.7 362.5,-176.7 312.5,-176.7"/>
<text text-anchor="start" x="327.1105" y="-182.8" font-family="Helvetica,sans-Serif" font-size="11.00" fill="#000000">0 rows</text>
<polygon fill="#ffffff" stroke="transparent" points="362.5,-176.7 362.5,-195.7 387.5,-195.7 387.5,-176.7 362.5,-176.7"/>
<polygon fill="none" stroke="#000000" points="362.5,-176.7 362.5,-195.7 387.5,-195.7 387.5,-176.7 362.5,-176.7"/>
<text text-anchor="start" x="378.3862" y="-182.8" font-family="Helvetica,sans-Serif" font-size="11.00" fill="#000000"> &#160;</text>
</a>
</g>
</g>
<!-- group -->
<g id="node2" class="node">
<title>group</title>
<g id="a_node2"><a xlink:href="../../tables/group.html" xlink:title="group" target="_top">
<polygon fill="#ffffff" stroke="transparent" points="8,-134.7 8,-290.7 217,-290.7 217,-134.7 8,-134.7"/>
<polygon fill="#f5f5f5" stroke="transparent" points="10.5,-265.7 10.5,-288.7 215.5,-288.7 215.5,-265.7 10.5,-265.7"/>
<polygon fill="none" stroke="#000000" points="10.5,-265.7 10.5,-288.7 215.5,-288.7 215.5,-265.7 10.5,-265.7"/>
<text text-anchor="start" x="15.5" y="-274.8" font-family="Helvetica,sans-Serif" font-weight="bold" font-size="11.00" fill="#000000">group</text>
<text text-anchor="start" x="180.5437" y="-273.8" font-family="Helvetica,sans-Serif" font-size="11.00" fill="#000000">[table]</text>
<polygon fill="none" stroke="#000000" points="10.5,-243.7 10.5,-265.7 131.5,-265.7 131.5,-243.7 10.5,-243.7"/>
<image xlink:href="../../images/primaryKeys.png" width="11px" height="12px" preserveAspectRatio="xMinYMin meet" x="15.5" y="-260.7"/>
<text text-anchor="start" x="30.5" y="-250.8" font-family="Helvetica,sans-Serif" font-size="11.00" fill="#000000">id</text>
<polygon fill="none" stroke="#000000" points="131.5,-243.7 131.5,-265.7 215.5,-265.7 215.5,-243.7 131.5,-243.7"/>
<text text-anchor="start" x="134.5" y="-251.4" font-family="Helvetica,sans-Serif" font-size="11.00" fill="#000000">int4[10]</text>
<polygon fill="none" stroke="#000000" points="10.5,-221.7 10.5,-243.7 131.5,-243.7 131.5,-221.7 10.5,-221.7"/>
<text text-anchor="start" x="30.5" y="-228.8" font-family="Helvetica,sans-Serif" font-size="11.00" fill="#000000">name</text>
<polygon fill="none" stroke="#000000" points="131.5,-221.7 131.5,-243.7 215.5,-243.7 215.5,-221.7 131.5,-221.7"/>
<text text-anchor="start" x="134.5" y="-229.4" font-family="Helvetica,sans-Serif" font-size="11.00" fill="#000000">varchar[100]</text>
<polygon fill="none" stroke="#000000" points="10.5,-199.7 10.5,-221.7 131.5,-221.7 131.5,-199.7 10.5,-199.7"/>
<text text-anchor="start" x="30.5" y="-206.8" font-family="Helvetica,sans-Serif" font-size="11.00" fill="#000000">register_datetime</text>
<polygon fill="none" stroke="#000000" points="131.5,-199.7 131.5,-221.7 215.5,-221.7 215.5,-199.7 131.5,-199.7"/>
<text text-anchor="start" x="134.3807" y="-207.4" font-family="Helvetica,sans-Serif" font-size="11.00" fill="#000000">timestamp[29,6]</text>
<polygon fill="none" stroke="#000000" points="10.5,-177.7 10.5,-199.7 131.5,-199.7 131.5,-177.7 10.5,-177.7"/>
<text text-anchor="start" x="30.5" y="-184.8" font-family="Helvetica,sans-Serif" font-size="11.00" fill="#000000">update_datetime</text>
<polygon fill="none" stroke="#000000" points="131.5,-177.7 131.5,-199.7 215.5,-199.7 215.5,-177.7 131.5,-177.7"/>
<text text-anchor="start" x="134.3807" y="-185.4" font-family="Helvetica,sans-Serif" font-size="11.00" fill="#000000">timestamp[29,6]</text>
<polygon fill="none" stroke="#000000" points="10.5,-155.7 10.5,-177.7 131.5,-177.7 131.5,-155.7 10.5,-155.7"/>
<text text-anchor="start" x="30.5" y="-162.8" font-family="Helvetica,sans-Serif" font-size="11.00" fill="#000000">deleted</text>
<polygon fill="none" stroke="#000000" points="131.5,-155.7 131.5,-177.7 215.5,-177.7 215.5,-155.7 131.5,-155.7"/>
<text text-anchor="start" x="134.5" y="-163.4" font-family="Helvetica,sans-Serif" font-size="11.00" fill="#000000">bool[1]</text>
<polygon fill="#ffffff" stroke="transparent" points="10.5,-136.7 10.5,-155.7 65.5,-155.7 65.5,-136.7 10.5,-136.7"/>
<polygon fill="none" stroke="#000000" points="10.5,-136.7 10.5,-155.7 65.5,-155.7 65.5,-136.7 10.5,-136.7"/>
<text text-anchor="start" x="13.5" y="-142.8" font-family="Helvetica,sans-Serif" font-size="11.00" fill="#000000">&lt; 0</text>
<polygon fill="#ffffff" stroke="transparent" points="65.5,-136.7 65.5,-155.7 131.5,-155.7 131.5,-136.7 65.5,-136.7"/>
<polygon fill="none" stroke="#000000" points="65.5,-136.7 65.5,-155.7 131.5,-155.7 131.5,-136.7 65.5,-136.7"/>
<text text-anchor="start" x="101.6105" y="-142.8" font-family="Helvetica,sans-Serif" font-size="11.00" fill="#000000">1 row</text>
<polygon fill="#ffffff" stroke="transparent" points="131.5,-136.7 131.5,-155.7 215.5,-155.7 215.5,-136.7 131.5,-136.7"/>
<polygon fill="none" stroke="#000000" points="131.5,-136.7 131.5,-155.7 215.5,-155.7 215.5,-136.7 131.5,-136.7"/>
<text text-anchor="start" x="196.9053" y="-142.8" font-family="Helvetica,sans-Serif" font-size="11.00" fill="#000000">2 &gt;</text>
<polygon fill="none" stroke="#000000" stroke-width="2" points="9,-135.7 9,-289.7 216,-289.7 216,-135.7 9,-135.7"/>
</a>
</g>
</g>
<!-- manager&#45;&gt;group -->
<g id="edge1" class="edge">
<title>manager:w&#45;&gt;group:e</title>
<path fill="none" stroke="#000000" d="M252.0965,-248.7938C239.8977,-250.7625 232.6594,-254.7 215.5,-254.7"/>
<polygon fill="#000000" stroke="#000000" points="258.523,-248.3058 266.7726,-251.2897 262.5115,-248.0029 266.5,-247.7 266.5,-247.7 266.5,-247.7 262.5115,-248.0029 266.2274,-244.1103 258.523,-248.3058 258.523,-248.3058"/>
<ellipse fill="none" stroke="#000000" cx="255.3322" cy="-248.5481" rx="3.2" ry="3.2"/>
</g>
<!-- user -->
<g id="node3" class="node">
<title>user</title>
<g id="a_node3"><a xlink:href="../../tables/user.html" xlink:title="user" target="_top">
<polygon fill="#ffffff" stroke="transparent" points="72.5,-52.2 72.5,-113.2 152.5,-113.2 152.5,-52.2 72.5,-52.2"/>
<polygon fill="#f5f5f5" stroke="transparent" points="72.5,-89.7 72.5,-112.7 152.5,-112.7 152.5,-89.7 72.5,-89.7"/>
<polygon fill="none" stroke="#000000" points="72.5,-89.7 72.5,-112.7 152.5,-112.7 152.5,-89.7 72.5,-89.7"/>
<text text-anchor="start" x="77.5" y="-98.8" font-family="Helvetica,sans-Serif" font-weight="bold" font-size="11.00" fill="#000000">user</text>
<text text-anchor="start" x="117.5437" y="-97.8" font-family="Helvetica,sans-Serif" font-size="11.00" fill="#000000">[table]</text>
<polygon fill="none" stroke="#000000" points="72.5,-70.7 72.5,-89.7 152.5,-89.7 152.5,-70.7 72.5,-70.7"/>
<text text-anchor="start" x="75.5" y="-76.8" font-family="Helvetica,sans-Serif" font-size="11.00" fill="#000000">...</text>
<polygon fill="#ffffff" stroke="transparent" points="72.5,-51.7 72.5,-70.7 93.5,-70.7 93.5,-51.7 72.5,-51.7"/>
<polygon fill="none" stroke="#000000" points="72.5,-51.7 72.5,-70.7 93.5,-70.7 93.5,-51.7 72.5,-51.7"/>
<text text-anchor="start" x="75.2027" y="-57.8" font-family="Helvetica,sans-Serif" font-size="11.00" fill="#000000">&lt; 1</text>
<polygon fill="#ffffff" stroke="transparent" points="93.5,-51.7 93.5,-70.7 131.5,-70.7 131.5,-51.7 93.5,-51.7"/>
<polygon fill="none" stroke="#000000" points="93.5,-51.7 93.5,-70.7 131.5,-70.7 131.5,-51.7 93.5,-51.7"/>
<text text-anchor="start" x="96.3053" y="-57.8" font-family="Helvetica,sans-Serif" font-size="11.00" fill="#000000">3 rows</text>
<polygon fill="#ffffff" stroke="transparent" points="131.5,-51.7 131.5,-70.7 152.5,-70.7 152.5,-51.7 131.5,-51.7"/>
<polygon fill="none" stroke="#000000" points="131.5,-51.7 131.5,-70.7 152.5,-70.7 152.5,-51.7 131.5,-51.7"/>
<text text-anchor="start" x="134.2027" y="-57.8" font-family="Helvetica,sans-Serif" font-size="11.00" fill="#000000">7 &gt;</text>
</a>
</g>
</g>
<!-- manager&#45;&gt;user -->
<g id="edge2" class="edge">
<title>manager:w&#45;&gt;user:e</title>
<path fill="none" stroke="#000000" d="M252.0695,-222.8793C226.4773,-210.13 252.4399,-157.1077 225,-124.7 200.4935,-95.7569 190.4246,-79.7 152.5,-79.7"/>
<polygon fill="#000000" stroke="#000000" points="258.6486,-224.1652 265.8094,-229.2331 262.5743,-224.9326 266.5,-225.7 266.5,-225.7 266.5,-225.7 262.5743,-224.9326 267.1906,-222.1669 258.6486,-224.1652 258.6486,-224.1652"/>
<ellipse fill="none" stroke="#000000" cx="255.508" cy="-223.5513" rx="3.2" ry="3.2"/>
</g>
<!-- member -->
<g id="node4" class="node">
<title>member</title>
<g id="a_node4"><a xlink:href="../../tables/member.html" xlink:title="member" target="_top">
<polygon fill="#ffffff" stroke="transparent" points="266,-38.2 266,-143.2 387,-143.2 387,-38.2 266,-38.2"/>
<polygon fill="#f5f5f5" stroke="transparent" points="266.5,-119.7 266.5,-142.7 387.5,-142.7 387.5,-119.7 266.5,-119.7"/>
<polygon fill="none" stroke="#000000" points="266.5,-119.7 266.5,-142.7 387.5,-142.7 387.5,-119.7 266.5,-119.7"/>
<text text-anchor="start" x="271.5" y="-128.8" font-family="Helvetica,sans-Serif" font-weight="bold" font-size="11.00" fill="#000000">member</text>
<text text-anchor="start" x="352.5437" y="-127.8" font-family="Helvetica,sans-Serif" font-size="11.00" fill="#000000">[table]</text>
<polygon fill="none" stroke="#000000" points="266.5,-97.7 266.5,-119.7 387.5,-119.7 387.5,-97.7 266.5,-97.7"/>
<image xlink:href="../../images/primaryKeys.png" width="11px" height="12px" preserveAspectRatio="xMinYMin meet" x="271.5" y="-114.7"/>
<text text-anchor="start" x="286.5" y="-104.8" font-family="Helvetica,sans-Serif" font-size="11.00" fill="#000000">group_id</text>
<polygon fill="none" stroke="#000000" points="266.5,-75.7 266.5,-97.7 387.5,-97.7 387.5,-75.7 266.5,-75.7"/>
<image xlink:href="../../images/primaryKeys.png" width="11px" height="12px" preserveAspectRatio="xMinYMin meet" x="271.5" y="-92.7"/>
<text text-anchor="start" x="286.5" y="-82.8" font-family="Helvetica,sans-Serif" font-size="11.00" fill="#000000">user_id</text>
<polygon fill="none" stroke="#000000" points="266.5,-56.7 266.5,-75.7 387.5,-75.7 387.5,-56.7 266.5,-56.7"/>
<text text-anchor="start" x="269.5" y="-62.8" font-family="Helvetica,sans-Serif" font-size="11.00" fill="#000000">...</text>
<polygon fill="#ffffff" stroke="transparent" points="266.5,-37.7 266.5,-56.7 312.5,-56.7 312.5,-37.7 266.5,-37.7"/>
<polygon fill="none" stroke="#000000" points="266.5,-37.7 266.5,-56.7 312.5,-56.7 312.5,-37.7 266.5,-37.7"/>
<text text-anchor="start" x="269.5" y="-43.8" font-family="Helvetica,sans-Serif" font-size="11.00" fill="#000000">&lt; 2</text>
<polygon fill="#ffffff" stroke="transparent" points="312.5,-37.7 312.5,-56.7 362.5,-56.7 362.5,-37.7 312.5,-37.7"/>
<polygon fill="none" stroke="#000000" points="312.5,-37.7 312.5,-56.7 362.5,-56.7 362.5,-37.7 312.5,-37.7"/>
<text text-anchor="start" x="327.1105" y="-43.8" font-family="Helvetica,sans-Serif" font-size="11.00" fill="#000000">0 rows</text>
<polygon fill="#ffffff" stroke="transparent" points="362.5,-37.7 362.5,-56.7 387.5,-56.7 387.5,-37.7 362.5,-37.7"/>
<polygon fill="none" stroke="#000000" points="362.5,-37.7 362.5,-56.7 387.5,-56.7 387.5,-37.7 362.5,-37.7"/>
<text text-anchor="start" x="378.3862" y="-43.8" font-family="Helvetica,sans-Serif" font-size="11.00" fill="#000000"> &#160;</text>
</a>
</g>
</g>
<!-- member&#45;&gt;group -->
<g id="edge3" class="edge">
<title>member:w&#45;&gt;group:e</title>
<path fill="none" stroke="#000000" d="M252.2825,-111.6164C211.1953,-132.1936 278.4613,-254.7 215.5,-254.7"/>
<polygon fill="#000000" stroke="#000000" points="258.6632,-110.3076 267.2234,-112.2266 262.5816,-109.5038 266.5,-108.7 266.5,-108.7 266.5,-108.7 262.5816,-109.5038 265.7766,-105.1734 258.6632,-110.3076 258.6632,-110.3076"/>
<ellipse fill="none" stroke="#000000" cx="255.5284" cy="-110.9506" rx="3.2" ry="3.2"/>
</g>
<!-- member&#45;&gt;user -->
<g id="edge4" class="edge">
<title>member:w&#45;&gt;user:e</title>
<path fill="none" stroke="#000000" d="M251.8818,-86.4905C212.7448,-85.3258 198.0074,-79.7 152.5,-79.7"/>
<polygon fill="#000000" stroke="#000000" points="258.5008,-86.5853 266.4484,-90.2996 262.5004,-86.6427 266.5,-86.7 266.5,-86.7 266.5,-86.7 262.5004,-86.6427 266.5516,-83.1004 258.5008,-86.5853 258.5008,-86.5853"/>
<ellipse fill="none" stroke="#000000" cx="255.3011" cy="-86.5394" rx="3.2" ry="3.2"/>
</g>
</g>
</svg>
