<?xml version="1.0" encoding="UTF-8" standalone="no"?>
<!DOCTYPE svg PUBLIC "-//W3C//DTD SVG 1.1//EN"
 "http://www.w3.org/Graphics/SVG/1.1/DTD/svg11.dtd">
<!-- Generated by graphviz version 2.40.1 (20161225.0304)
 -->
<!-- Title: twoDegreesRelationshipsDiagram Pages: 1 -->
<svg width="551pt" height="721pt"
 viewBox="0.00 0.00 551.00 721.20" xmlns="http://www.w3.org/2000/svg" xmlns:xlink="http://www.w3.org/1999/xlink">
<g id="graph0" class="graph" transform="scale(1 1) rotate(0) translate(4 717.2)">
<title>twoDegreesRelationshipsDiagram</title>
<polygon fill="#ffffff" stroke="transparent" points="-4,4 -4,-717.2 547,-717.2 547,4 -4,4"/>
<text text-anchor="middle" x="72.4936" y="-7.3" font-family="Helvetica,sans-Serif" font-size="11.00" fill="#000000">Generated by SchemaSpy</text>
<!-- account -->
<g id="node1" class="node">
<title>account</title>
<g id="a_node1"><a xlink:href="../../tables/account.html" xlink:title="account" target="_top">
<polygon fill="#ffffff" stroke="transparent" points="390,-648.2 390,-709.2 471,-709.2 471,-648.2 390,-648.2"/>
<polygon fill="#f5f5f5" stroke="transparent" points="390.5,-685.7 390.5,-708.7 471.5,-708.7 471.5,-685.7 390.5,-685.7"/>
<polygon fill="none" stroke="#000000" points="390.5,-685.7 390.5,-708.7 471.5,-708.7 471.5,-685.7 390.5,-685.7"/>
<text text-anchor="start" x="395.2418" y="-694.8" font-family="Helvetica,sans-Serif" font-weight="bold" font-size="11.00" fill="#000000">account</text>
<text text-anchor="start" x="437.0219" y="-693.8" font-family="Helvetica,sans-Serif" font-size="11.00" fill="#000000">[table]</text>
<polygon fill="none" stroke="#000000" points="390.5,-666.7 390.5,-685.7 471.5,-685.7 471.5,-666.7 390.5,-666.7"/>
<text text-anchor="start" x="393.5" y="-672.8" font-family="Helvetica,sans-Serif" font-size="11.00" fill="#000000">...</text>
<polygon fill="#ffffff" stroke="transparent" points="390.5,-647.7 390.5,-666.7 416.5,-666.7 416.5,-647.7 390.5,-647.7"/>
<polygon fill="none" stroke="#000000" points="390.5,-647.7 390.5,-666.7 416.5,-666.7 416.5,-647.7 390.5,-647.7"/>
<text text-anchor="start" x="393.5" y="-653.8" font-family="Helvetica,sans-Serif" font-size="11.00" fill="#000000">&lt; 1</text>
<polygon fill="#ffffff" stroke="transparent" points="416.5,-647.7 416.5,-666.7 456.5,-666.7 456.5,-647.7 416.5,-647.7"/>
<polygon fill="none" stroke="#000000" points="416.5,-647.7 416.5,-666.7 456.5,-666.7 456.5,-647.7 416.5,-647.7"/>
<text text-anchor="start" x="421.1105" y="-653.8" font-family="Helvetica,sans-Serif" font-size="11.00" fill="#000000">3 rows</text>
<polygon fill="#ffffff" stroke="transparent" points="456.5,-647.7 456.5,-666.7 471.5,-666.7 471.5,-647.7 456.5,-647.7"/>
<polygon fill="none" stroke="#000000" points="456.5,-647.7 456.5,-666.7 471.5,-666.7 471.5,-647.7 456.5,-647.7"/>
<text text-anchor="start" x="462.3862" y="-653.8" font-family="Helvetica,sans-Serif" font-size="11.00" fill="#000000"> &#160;</text>
</a>
</g>
</g>
<!-- user -->
<g id="node2" class="node">
<title>user</title>
<g id="a_node2"><a xlink:href="../../tables/user.html" xlink:title="user" target="_top">
<polygon fill="#ffffff" stroke="transparent" points="156,-241.2 156,-346.2 277,-346.2 277,-241.2 156,-241.2"/>
<polygon fill="#f5f5f5" stroke="transparent" points="156.5,-322.7 156.5,-345.7 277.5,-345.7 277.5,-322.7 156.5,-322.7"/>
<polygon fill="none" stroke="#000000" points="156.5,-322.7 156.5,-345.7 277.5,-345.7 277.5,-322.7 156.5,-322.7"/>
<text text-anchor="start" x="161.5" y="-331.8" font-family="Helvetica,sans-Serif" font-weight="bold" font-size="11.00" fill="#000000">user</text>
<text text-anchor="start" x="242.5437" y="-330.8" font-family="Helvetica,sans-Serif" font-size="11.00" fill="#000000">[table]</text>
<polygon fill="none" stroke="#000000" points="156.5,-300.7 156.5,-322.7 277.5,-322.7 277.5,-300.7 156.5,-300.7"/>
<image xlink:href="../../images/primaryKeys.png" width="11px" height="12px" preserveAspectRatio="xMinYMin meet" x="161.5" y="-317.7"/>
<text text-anchor="start" x="176.5" y="-307.8" font-family="Helvetica,sans-Serif" font-size="11.00" fill="#000000">id</text>
<polygon fill="none" stroke="#000000" points="156.5,-278.7 156.5,-300.7 277.5,-300.7 277.5,-278.7 156.5,-278.7"/>
<image xlink:href="../../images/foreignKeys.png" width="11px" height="12px" preserveAspectRatio="xMinYMin meet" x="161.5" y="-295.7"/>
<text text-anchor="start" x="176.5" y="-285.8" font-family="Helvetica,sans-Serif" font-size="11.00" fill="#000000">status</text>
<polygon fill="none" stroke="#000000" points="156.5,-259.7 156.5,-278.7 277.5,-278.7 277.5,-259.7 156.5,-259.7"/>
<text text-anchor="start" x="159.5" y="-265.8" font-family="Helvetica,sans-Serif" font-size="11.00" fill="#000000">...</text>
<polygon fill="#ffffff" stroke="transparent" points="156.5,-240.7 156.5,-259.7 197.5,-259.7 197.5,-240.7 156.5,-240.7"/>
<polygon fill="none" stroke="#000000" points="156.5,-240.7 156.5,-259.7 197.5,-259.7 197.5,-240.7 156.5,-240.7"/>
<text text-anchor="start" x="159.5" y="-246.8" font-family="Helvetica,sans-Serif" font-size="11.00" fill="#000000">&lt; 1</text>
<polygon fill="#ffffff" stroke="transparent" points="197.5,-240.7 197.5,-259.7 245.5,-259.7 245.5,-240.7 197.5,-240.7"/>
<polygon fill="none" stroke="#000000" points="197.5,-240.7 197.5,-259.7 245.5,-259.7 245.5,-240.7 197.5,-240.7"/>
<text text-anchor="start" x="210.1105" y="-246.8" font-family="Helvetica,sans-Serif" font-size="11.00" fill="#000000">3 rows</text>
<polygon fill="#ffffff" stroke="transparent" points="245.5,-240.7 245.5,-259.7 277.5,-259.7 277.5,-240.7 245.5,-240.7"/>
<polygon fill="none" stroke="#000000" points="245.5,-240.7 245.5,-259.7 277.5,-259.7 277.5,-240.7 245.5,-240.7"/>
<text text-anchor="start" x="258.9053" y="-246.8" font-family="Helvetica,sans-Serif" font-size="11.00" fill="#000000">7 &gt;</text>
</a>
</g>
</g>
<!-- account&#45;&gt;user -->
<g id="edge1" class="edge">
<title>account:w&#45;&gt;user:e</title>
<path fill="none" stroke="#000000" d="M380.037,-675.4352C350.9362,-673.8309 336.6119,-664.5685 318,-637.7 276.4308,-577.69 350.5014,-311.7 277.5,-311.7"/>
<polygon fill="#000000" stroke="#000000" points="389.8015,-671.681 389.599,-679.6785 387.9995,-679.638 388.202,-671.6405 389.8015,-671.681"/>
<polyline fill="none" stroke="#000000" points="390.5,-675.7 386.5013,-675.5987 "/>
<ellipse fill="none" stroke="#000000" cx="383.3023" cy="-675.5177" rx="3.2" ry="3.2"/>
</g>
<!-- user_status -->
<g id="node8" class="node">
<title>user_status</title>
<g id="a_node8"><a xlink:href="../../tables/user_status.html" xlink:title="user_status" target="_top">
<polygon fill="#ffffff" stroke="transparent" points="8,-262.2 8,-323.2 107,-323.2 107,-262.2 8,-262.2"/>
<polygon fill="#f5f5f5" stroke="transparent" points="8.5,-299.7 8.5,-322.7 107.5,-322.7 107.5,-299.7 8.5,-299.7"/>
<polygon fill="none" stroke="#000000" points="8.5,-299.7 8.5,-322.7 107.5,-322.7 107.5,-299.7 8.5,-299.7"/>
<text text-anchor="start" x="13.0749" y="-308.8" font-family="Helvetica,sans-Serif" font-weight="bold" font-size="11.00" fill="#000000">user_status</text>
<text text-anchor="start" x="73.0219" y="-307.8" font-family="Helvetica,sans-Serif" font-size="11.00" fill="#000000">[table]</text>
<polygon fill="none" stroke="#000000" points="8.5,-280.7 8.5,-299.7 107.5,-299.7 107.5,-280.7 8.5,-280.7"/>
<text text-anchor="start" x="11.5" y="-286.8" font-family="Helvetica,sans-Serif" font-size="11.00" fill="#000000">...</text>
<polygon fill="#ffffff" stroke="transparent" points="8.5,-261.7 8.5,-280.7 34.5,-280.7 34.5,-261.7 8.5,-261.7"/>
<polygon fill="none" stroke="#000000" points="8.5,-261.7 8.5,-280.7 34.5,-280.7 34.5,-261.7 8.5,-261.7"/>
<text text-anchor="start" x="11.5" y="-267.8" font-family="Helvetica,sans-Serif" font-size="11.00" fill="#000000"> &#160;</text>
<polygon fill="#ffffff" stroke="transparent" points="34.5,-261.7 34.5,-280.7 79.5,-280.7 79.5,-261.7 34.5,-261.7"/>
<polygon fill="none" stroke="#000000" points="34.5,-261.7 34.5,-280.7 79.5,-280.7 79.5,-261.7 34.5,-261.7"/>
<text text-anchor="start" x="44.1105" y="-267.8" font-family="Helvetica,sans-Serif" font-size="11.00" fill="#000000">3 rows</text>
<polygon fill="#ffffff" stroke="transparent" points="79.5,-261.7 79.5,-280.7 107.5,-280.7 107.5,-261.7 79.5,-261.7"/>
<polygon fill="none" stroke="#000000" points="79.5,-261.7 79.5,-280.7 107.5,-280.7 107.5,-261.7 79.5,-261.7"/>
<text text-anchor="start" x="88.9053" y="-267.8" font-family="Helvetica,sans-Serif" font-size="11.00" fill="#000000">1 &gt;</text>
</a>
</g>
</g>
<!-- user&#45;&gt;user_status -->
<g id="edge7" class="edge">
<title>user:w&#45;&gt;user_status:e</title>
<path fill="none" stroke="#000000" d="M141.9909,-289.7C130.6774,-289.7 123.4931,-289.7 107.5,-289.7"/>
<polygon fill="#000000" stroke="#000000" points="148.5,-289.7001 156.5,-293.3 152.5,-289.7 156.5,-289.7 156.5,-289.7 156.5,-289.7 152.5,-289.7 156.5,-286.1 148.5,-289.7001 148.5,-289.7001"/>
<ellipse fill="none" stroke="#000000" cx="145.3" cy="-289.7001" rx="3.2" ry="3.2"/>
</g>
<!-- alert_for_taking_paid_leave -->
<g id="node3" class="node">
<title>alert_for_taking_paid_leave</title>
<g id="a_node3"><a xlink:href="../../tables/alert_for_taking_paid_leave.html" xlink:title="alert_for_taking_paid_leave" target="_top">
<polygon fill="#ffffff" stroke="transparent" points="341.5,-566.2 341.5,-627.2 519.5,-627.2 519.5,-566.2 341.5,-566.2"/>
<polygon fill="#f5f5f5" stroke="transparent" points="341.5,-603.7 341.5,-626.7 519.5,-626.7 519.5,-603.7 341.5,-603.7"/>
<polygon fill="none" stroke="#000000" points="341.5,-603.7 341.5,-626.7 519.5,-626.7 519.5,-603.7 341.5,-603.7"/>
<text text-anchor="start" x="346.4518" y="-612.8" font-family="Helvetica,sans-Serif" font-weight="bold" font-size="11.00" fill="#000000">alert_for_taking_paid_leave</text>
<text text-anchor="start" x="485.0219" y="-611.8" font-family="Helvetica,sans-Serif" font-size="11.00" fill="#000000">[table]</text>
<polygon fill="none" stroke="#000000" points="341.5,-584.7 341.5,-603.7 519.5,-603.7 519.5,-584.7 341.5,-584.7"/>
<text text-anchor="start" x="344.5" y="-590.8" font-family="Helvetica,sans-Serif" font-size="11.00" fill="#000000">...</text>
<polygon fill="#ffffff" stroke="transparent" points="341.5,-565.7 341.5,-584.7 418.5,-584.7 418.5,-565.7 341.5,-565.7"/>
<polygon fill="none" stroke="#000000" points="341.5,-565.7 341.5,-584.7 418.5,-584.7 418.5,-565.7 341.5,-565.7"/>
<text text-anchor="start" x="344.5" y="-571.8" font-family="Helvetica,sans-Serif" font-size="11.00" fill="#000000">&lt; 1</text>
<polygon fill="#ffffff" stroke="transparent" points="418.5,-565.7 418.5,-584.7 478.5,-584.7 478.5,-565.7 418.5,-565.7"/>
<polygon fill="none" stroke="#000000" points="418.5,-565.7 418.5,-584.7 478.5,-584.7 478.5,-565.7 418.5,-565.7"/>
<text text-anchor="start" x="448.6105" y="-571.8" font-family="Helvetica,sans-Serif" font-size="11.00" fill="#000000">1 row</text>
<polygon fill="#ffffff" stroke="transparent" points="478.5,-565.7 478.5,-584.7 519.5,-584.7 519.5,-565.7 478.5,-565.7"/>
<polygon fill="none" stroke="#000000" points="478.5,-565.7 478.5,-584.7 519.5,-584.7 519.5,-565.7 478.5,-565.7"/>
<text text-anchor="start" x="510.3862" y="-571.8" font-family="Helvetica,sans-Serif" font-size="11.00" fill="#000000"> &#160;</text>
</a>
</g>
</g>
<!-- alert_for_taking_paid_leave&#45;&gt;user -->
<g id="edge2" class="edge">
<title>alert_for_taking_paid_leave:w&#45;&gt;user:e</title>
<path fill="none" stroke="#000000" d="M331.4788,-590.9089C284.3586,-561.6213 337.995,-311.7 277.5,-311.7"/>
<polygon fill="#000000" stroke="#000000" points="341.8026,-589.632 339.6561,-597.3387 338.1148,-596.9094 340.2612,-589.2027 341.8026,-589.632"/>
<polyline fill="none" stroke="#000000" points="341.5,-593.7 337.6467,-592.6268 "/>
<ellipse fill="none" stroke="#000000" cx="334.564" cy="-591.7682" rx="3.2" ry="3.2"/>
</g>
<!-- leave_period -->
<g id="node4" class="node">
<title>leave_period</title>
<g id="a_node4"><a xlink:href="../../tables/leave_period.html" xlink:title="leave_period" target="_top">
<polygon fill="#ffffff" stroke="transparent" points="326,-366.7 326,-544.7 535,-544.7 535,-366.7 326,-366.7"/>
<polygon fill="#f5f5f5" stroke="transparent" points="328.5,-519.7 328.5,-542.7 533.5,-542.7 533.5,-519.7 328.5,-519.7"/>
<polygon fill="none" stroke="#000000" points="328.5,-519.7 328.5,-542.7 533.5,-542.7 533.5,-519.7 328.5,-519.7"/>
<text text-anchor="start" x="333.5" y="-528.8" font-family="Helvetica,sans-Serif" font-weight="bold" font-size="11.00" fill="#000000">leave_period</text>
<text text-anchor="start" x="498.5437" y="-527.8" font-family="Helvetica,sans-Serif" font-size="11.00" fill="#000000">[table]</text>
<polygon fill="none" stroke="#000000" points="328.5,-497.7 328.5,-519.7 449.5,-519.7 449.5,-497.7 328.5,-497.7"/>
<image xlink:href="../../images/primaryKeys.png" width="11px" height="12px" preserveAspectRatio="xMinYMin meet" x="333.5" y="-514.7"/>
<text text-anchor="start" x="348.5" y="-504.8" font-family="Helvetica,sans-Serif" font-size="11.00" fill="#000000">id</text>
<polygon fill="none" stroke="#000000" points="449.5,-497.7 449.5,-519.7 533.5,-519.7 533.5,-497.7 449.5,-497.7"/>
<text text-anchor="start" x="452.5" y="-505.4" font-family="Helvetica,sans-Serif" font-size="11.00" fill="#000000">int4[10]</text>
<polygon fill="none" stroke="#000000" points="328.5,-475.7 328.5,-497.7 449.5,-497.7 449.5,-475.7 328.5,-475.7"/>
<image xlink:href="../../images/foreignKeys.png" width="11px" height="12px" preserveAspectRatio="xMinYMin meet" x="333.5" y="-492.7"/>
<text text-anchor="start" x="348.5" y="-482.8" font-family="Helvetica,sans-Serif" font-size="11.00" fill="#000000">user_id</text>
<polygon fill="none" stroke="#000000" points="449.5,-475.7 449.5,-497.7 533.5,-497.7 533.5,-475.7 449.5,-475.7"/>
<text text-anchor="start" x="452.5" y="-483.4" font-family="Helvetica,sans-Serif" font-size="11.00" fill="#000000">int4[10]</text>
<polygon fill="none" stroke="#000000" points="328.5,-453.7 328.5,-475.7 449.5,-475.7 449.5,-453.7 328.5,-453.7"/>
<text text-anchor="start" x="348.5" y="-460.8" font-family="Helvetica,sans-Serif" font-size="11.00" fill="#000000">from</text>
<polygon fill="none" stroke="#000000" points="449.5,-453.7 449.5,-475.7 533.5,-475.7 533.5,-453.7 449.5,-453.7"/>
<text text-anchor="start" x="452.5" y="-461.4" font-family="Helvetica,sans-Serif" font-size="11.00" fill="#000000">date[13]</text>
<polygon fill="none" stroke="#000000" points="328.5,-431.7 328.5,-453.7 449.5,-453.7 449.5,-431.7 328.5,-431.7"/>
<text text-anchor="start" x="348.5" y="-438.8" font-family="Helvetica,sans-Serif" font-size="11.00" fill="#000000">to</text>
<polygon fill="none" stroke="#000000" points="449.5,-431.7 449.5,-453.7 533.5,-453.7 533.5,-431.7 449.5,-431.7"/>
<text text-anchor="start" x="452.5" y="-439.4" font-family="Helvetica,sans-Serif" font-size="11.00" fill="#000000">date[13]</text>
<polygon fill="none" stroke="#000000" points="328.5,-409.7 328.5,-431.7 449.5,-431.7 449.5,-409.7 328.5,-409.7"/>
<text text-anchor="start" x="348.5" y="-416.8" font-family="Helvetica,sans-Serif" font-size="11.00" fill="#000000">register_datetime</text>
<polygon fill="none" stroke="#000000" points="449.5,-409.7 449.5,-431.7 533.5,-431.7 533.5,-409.7 449.5,-409.7"/>
<text text-anchor="start" x="452.3807" y="-417.4" font-family="Helvetica,sans-Serif" font-size="11.00" fill="#000000">timestamp[29,6]</text>
<polygon fill="none" stroke="#000000" points="328.5,-387.7 328.5,-409.7 449.5,-409.7 449.5,-387.7 328.5,-387.7"/>
<text text-anchor="start" x="348.5" y="-394.8" font-family="Helvetica,sans-Serif" font-size="11.00" fill="#000000">update_datetime</text>
<polygon fill="none" stroke="#000000" points="449.5,-387.7 449.5,-409.7 533.5,-409.7 533.5,-387.7 449.5,-387.7"/>
<text text-anchor="start" x="452.3807" y="-395.4" font-family="Helvetica,sans-Serif" font-size="11.00" fill="#000000">timestamp[29,6]</text>
<polygon fill="#ffffff" stroke="transparent" points="328.5,-368.7 328.5,-387.7 380.5,-387.7 380.5,-368.7 328.5,-368.7"/>
<polygon fill="none" stroke="#000000" points="328.5,-368.7 328.5,-387.7 380.5,-387.7 380.5,-368.7 328.5,-368.7"/>
<text text-anchor="start" x="331.5" y="-374.8" font-family="Helvetica,sans-Serif" font-size="11.00" fill="#000000">&lt; 1</text>
<polygon fill="#ffffff" stroke="transparent" points="380.5,-368.7 380.5,-387.7 449.5,-387.7 449.5,-368.7 380.5,-368.7"/>
<polygon fill="none" stroke="#000000" points="380.5,-368.7 380.5,-387.7 449.5,-387.7 449.5,-368.7 380.5,-368.7"/>
<text text-anchor="start" x="414.1105" y="-374.8" font-family="Helvetica,sans-Serif" font-size="11.00" fill="#000000">0 rows</text>
<polygon fill="#ffffff" stroke="transparent" points="449.5,-368.7 449.5,-387.7 533.5,-387.7 533.5,-368.7 449.5,-368.7"/>
<polygon fill="none" stroke="#000000" points="449.5,-368.7 449.5,-387.7 533.5,-387.7 533.5,-368.7 449.5,-368.7"/>
<text text-anchor="start" x="514.9053" y="-374.8" font-family="Helvetica,sans-Serif" font-size="11.00" fill="#000000">0 &gt;</text>
<polygon fill="none" stroke="#000000" stroke-width="2" points="327,-367.7 327,-543.7 534,-543.7 534,-367.7 327,-367.7"/>
</a>
</g>
</g>
<!-- leave_period&#45;&gt;user -->
<g id="edge3" class="edge">
<title>leave_period:w&#45;&gt;user:e</title>
<path fill="none" stroke="#000000" d="M314.126,-484.2261C262.1504,-462.9558 352.8171,-311.7 277.5,-311.7"/>
<polygon fill="#000000" stroke="#000000" points="320.6159,-485.3431 327.8894,-490.2478 324.558,-486.0215 328.5,-486.7 328.5,-486.7 328.5,-486.7 324.558,-486.0215 329.1106,-483.1522 320.6159,-485.3431 320.6159,-485.3431"/>
<ellipse fill="none" stroke="#000000" cx="317.4623" cy="-484.8003" rx="3.2" ry="3.2"/>
</g>
<!-- manager -->
<g id="node5" class="node">
<title>manager</title>
<g id="a_node5"><a xlink:href="../../tables/manager.html" xlink:title="manager" target="_top">
<polygon fill="#ffffff" stroke="transparent" points="387.5,-284.2 387.5,-345.2 473.5,-345.2 473.5,-284.2 387.5,-284.2"/>
<polygon fill="#f5f5f5" stroke="transparent" points="387.5,-321.7 387.5,-344.7 473.5,-344.7 473.5,-321.7 387.5,-321.7"/>
<polygon fill="none" stroke="#000000" points="387.5,-321.7 387.5,-344.7 473.5,-344.7 473.5,-321.7 387.5,-321.7"/>
<text text-anchor="start" x="392.3009" y="-330.8" font-family="Helvetica,sans-Serif" font-weight="bold" font-size="11.00" fill="#000000">manager</text>
<text text-anchor="start" x="439.0219" y="-329.8" font-family="Helvetica,sans-Serif" font-size="11.00" fill="#000000">[table]</text>
<polygon fill="none" stroke="#000000" points="387.5,-302.7 387.5,-321.7 473.5,-321.7 473.5,-302.7 387.5,-302.7"/>
<text text-anchor="start" x="390.5" y="-308.8" font-family="Helvetica,sans-Serif" font-size="11.00" fill="#000000">...</text>
<polygon fill="#ffffff" stroke="transparent" points="387.5,-283.7 387.5,-302.7 415.5,-302.7 415.5,-283.7 387.5,-283.7"/>
<polygon fill="none" stroke="#000000" points="387.5,-283.7 387.5,-302.7 415.5,-302.7 415.5,-283.7 387.5,-283.7"/>
<text text-anchor="start" x="390.5" y="-289.8" font-family="Helvetica,sans-Serif" font-size="11.00" fill="#000000">&lt; 2</text>
<polygon fill="#ffffff" stroke="transparent" points="415.5,-283.7 415.5,-302.7 457.5,-302.7 457.5,-283.7 415.5,-283.7"/>
<polygon fill="none" stroke="#000000" points="415.5,-283.7 415.5,-302.7 457.5,-302.7 457.5,-283.7 415.5,-283.7"/>
<text text-anchor="start" x="422.1105" y="-289.8" font-family="Helvetica,sans-Serif" font-size="11.00" fill="#000000">0 rows</text>
<polygon fill="#ffffff" stroke="transparent" points="457.5,-283.7 457.5,-302.7 473.5,-302.7 473.5,-283.7 457.5,-283.7"/>
<polygon fill="none" stroke="#000000" points="457.5,-283.7 457.5,-302.7 473.5,-302.7 473.5,-283.7 457.5,-283.7"/>
<text text-anchor="start" x="464.3862" y="-289.8" font-family="Helvetica,sans-Serif" font-size="11.00" fill="#000000"> &#160;</text>
</a>
</g>
</g>
<!-- manager&#45;&gt;user -->
<g id="edge4" class="edge">
<title>manager:w&#45;&gt;user:e</title>
<path fill="none" stroke="#000000" d="M372.6783,-311.7C335.4989,-311.7 321.0417,-311.7 277.5,-311.7"/>
<polygon fill="#000000" stroke="#000000" points="379.5,-311.7001 387.5,-315.3 383.5,-311.7 387.5,-311.7 387.5,-311.7 387.5,-311.7 383.5,-311.7 387.5,-308.1 379.5,-311.7001 379.5,-311.7001"/>
<ellipse fill="none" stroke="#000000" cx="376.3" cy="-311.7001" rx="3.2" ry="3.2"/>
</g>
<!-- member -->
<g id="node6" class="node">
<title>member</title>
<g id="a_node6"><a xlink:href="../../tables/member.html" xlink:title="member" target="_top">
<polygon fill="#ffffff" stroke="transparent" points="389,-202.2 389,-263.2 472,-263.2 472,-202.2 389,-202.2"/>
<polygon fill="#f5f5f5" stroke="transparent" points="389.5,-239.7 389.5,-262.7 472.5,-262.7 472.5,-239.7 389.5,-239.7"/>
<polygon fill="none" stroke="#000000" points="389.5,-239.7 389.5,-262.7 472.5,-262.7 472.5,-239.7 389.5,-239.7"/>
<text text-anchor="start" x="394.3348" y="-248.8" font-family="Helvetica,sans-Serif" font-weight="bold" font-size="11.00" fill="#000000">member</text>
<text text-anchor="start" x="438.0219" y="-247.8" font-family="Helvetica,sans-Serif" font-size="11.00" fill="#000000">[table]</text>
<polygon fill="none" stroke="#000000" points="389.5,-220.7 389.5,-239.7 472.5,-239.7 472.5,-220.7 389.5,-220.7"/>
<text text-anchor="start" x="392.5" y="-226.8" font-family="Helvetica,sans-Serif" font-size="11.00" fill="#000000">...</text>
<polygon fill="#ffffff" stroke="transparent" points="389.5,-201.7 389.5,-220.7 416.5,-220.7 416.5,-201.7 389.5,-201.7"/>
<polygon fill="none" stroke="#000000" points="389.5,-201.7 389.5,-220.7 416.5,-220.7 416.5,-201.7 389.5,-201.7"/>
<text text-anchor="start" x="392.5" y="-207.8" font-family="Helvetica,sans-Serif" font-size="11.00" fill="#000000">&lt; 2</text>
<polygon fill="#ffffff" stroke="transparent" points="416.5,-201.7 416.5,-220.7 457.5,-220.7 457.5,-201.7 416.5,-201.7"/>
<polygon fill="none" stroke="#000000" points="416.5,-201.7 416.5,-220.7 457.5,-220.7 457.5,-201.7 416.5,-201.7"/>
<text text-anchor="start" x="422.1105" y="-207.8" font-family="Helvetica,sans-Serif" font-size="11.00" fill="#000000">0 rows</text>
<polygon fill="#ffffff" stroke="transparent" points="457.5,-201.7 457.5,-220.7 472.5,-220.7 472.5,-201.7 457.5,-201.7"/>
<polygon fill="none" stroke="#000000" points="457.5,-201.7 457.5,-220.7 472.5,-220.7 472.5,-201.7 457.5,-201.7"/>
<text text-anchor="start" x="463.3862" y="-207.8" font-family="Helvetica,sans-Serif" font-size="11.00" fill="#000000"> &#160;</text>
</a>
</g>
</g>
<!-- member&#45;&gt;user -->
<g id="edge5" class="edge">
<title>member:w&#45;&gt;user:e</title>
<path fill="none" stroke="#000000" d="M374.861,-231.0452C350.2856,-236.0647 343.2447,-254.4048 318,-273.7 298.3896,-288.6888 302.1827,-311.7 277.5,-311.7"/>
<polygon fill="#000000" stroke="#000000" points="381.5336,-230.4321 389.8294,-233.2849 385.5168,-230.066 389.5,-229.7 389.5,-229.7 389.5,-229.7 385.5168,-230.066 389.1706,-226.1151 381.5336,-230.4321 381.5336,-230.4321"/>
<ellipse fill="none" stroke="#000000" cx="378.347" cy="-230.7249" rx="3.2" ry="3.2"/>
</g>
<!-- paid_leave_grant_history -->
<g id="node7" class="node">
<title>paid_leave_grant_history</title>
<g id="a_node7"><a xlink:href="../../tables/paid_leave_grant_history.html" xlink:title="paid_leave_grant_history" target="_top">
<polygon fill="#ffffff" stroke="transparent" points="348,-120.2 348,-181.2 513,-181.2 513,-120.2 348,-120.2"/>
<polygon fill="#f5f5f5" stroke="transparent" points="348.5,-157.7 348.5,-180.7 513.5,-180.7 513.5,-157.7 348.5,-157.7"/>
<polygon fill="none" stroke="#000000" points="348.5,-157.7 348.5,-180.7 513.5,-180.7 513.5,-157.7 348.5,-157.7"/>
<text text-anchor="start" x="353.0656" y="-166.8" font-family="Helvetica,sans-Serif" font-weight="bold" font-size="11.00" fill="#000000">paid_leave_grant_history</text>
<text text-anchor="start" x="479.0219" y="-165.8" font-family="Helvetica,sans-Serif" font-size="11.00" fill="#000000">[table]</text>
<polygon fill="none" stroke="#000000" points="348.5,-138.7 348.5,-157.7 513.5,-157.7 513.5,-138.7 348.5,-138.7"/>
<text text-anchor="start" x="351.5" y="-144.8" font-family="Helvetica,sans-Serif" font-size="11.00" fill="#000000">...</text>
<polygon fill="#ffffff" stroke="transparent" points="348.5,-119.7 348.5,-138.7 416.5,-138.7 416.5,-119.7 348.5,-119.7"/>
<polygon fill="none" stroke="#000000" points="348.5,-119.7 348.5,-138.7 416.5,-138.7 416.5,-119.7 348.5,-119.7"/>
<text text-anchor="start" x="351.5" y="-125.8" font-family="Helvetica,sans-Serif" font-size="11.00" fill="#000000">&lt; 2</text>
<polygon fill="#ffffff" stroke="transparent" points="416.5,-119.7 416.5,-138.7 477.5,-138.7 477.5,-119.7 416.5,-119.7"/>
<polygon fill="none" stroke="#000000" points="416.5,-119.7 416.5,-138.7 477.5,-138.7 477.5,-119.7 416.5,-119.7"/>
<text text-anchor="start" x="442.1105" y="-125.8" font-family="Helvetica,sans-Serif" font-size="11.00" fill="#000000">0 rows</text>
<polygon fill="#ffffff" stroke="transparent" points="477.5,-119.7 477.5,-138.7 513.5,-138.7 513.5,-119.7 477.5,-119.7"/>
<polygon fill="none" stroke="#000000" points="477.5,-119.7 477.5,-138.7 513.5,-138.7 513.5,-119.7 477.5,-119.7"/>
<text text-anchor="start" x="504.3862" y="-125.8" font-family="Helvetica,sans-Serif" font-size="11.00" fill="#000000"> &#160;</text>
</a>
</g>
</g>
<!-- paid_leave_grant_history&#45;&gt;user -->
<g id="edge6" class="edge">
<title>paid_leave_grant_history:w&#45;&gt;user:e</title>
<path fill="none" stroke="#000000" d="M334.1107,-150.0184C280.6009,-169.9517 351.3417,-311.7 277.5,-311.7"/>
<polygon fill="#000000" stroke="#000000" points="340.6019,-148.9726 349.0727,-151.2542 344.5509,-148.3363 348.5,-147.7 348.5,-147.7 348.5,-147.7 344.5509,-148.3363 347.9273,-144.1458 340.6019,-148.9726 340.6019,-148.9726"/>
<ellipse fill="none" stroke="#000000" cx="337.4426" cy="-149.4816" rx="3.2" ry="3.2"/>
</g>
<!-- user_rule -->
<g id="node9" class="node">
<title>user_rule</title>
<g id="a_node9"><a xlink:href="../../tables/user_rule.html" xlink:title="user_rule" target="_top">
<polygon fill="#ffffff" stroke="transparent" points="386.5,-38.2 386.5,-99.2 474.5,-99.2 474.5,-38.2 386.5,-38.2"/>
<polygon fill="#f5f5f5" stroke="transparent" points="386.5,-75.7 386.5,-98.7 474.5,-98.7 474.5,-75.7 386.5,-75.7"/>
<polygon fill="none" stroke="#000000" points="386.5,-75.7 386.5,-98.7 474.5,-98.7 474.5,-75.7 386.5,-75.7"/>
<text text-anchor="start" x="391.0804" y="-84.8" font-family="Helvetica,sans-Serif" font-weight="bold" font-size="11.00" fill="#000000">user_rule</text>
<text text-anchor="start" x="440.0219" y="-83.8" font-family="Helvetica,sans-Serif" font-size="11.00" fill="#000000">[table]</text>
<polygon fill="none" stroke="#000000" points="386.5,-56.7 386.5,-75.7 474.5,-75.7 474.5,-56.7 386.5,-56.7"/>
<text text-anchor="start" x="389.5" y="-62.8" font-family="Helvetica,sans-Serif" font-size="11.00" fill="#000000">...</text>
<polygon fill="#ffffff" stroke="transparent" points="386.5,-37.7 386.5,-56.7 415.5,-56.7 415.5,-37.7 386.5,-37.7"/>
<polygon fill="none" stroke="#000000" points="386.5,-37.7 386.5,-56.7 415.5,-56.7 415.5,-37.7 386.5,-37.7"/>
<text text-anchor="start" x="389.5" y="-43.8" font-family="Helvetica,sans-Serif" font-size="11.00" fill="#000000">&lt; 2</text>
<polygon fill="#ffffff" stroke="transparent" points="415.5,-37.7 415.5,-56.7 457.5,-56.7 457.5,-37.7 415.5,-37.7"/>
<polygon fill="none" stroke="#000000" points="415.5,-37.7 415.5,-56.7 457.5,-56.7 457.5,-37.7 415.5,-37.7"/>
<text text-anchor="start" x="422.1105" y="-43.8" font-family="Helvetica,sans-Serif" font-size="11.00" fill="#000000">2 rows</text>
<polygon fill="#ffffff" stroke="transparent" points="457.5,-37.7 457.5,-56.7 474.5,-56.7 474.5,-37.7 457.5,-37.7"/>
<polygon fill="none" stroke="#000000" points="457.5,-37.7 457.5,-56.7 474.5,-56.7 474.5,-37.7 457.5,-37.7"/>
<text text-anchor="start" x="465.3862" y="-43.8" font-family="Helvetica,sans-Serif" font-size="11.00" fill="#000000"> &#160;</text>
</a>
</g>
</g>
<!-- user_rule&#45;&gt;user -->
<g id="edge8" class="edge">
<title>user_rule:w&#45;&gt;user:e</title>
<path fill="none" stroke="#000000" d="M375.8225,-66.1729C347.7074,-68.8523 336.2455,-82.9647 318,-109.7 266.3858,-185.3308 369.0645,-311.7 277.5,-311.7"/>
<polygon fill="#000000" stroke="#000000" points="385.5238,-61.7393 385.8778,-69.7315 384.2794,-69.8023 383.9253,-61.8101 385.5238,-61.7393"/>
<polyline fill="none" stroke="#000000" points="386.5,-65.7 382.5039,-65.877 "/>
<ellipse fill="none" stroke="#000000" cx="379.3071" cy="-66.0186" rx="3.2" ry="3.2"/>
</g>
</g>
</svg>
