<?xml version="1.0" encoding="UTF-8" standalone="no"?>
<!DOCTYPE svg PUBLIC "-//W3C//DTD SVG 1.1//EN"
 "http://www.w3.org/Graphics/SVG/1.1/DTD/svg11.dtd">
<!-- Generated by graphviz version 2.40.1 (20161225.0304)
 -->
<!-- Title: oneDegreeRelationshipsDiagram Pages: 1 -->
<svg width="403pt" height="228pt"
 viewBox="0.00 0.00 403.00 228.20" xmlns="http://www.w3.org/2000/svg" xmlns:xlink="http://www.w3.org/1999/xlink">
<g id="graph0" class="graph" transform="scale(1 1) rotate(0) translate(4 224.2)">
<title>oneDegreeRelationshipsDiagram</title>
<polygon fill="#ffffff" stroke="transparent" points="-4,4 -4,-224.2 399,-224.2 399,4 -4,4"/>
<text text-anchor="middle" x="72.4936" y="-7.3" font-family="Helvetica,sans-Serif" font-size="11.00" fill="#000000">Generated by SchemaSpy</text>
<!-- leave_period -->
<g id="node1" class="node">
<title>leave_period</title>
<g id="a_node1"><a xlink:href="../../tables/leave_period.html" xlink:title="leave_period" target="_top">
<polygon fill="#ffffff" stroke="transparent" points="178,-38.2 178,-216.2 387,-216.2 387,-38.2 178,-38.2"/>
<polygon fill="#f5f5f5" stroke="transparent" points="180.5,-191.2 180.5,-214.2 385.5,-214.2 385.5,-191.2 180.5,-191.2"/>
<polygon fill="none" stroke="#000000" points="180.5,-191.2 180.5,-214.2 385.5,-214.2 385.5,-191.2 180.5,-191.2"/>
<text text-anchor="start" x="185.5" y="-200.3" font-family="Helvetica,sans-Serif" font-weight="bold" font-size="11.00" fill="#000000">leave_period</text>
<text text-anchor="start" x="350.5437" y="-199.3" font-family="Helvetica,sans-Serif" font-size="11.00" fill="#000000">[table]</text>
<polygon fill="none" stroke="#000000" points="180.5,-169.2 180.5,-191.2 301.5,-191.2 301.5,-169.2 180.5,-169.2"/>
<image xlink:href="../../images/primaryKeys.png" width="11px" height="12px" preserveAspectRatio="xMinYMin meet" x="185.5" y="-186.2"/>
<text text-anchor="start" x="200.5" y="-176.3" font-family="Helvetica,sans-Serif" font-size="11.00" fill="#000000">id</text>
<polygon fill="none" stroke="#000000" points="301.5,-169.2 301.5,-191.2 385.5,-191.2 385.5,-169.2 301.5,-169.2"/>
<text text-anchor="start" x="304.5" y="-176.9" font-family="Helvetica,sans-Serif" font-size="11.00" fill="#000000">int4[10]</text>
<polygon fill="none" stroke="#000000" points="180.5,-147.2 180.5,-169.2 301.5,-169.2 301.5,-147.2 180.5,-147.2"/>
<image xlink:href="../../images/foreignKeys.png" width="11px" height="12px" preserveAspectRatio="xMinYMin meet" x="185.5" y="-164.2"/>
<text text-anchor="start" x="200.5" y="-154.3" font-family="Helvetica,sans-Serif" font-size="11.00" fill="#000000">user_id</text>
<polygon fill="none" stroke="#000000" points="301.5,-147.2 301.5,-169.2 385.5,-169.2 385.5,-147.2 301.5,-147.2"/>
<text text-anchor="start" x="304.5" y="-154.9" font-family="Helvetica,sans-Serif" font-size="11.00" fill="#000000">int4[10]</text>
<polygon fill="none" stroke="#000000" points="180.5,-125.2 180.5,-147.2 301.5,-147.2 301.5,-125.2 180.5,-125.2"/>
<text text-anchor="start" x="200.5" y="-132.3" font-family="Helvetica,sans-Serif" font-size="11.00" fill="#000000">from</text>
<polygon fill="none" stroke="#000000" points="301.5,-125.2 301.5,-147.2 385.5,-147.2 385.5,-125.2 301.5,-125.2"/>
<text text-anchor="start" x="304.5" y="-132.9" font-family="Helvetica,sans-Serif" font-size="11.00" fill="#000000">date[13]</text>
<polygon fill="none" stroke="#000000" points="180.5,-103.2 180.5,-125.2 301.5,-125.2 301.5,-103.2 180.5,-103.2"/>
<text text-anchor="start" x="200.5" y="-110.3" font-family="Helvetica,sans-Serif" font-size="11.00" fill="#000000">to</text>
<polygon fill="none" stroke="#000000" points="301.5,-103.2 301.5,-125.2 385.5,-125.2 385.5,-103.2 301.5,-103.2"/>
<text text-anchor="start" x="304.5" y="-110.9" font-family="Helvetica,sans-Serif" font-size="11.00" fill="#000000">date[13]</text>
<polygon fill="none" stroke="#000000" points="180.5,-81.2 180.5,-103.2 301.5,-103.2 301.5,-81.2 180.5,-81.2"/>
<text text-anchor="start" x="200.5" y="-88.3" font-family="Helvetica,sans-Serif" font-size="11.00" fill="#000000">register_datetime</text>
<polygon fill="none" stroke="#000000" points="301.5,-81.2 301.5,-103.2 385.5,-103.2 385.5,-81.2 301.5,-81.2"/>
<text text-anchor="start" x="304.3807" y="-88.9" font-family="Helvetica,sans-Serif" font-size="11.00" fill="#000000">timestamp[29,6]</text>
<polygon fill="none" stroke="#000000" points="180.5,-59.2 180.5,-81.2 301.5,-81.2 301.5,-59.2 180.5,-59.2"/>
<text text-anchor="start" x="200.5" y="-66.3" font-family="Helvetica,sans-Serif" font-size="11.00" fill="#000000">update_datetime</text>
<polygon fill="none" stroke="#000000" points="301.5,-59.2 301.5,-81.2 385.5,-81.2 385.5,-59.2 301.5,-59.2"/>
<text text-anchor="start" x="304.3807" y="-66.9" font-family="Helvetica,sans-Serif" font-size="11.00" fill="#000000">timestamp[29,6]</text>
<polygon fill="#ffffff" stroke="transparent" points="180.5,-40.2 180.5,-59.2 232.5,-59.2 232.5,-40.2 180.5,-40.2"/>
<polygon fill="none" stroke="#000000" points="180.5,-40.2 180.5,-59.2 232.5,-59.2 232.5,-40.2 180.5,-40.2"/>
<text text-anchor="start" x="183.5" y="-46.3" font-family="Helvetica,sans-Serif" font-size="11.00" fill="#000000">&lt; 1</text>
<polygon fill="#ffffff" stroke="transparent" points="232.5,-40.2 232.5,-59.2 301.5,-59.2 301.5,-40.2 232.5,-40.2"/>
<polygon fill="none" stroke="#000000" points="232.5,-40.2 232.5,-59.2 301.5,-59.2 301.5,-40.2 232.5,-40.2"/>
<text text-anchor="start" x="266.1105" y="-46.3" font-family="Helvetica,sans-Serif" font-size="11.00" fill="#000000">0 rows</text>
<polygon fill="#ffffff" stroke="transparent" points="301.5,-40.2 301.5,-59.2 385.5,-59.2 385.5,-40.2 301.5,-40.2"/>
<polygon fill="none" stroke="#000000" points="301.5,-40.2 301.5,-59.2 385.5,-59.2 385.5,-40.2 301.5,-40.2"/>
<text text-anchor="start" x="366.9053" y="-46.3" font-family="Helvetica,sans-Serif" font-size="11.00" fill="#000000">0 &gt;</text>
<polygon fill="none" stroke="#000000" stroke-width="2" points="179,-39.2 179,-215.2 386,-215.2 386,-39.2 179,-39.2"/>
</a>
</g>
</g>
<!-- user -->
<g id="node2" class="node">
<title>user</title>
<g id="a_node2"><a xlink:href="../../tables/user.html" xlink:title="user" target="_top">
<polygon fill="#ffffff" stroke="transparent" points="8,-87.7 8,-192.7 129,-192.7 129,-87.7 8,-87.7"/>
<polygon fill="#f5f5f5" stroke="transparent" points="8.5,-169.2 8.5,-192.2 129.5,-192.2 129.5,-169.2 8.5,-169.2"/>
<polygon fill="none" stroke="#000000" points="8.5,-169.2 8.5,-192.2 129.5,-192.2 129.5,-169.2 8.5,-169.2"/>
<text text-anchor="start" x="13.5" y="-178.3" font-family="Helvetica,sans-Serif" font-weight="bold" font-size="11.00" fill="#000000">user</text>
<text text-anchor="start" x="94.5437" y="-177.3" font-family="Helvetica,sans-Serif" font-size="11.00" fill="#000000">[table]</text>
<polygon fill="none" stroke="#000000" points="8.5,-147.2 8.5,-169.2 129.5,-169.2 129.5,-147.2 8.5,-147.2"/>
<image xlink:href="../../images/primaryKeys.png" width="11px" height="12px" preserveAspectRatio="xMinYMin meet" x="13.5" y="-164.2"/>
<text text-anchor="start" x="28.5" y="-154.3" font-family="Helvetica,sans-Serif" font-size="11.00" fill="#000000">id</text>
<polygon fill="none" stroke="#000000" points="8.5,-125.2 8.5,-147.2 129.5,-147.2 129.5,-125.2 8.5,-125.2"/>
<image xlink:href="../../images/foreignKeys.png" width="11px" height="12px" preserveAspectRatio="xMinYMin meet" x="13.5" y="-142.2"/>
<text text-anchor="start" x="28.5" y="-132.3" font-family="Helvetica,sans-Serif" font-size="11.00" fill="#000000">status</text>
<polygon fill="none" stroke="#000000" points="8.5,-106.2 8.5,-125.2 129.5,-125.2 129.5,-106.2 8.5,-106.2"/>
<text text-anchor="start" x="11.5" y="-112.3" font-family="Helvetica,sans-Serif" font-size="11.00" fill="#000000">...</text>
<polygon fill="#ffffff" stroke="transparent" points="8.5,-87.2 8.5,-106.2 49.5,-106.2 49.5,-87.2 8.5,-87.2"/>
<polygon fill="none" stroke="#000000" points="8.5,-87.2 8.5,-106.2 49.5,-106.2 49.5,-87.2 8.5,-87.2"/>
<text text-anchor="start" x="11.5" y="-93.3" font-family="Helvetica,sans-Serif" font-size="11.00" fill="#000000">&lt; 1</text>
<polygon fill="#ffffff" stroke="transparent" points="49.5,-87.2 49.5,-106.2 97.5,-106.2 97.5,-87.2 49.5,-87.2"/>
<polygon fill="none" stroke="#000000" points="49.5,-87.2 49.5,-106.2 97.5,-106.2 97.5,-87.2 49.5,-87.2"/>
<text text-anchor="start" x="62.1105" y="-93.3" font-family="Helvetica,sans-Serif" font-size="11.00" fill="#000000">3 rows</text>
<polygon fill="#ffffff" stroke="transparent" points="97.5,-87.2 97.5,-106.2 129.5,-106.2 129.5,-87.2 97.5,-87.2"/>
<polygon fill="none" stroke="#000000" points="97.5,-87.2 97.5,-106.2 129.5,-106.2 129.5,-87.2 97.5,-87.2"/>
<text text-anchor="start" x="110.9053" y="-93.3" font-family="Helvetica,sans-Serif" font-size="11.00" fill="#000000">7 &gt;</text>
</a>
</g>
</g>
<!-- leave_period&#45;&gt;user -->
<g id="edge1" class="edge">
<title>leave_period:w&#45;&gt;user:e</title>
<path fill="none" stroke="#000000" d="M165.776,-158.2C153.7815,-158.2 146.3229,-158.2 129.5,-158.2"/>
<polygon fill="#000000" stroke="#000000" points="172.5,-158.2001 180.5,-161.8 176.5,-158.2 180.5,-158.2 180.5,-158.2 180.5,-158.2 176.5,-158.2 180.5,-154.6 172.5,-158.2001 172.5,-158.2001"/>
<ellipse fill="none" stroke="#000000" cx="169.3" cy="-158.2001" rx="3.2" ry="3.2"/>
</g>
</g>
</svg>
