<?xml version="1.0" encoding="UTF-8" standalone="no"?>
<!DOCTYPE svg PUBLIC "-//W3C//DTD SVG 1.1//EN"
 "http://www.w3.org/Graphics/SVG/1.1/DTD/svg11.dtd">
<!-- Generated by graphviz version 2.40.1 (20161225.0304)
 -->
<!-- Title: twoDegreesRelationshipsDiagram Pages: 1 -->
<svg width="551pt" height="677pt"
 viewBox="0.00 0.00 551.00 676.70" xmlns="http://www.w3.org/2000/svg" xmlns:xlink="http://www.w3.org/1999/xlink">
<g id="graph0" class="graph" transform="scale(1 1) rotate(0) translate(4 672.7)">
<title>twoDegreesRelationshipsDiagram</title>
<polygon fill="#ffffff" stroke="transparent" points="-4,4 -4,-672.7 547,-672.7 547,4 -4,4"/>
<text text-anchor="middle" x="72.4936" y="-7.3" font-family="Helvetica,sans-Serif" font-size="11.00" fill="#000000">Generated by SchemaSpy</text>
<!-- account -->
<g id="node1" class="node">
<title>account</title>
<g id="a_node1"><a xlink:href="../../tables/account.html" xlink:title="account" target="_top">
<polygon fill="#ffffff" stroke="transparent" points="390,-521.7 390,-582.7 471,-582.7 471,-521.7 390,-521.7"/>
<polygon fill="#f5f5f5" stroke="transparent" points="390.5,-559.2 390.5,-582.2 471.5,-582.2 471.5,-559.2 390.5,-559.2"/>
<polygon fill="none" stroke="#000000" points="390.5,-559.2 390.5,-582.2 471.5,-582.2 471.5,-559.2 390.5,-559.2"/>
<text text-anchor="start" x="395.2418" y="-568.3" font-family="Helvetica,sans-Serif" font-weight="bold" font-size="11.00" fill="#000000">account</text>
<text text-anchor="start" x="437.0219" y="-567.3" font-family="Helvetica,sans-Serif" font-size="11.00" fill="#000000">[table]</text>
<polygon fill="none" stroke="#000000" points="390.5,-540.2 390.5,-559.2 471.5,-559.2 471.5,-540.2 390.5,-540.2"/>
<text text-anchor="start" x="393.5" y="-546.3" font-family="Helvetica,sans-Serif" font-size="11.00" fill="#000000">...</text>
<polygon fill="#ffffff" stroke="transparent" points="390.5,-521.2 390.5,-540.2 416.5,-540.2 416.5,-521.2 390.5,-521.2"/>
<polygon fill="none" stroke="#000000" points="390.5,-521.2 390.5,-540.2 416.5,-540.2 416.5,-521.2 390.5,-521.2"/>
<text text-anchor="start" x="393.5" y="-527.3" font-family="Helvetica,sans-Serif" font-size="11.00" fill="#000000">&lt; 1</text>
<polygon fill="#ffffff" stroke="transparent" points="416.5,-521.2 416.5,-540.2 456.5,-540.2 456.5,-521.2 416.5,-521.2"/>
<polygon fill="none" stroke="#000000" points="416.5,-521.2 416.5,-540.2 456.5,-540.2 456.5,-521.2 416.5,-521.2"/>
<text text-anchor="start" x="421.1105" y="-527.3" font-family="Helvetica,sans-Serif" font-size="11.00" fill="#000000">3 rows</text>
<polygon fill="#ffffff" stroke="transparent" points="456.5,-521.2 456.5,-540.2 471.5,-540.2 471.5,-521.2 456.5,-521.2"/>
<polygon fill="none" stroke="#000000" points="456.5,-521.2 456.5,-540.2 471.5,-540.2 471.5,-521.2 456.5,-521.2"/>
<text text-anchor="start" x="462.3862" y="-527.3" font-family="Helvetica,sans-Serif" font-size="11.00" fill="#000000"> &#160;</text>
</a>
</g>
</g>
<!-- user -->
<g id="node2" class="node">
<title>user</title>
<g id="a_node2"><a xlink:href="../../tables/user.html" xlink:title="user" target="_top">
<polygon fill="#ffffff" stroke="transparent" points="156,-314.7 156,-419.7 277,-419.7 277,-314.7 156,-314.7"/>
<polygon fill="#f5f5f5" stroke="transparent" points="156.5,-396.2 156.5,-419.2 277.5,-419.2 277.5,-396.2 156.5,-396.2"/>
<polygon fill="none" stroke="#000000" points="156.5,-396.2 156.5,-419.2 277.5,-419.2 277.5,-396.2 156.5,-396.2"/>
<text text-anchor="start" x="161.5" y="-405.3" font-family="Helvetica,sans-Serif" font-weight="bold" font-size="11.00" fill="#000000">user</text>
<text text-anchor="start" x="242.5437" y="-404.3" font-family="Helvetica,sans-Serif" font-size="11.00" fill="#000000">[table]</text>
<polygon fill="none" stroke="#000000" points="156.5,-374.2 156.5,-396.2 277.5,-396.2 277.5,-374.2 156.5,-374.2"/>
<image xlink:href="../../images/primaryKeys.png" width="11px" height="12px" preserveAspectRatio="xMinYMin meet" x="161.5" y="-391.2"/>
<text text-anchor="start" x="176.5" y="-381.3" font-family="Helvetica,sans-Serif" font-size="11.00" fill="#000000">id</text>
<polygon fill="none" stroke="#000000" points="156.5,-352.2 156.5,-374.2 277.5,-374.2 277.5,-352.2 156.5,-352.2"/>
<image xlink:href="../../images/foreignKeys.png" width="11px" height="12px" preserveAspectRatio="xMinYMin meet" x="161.5" y="-369.2"/>
<text text-anchor="start" x="176.5" y="-359.3" font-family="Helvetica,sans-Serif" font-size="11.00" fill="#000000">status</text>
<polygon fill="none" stroke="#000000" points="156.5,-333.2 156.5,-352.2 277.5,-352.2 277.5,-333.2 156.5,-333.2"/>
<text text-anchor="start" x="159.5" y="-339.3" font-family="Helvetica,sans-Serif" font-size="11.00" fill="#000000">...</text>
<polygon fill="#ffffff" stroke="transparent" points="156.5,-314.2 156.5,-333.2 197.5,-333.2 197.5,-314.2 156.5,-314.2"/>
<polygon fill="none" stroke="#000000" points="156.5,-314.2 156.5,-333.2 197.5,-333.2 197.5,-314.2 156.5,-314.2"/>
<text text-anchor="start" x="159.5" y="-320.3" font-family="Helvetica,sans-Serif" font-size="11.00" fill="#000000">&lt; 1</text>
<polygon fill="#ffffff" stroke="transparent" points="197.5,-314.2 197.5,-333.2 245.5,-333.2 245.5,-314.2 197.5,-314.2"/>
<polygon fill="none" stroke="#000000" points="197.5,-314.2 197.5,-333.2 245.5,-333.2 245.5,-314.2 197.5,-314.2"/>
<text text-anchor="start" x="210.1105" y="-320.3" font-family="Helvetica,sans-Serif" font-size="11.00" fill="#000000">3 rows</text>
<polygon fill="#ffffff" stroke="transparent" points="245.5,-314.2 245.5,-333.2 277.5,-333.2 277.5,-314.2 245.5,-314.2"/>
<polygon fill="none" stroke="#000000" points="245.5,-314.2 245.5,-333.2 277.5,-333.2 277.5,-314.2 245.5,-314.2"/>
<text text-anchor="start" x="258.9053" y="-320.3" font-family="Helvetica,sans-Serif" font-size="11.00" fill="#000000">7 &gt;</text>
</a>
</g>
</g>
<!-- account&#45;&gt;user -->
<g id="edge1" class="edge">
<title>account:w&#45;&gt;user:e</title>
<path fill="none" stroke="#000000" d="M379.7391,-548.852C351.3224,-546.8595 338.9527,-536.1005 318,-511.2 280.1279,-466.1921 336.3218,-385.2 277.5,-385.2"/>
<polygon fill="#000000" stroke="#000000" points="389.8297,-545.1762 389.5711,-553.172 387.9719,-553.1203 388.2306,-545.1245 389.8297,-545.1762"/>
<polyline fill="none" stroke="#000000" points="390.5,-549.2 386.5021,-549.0707 "/>
<ellipse fill="none" stroke="#000000" cx="383.3038" cy="-548.9672" rx="3.2" ry="3.2"/>
</g>
<!-- user_status -->
<g id="node9" class="node">
<title>user_status</title>
<g id="a_node9"><a xlink:href="../../tables/user_status.html" xlink:title="user_status" target="_top">
<polygon fill="#ffffff" stroke="transparent" points="8,-335.7 8,-396.7 107,-396.7 107,-335.7 8,-335.7"/>
<polygon fill="#f5f5f5" stroke="transparent" points="8.5,-373.2 8.5,-396.2 107.5,-396.2 107.5,-373.2 8.5,-373.2"/>
<polygon fill="none" stroke="#000000" points="8.5,-373.2 8.5,-396.2 107.5,-396.2 107.5,-373.2 8.5,-373.2"/>
<text text-anchor="start" x="13.0749" y="-382.3" font-family="Helvetica,sans-Serif" font-weight="bold" font-size="11.00" fill="#000000">user_status</text>
<text text-anchor="start" x="73.0219" y="-381.3" font-family="Helvetica,sans-Serif" font-size="11.00" fill="#000000">[table]</text>
<polygon fill="none" stroke="#000000" points="8.5,-354.2 8.5,-373.2 107.5,-373.2 107.5,-354.2 8.5,-354.2"/>
<text text-anchor="start" x="11.5" y="-360.3" font-family="Helvetica,sans-Serif" font-size="11.00" fill="#000000">...</text>
<polygon fill="#ffffff" stroke="transparent" points="8.5,-335.2 8.5,-354.2 34.5,-354.2 34.5,-335.2 8.5,-335.2"/>
<polygon fill="none" stroke="#000000" points="8.5,-335.2 8.5,-354.2 34.5,-354.2 34.5,-335.2 8.5,-335.2"/>
<text text-anchor="start" x="11.5" y="-341.3" font-family="Helvetica,sans-Serif" font-size="11.00" fill="#000000"> &#160;</text>
<polygon fill="#ffffff" stroke="transparent" points="34.5,-335.2 34.5,-354.2 79.5,-354.2 79.5,-335.2 34.5,-335.2"/>
<polygon fill="none" stroke="#000000" points="34.5,-335.2 34.5,-354.2 79.5,-354.2 79.5,-335.2 34.5,-335.2"/>
<text text-anchor="start" x="44.1105" y="-341.3" font-family="Helvetica,sans-Serif" font-size="11.00" fill="#000000">3 rows</text>
<polygon fill="#ffffff" stroke="transparent" points="79.5,-335.2 79.5,-354.2 107.5,-354.2 107.5,-335.2 79.5,-335.2"/>
<polygon fill="none" stroke="#000000" points="79.5,-335.2 79.5,-354.2 107.5,-354.2 107.5,-335.2 79.5,-335.2"/>
<text text-anchor="start" x="88.9053" y="-341.3" font-family="Helvetica,sans-Serif" font-size="11.00" fill="#000000">1 &gt;</text>
</a>
</g>
</g>
<!-- user&#45;&gt;user_status -->
<g id="edge9" class="edge">
<title>user:w&#45;&gt;user_status:e</title>
<path fill="none" stroke="#000000" d="M141.9909,-363.2C130.6774,-363.2 123.4931,-363.2 107.5,-363.2"/>
<polygon fill="#000000" stroke="#000000" points="148.5,-363.2001 156.5,-366.8 152.5,-363.2 156.5,-363.2 156.5,-363.2 156.5,-363.2 152.5,-363.2 156.5,-359.6 148.5,-363.2001 148.5,-363.2001"/>
<ellipse fill="none" stroke="#000000" cx="145.3" cy="-363.2001" rx="3.2" ry="3.2"/>
</g>
<!-- alert_for_taking_paid_leave -->
<g id="node3" class="node">
<title>alert_for_taking_paid_leave</title>
<g id="a_node3"><a xlink:href="../../tables/alert_for_taking_paid_leave.html" xlink:title="alert_for_taking_paid_leave" target="_top">
<polygon fill="#ffffff" stroke="transparent" points="341.5,-439.7 341.5,-500.7 519.5,-500.7 519.5,-439.7 341.5,-439.7"/>
<polygon fill="#f5f5f5" stroke="transparent" points="341.5,-477.2 341.5,-500.2 519.5,-500.2 519.5,-477.2 341.5,-477.2"/>
<polygon fill="none" stroke="#000000" points="341.5,-477.2 341.5,-500.2 519.5,-500.2 519.5,-477.2 341.5,-477.2"/>
<text text-anchor="start" x="346.4518" y="-486.3" font-family="Helvetica,sans-Serif" font-weight="bold" font-size="11.00" fill="#000000">alert_for_taking_paid_leave</text>
<text text-anchor="start" x="485.0219" y="-485.3" font-family="Helvetica,sans-Serif" font-size="11.00" fill="#000000">[table]</text>
<polygon fill="none" stroke="#000000" points="341.5,-458.2 341.5,-477.2 519.5,-477.2 519.5,-458.2 341.5,-458.2"/>
<text text-anchor="start" x="344.5" y="-464.3" font-family="Helvetica,sans-Serif" font-size="11.00" fill="#000000">...</text>
<polygon fill="#ffffff" stroke="transparent" points="341.5,-439.2 341.5,-458.2 418.5,-458.2 418.5,-439.2 341.5,-439.2"/>
<polygon fill="none" stroke="#000000" points="341.5,-439.2 341.5,-458.2 418.5,-458.2 418.5,-439.2 341.5,-439.2"/>
<text text-anchor="start" x="344.5" y="-445.3" font-family="Helvetica,sans-Serif" font-size="11.00" fill="#000000">&lt; 1</text>
<polygon fill="#ffffff" stroke="transparent" points="418.5,-439.2 418.5,-458.2 478.5,-458.2 478.5,-439.2 418.5,-439.2"/>
<polygon fill="none" stroke="#000000" points="418.5,-439.2 418.5,-458.2 478.5,-458.2 478.5,-439.2 418.5,-439.2"/>
<text text-anchor="start" x="448.6105" y="-445.3" font-family="Helvetica,sans-Serif" font-size="11.00" fill="#000000">1 row</text>
<polygon fill="#ffffff" stroke="transparent" points="478.5,-439.2 478.5,-458.2 519.5,-458.2 519.5,-439.2 478.5,-439.2"/>
<polygon fill="none" stroke="#000000" points="478.5,-439.2 478.5,-458.2 519.5,-458.2 519.5,-439.2 478.5,-439.2"/>
<text text-anchor="start" x="510.3862" y="-445.3" font-family="Helvetica,sans-Serif" font-size="11.00" fill="#000000"> &#160;</text>
</a>
</g>
</g>
<!-- alert_for_taking_paid_leave&#45;&gt;user -->
<g id="edge2" class="edge">
<title>alert_for_taking_paid_leave:w&#45;&gt;user:e</title>
<path fill="none" stroke="#000000" d="M331.1412,-465.4873C299.6094,-453.7118 319.7578,-385.2 277.5,-385.2"/>
<polygon fill="#000000" stroke="#000000" points="341.3632,-463.1231 340.0582,-471.0159 338.4796,-470.7549 339.7847,-462.8621 341.3632,-463.1231"/>
<polyline fill="none" stroke="#000000" points="341.5,-467.2 337.5536,-466.5475 "/>
<ellipse fill="none" stroke="#000000" cx="334.3964" cy="-466.0255" rx="3.2" ry="3.2"/>
</g>
<!-- leave_period -->
<g id="node4" class="node">
<title>leave_period</title>
<g id="a_node4"><a xlink:href="../../tables/leave_period.html" xlink:title="leave_period" target="_top">
<polygon fill="#ffffff" stroke="transparent" points="378,-357.7 378,-418.7 483,-418.7 483,-357.7 378,-357.7"/>
<polygon fill="#f5f5f5" stroke="transparent" points="378.5,-395.2 378.5,-418.2 483.5,-418.2 483.5,-395.2 378.5,-395.2"/>
<polygon fill="none" stroke="#000000" points="378.5,-395.2 378.5,-418.2 483.5,-418.2 483.5,-395.2 378.5,-395.2"/>
<text text-anchor="start" x="383.0186" y="-404.3" font-family="Helvetica,sans-Serif" font-weight="bold" font-size="11.00" fill="#000000">leave_period</text>
<text text-anchor="start" x="449.0219" y="-403.3" font-family="Helvetica,sans-Serif" font-size="11.00" fill="#000000">[table]</text>
<polygon fill="none" stroke="#000000" points="378.5,-376.2 378.5,-395.2 483.5,-395.2 483.5,-376.2 378.5,-376.2"/>
<text text-anchor="start" x="381.5" y="-382.3" font-family="Helvetica,sans-Serif" font-size="11.00" fill="#000000">...</text>
<polygon fill="#ffffff" stroke="transparent" points="378.5,-357.2 378.5,-376.2 416.5,-376.2 416.5,-357.2 378.5,-357.2"/>
<polygon fill="none" stroke="#000000" points="378.5,-357.2 378.5,-376.2 416.5,-376.2 416.5,-357.2 378.5,-357.2"/>
<text text-anchor="start" x="381.5" y="-363.3" font-family="Helvetica,sans-Serif" font-size="11.00" fill="#000000">&lt; 1</text>
<polygon fill="#ffffff" stroke="transparent" points="416.5,-357.2 416.5,-376.2 462.5,-376.2 462.5,-357.2 416.5,-357.2"/>
<polygon fill="none" stroke="#000000" points="416.5,-357.2 416.5,-376.2 462.5,-376.2 462.5,-357.2 416.5,-357.2"/>
<text text-anchor="start" x="427.1105" y="-363.3" font-family="Helvetica,sans-Serif" font-size="11.00" fill="#000000">0 rows</text>
<polygon fill="#ffffff" stroke="transparent" points="462.5,-357.2 462.5,-376.2 483.5,-376.2 483.5,-357.2 462.5,-357.2"/>
<polygon fill="none" stroke="#000000" points="462.5,-357.2 462.5,-376.2 483.5,-376.2 483.5,-357.2 462.5,-357.2"/>
<text text-anchor="start" x="474.3862" y="-363.3" font-family="Helvetica,sans-Serif" font-size="11.00" fill="#000000"> &#160;</text>
</a>
</g>
</g>
<!-- leave_period&#45;&gt;user -->
<g id="edge3" class="edge">
<title>leave_period:w&#45;&gt;user:e</title>
<path fill="none" stroke="#000000" d="M363.9974,-385.2C330.5186,-385.2 317.1285,-385.2 277.5,-385.2"/>
<polygon fill="#000000" stroke="#000000" points="370.5,-385.2001 378.5,-388.8 374.5,-385.2 378.5,-385.2 378.5,-385.2 378.5,-385.2 374.5,-385.2 378.5,-381.6 370.5,-385.2001 370.5,-385.2001"/>
<ellipse fill="none" stroke="#000000" cx="367.3" cy="-385.2001" rx="3.2" ry="3.2"/>
</g>
<!-- manager -->
<g id="node5" class="node">
<title>manager</title>
<g id="a_node5"><a xlink:href="../../tables/manager.html" xlink:title="manager" target="_top">
<polygon fill="#ffffff" stroke="transparent" points="326,-38.2 326,-172.2 535,-172.2 535,-38.2 326,-38.2"/>
<polygon fill="#f5f5f5" stroke="transparent" points="328.5,-147.2 328.5,-170.2 533.5,-170.2 533.5,-147.2 328.5,-147.2"/>
<polygon fill="none" stroke="#000000" points="328.5,-147.2 328.5,-170.2 533.5,-170.2 533.5,-147.2 328.5,-147.2"/>
<text text-anchor="start" x="333.5" y="-156.3" font-family="Helvetica,sans-Serif" font-weight="bold" font-size="11.00" fill="#000000">manager</text>
<text text-anchor="start" x="498.5437" y="-155.3" font-family="Helvetica,sans-Serif" font-size="11.00" fill="#000000">[table]</text>
<polygon fill="none" stroke="#000000" points="328.5,-125.2 328.5,-147.2 449.5,-147.2 449.5,-125.2 328.5,-125.2"/>
<image xlink:href="../../images/primaryKeys.png" width="11px" height="12px" preserveAspectRatio="xMinYMin meet" x="333.5" y="-142.2"/>
<text text-anchor="start" x="348.5" y="-132.3" font-family="Helvetica,sans-Serif" font-size="11.00" fill="#000000">group_id</text>
<polygon fill="none" stroke="#000000" points="449.5,-125.2 449.5,-147.2 533.5,-147.2 533.5,-125.2 449.5,-125.2"/>
<text text-anchor="start" x="452.5" y="-132.9" font-family="Helvetica,sans-Serif" font-size="11.00" fill="#000000">int4[10]</text>
<polygon fill="none" stroke="#000000" points="328.5,-103.2 328.5,-125.2 449.5,-125.2 449.5,-103.2 328.5,-103.2"/>
<image xlink:href="../../images/primaryKeys.png" width="11px" height="12px" preserveAspectRatio="xMinYMin meet" x="333.5" y="-120.2"/>
<text text-anchor="start" x="348.5" y="-110.3" font-family="Helvetica,sans-Serif" font-size="11.00" fill="#000000">user_id</text>
<polygon fill="none" stroke="#000000" points="449.5,-103.2 449.5,-125.2 533.5,-125.2 533.5,-103.2 449.5,-103.2"/>
<text text-anchor="start" x="452.5" y="-110.9" font-family="Helvetica,sans-Serif" font-size="11.00" fill="#000000">int4[10]</text>
<polygon fill="none" stroke="#000000" points="328.5,-81.2 328.5,-103.2 449.5,-103.2 449.5,-81.2 328.5,-81.2"/>
<text text-anchor="start" x="348.5" y="-88.3" font-family="Helvetica,sans-Serif" font-size="11.00" fill="#000000">register_datetime</text>
<polygon fill="none" stroke="#000000" points="449.5,-81.2 449.5,-103.2 533.5,-103.2 533.5,-81.2 449.5,-81.2"/>
<text text-anchor="start" x="452.3807" y="-88.9" font-family="Helvetica,sans-Serif" font-size="11.00" fill="#000000">timestamp[29,6]</text>
<polygon fill="none" stroke="#000000" points="328.5,-59.2 328.5,-81.2 449.5,-81.2 449.5,-59.2 328.5,-59.2"/>
<text text-anchor="start" x="348.5" y="-66.3" font-family="Helvetica,sans-Serif" font-size="11.00" fill="#000000">update_datetime</text>
<polygon fill="none" stroke="#000000" points="449.5,-59.2 449.5,-81.2 533.5,-81.2 533.5,-59.2 449.5,-59.2"/>
<text text-anchor="start" x="452.3807" y="-66.9" font-family="Helvetica,sans-Serif" font-size="11.00" fill="#000000">timestamp[29,6]</text>
<polygon fill="#ffffff" stroke="transparent" points="328.5,-40.2 328.5,-59.2 380.5,-59.2 380.5,-40.2 328.5,-40.2"/>
<polygon fill="none" stroke="#000000" points="328.5,-40.2 328.5,-59.2 380.5,-59.2 380.5,-40.2 328.5,-40.2"/>
<text text-anchor="start" x="331.5" y="-46.3" font-family="Helvetica,sans-Serif" font-size="11.00" fill="#000000">&lt; 2</text>
<polygon fill="#ffffff" stroke="transparent" points="380.5,-40.2 380.5,-59.2 449.5,-59.2 449.5,-40.2 380.5,-40.2"/>
<polygon fill="none" stroke="#000000" points="380.5,-40.2 380.5,-59.2 449.5,-59.2 449.5,-40.2 380.5,-40.2"/>
<text text-anchor="start" x="414.1105" y="-46.3" font-family="Helvetica,sans-Serif" font-size="11.00" fill="#000000">0 rows</text>
<polygon fill="#ffffff" stroke="transparent" points="449.5,-40.2 449.5,-59.2 533.5,-59.2 533.5,-40.2 449.5,-40.2"/>
<polygon fill="none" stroke="#000000" points="449.5,-40.2 449.5,-59.2 533.5,-59.2 533.5,-40.2 449.5,-40.2"/>
<text text-anchor="start" x="514.9053" y="-46.3" font-family="Helvetica,sans-Serif" font-size="11.00" fill="#000000">0 &gt;</text>
<polygon fill="none" stroke="#000000" stroke-width="2" points="327,-39.2 327,-171.2 534,-171.2 534,-39.2 327,-39.2"/>
</a>
</g>
</g>
<!-- manager&#45;&gt;user -->
<g id="edge5" class="edge">
<title>manager:w&#45;&gt;user:e</title>
<path fill="none" stroke="#000000" d="M315.2404,-120.1122C278.7732,-159.7433 333.3935,-385.2 277.5,-385.2"/>
<polygon fill="#000000" stroke="#000000" points="321.1934,-117.4579 329.9661,-117.488 324.8467,-115.829 328.5,-114.2 328.5,-114.2 328.5,-114.2 324.8467,-115.829 327.0339,-110.912 321.1934,-117.4579 321.1934,-117.4579"/>
<ellipse fill="none" stroke="#000000" cx="318.2708" cy="-118.7611" rx="3.2" ry="3.2"/>
</g>
<!-- group -->
<g id="node6" class="node">
<title>group</title>
<g id="a_node6"><a xlink:href="../../tables/group.html" xlink:title="group" target="_top">
<polygon fill="#ffffff" stroke="transparent" points="156,-130.7 156,-213.7 277,-213.7 277,-130.7 156,-130.7"/>
<polygon fill="#f5f5f5" stroke="transparent" points="156.5,-190.2 156.5,-213.2 277.5,-213.2 277.5,-190.2 156.5,-190.2"/>
<polygon fill="none" stroke="#000000" points="156.5,-190.2 156.5,-213.2 277.5,-213.2 277.5,-190.2 156.5,-190.2"/>
<text text-anchor="start" x="161.5" y="-199.3" font-family="Helvetica,sans-Serif" font-weight="bold" font-size="11.00" fill="#000000">group</text>
<text text-anchor="start" x="242.5437" y="-198.3" font-family="Helvetica,sans-Serif" font-size="11.00" fill="#000000">[table]</text>
<polygon fill="none" stroke="#000000" points="156.5,-168.2 156.5,-190.2 277.5,-190.2 277.5,-168.2 156.5,-168.2"/>
<image xlink:href="../../images/primaryKeys.png" width="11px" height="12px" preserveAspectRatio="xMinYMin meet" x="161.5" y="-185.2"/>
<text text-anchor="start" x="176.5" y="-175.3" font-family="Helvetica,sans-Serif" font-size="11.00" fill="#000000">id</text>
<polygon fill="none" stroke="#000000" points="156.5,-149.2 156.5,-168.2 277.5,-168.2 277.5,-149.2 156.5,-149.2"/>
<text text-anchor="start" x="159.5" y="-155.3" font-family="Helvetica,sans-Serif" font-size="11.00" fill="#000000">...</text>
<polygon fill="#ffffff" stroke="transparent" points="156.5,-130.2 156.5,-149.2 196.5,-149.2 196.5,-130.2 156.5,-130.2"/>
<polygon fill="none" stroke="#000000" points="156.5,-130.2 156.5,-149.2 196.5,-149.2 196.5,-130.2 156.5,-130.2"/>
<text text-anchor="start" x="159.5" y="-136.3" font-family="Helvetica,sans-Serif" font-size="11.00" fill="#000000"> &#160;</text>
<polygon fill="#ffffff" stroke="transparent" points="196.5,-130.2 196.5,-149.2 242.5,-149.2 242.5,-130.2 196.5,-130.2"/>
<polygon fill="none" stroke="#000000" points="196.5,-130.2 196.5,-149.2 242.5,-149.2 242.5,-130.2 196.5,-130.2"/>
<text text-anchor="start" x="212.6105" y="-136.3" font-family="Helvetica,sans-Serif" font-size="11.00" fill="#000000">1 row</text>
<polygon fill="#ffffff" stroke="transparent" points="242.5,-130.2 242.5,-149.2 277.5,-149.2 277.5,-130.2 242.5,-130.2"/>
<polygon fill="none" stroke="#000000" points="242.5,-130.2 242.5,-149.2 277.5,-149.2 277.5,-130.2 242.5,-130.2"/>
<text text-anchor="start" x="258.9053" y="-136.3" font-family="Helvetica,sans-Serif" font-size="11.00" fill="#000000">2 &gt;</text>
</a>
</g>
</g>
<!-- manager&#45;&gt;group -->
<g id="edge4" class="edge">
<title>manager:w&#45;&gt;group:e</title>
<path fill="none" stroke="#000000" d="M314.4939,-140.8018C300.6566,-151.8946 301.1259,-179.2 277.5,-179.2"/>
<polygon fill="#000000" stroke="#000000" points="320.8997,-138.6971 329.6237,-139.6201 324.6999,-137.4486 328.5,-136.2 328.5,-136.2 328.5,-136.2 324.6999,-137.4486 327.3763,-132.7799 320.8997,-138.6971 320.8997,-138.6971"/>
<ellipse fill="none" stroke="#000000" cx="317.8596" cy="-139.696" rx="3.2" ry="3.2"/>
</g>
<!-- member -->
<g id="node7" class="node">
<title>member</title>
<g id="a_node7"><a xlink:href="../../tables/member.html" xlink:title="member" target="_top">
<polygon fill="#ffffff" stroke="transparent" points="389,-193.7 389,-254.7 472,-254.7 472,-193.7 389,-193.7"/>
<polygon fill="#f5f5f5" stroke="transparent" points="389.5,-231.2 389.5,-254.2 472.5,-254.2 472.5,-231.2 389.5,-231.2"/>
<polygon fill="none" stroke="#000000" points="389.5,-231.2 389.5,-254.2 472.5,-254.2 472.5,-231.2 389.5,-231.2"/>
<text text-anchor="start" x="394.3348" y="-240.3" font-family="Helvetica,sans-Serif" font-weight="bold" font-size="11.00" fill="#000000">member</text>
<text text-anchor="start" x="438.0219" y="-239.3" font-family="Helvetica,sans-Serif" font-size="11.00" fill="#000000">[table]</text>
<polygon fill="none" stroke="#000000" points="389.5,-212.2 389.5,-231.2 472.5,-231.2 472.5,-212.2 389.5,-212.2"/>
<text text-anchor="start" x="392.5" y="-218.3" font-family="Helvetica,sans-Serif" font-size="11.00" fill="#000000">...</text>
<polygon fill="#ffffff" stroke="transparent" points="389.5,-193.2 389.5,-212.2 416.5,-212.2 416.5,-193.2 389.5,-193.2"/>
<polygon fill="none" stroke="#000000" points="389.5,-193.2 389.5,-212.2 416.5,-212.2 416.5,-193.2 389.5,-193.2"/>
<text text-anchor="start" x="392.5" y="-199.3" font-family="Helvetica,sans-Serif" font-size="11.00" fill="#000000">&lt; 2</text>
<polygon fill="#ffffff" stroke="transparent" points="416.5,-193.2 416.5,-212.2 457.5,-212.2 457.5,-193.2 416.5,-193.2"/>
<polygon fill="none" stroke="#000000" points="416.5,-193.2 416.5,-212.2 457.5,-212.2 457.5,-193.2 416.5,-193.2"/>
<text text-anchor="start" x="422.1105" y="-199.3" font-family="Helvetica,sans-Serif" font-size="11.00" fill="#000000">0 rows</text>
<polygon fill="#ffffff" stroke="transparent" points="457.5,-193.2 457.5,-212.2 472.5,-212.2 472.5,-193.2 457.5,-193.2"/>
<polygon fill="none" stroke="#000000" points="457.5,-193.2 457.5,-212.2 472.5,-212.2 472.5,-193.2 457.5,-193.2"/>
<text text-anchor="start" x="463.3862" y="-199.3" font-family="Helvetica,sans-Serif" font-size="11.00" fill="#000000"> &#160;</text>
</a>
</g>
</g>
<!-- member&#45;&gt;user -->
<g id="edge7" class="edge">
<title>member:w&#45;&gt;user:e</title>
<path fill="none" stroke="#000000" d="M374.8569,-222.1267C348.7656,-225.7807 337.8798,-240.2265 318,-265.2 282.9432,-309.2393 333.7889,-385.2 277.5,-385.2"/>
<polygon fill="#000000" stroke="#000000" points="381.516,-221.7053 389.7274,-224.7928 385.508,-221.4527 389.5,-221.2 389.5,-221.2 389.5,-221.2 385.508,-221.4527 389.2726,-217.6072 381.516,-221.7053 381.516,-221.7053"/>
<ellipse fill="none" stroke="#000000" cx="378.3224" cy="-221.9074" rx="3.2" ry="3.2"/>
</g>
<!-- member&#45;&gt;group -->
<g id="edge6" class="edge">
<title>member:w&#45;&gt;group:e</title>
<path fill="none" stroke="#000000" d="M374.9332,-220.0328C334.7356,-213.2495 325.3672,-179.2 277.5,-179.2"/>
<polygon fill="#000000" stroke="#000000" points="381.5256,-220.561 389.2125,-224.7885 385.5128,-220.8805 389.5,-221.2 389.5,-221.2 389.5,-221.2 385.5128,-220.8805 389.7875,-217.6115 381.5256,-220.561 381.5256,-220.561"/>
<ellipse fill="none" stroke="#000000" cx="378.3358" cy="-220.3054" rx="3.2" ry="3.2"/>
</g>
<!-- paid_leave_grant_history -->
<g id="node8" class="node">
<title>paid_leave_grant_history</title>
<g id="a_node8"><a xlink:href="../../tables/paid_leave_grant_history.html" xlink:title="paid_leave_grant_history" target="_top">
<polygon fill="#ffffff" stroke="transparent" points="348,-275.7 348,-336.7 513,-336.7 513,-275.7 348,-275.7"/>
<polygon fill="#f5f5f5" stroke="transparent" points="348.5,-313.2 348.5,-336.2 513.5,-336.2 513.5,-313.2 348.5,-313.2"/>
<polygon fill="none" stroke="#000000" points="348.5,-313.2 348.5,-336.2 513.5,-336.2 513.5,-313.2 348.5,-313.2"/>
<text text-anchor="start" x="353.0656" y="-322.3" font-family="Helvetica,sans-Serif" font-weight="bold" font-size="11.00" fill="#000000">paid_leave_grant_history</text>
<text text-anchor="start" x="479.0219" y="-321.3" font-family="Helvetica,sans-Serif" font-size="11.00" fill="#000000">[table]</text>
<polygon fill="none" stroke="#000000" points="348.5,-294.2 348.5,-313.2 513.5,-313.2 513.5,-294.2 348.5,-294.2"/>
<text text-anchor="start" x="351.5" y="-300.3" font-family="Helvetica,sans-Serif" font-size="11.00" fill="#000000">...</text>
<polygon fill="#ffffff" stroke="transparent" points="348.5,-275.2 348.5,-294.2 416.5,-294.2 416.5,-275.2 348.5,-275.2"/>
<polygon fill="none" stroke="#000000" points="348.5,-275.2 348.5,-294.2 416.5,-294.2 416.5,-275.2 348.5,-275.2"/>
<text text-anchor="start" x="351.5" y="-281.3" font-family="Helvetica,sans-Serif" font-size="11.00" fill="#000000">&lt; 2</text>
<polygon fill="#ffffff" stroke="transparent" points="416.5,-275.2 416.5,-294.2 477.5,-294.2 477.5,-275.2 416.5,-275.2"/>
<polygon fill="none" stroke="#000000" points="416.5,-275.2 416.5,-294.2 477.5,-294.2 477.5,-275.2 416.5,-275.2"/>
<text text-anchor="start" x="442.1105" y="-281.3" font-family="Helvetica,sans-Serif" font-size="11.00" fill="#000000">0 rows</text>
<polygon fill="#ffffff" stroke="transparent" points="477.5,-275.2 477.5,-294.2 513.5,-294.2 513.5,-275.2 477.5,-275.2"/>
<polygon fill="none" stroke="#000000" points="477.5,-275.2 477.5,-294.2 513.5,-294.2 513.5,-275.2 477.5,-275.2"/>
<text text-anchor="start" x="504.3862" y="-281.3" font-family="Helvetica,sans-Serif" font-size="11.00" fill="#000000"> &#160;</text>
</a>
</g>
</g>
<!-- paid_leave_grant_history&#45;&gt;user -->
<g id="edge8" class="edge">
<title>paid_leave_grant_history:w&#45;&gt;user:e</title>
<path fill="none" stroke="#000000" d="M334.3483,-306.3144C305.2382,-321.2927 320.0581,-385.2 277.5,-385.2"/>
<polygon fill="#000000" stroke="#000000" points="340.687,-304.9195 349.2738,-306.7159 344.5935,-304.0597 348.5,-303.2 348.5,-303.2 348.5,-303.2 344.5935,-304.0597 347.7262,-299.6841 340.687,-304.9195 340.687,-304.9195"/>
<ellipse fill="none" stroke="#000000" cx="337.5617" cy="-305.6072" rx="3.2" ry="3.2"/>
</g>
<!-- user_rule -->
<g id="node10" class="node">
<title>user_rule</title>
<g id="a_node10"><a xlink:href="../../tables/user_rule.html" xlink:title="user_rule" target="_top">
<polygon fill="#ffffff" stroke="transparent" points="386.5,-603.7 386.5,-664.7 474.5,-664.7 474.5,-603.7 386.5,-603.7"/>
<polygon fill="#f5f5f5" stroke="transparent" points="386.5,-641.2 386.5,-664.2 474.5,-664.2 474.5,-641.2 386.5,-641.2"/>
<polygon fill="none" stroke="#000000" points="386.5,-641.2 386.5,-664.2 474.5,-664.2 474.5,-641.2 386.5,-641.2"/>
<text text-anchor="start" x="391.0804" y="-650.3" font-family="Helvetica,sans-Serif" font-weight="bold" font-size="11.00" fill="#000000">user_rule</text>
<text text-anchor="start" x="440.0219" y="-649.3" font-family="Helvetica,sans-Serif" font-size="11.00" fill="#000000">[table]</text>
<polygon fill="none" stroke="#000000" points="386.5,-622.2 386.5,-641.2 474.5,-641.2 474.5,-622.2 386.5,-622.2"/>
<text text-anchor="start" x="389.5" y="-628.3" font-family="Helvetica,sans-Serif" font-size="11.00" fill="#000000">...</text>
<polygon fill="#ffffff" stroke="transparent" points="386.5,-603.2 386.5,-622.2 415.5,-622.2 415.5,-603.2 386.5,-603.2"/>
<polygon fill="none" stroke="#000000" points="386.5,-603.2 386.5,-622.2 415.5,-622.2 415.5,-603.2 386.5,-603.2"/>
<text text-anchor="start" x="389.5" y="-609.3" font-family="Helvetica,sans-Serif" font-size="11.00" fill="#000000">&lt; 2</text>
<polygon fill="#ffffff" stroke="transparent" points="415.5,-603.2 415.5,-622.2 457.5,-622.2 457.5,-603.2 415.5,-603.2"/>
<polygon fill="none" stroke="#000000" points="415.5,-603.2 415.5,-622.2 457.5,-622.2 457.5,-603.2 415.5,-603.2"/>
<text text-anchor="start" x="422.1105" y="-609.3" font-family="Helvetica,sans-Serif" font-size="11.00" fill="#000000">2 rows</text>
<polygon fill="#ffffff" stroke="transparent" points="457.5,-603.2 457.5,-622.2 474.5,-622.2 474.5,-603.2 457.5,-603.2"/>
<polygon fill="none" stroke="#000000" points="457.5,-603.2 457.5,-622.2 474.5,-622.2 474.5,-603.2 457.5,-603.2"/>
<text text-anchor="start" x="465.3862" y="-609.3" font-family="Helvetica,sans-Serif" font-size="11.00" fill="#000000"> &#160;</text>
</a>
</g>
</g>
<!-- user_rule&#45;&gt;user -->
<g id="edge10" class="edge">
<title>user_rule:w&#45;&gt;user:e</title>
<path fill="none" stroke="#000000" d="M375.8135,-630.836C348.706,-628.8296 336.2255,-618.2856 318,-593.2 262.6426,-517.006 371.6805,-385.2 277.5,-385.2"/>
<polygon fill="#000000" stroke="#000000" points="385.8367,-627.1751 385.5642,-635.1704 383.9652,-635.1159 384.2376,-627.1206 385.8367,-627.1751"/>
<polyline fill="none" stroke="#000000" points="386.5,-631.2 382.5023,-631.0638 "/>
<ellipse fill="none" stroke="#000000" cx="379.3042" cy="-630.9548" rx="3.2" ry="3.2"/>
</g>
</g>
</svg>
