<?xml version="1.0" encoding="UTF-8" standalone="no"?>
<!DOCTYPE svg PUBLIC "-//W3C//DTD SVG 1.1//EN"
 "http://www.w3.org/Graphics/SVG/1.1/DTD/svg11.dtd">
<!-- Generated by graphviz version 2.40.1 (20161225.0304)
 -->
<!-- Title: oneDegreeRelationshipsDiagram Pages: 1 -->
<svg width="403pt" height="259pt"
 viewBox="0.00 0.00 403.00 259.20" xmlns="http://www.w3.org/2000/svg" xmlns:xlink="http://www.w3.org/1999/xlink">
<g id="graph0" class="graph" transform="scale(1 1) rotate(0) translate(4 255.2)">
<title>oneDegreeRelationshipsDiagram</title>
<polygon fill="#ffffff" stroke="transparent" points="-4,4 -4,-255.2 399,-255.2 399,4 -4,4"/>
<text text-anchor="middle" x="72.4936" y="-7.3" font-family="Helvetica,sans-Serif" font-size="11.00" fill="#000000">Generated by SchemaSpy</text>
<!-- member -->
<g id="node1" class="node">
<title>member</title>
<g id="a_node1"><a xlink:href="../../tables/member.html" xlink:title="member" target="_top">
<polygon fill="#ffffff" stroke="transparent" points="178,-73.7 178,-207.7 387,-207.7 387,-73.7 178,-73.7"/>
<polygon fill="#f5f5f5" stroke="transparent" points="180.5,-182.7 180.5,-205.7 385.5,-205.7 385.5,-182.7 180.5,-182.7"/>
<polygon fill="none" stroke="#000000" points="180.5,-182.7 180.5,-205.7 385.5,-205.7 385.5,-182.7 180.5,-182.7"/>
<text text-anchor="start" x="185.5" y="-191.8" font-family="Helvetica,sans-Serif" font-weight="bold" font-size="11.00" fill="#000000">member</text>
<text text-anchor="start" x="350.5437" y="-190.8" font-family="Helvetica,sans-Serif" font-size="11.00" fill="#000000">[table]</text>
<polygon fill="none" stroke="#000000" points="180.5,-160.7 180.5,-182.7 301.5,-182.7 301.5,-160.7 180.5,-160.7"/>
<image xlink:href="../../images/primaryKeys.png" width="11px" height="12px" preserveAspectRatio="xMinYMin meet" x="185.5" y="-177.7"/>
<text text-anchor="start" x="200.5" y="-167.8" font-family="Helvetica,sans-Serif" font-size="11.00" fill="#000000">group_id</text>
<polygon fill="none" stroke="#000000" points="301.5,-160.7 301.5,-182.7 385.5,-182.7 385.5,-160.7 301.5,-160.7"/>
<text text-anchor="start" x="304.5" y="-168.4" font-family="Helvetica,sans-Serif" font-size="11.00" fill="#000000">int4[10]</text>
<polygon fill="none" stroke="#000000" points="180.5,-138.7 180.5,-160.7 301.5,-160.7 301.5,-138.7 180.5,-138.7"/>
<image xlink:href="../../images/primaryKeys.png" width="11px" height="12px" preserveAspectRatio="xMinYMin meet" x="185.5" y="-155.7"/>
<text text-anchor="start" x="200.5" y="-145.8" font-family="Helvetica,sans-Serif" font-size="11.00" fill="#000000">user_id</text>
<polygon fill="none" stroke="#000000" points="301.5,-138.7 301.5,-160.7 385.5,-160.7 385.5,-138.7 301.5,-138.7"/>
<text text-anchor="start" x="304.5" y="-146.4" font-family="Helvetica,sans-Serif" font-size="11.00" fill="#000000">int4[10]</text>
<polygon fill="none" stroke="#000000" points="180.5,-116.7 180.5,-138.7 301.5,-138.7 301.5,-116.7 180.5,-116.7"/>
<text text-anchor="start" x="200.5" y="-123.8" font-family="Helvetica,sans-Serif" font-size="11.00" fill="#000000">register_datetime</text>
<polygon fill="none" stroke="#000000" points="301.5,-116.7 301.5,-138.7 385.5,-138.7 385.5,-116.7 301.5,-116.7"/>
<text text-anchor="start" x="304.3807" y="-124.4" font-family="Helvetica,sans-Serif" font-size="11.00" fill="#000000">timestamp[29,6]</text>
<polygon fill="none" stroke="#000000" points="180.5,-94.7 180.5,-116.7 301.5,-116.7 301.5,-94.7 180.5,-94.7"/>
<text text-anchor="start" x="200.5" y="-101.8" font-family="Helvetica,sans-Serif" font-size="11.00" fill="#000000">update_datetime</text>
<polygon fill="none" stroke="#000000" points="301.5,-94.7 301.5,-116.7 385.5,-116.7 385.5,-94.7 301.5,-94.7"/>
<text text-anchor="start" x="304.3807" y="-102.4" font-family="Helvetica,sans-Serif" font-size="11.00" fill="#000000">timestamp[29,6]</text>
<polygon fill="#ffffff" stroke="transparent" points="180.5,-75.7 180.5,-94.7 232.5,-94.7 232.5,-75.7 180.5,-75.7"/>
<polygon fill="none" stroke="#000000" points="180.5,-75.7 180.5,-94.7 232.5,-94.7 232.5,-75.7 180.5,-75.7"/>
<text text-anchor="start" x="183.5" y="-81.8" font-family="Helvetica,sans-Serif" font-size="11.00" fill="#000000">&lt; 2</text>
<polygon fill="#ffffff" stroke="transparent" points="232.5,-75.7 232.5,-94.7 301.5,-94.7 301.5,-75.7 232.5,-75.7"/>
<polygon fill="none" stroke="#000000" points="232.5,-75.7 232.5,-94.7 301.5,-94.7 301.5,-75.7 232.5,-75.7"/>
<text text-anchor="start" x="266.1105" y="-81.8" font-family="Helvetica,sans-Serif" font-size="11.00" fill="#000000">0 rows</text>
<polygon fill="#ffffff" stroke="transparent" points="301.5,-75.7 301.5,-94.7 385.5,-94.7 385.5,-75.7 301.5,-75.7"/>
<polygon fill="none" stroke="#000000" points="301.5,-75.7 301.5,-94.7 385.5,-94.7 385.5,-75.7 301.5,-75.7"/>
<text text-anchor="start" x="366.9053" y="-81.8" font-family="Helvetica,sans-Serif" font-size="11.00" fill="#000000">0 &gt;</text>
<polygon fill="none" stroke="#000000" stroke-width="2" points="179,-74.7 179,-206.7 386,-206.7 386,-74.7 179,-74.7"/>
</a>
</g>
</g>
<!-- group -->
<g id="node2" class="node">
<title>group</title>
<g id="a_node2"><a xlink:href="../../tables/group.html" xlink:title="group" target="_top">
<polygon fill="#ffffff" stroke="transparent" points="8,-164.2 8,-247.2 129,-247.2 129,-164.2 8,-164.2"/>
<polygon fill="#f5f5f5" stroke="transparent" points="8.5,-223.7 8.5,-246.7 129.5,-246.7 129.5,-223.7 8.5,-223.7"/>
<polygon fill="none" stroke="#000000" points="8.5,-223.7 8.5,-246.7 129.5,-246.7 129.5,-223.7 8.5,-223.7"/>
<text text-anchor="start" x="13.5" y="-232.8" font-family="Helvetica,sans-Serif" font-weight="bold" font-size="11.00" fill="#000000">group</text>
<text text-anchor="start" x="94.5437" y="-231.8" font-family="Helvetica,sans-Serif" font-size="11.00" fill="#000000">[table]</text>
<polygon fill="none" stroke="#000000" points="8.5,-201.7 8.5,-223.7 129.5,-223.7 129.5,-201.7 8.5,-201.7"/>
<image xlink:href="../../images/primaryKeys.png" width="11px" height="12px" preserveAspectRatio="xMinYMin meet" x="13.5" y="-218.7"/>
<text text-anchor="start" x="28.5" y="-208.8" font-family="Helvetica,sans-Serif" font-size="11.00" fill="#000000">id</text>
<polygon fill="none" stroke="#000000" points="8.5,-182.7 8.5,-201.7 129.5,-201.7 129.5,-182.7 8.5,-182.7"/>
<text text-anchor="start" x="11.5" y="-188.8" font-family="Helvetica,sans-Serif" font-size="11.00" fill="#000000">...</text>
<polygon fill="#ffffff" stroke="transparent" points="8.5,-163.7 8.5,-182.7 48.5,-182.7 48.5,-163.7 8.5,-163.7"/>
<polygon fill="none" stroke="#000000" points="8.5,-163.7 8.5,-182.7 48.5,-182.7 48.5,-163.7 8.5,-163.7"/>
<text text-anchor="start" x="11.5" y="-169.8" font-family="Helvetica,sans-Serif" font-size="11.00" fill="#000000"> &#160;</text>
<polygon fill="#ffffff" stroke="transparent" points="48.5,-163.7 48.5,-182.7 94.5,-182.7 94.5,-163.7 48.5,-163.7"/>
<polygon fill="none" stroke="#000000" points="48.5,-163.7 48.5,-182.7 94.5,-182.7 94.5,-163.7 48.5,-163.7"/>
<text text-anchor="start" x="64.6105" y="-169.8" font-family="Helvetica,sans-Serif" font-size="11.00" fill="#000000">1 row</text>
<polygon fill="#ffffff" stroke="transparent" points="94.5,-163.7 94.5,-182.7 129.5,-182.7 129.5,-163.7 94.5,-163.7"/>
<polygon fill="none" stroke="#000000" points="94.5,-163.7 94.5,-182.7 129.5,-182.7 129.5,-163.7 94.5,-163.7"/>
<text text-anchor="start" x="110.9053" y="-169.8" font-family="Helvetica,sans-Serif" font-size="11.00" fill="#000000">2 &gt;</text>
</a>
</g>
</g>
<!-- member&#45;&gt;group -->
<g id="edge1" class="edge">
<title>member:w&#45;&gt;group:e</title>
<path fill="none" stroke="#000000" d="M166.6568,-176.0877C152.8325,-186.6646 152.6756,-212.7 129.5,-212.7"/>
<polygon fill="#000000" stroke="#000000" points="172.8739,-174.1172 181.5877,-175.1317 176.6869,-172.9086 180.5,-171.7 180.5,-171.7 180.5,-171.7 176.6869,-172.9086 179.4123,-168.2683 172.8739,-174.1172 172.8739,-174.1172"/>
<ellipse fill="none" stroke="#000000" cx="169.8235" cy="-175.0841" rx="3.2" ry="3.2"/>
</g>
<!-- user -->
<g id="node3" class="node">
<title>user</title>
<g id="a_node3"><a xlink:href="../../tables/user.html" xlink:title="user" target="_top">
<polygon fill="#ffffff" stroke="transparent" points="8,-38.2 8,-143.2 129,-143.2 129,-38.2 8,-38.2"/>
<polygon fill="#f5f5f5" stroke="transparent" points="8.5,-119.7 8.5,-142.7 129.5,-142.7 129.5,-119.7 8.5,-119.7"/>
<polygon fill="none" stroke="#000000" points="8.5,-119.7 8.5,-142.7 129.5,-142.7 129.5,-119.7 8.5,-119.7"/>
<text text-anchor="start" x="13.5" y="-128.8" font-family="Helvetica,sans-Serif" font-weight="bold" font-size="11.00" fill="#000000">user</text>
<text text-anchor="start" x="94.5437" y="-127.8" font-family="Helvetica,sans-Serif" font-size="11.00" fill="#000000">[table]</text>
<polygon fill="none" stroke="#000000" points="8.5,-97.7 8.5,-119.7 129.5,-119.7 129.5,-97.7 8.5,-97.7"/>
<image xlink:href="../../images/primaryKeys.png" width="11px" height="12px" preserveAspectRatio="xMinYMin meet" x="13.5" y="-114.7"/>
<text text-anchor="start" x="28.5" y="-104.8" font-family="Helvetica,sans-Serif" font-size="11.00" fill="#000000">id</text>
<polygon fill="none" stroke="#000000" points="8.5,-75.7 8.5,-97.7 129.5,-97.7 129.5,-75.7 8.5,-75.7"/>
<image xlink:href="../../images/foreignKeys.png" width="11px" height="12px" preserveAspectRatio="xMinYMin meet" x="13.5" y="-92.7"/>
<text text-anchor="start" x="28.5" y="-82.8" font-family="Helvetica,sans-Serif" font-size="11.00" fill="#000000">status</text>
<polygon fill="none" stroke="#000000" points="8.5,-56.7 8.5,-75.7 129.5,-75.7 129.5,-56.7 8.5,-56.7"/>
<text text-anchor="start" x="11.5" y="-62.8" font-family="Helvetica,sans-Serif" font-size="11.00" fill="#000000">...</text>
<polygon fill="#ffffff" stroke="transparent" points="8.5,-37.7 8.5,-56.7 49.5,-56.7 49.5,-37.7 8.5,-37.7"/>
<polygon fill="none" stroke="#000000" points="8.5,-37.7 8.5,-56.7 49.5,-56.7 49.5,-37.7 8.5,-37.7"/>
<text text-anchor="start" x="11.5" y="-43.8" font-family="Helvetica,sans-Serif" font-size="11.00" fill="#000000">&lt; 1</text>
<polygon fill="#ffffff" stroke="transparent" points="49.5,-37.7 49.5,-56.7 97.5,-56.7 97.5,-37.7 49.5,-37.7"/>
<polygon fill="none" stroke="#000000" points="49.5,-37.7 49.5,-56.7 97.5,-56.7 97.5,-37.7 49.5,-37.7"/>
<text text-anchor="start" x="62.1105" y="-43.8" font-family="Helvetica,sans-Serif" font-size="11.00" fill="#000000">3 rows</text>
<polygon fill="#ffffff" stroke="transparent" points="97.5,-37.7 97.5,-56.7 129.5,-56.7 129.5,-37.7 97.5,-37.7"/>
<polygon fill="none" stroke="#000000" points="97.5,-37.7 97.5,-56.7 129.5,-56.7 129.5,-37.7 97.5,-37.7"/>
<text text-anchor="start" x="110.9053" y="-43.8" font-family="Helvetica,sans-Serif" font-size="11.00" fill="#000000">7 &gt;</text>
</a>
</g>
</g>
<!-- member&#45;&gt;user -->
<g id="edge2" class="edge">
<title>member:w&#45;&gt;user:e</title>
<path fill="none" stroke="#000000" d="M166.6568,-145.3123C152.8325,-134.7354 152.6756,-108.7 129.5,-108.7"/>
<polygon fill="#000000" stroke="#000000" points="172.8739,-147.2828 179.4123,-153.1317 176.6869,-148.4914 180.5,-149.7 180.5,-149.7 180.5,-149.7 176.6869,-148.4914 181.5877,-146.2683 172.8739,-147.2828 172.8739,-147.2828"/>
<ellipse fill="none" stroke="#000000" cx="169.8235" cy="-146.3159" rx="3.2" ry="3.2"/>
</g>
</g>
</svg>
