<?xml version="1.0" encoding="UTF-8" standalone="no"?>
<!DOCTYPE svg PUBLIC "-//W3C//DTD SVG 1.1//EN"
 "http://www.w3.org/Graphics/SVG/1.1/DTD/svg11.dtd">
<!-- Generated by graphviz version 2.40.1 (20161225.0304)
 -->
<!-- Title: twoDegreesRelationshipsDiagram Pages: 1 -->
<svg width="551pt" height="677pt"
 viewBox="0.00 0.00 551.00 677.20" xmlns="http://www.w3.org/2000/svg" xmlns:xlink="http://www.w3.org/1999/xlink">
<g id="graph0" class="graph" transform="scale(1 1) rotate(0) translate(4 673.2)">
<title>twoDegreesRelationshipsDiagram</title>
<polygon fill="#ffffff" stroke="transparent" points="-4,4 -4,-673.2 547,-673.2 547,4 -4,4"/>
<text text-anchor="middle" x="72.4936" y="-7.3" font-family="Helvetica,sans-Serif" font-size="11.00" fill="#000000">Generated by SchemaSpy</text>
<!-- account -->
<g id="node1" class="node">
<title>account</title>
<g id="a_node1"><a xlink:href="../../tables/account.html" xlink:title="account" target="_top">
<polygon fill="#ffffff" stroke="transparent" points="390,-522.2 390,-583.2 471,-583.2 471,-522.2 390,-522.2"/>
<polygon fill="#f5f5f5" stroke="transparent" points="390.5,-559.7 390.5,-582.7 471.5,-582.7 471.5,-559.7 390.5,-559.7"/>
<polygon fill="none" stroke="#000000" points="390.5,-559.7 390.5,-582.7 471.5,-582.7 471.5,-559.7 390.5,-559.7"/>
<text text-anchor="start" x="395.2418" y="-568.8" font-family="Helvetica,sans-Serif" font-weight="bold" font-size="11.00" fill="#000000">account</text>
<text text-anchor="start" x="437.0219" y="-567.8" font-family="Helvetica,sans-Serif" font-size="11.00" fill="#000000">[table]</text>
<polygon fill="none" stroke="#000000" points="390.5,-540.7 390.5,-559.7 471.5,-559.7 471.5,-540.7 390.5,-540.7"/>
<text text-anchor="start" x="393.5" y="-546.8" font-family="Helvetica,sans-Serif" font-size="11.00" fill="#000000">...</text>
<polygon fill="#ffffff" stroke="transparent" points="390.5,-521.7 390.5,-540.7 416.5,-540.7 416.5,-521.7 390.5,-521.7"/>
<polygon fill="none" stroke="#000000" points="390.5,-521.7 390.5,-540.7 416.5,-540.7 416.5,-521.7 390.5,-521.7"/>
<text text-anchor="start" x="393.5" y="-527.8" font-family="Helvetica,sans-Serif" font-size="11.00" fill="#000000">&lt; 1</text>
<polygon fill="#ffffff" stroke="transparent" points="416.5,-521.7 416.5,-540.7 456.5,-540.7 456.5,-521.7 416.5,-521.7"/>
<polygon fill="none" stroke="#000000" points="416.5,-521.7 416.5,-540.7 456.5,-540.7 456.5,-521.7 416.5,-521.7"/>
<text text-anchor="start" x="421.1105" y="-527.8" font-family="Helvetica,sans-Serif" font-size="11.00" fill="#000000">3 rows</text>
<polygon fill="#ffffff" stroke="transparent" points="456.5,-521.7 456.5,-540.7 471.5,-540.7 471.5,-521.7 456.5,-521.7"/>
<polygon fill="none" stroke="#000000" points="456.5,-521.7 456.5,-540.7 471.5,-540.7 471.5,-521.7 456.5,-521.7"/>
<text text-anchor="start" x="462.3862" y="-527.8" font-family="Helvetica,sans-Serif" font-size="11.00" fill="#000000"> &#160;</text>
</a>
</g>
</g>
<!-- user -->
<g id="node2" class="node">
<title>user</title>
<g id="a_node2"><a xlink:href="../../tables/user.html" xlink:title="user" target="_top">
<polygon fill="#ffffff" stroke="transparent" points="156,-315.2 156,-420.2 277,-420.2 277,-315.2 156,-315.2"/>
<polygon fill="#f5f5f5" stroke="transparent" points="156.5,-396.7 156.5,-419.7 277.5,-419.7 277.5,-396.7 156.5,-396.7"/>
<polygon fill="none" stroke="#000000" points="156.5,-396.7 156.5,-419.7 277.5,-419.7 277.5,-396.7 156.5,-396.7"/>
<text text-anchor="start" x="161.5" y="-405.8" font-family="Helvetica,sans-Serif" font-weight="bold" font-size="11.00" fill="#000000">user</text>
<text text-anchor="start" x="242.5437" y="-404.8" font-family="Helvetica,sans-Serif" font-size="11.00" fill="#000000">[table]</text>
<polygon fill="none" stroke="#000000" points="156.5,-374.7 156.5,-396.7 277.5,-396.7 277.5,-374.7 156.5,-374.7"/>
<image xlink:href="../../images/primaryKeys.png" width="11px" height="12px" preserveAspectRatio="xMinYMin meet" x="161.5" y="-391.7"/>
<text text-anchor="start" x="176.5" y="-381.8" font-family="Helvetica,sans-Serif" font-size="11.00" fill="#000000">id</text>
<polygon fill="none" stroke="#000000" points="156.5,-352.7 156.5,-374.7 277.5,-374.7 277.5,-352.7 156.5,-352.7"/>
<image xlink:href="../../images/foreignKeys.png" width="11px" height="12px" preserveAspectRatio="xMinYMin meet" x="161.5" y="-369.7"/>
<text text-anchor="start" x="176.5" y="-359.8" font-family="Helvetica,sans-Serif" font-size="11.00" fill="#000000">status</text>
<polygon fill="none" stroke="#000000" points="156.5,-333.7 156.5,-352.7 277.5,-352.7 277.5,-333.7 156.5,-333.7"/>
<text text-anchor="start" x="159.5" y="-339.8" font-family="Helvetica,sans-Serif" font-size="11.00" fill="#000000">...</text>
<polygon fill="#ffffff" stroke="transparent" points="156.5,-314.7 156.5,-333.7 197.5,-333.7 197.5,-314.7 156.5,-314.7"/>
<polygon fill="none" stroke="#000000" points="156.5,-314.7 156.5,-333.7 197.5,-333.7 197.5,-314.7 156.5,-314.7"/>
<text text-anchor="start" x="159.5" y="-320.8" font-family="Helvetica,sans-Serif" font-size="11.00" fill="#000000">&lt; 1</text>
<polygon fill="#ffffff" stroke="transparent" points="197.5,-314.7 197.5,-333.7 245.5,-333.7 245.5,-314.7 197.5,-314.7"/>
<polygon fill="none" stroke="#000000" points="197.5,-314.7 197.5,-333.7 245.5,-333.7 245.5,-314.7 197.5,-314.7"/>
<text text-anchor="start" x="210.1105" y="-320.8" font-family="Helvetica,sans-Serif" font-size="11.00" fill="#000000">3 rows</text>
<polygon fill="#ffffff" stroke="transparent" points="245.5,-314.7 245.5,-333.7 277.5,-333.7 277.5,-314.7 245.5,-314.7"/>
<polygon fill="none" stroke="#000000" points="245.5,-314.7 245.5,-333.7 277.5,-333.7 277.5,-314.7 245.5,-314.7"/>
<text text-anchor="start" x="258.9053" y="-320.8" font-family="Helvetica,sans-Serif" font-size="11.00" fill="#000000">7 &gt;</text>
</a>
</g>
</g>
<!-- account&#45;&gt;user -->
<g id="edge1" class="edge">
<title>account:w&#45;&gt;user:e</title>
<path fill="none" stroke="#000000" d="M379.7391,-549.352C351.3224,-547.3595 338.9527,-536.6005 318,-511.7 280.1279,-466.6921 336.3218,-385.7 277.5,-385.7"/>
<polygon fill="#000000" stroke="#000000" points="389.8297,-545.6762 389.5711,-553.672 387.9719,-553.6203 388.2306,-545.6245 389.8297,-545.6762"/>
<polyline fill="none" stroke="#000000" points="390.5,-549.7 386.5021,-549.5707 "/>
<ellipse fill="none" stroke="#000000" cx="383.3038" cy="-549.4672" rx="3.2" ry="3.2"/>
</g>
<!-- user_status -->
<g id="node9" class="node">
<title>user_status</title>
<g id="a_node9"><a xlink:href="../../tables/user_status.html" xlink:title="user_status" target="_top">
<polygon fill="#ffffff" stroke="transparent" points="8,-336.2 8,-397.2 107,-397.2 107,-336.2 8,-336.2"/>
<polygon fill="#f5f5f5" stroke="transparent" points="8.5,-373.7 8.5,-396.7 107.5,-396.7 107.5,-373.7 8.5,-373.7"/>
<polygon fill="none" stroke="#000000" points="8.5,-373.7 8.5,-396.7 107.5,-396.7 107.5,-373.7 8.5,-373.7"/>
<text text-anchor="start" x="13.0749" y="-382.8" font-family="Helvetica,sans-Serif" font-weight="bold" font-size="11.00" fill="#000000">user_status</text>
<text text-anchor="start" x="73.0219" y="-381.8" font-family="Helvetica,sans-Serif" font-size="11.00" fill="#000000">[table]</text>
<polygon fill="none" stroke="#000000" points="8.5,-354.7 8.5,-373.7 107.5,-373.7 107.5,-354.7 8.5,-354.7"/>
<text text-anchor="start" x="11.5" y="-360.8" font-family="Helvetica,sans-Serif" font-size="11.00" fill="#000000">...</text>
<polygon fill="#ffffff" stroke="transparent" points="8.5,-335.7 8.5,-354.7 34.5,-354.7 34.5,-335.7 8.5,-335.7"/>
<polygon fill="none" stroke="#000000" points="8.5,-335.7 8.5,-354.7 34.5,-354.7 34.5,-335.7 8.5,-335.7"/>
<text text-anchor="start" x="11.5" y="-341.8" font-family="Helvetica,sans-Serif" font-size="11.00" fill="#000000"> &#160;</text>
<polygon fill="#ffffff" stroke="transparent" points="34.5,-335.7 34.5,-354.7 79.5,-354.7 79.5,-335.7 34.5,-335.7"/>
<polygon fill="none" stroke="#000000" points="34.5,-335.7 34.5,-354.7 79.5,-354.7 79.5,-335.7 34.5,-335.7"/>
<text text-anchor="start" x="44.1105" y="-341.8" font-family="Helvetica,sans-Serif" font-size="11.00" fill="#000000">3 rows</text>
<polygon fill="#ffffff" stroke="transparent" points="79.5,-335.7 79.5,-354.7 107.5,-354.7 107.5,-335.7 79.5,-335.7"/>
<polygon fill="none" stroke="#000000" points="79.5,-335.7 79.5,-354.7 107.5,-354.7 107.5,-335.7 79.5,-335.7"/>
<text text-anchor="start" x="88.9053" y="-341.8" font-family="Helvetica,sans-Serif" font-size="11.00" fill="#000000">1 &gt;</text>
</a>
</g>
</g>
<!-- user&#45;&gt;user_status -->
<g id="edge9" class="edge">
<title>user:w&#45;&gt;user_status:e</title>
<path fill="none" stroke="#000000" d="M141.9909,-363.7C130.6774,-363.7 123.4931,-363.7 107.5,-363.7"/>
<polygon fill="#000000" stroke="#000000" points="148.5,-363.7001 156.5,-367.3 152.5,-363.7 156.5,-363.7 156.5,-363.7 156.5,-363.7 152.5,-363.7 156.5,-360.1 148.5,-363.7001 148.5,-363.7001"/>
<ellipse fill="none" stroke="#000000" cx="145.3" cy="-363.7001" rx="3.2" ry="3.2"/>
</g>
<!-- alert_for_taking_paid_leave -->
<g id="node3" class="node">
<title>alert_for_taking_paid_leave</title>
<g id="a_node3"><a xlink:href="../../tables/alert_for_taking_paid_leave.html" xlink:title="alert_for_taking_paid_leave" target="_top">
<polygon fill="#ffffff" stroke="transparent" points="341.5,-440.2 341.5,-501.2 519.5,-501.2 519.5,-440.2 341.5,-440.2"/>
<polygon fill="#f5f5f5" stroke="transparent" points="341.5,-477.7 341.5,-500.7 519.5,-500.7 519.5,-477.7 341.5,-477.7"/>
<polygon fill="none" stroke="#000000" points="341.5,-477.7 341.5,-500.7 519.5,-500.7 519.5,-477.7 341.5,-477.7"/>
<text text-anchor="start" x="346.4518" y="-486.8" font-family="Helvetica,sans-Serif" font-weight="bold" font-size="11.00" fill="#000000">alert_for_taking_paid_leave</text>
<text text-anchor="start" x="485.0219" y="-485.8" font-family="Helvetica,sans-Serif" font-size="11.00" fill="#000000">[table]</text>
<polygon fill="none" stroke="#000000" points="341.5,-458.7 341.5,-477.7 519.5,-477.7 519.5,-458.7 341.5,-458.7"/>
<text text-anchor="start" x="344.5" y="-464.8" font-family="Helvetica,sans-Serif" font-size="11.00" fill="#000000">...</text>
<polygon fill="#ffffff" stroke="transparent" points="341.5,-439.7 341.5,-458.7 418.5,-458.7 418.5,-439.7 341.5,-439.7"/>
<polygon fill="none" stroke="#000000" points="341.5,-439.7 341.5,-458.7 418.5,-458.7 418.5,-439.7 341.5,-439.7"/>
<text text-anchor="start" x="344.5" y="-445.8" font-family="Helvetica,sans-Serif" font-size="11.00" fill="#000000">&lt; 1</text>
<polygon fill="#ffffff" stroke="transparent" points="418.5,-439.7 418.5,-458.7 478.5,-458.7 478.5,-439.7 418.5,-439.7"/>
<polygon fill="none" stroke="#000000" points="418.5,-439.7 418.5,-458.7 478.5,-458.7 478.5,-439.7 418.5,-439.7"/>
<text text-anchor="start" x="448.6105" y="-445.8" font-family="Helvetica,sans-Serif" font-size="11.00" fill="#000000">1 row</text>
<polygon fill="#ffffff" stroke="transparent" points="478.5,-439.7 478.5,-458.7 519.5,-458.7 519.5,-439.7 478.5,-439.7"/>
<polygon fill="none" stroke="#000000" points="478.5,-439.7 478.5,-458.7 519.5,-458.7 519.5,-439.7 478.5,-439.7"/>
<text text-anchor="start" x="510.3862" y="-445.8" font-family="Helvetica,sans-Serif" font-size="11.00" fill="#000000"> &#160;</text>
</a>
</g>
</g>
<!-- alert_for_taking_paid_leave&#45;&gt;user -->
<g id="edge2" class="edge">
<title>alert_for_taking_paid_leave:w&#45;&gt;user:e</title>
<path fill="none" stroke="#000000" d="M331.1412,-465.9873C299.6094,-454.2118 319.7578,-385.7 277.5,-385.7"/>
<polygon fill="#000000" stroke="#000000" points="341.3632,-463.6231 340.0582,-471.5159 338.4796,-471.2549 339.7847,-463.3621 341.3632,-463.6231"/>
<polyline fill="none" stroke="#000000" points="341.5,-467.7 337.5536,-467.0475 "/>
<ellipse fill="none" stroke="#000000" cx="334.3964" cy="-466.5255" rx="3.2" ry="3.2"/>
</g>
<!-- leave_period -->
<g id="node4" class="node">
<title>leave_period</title>
<g id="a_node4"><a xlink:href="../../tables/leave_period.html" xlink:title="leave_period" target="_top">
<polygon fill="#ffffff" stroke="transparent" points="378,-358.2 378,-419.2 483,-419.2 483,-358.2 378,-358.2"/>
<polygon fill="#f5f5f5" stroke="transparent" points="378.5,-395.7 378.5,-418.7 483.5,-418.7 483.5,-395.7 378.5,-395.7"/>
<polygon fill="none" stroke="#000000" points="378.5,-395.7 378.5,-418.7 483.5,-418.7 483.5,-395.7 378.5,-395.7"/>
<text text-anchor="start" x="383.0186" y="-404.8" font-family="Helvetica,sans-Serif" font-weight="bold" font-size="11.00" fill="#000000">leave_period</text>
<text text-anchor="start" x="449.0219" y="-403.8" font-family="Helvetica,sans-Serif" font-size="11.00" fill="#000000">[table]</text>
<polygon fill="none" stroke="#000000" points="378.5,-376.7 378.5,-395.7 483.5,-395.7 483.5,-376.7 378.5,-376.7"/>
<text text-anchor="start" x="381.5" y="-382.8" font-family="Helvetica,sans-Serif" font-size="11.00" fill="#000000">...</text>
<polygon fill="#ffffff" stroke="transparent" points="378.5,-357.7 378.5,-376.7 416.5,-376.7 416.5,-357.7 378.5,-357.7"/>
<polygon fill="none" stroke="#000000" points="378.5,-357.7 378.5,-376.7 416.5,-376.7 416.5,-357.7 378.5,-357.7"/>
<text text-anchor="start" x="381.5" y="-363.8" font-family="Helvetica,sans-Serif" font-size="11.00" fill="#000000">&lt; 1</text>
<polygon fill="#ffffff" stroke="transparent" points="416.5,-357.7 416.5,-376.7 462.5,-376.7 462.5,-357.7 416.5,-357.7"/>
<polygon fill="none" stroke="#000000" points="416.5,-357.7 416.5,-376.7 462.5,-376.7 462.5,-357.7 416.5,-357.7"/>
<text text-anchor="start" x="427.1105" y="-363.8" font-family="Helvetica,sans-Serif" font-size="11.00" fill="#000000">0 rows</text>
<polygon fill="#ffffff" stroke="transparent" points="462.5,-357.7 462.5,-376.7 483.5,-376.7 483.5,-357.7 462.5,-357.7"/>
<polygon fill="none" stroke="#000000" points="462.5,-357.7 462.5,-376.7 483.5,-376.7 483.5,-357.7 462.5,-357.7"/>
<text text-anchor="start" x="474.3862" y="-363.8" font-family="Helvetica,sans-Serif" font-size="11.00" fill="#000000"> &#160;</text>
</a>
</g>
</g>
<!-- leave_period&#45;&gt;user -->
<g id="edge3" class="edge">
<title>leave_period:w&#45;&gt;user:e</title>
<path fill="none" stroke="#000000" d="M363.9974,-385.7C330.5186,-385.7 317.1285,-385.7 277.5,-385.7"/>
<polygon fill="#000000" stroke="#000000" points="370.5,-385.7001 378.5,-389.3 374.5,-385.7 378.5,-385.7 378.5,-385.7 378.5,-385.7 374.5,-385.7 378.5,-382.1 370.5,-385.7001 370.5,-385.7001"/>
<ellipse fill="none" stroke="#000000" cx="367.3" cy="-385.7001" rx="3.2" ry="3.2"/>
</g>
<!-- manager -->
<g id="node5" class="node">
<title>manager</title>
<g id="a_node5"><a xlink:href="../../tables/manager.html" xlink:title="manager" target="_top">
<polygon fill="#ffffff" stroke="transparent" points="387.5,-38.2 387.5,-99.2 473.5,-99.2 473.5,-38.2 387.5,-38.2"/>
<polygon fill="#f5f5f5" stroke="transparent" points="387.5,-75.7 387.5,-98.7 473.5,-98.7 473.5,-75.7 387.5,-75.7"/>
<polygon fill="none" stroke="#000000" points="387.5,-75.7 387.5,-98.7 473.5,-98.7 473.5,-75.7 387.5,-75.7"/>
<text text-anchor="start" x="392.3009" y="-84.8" font-family="Helvetica,sans-Serif" font-weight="bold" font-size="11.00" fill="#000000">manager</text>
<text text-anchor="start" x="439.0219" y="-83.8" font-family="Helvetica,sans-Serif" font-size="11.00" fill="#000000">[table]</text>
<polygon fill="none" stroke="#000000" points="387.5,-56.7 387.5,-75.7 473.5,-75.7 473.5,-56.7 387.5,-56.7"/>
<text text-anchor="start" x="390.5" y="-62.8" font-family="Helvetica,sans-Serif" font-size="11.00" fill="#000000">...</text>
<polygon fill="#ffffff" stroke="transparent" points="387.5,-37.7 387.5,-56.7 415.5,-56.7 415.5,-37.7 387.5,-37.7"/>
<polygon fill="none" stroke="#000000" points="387.5,-37.7 387.5,-56.7 415.5,-56.7 415.5,-37.7 387.5,-37.7"/>
<text text-anchor="start" x="390.5" y="-43.8" font-family="Helvetica,sans-Serif" font-size="11.00" fill="#000000">&lt; 2</text>
<polygon fill="#ffffff" stroke="transparent" points="415.5,-37.7 415.5,-56.7 457.5,-56.7 457.5,-37.7 415.5,-37.7"/>
<polygon fill="none" stroke="#000000" points="415.5,-37.7 415.5,-56.7 457.5,-56.7 457.5,-37.7 415.5,-37.7"/>
<text text-anchor="start" x="422.1105" y="-43.8" font-family="Helvetica,sans-Serif" font-size="11.00" fill="#000000">0 rows</text>
<polygon fill="#ffffff" stroke="transparent" points="457.5,-37.7 457.5,-56.7 473.5,-56.7 473.5,-37.7 457.5,-37.7"/>
<polygon fill="none" stroke="#000000" points="457.5,-37.7 457.5,-56.7 473.5,-56.7 473.5,-37.7 457.5,-37.7"/>
<text text-anchor="start" x="464.3862" y="-43.8" font-family="Helvetica,sans-Serif" font-size="11.00" fill="#000000"> &#160;</text>
</a>
</g>
</g>
<!-- manager&#45;&gt;user -->
<g id="edge5" class="edge">
<title>manager:w&#45;&gt;user:e</title>
<path fill="none" stroke="#000000" d="M373.0312,-66.5481C347.0317,-69.9182 335.0359,-83.4722 318,-109.7 284.2331,-161.6863 339.4901,-385.7 277.5,-385.7"/>
<polygon fill="#000000" stroke="#000000" points="379.5137,-66.1682 387.7107,-69.2938 383.5069,-65.9341 387.5,-65.7 387.5,-65.7 387.5,-65.7 383.5069,-65.9341 387.2893,-62.1062 379.5137,-66.1682 379.5137,-66.1682"/>
<ellipse fill="none" stroke="#000000" cx="376.3192" cy="-66.3554" rx="3.2" ry="3.2"/>
</g>
<!-- group -->
<g id="node6" class="node">
<title>group</title>
<g id="a_node6"><a xlink:href="../../tables/group.html" xlink:title="group" target="_top">
<polygon fill="#ffffff" stroke="transparent" points="156,-93.2 156,-176.2 277,-176.2 277,-93.2 156,-93.2"/>
<polygon fill="#f5f5f5" stroke="transparent" points="156.5,-152.7 156.5,-175.7 277.5,-175.7 277.5,-152.7 156.5,-152.7"/>
<polygon fill="none" stroke="#000000" points="156.5,-152.7 156.5,-175.7 277.5,-175.7 277.5,-152.7 156.5,-152.7"/>
<text text-anchor="start" x="161.5" y="-161.8" font-family="Helvetica,sans-Serif" font-weight="bold" font-size="11.00" fill="#000000">group</text>
<text text-anchor="start" x="242.5437" y="-160.8" font-family="Helvetica,sans-Serif" font-size="11.00" fill="#000000">[table]</text>
<polygon fill="none" stroke="#000000" points="156.5,-130.7 156.5,-152.7 277.5,-152.7 277.5,-130.7 156.5,-130.7"/>
<image xlink:href="../../images/primaryKeys.png" width="11px" height="12px" preserveAspectRatio="xMinYMin meet" x="161.5" y="-147.7"/>
<text text-anchor="start" x="176.5" y="-137.8" font-family="Helvetica,sans-Serif" font-size="11.00" fill="#000000">id</text>
<polygon fill="none" stroke="#000000" points="156.5,-111.7 156.5,-130.7 277.5,-130.7 277.5,-111.7 156.5,-111.7"/>
<text text-anchor="start" x="159.5" y="-117.8" font-family="Helvetica,sans-Serif" font-size="11.00" fill="#000000">...</text>
<polygon fill="#ffffff" stroke="transparent" points="156.5,-92.7 156.5,-111.7 196.5,-111.7 196.5,-92.7 156.5,-92.7"/>
<polygon fill="none" stroke="#000000" points="156.5,-92.7 156.5,-111.7 196.5,-111.7 196.5,-92.7 156.5,-92.7"/>
<text text-anchor="start" x="159.5" y="-98.8" font-family="Helvetica,sans-Serif" font-size="11.00" fill="#000000"> &#160;</text>
<polygon fill="#ffffff" stroke="transparent" points="196.5,-92.7 196.5,-111.7 242.5,-111.7 242.5,-92.7 196.5,-92.7"/>
<polygon fill="none" stroke="#000000" points="196.5,-92.7 196.5,-111.7 242.5,-111.7 242.5,-92.7 196.5,-92.7"/>
<text text-anchor="start" x="212.6105" y="-98.8" font-family="Helvetica,sans-Serif" font-size="11.00" fill="#000000">1 row</text>
<polygon fill="#ffffff" stroke="transparent" points="242.5,-92.7 242.5,-111.7 277.5,-111.7 277.5,-92.7 242.5,-92.7"/>
<polygon fill="none" stroke="#000000" points="242.5,-92.7 242.5,-111.7 277.5,-111.7 277.5,-92.7 242.5,-92.7"/>
<text text-anchor="start" x="258.9053" y="-98.8" font-family="Helvetica,sans-Serif" font-size="11.00" fill="#000000">2 &gt;</text>
</a>
</g>
</g>
<!-- manager&#45;&gt;group -->
<g id="edge4" class="edge">
<title>manager:w&#45;&gt;group:e</title>
<path fill="none" stroke="#000000" d="M372.9074,-67.2048C349.3726,-72.6255 343.2836,-91.7814 318,-109.7 299.2832,-122.9647 300.4406,-141.7 277.5,-141.7"/>
<polygon fill="#000000" stroke="#000000" points="379.5422,-66.5207 387.8693,-69.281 383.5211,-66.1103 387.5,-65.7 387.5,-65.7 387.5,-65.7 383.5211,-66.1103 387.1307,-62.119 379.5422,-66.5207 379.5422,-66.5207"/>
<ellipse fill="none" stroke="#000000" cx="376.3591" cy="-66.8489" rx="3.2" ry="3.2"/>
</g>
<!-- member -->
<g id="node7" class="node">
<title>member</title>
<g id="a_node7"><a xlink:href="../../tables/member.html" xlink:title="member" target="_top">
<polygon fill="#ffffff" stroke="transparent" points="326,-120.7 326,-254.7 535,-254.7 535,-120.7 326,-120.7"/>
<polygon fill="#f5f5f5" stroke="transparent" points="328.5,-229.7 328.5,-252.7 533.5,-252.7 533.5,-229.7 328.5,-229.7"/>
<polygon fill="none" stroke="#000000" points="328.5,-229.7 328.5,-252.7 533.5,-252.7 533.5,-229.7 328.5,-229.7"/>
<text text-anchor="start" x="333.5" y="-238.8" font-family="Helvetica,sans-Serif" font-weight="bold" font-size="11.00" fill="#000000">member</text>
<text text-anchor="start" x="498.5437" y="-237.8" font-family="Helvetica,sans-Serif" font-size="11.00" fill="#000000">[table]</text>
<polygon fill="none" stroke="#000000" points="328.5,-207.7 328.5,-229.7 449.5,-229.7 449.5,-207.7 328.5,-207.7"/>
<image xlink:href="../../images/primaryKeys.png" width="11px" height="12px" preserveAspectRatio="xMinYMin meet" x="333.5" y="-224.7"/>
<text text-anchor="start" x="348.5" y="-214.8" font-family="Helvetica,sans-Serif" font-size="11.00" fill="#000000">group_id</text>
<polygon fill="none" stroke="#000000" points="449.5,-207.7 449.5,-229.7 533.5,-229.7 533.5,-207.7 449.5,-207.7"/>
<text text-anchor="start" x="452.5" y="-215.4" font-family="Helvetica,sans-Serif" font-size="11.00" fill="#000000">int4[10]</text>
<polygon fill="none" stroke="#000000" points="328.5,-185.7 328.5,-207.7 449.5,-207.7 449.5,-185.7 328.5,-185.7"/>
<image xlink:href="../../images/primaryKeys.png" width="11px" height="12px" preserveAspectRatio="xMinYMin meet" x="333.5" y="-202.7"/>
<text text-anchor="start" x="348.5" y="-192.8" font-family="Helvetica,sans-Serif" font-size="11.00" fill="#000000">user_id</text>
<polygon fill="none" stroke="#000000" points="449.5,-185.7 449.5,-207.7 533.5,-207.7 533.5,-185.7 449.5,-185.7"/>
<text text-anchor="start" x="452.5" y="-193.4" font-family="Helvetica,sans-Serif" font-size="11.00" fill="#000000">int4[10]</text>
<polygon fill="none" stroke="#000000" points="328.5,-163.7 328.5,-185.7 449.5,-185.7 449.5,-163.7 328.5,-163.7"/>
<text text-anchor="start" x="348.5" y="-170.8" font-family="Helvetica,sans-Serif" font-size="11.00" fill="#000000">register_datetime</text>
<polygon fill="none" stroke="#000000" points="449.5,-163.7 449.5,-185.7 533.5,-185.7 533.5,-163.7 449.5,-163.7"/>
<text text-anchor="start" x="452.3807" y="-171.4" font-family="Helvetica,sans-Serif" font-size="11.00" fill="#000000">timestamp[29,6]</text>
<polygon fill="none" stroke="#000000" points="328.5,-141.7 328.5,-163.7 449.5,-163.7 449.5,-141.7 328.5,-141.7"/>
<text text-anchor="start" x="348.5" y="-148.8" font-family="Helvetica,sans-Serif" font-size="11.00" fill="#000000">update_datetime</text>
<polygon fill="none" stroke="#000000" points="449.5,-141.7 449.5,-163.7 533.5,-163.7 533.5,-141.7 449.5,-141.7"/>
<text text-anchor="start" x="452.3807" y="-149.4" font-family="Helvetica,sans-Serif" font-size="11.00" fill="#000000">timestamp[29,6]</text>
<polygon fill="#ffffff" stroke="transparent" points="328.5,-122.7 328.5,-141.7 380.5,-141.7 380.5,-122.7 328.5,-122.7"/>
<polygon fill="none" stroke="#000000" points="328.5,-122.7 328.5,-141.7 380.5,-141.7 380.5,-122.7 328.5,-122.7"/>
<text text-anchor="start" x="331.5" y="-128.8" font-family="Helvetica,sans-Serif" font-size="11.00" fill="#000000">&lt; 2</text>
<polygon fill="#ffffff" stroke="transparent" points="380.5,-122.7 380.5,-141.7 449.5,-141.7 449.5,-122.7 380.5,-122.7"/>
<polygon fill="none" stroke="#000000" points="380.5,-122.7 380.5,-141.7 449.5,-141.7 449.5,-122.7 380.5,-122.7"/>
<text text-anchor="start" x="414.1105" y="-128.8" font-family="Helvetica,sans-Serif" font-size="11.00" fill="#000000">0 rows</text>
<polygon fill="#ffffff" stroke="transparent" points="449.5,-122.7 449.5,-141.7 533.5,-141.7 533.5,-122.7 449.5,-122.7"/>
<polygon fill="none" stroke="#000000" points="449.5,-122.7 449.5,-141.7 533.5,-141.7 533.5,-122.7 449.5,-122.7"/>
<text text-anchor="start" x="514.9053" y="-128.8" font-family="Helvetica,sans-Serif" font-size="11.00" fill="#000000">0 &gt;</text>
<polygon fill="none" stroke="#000000" stroke-width="2" points="327,-121.7 327,-253.7 534,-253.7 534,-121.7 327,-121.7"/>
</a>
</g>
</g>
<!-- member&#45;&gt;user -->
<g id="edge7" class="edge">
<title>member:w&#45;&gt;user:e</title>
<path fill="none" stroke="#000000" d="M314.1817,-198.9542C256.4797,-220.2781 358.8968,-385.7 277.5,-385.7"/>
<polygon fill="#000000" stroke="#000000" points="320.5973,-197.9442 329.0599,-200.2562 324.5487,-197.3221 328.5,-196.7 328.5,-196.7 328.5,-196.7 324.5487,-197.3221 327.9401,-193.1438 320.5973,-197.9442 320.5973,-197.9442"/>
<ellipse fill="none" stroke="#000000" cx="317.4363" cy="-198.4419" rx="3.2" ry="3.2"/>
</g>
<!-- member&#45;&gt;group -->
<g id="edge6" class="edge">
<title>member:w&#45;&gt;group:e</title>
<path fill="none" stroke="#000000" d="M314.5177,-214.1139C295.094,-197.5372 312.4549,-141.7 277.5,-141.7"/>
<polygon fill="#000000" stroke="#000000" points="320.8984,-216.2067 327.378,-222.1207 324.6992,-217.4534 328.5,-218.7 328.5,-218.7 328.5,-218.7 324.6992,-217.4534 329.622,-215.2793 320.8984,-216.2067 320.8984,-216.2067"/>
<ellipse fill="none" stroke="#000000" cx="317.8578" cy="-215.2094" rx="3.2" ry="3.2"/>
</g>
<!-- paid_leave_grant_history -->
<g id="node8" class="node">
<title>paid_leave_grant_history</title>
<g id="a_node8"><a xlink:href="../../tables/paid_leave_grant_history.html" xlink:title="paid_leave_grant_history" target="_top">
<polygon fill="#ffffff" stroke="transparent" points="348,-276.2 348,-337.2 513,-337.2 513,-276.2 348,-276.2"/>
<polygon fill="#f5f5f5" stroke="transparent" points="348.5,-313.7 348.5,-336.7 513.5,-336.7 513.5,-313.7 348.5,-313.7"/>
<polygon fill="none" stroke="#000000" points="348.5,-313.7 348.5,-336.7 513.5,-336.7 513.5,-313.7 348.5,-313.7"/>
<text text-anchor="start" x="353.0656" y="-322.8" font-family="Helvetica,sans-Serif" font-weight="bold" font-size="11.00" fill="#000000">paid_leave_grant_history</text>
<text text-anchor="start" x="479.0219" y="-321.8" font-family="Helvetica,sans-Serif" font-size="11.00" fill="#000000">[table]</text>
<polygon fill="none" stroke="#000000" points="348.5,-294.7 348.5,-313.7 513.5,-313.7 513.5,-294.7 348.5,-294.7"/>
<text text-anchor="start" x="351.5" y="-300.8" font-family="Helvetica,sans-Serif" font-size="11.00" fill="#000000">...</text>
<polygon fill="#ffffff" stroke="transparent" points="348.5,-275.7 348.5,-294.7 416.5,-294.7 416.5,-275.7 348.5,-275.7"/>
<polygon fill="none" stroke="#000000" points="348.5,-275.7 348.5,-294.7 416.5,-294.7 416.5,-275.7 348.5,-275.7"/>
<text text-anchor="start" x="351.5" y="-281.8" font-family="Helvetica,sans-Serif" font-size="11.00" fill="#000000">&lt; 2</text>
<polygon fill="#ffffff" stroke="transparent" points="416.5,-275.7 416.5,-294.7 477.5,-294.7 477.5,-275.7 416.5,-275.7"/>
<polygon fill="none" stroke="#000000" points="416.5,-275.7 416.5,-294.7 477.5,-294.7 477.5,-275.7 416.5,-275.7"/>
<text text-anchor="start" x="442.1105" y="-281.8" font-family="Helvetica,sans-Serif" font-size="11.00" fill="#000000">0 rows</text>
<polygon fill="#ffffff" stroke="transparent" points="477.5,-275.7 477.5,-294.7 513.5,-294.7 513.5,-275.7 477.5,-275.7"/>
<polygon fill="none" stroke="#000000" points="477.5,-275.7 477.5,-294.7 513.5,-294.7 513.5,-275.7 477.5,-275.7"/>
<text text-anchor="start" x="504.3862" y="-281.8" font-family="Helvetica,sans-Serif" font-size="11.00" fill="#000000"> &#160;</text>
</a>
</g>
</g>
<!-- paid_leave_grant_history&#45;&gt;user -->
<g id="edge8" class="edge">
<title>paid_leave_grant_history:w&#45;&gt;user:e</title>
<path fill="none" stroke="#000000" d="M334.3483,-306.8144C305.2382,-321.7927 320.0581,-385.7 277.5,-385.7"/>
<polygon fill="#000000" stroke="#000000" points="340.687,-305.4195 349.2738,-307.2159 344.5935,-304.5597 348.5,-303.7 348.5,-303.7 348.5,-303.7 344.5935,-304.5597 347.7262,-300.1841 340.687,-305.4195 340.687,-305.4195"/>
<ellipse fill="none" stroke="#000000" cx="337.5617" cy="-306.1072" rx="3.2" ry="3.2"/>
</g>
<!-- user_rule -->
<g id="node10" class="node">
<title>user_rule</title>
<g id="a_node10"><a xlink:href="../../tables/user_rule.html" xlink:title="user_rule" target="_top">
<polygon fill="#ffffff" stroke="transparent" points="386.5,-604.2 386.5,-665.2 474.5,-665.2 474.5,-604.2 386.5,-604.2"/>
<polygon fill="#f5f5f5" stroke="transparent" points="386.5,-641.7 386.5,-664.7 474.5,-664.7 474.5,-641.7 386.5,-641.7"/>
<polygon fill="none" stroke="#000000" points="386.5,-641.7 386.5,-664.7 474.5,-664.7 474.5,-641.7 386.5,-641.7"/>
<text text-anchor="start" x="391.0804" y="-650.8" font-family="Helvetica,sans-Serif" font-weight="bold" font-size="11.00" fill="#000000">user_rule</text>
<text text-anchor="start" x="440.0219" y="-649.8" font-family="Helvetica,sans-Serif" font-size="11.00" fill="#000000">[table]</text>
<polygon fill="none" stroke="#000000" points="386.5,-622.7 386.5,-641.7 474.5,-641.7 474.5,-622.7 386.5,-622.7"/>
<text text-anchor="start" x="389.5" y="-628.8" font-family="Helvetica,sans-Serif" font-size="11.00" fill="#000000">...</text>
<polygon fill="#ffffff" stroke="transparent" points="386.5,-603.7 386.5,-622.7 415.5,-622.7 415.5,-603.7 386.5,-603.7"/>
<polygon fill="none" stroke="#000000" points="386.5,-603.7 386.5,-622.7 415.5,-622.7 415.5,-603.7 386.5,-603.7"/>
<text text-anchor="start" x="389.5" y="-609.8" font-family="Helvetica,sans-Serif" font-size="11.00" fill="#000000">&lt; 2</text>
<polygon fill="#ffffff" stroke="transparent" points="415.5,-603.7 415.5,-622.7 457.5,-622.7 457.5,-603.7 415.5,-603.7"/>
<polygon fill="none" stroke="#000000" points="415.5,-603.7 415.5,-622.7 457.5,-622.7 457.5,-603.7 415.5,-603.7"/>
<text text-anchor="start" x="422.1105" y="-609.8" font-family="Helvetica,sans-Serif" font-size="11.00" fill="#000000">2 rows</text>
<polygon fill="#ffffff" stroke="transparent" points="457.5,-603.7 457.5,-622.7 474.5,-622.7 474.5,-603.7 457.5,-603.7"/>
<polygon fill="none" stroke="#000000" points="457.5,-603.7 457.5,-622.7 474.5,-622.7 474.5,-603.7 457.5,-603.7"/>
<text text-anchor="start" x="465.3862" y="-609.8" font-family="Helvetica,sans-Serif" font-size="11.00" fill="#000000"> &#160;</text>
</a>
</g>
</g>
<!-- user_rule&#45;&gt;user -->
<g id="edge10" class="edge">
<title>user_rule:w&#45;&gt;user:e</title>
<path fill="none" stroke="#000000" d="M375.8135,-631.336C348.706,-629.3296 336.2255,-618.7856 318,-593.7 262.6426,-517.506 371.6805,-385.7 277.5,-385.7"/>
<polygon fill="#000000" stroke="#000000" points="385.8367,-627.6751 385.5642,-635.6704 383.9652,-635.6159 384.2376,-627.6206 385.8367,-627.6751"/>
<polyline fill="none" stroke="#000000" points="386.5,-631.7 382.5023,-631.5638 "/>
<ellipse fill="none" stroke="#000000" cx="379.3042" cy="-631.4548" rx="3.2" ry="3.2"/>
</g>
</g>
</svg>
