<?xml version="1.0" encoding="UTF-8" standalone="no"?>
<!DOCTYPE svg PUBLIC "-//W3C//DTD SVG 1.1//EN"
 "http://www.w3.org/Graphics/SVG/1.1/DTD/svg11.dtd">
<!-- Generated by graphviz version 2.40.1 (20161225.0304)
 -->
<!-- Title: twoDegreesRelationshipsDiagram Pages: 1 -->
<svg width="744pt" height="659pt"
 viewBox="0.00 0.00 744.00 659.20" xmlns="http://www.w3.org/2000/svg" xmlns:xlink="http://www.w3.org/1999/xlink">
<g id="graph0" class="graph" transform="scale(1 1) rotate(0) translate(4 655.2)">
<title>twoDegreesRelationshipsDiagram</title>
<polygon fill="#ffffff" stroke="transparent" points="-4,4 -4,-655.2 740,-655.2 740,4 -4,4"/>
<text text-anchor="middle" x="72.4936" y="-7.3" font-family="Helvetica,sans-Serif" font-size="11.00" fill="#000000">Generated by SchemaSpy</text>
<!-- account -->
<g id="node1" class="node">
<title>account</title>
<g id="a_node1"><a xlink:href="../../tables/account.html" xlink:title="account" target="_top">
<polygon fill="#ffffff" stroke="transparent" points="561,-504.2 561,-565.2 642,-565.2 642,-504.2 561,-504.2"/>
<polygon fill="#f5f5f5" stroke="transparent" points="561.5,-541.7 561.5,-564.7 642.5,-564.7 642.5,-541.7 561.5,-541.7"/>
<polygon fill="none" stroke="#000000" points="561.5,-541.7 561.5,-564.7 642.5,-564.7 642.5,-541.7 561.5,-541.7"/>
<text text-anchor="start" x="566.2418" y="-550.8" font-family="Helvetica,sans-Serif" font-weight="bold" font-size="11.00" fill="#000000">account</text>
<text text-anchor="start" x="608.0219" y="-549.8" font-family="Helvetica,sans-Serif" font-size="11.00" fill="#000000">[table]</text>
<polygon fill="none" stroke="#000000" points="561.5,-522.7 561.5,-541.7 642.5,-541.7 642.5,-522.7 561.5,-522.7"/>
<text text-anchor="start" x="564.5" y="-528.8" font-family="Helvetica,sans-Serif" font-size="11.00" fill="#000000">...</text>
<polygon fill="#ffffff" stroke="transparent" points="561.5,-503.7 561.5,-522.7 587.5,-522.7 587.5,-503.7 561.5,-503.7"/>
<polygon fill="none" stroke="#000000" points="561.5,-503.7 561.5,-522.7 587.5,-522.7 587.5,-503.7 561.5,-503.7"/>
<text text-anchor="start" x="564.5" y="-509.8" font-family="Helvetica,sans-Serif" font-size="11.00" fill="#000000">&lt; 1</text>
<polygon fill="#ffffff" stroke="transparent" points="587.5,-503.7 587.5,-522.7 627.5,-522.7 627.5,-503.7 587.5,-503.7"/>
<polygon fill="none" stroke="#000000" points="587.5,-503.7 587.5,-522.7 627.5,-522.7 627.5,-503.7 587.5,-503.7"/>
<text text-anchor="start" x="592.1105" y="-509.8" font-family="Helvetica,sans-Serif" font-size="11.00" fill="#000000">3 rows</text>
<polygon fill="#ffffff" stroke="transparent" points="627.5,-503.7 627.5,-522.7 642.5,-522.7 642.5,-503.7 627.5,-503.7"/>
<polygon fill="none" stroke="#000000" points="627.5,-503.7 627.5,-522.7 642.5,-522.7 642.5,-503.7 627.5,-503.7"/>
<text text-anchor="start" x="633.3862" y="-509.8" font-family="Helvetica,sans-Serif" font-size="11.00" fill="#000000"> &#160;</text>
</a>
</g>
</g>
<!-- user -->
<g id="node2" class="node">
<title>user</title>
<g id="a_node2"><a xlink:href="../../tables/user.html" xlink:title="user" target="_top">
<polygon fill="#ffffff" stroke="transparent" points="264,-297.2 264,-402.2 385,-402.2 385,-297.2 264,-297.2"/>
<polygon fill="#f5f5f5" stroke="transparent" points="264.5,-378.7 264.5,-401.7 385.5,-401.7 385.5,-378.7 264.5,-378.7"/>
<polygon fill="none" stroke="#000000" points="264.5,-378.7 264.5,-401.7 385.5,-401.7 385.5,-378.7 264.5,-378.7"/>
<text text-anchor="start" x="269.5" y="-387.8" font-family="Helvetica,sans-Serif" font-weight="bold" font-size="11.00" fill="#000000">user</text>
<text text-anchor="start" x="350.5437" y="-386.8" font-family="Helvetica,sans-Serif" font-size="11.00" fill="#000000">[table]</text>
<polygon fill="none" stroke="#000000" points="264.5,-356.7 264.5,-378.7 385.5,-378.7 385.5,-356.7 264.5,-356.7"/>
<image xlink:href="../../images/primaryKeys.png" width="11px" height="12px" preserveAspectRatio="xMinYMin meet" x="269.5" y="-373.7"/>
<text text-anchor="start" x="284.5" y="-363.8" font-family="Helvetica,sans-Serif" font-size="11.00" fill="#000000">id</text>
<polygon fill="none" stroke="#000000" points="264.5,-334.7 264.5,-356.7 385.5,-356.7 385.5,-334.7 264.5,-334.7"/>
<image xlink:href="../../images/foreignKeys.png" width="11px" height="12px" preserveAspectRatio="xMinYMin meet" x="269.5" y="-351.7"/>
<text text-anchor="start" x="284.5" y="-341.8" font-family="Helvetica,sans-Serif" font-size="11.00" fill="#000000">status</text>
<polygon fill="none" stroke="#000000" points="264.5,-315.7 264.5,-334.7 385.5,-334.7 385.5,-315.7 264.5,-315.7"/>
<text text-anchor="start" x="267.5" y="-321.8" font-family="Helvetica,sans-Serif" font-size="11.00" fill="#000000">...</text>
<polygon fill="#ffffff" stroke="transparent" points="264.5,-296.7 264.5,-315.7 305.5,-315.7 305.5,-296.7 264.5,-296.7"/>
<polygon fill="none" stroke="#000000" points="264.5,-296.7 264.5,-315.7 305.5,-315.7 305.5,-296.7 264.5,-296.7"/>
<text text-anchor="start" x="267.5" y="-302.8" font-family="Helvetica,sans-Serif" font-size="11.00" fill="#000000">&lt; 1</text>
<polygon fill="#ffffff" stroke="transparent" points="305.5,-296.7 305.5,-315.7 353.5,-315.7 353.5,-296.7 305.5,-296.7"/>
<polygon fill="none" stroke="#000000" points="305.5,-296.7 305.5,-315.7 353.5,-315.7 353.5,-296.7 305.5,-296.7"/>
<text text-anchor="start" x="318.1105" y="-302.8" font-family="Helvetica,sans-Serif" font-size="11.00" fill="#000000">3 rows</text>
<polygon fill="#ffffff" stroke="transparent" points="353.5,-296.7 353.5,-315.7 385.5,-315.7 385.5,-296.7 353.5,-296.7"/>
<polygon fill="none" stroke="#000000" points="353.5,-296.7 353.5,-315.7 385.5,-315.7 385.5,-296.7 353.5,-296.7"/>
<text text-anchor="start" x="366.9053" y="-302.8" font-family="Helvetica,sans-Serif" font-size="11.00" fill="#000000">7 &gt;</text>
</a>
</g>
</g>
<!-- account&#45;&gt;user -->
<g id="edge1" class="edge">
<title>account:w&#45;&gt;user:e</title>
<path fill="none" stroke="#000000" d="M550.9563,-531.5085C513.746,-530.0583 499.0626,-520.1351 467,-493.7 415.5412,-451.2731 452.1937,-367.7 385.5,-367.7"/>
<polygon fill="#000000" stroke="#000000" points="560.7728,-527.6861 560.6275,-535.6848 559.0277,-535.6557 559.1731,-527.6571 560.7728,-527.6861"/>
<polyline fill="none" stroke="#000000" points="561.5,-531.7 557.5007,-531.6273 "/>
<ellipse fill="none" stroke="#000000" cx="554.3012" cy="-531.5692" rx="3.2" ry="3.2"/>
</g>
<!-- user_status -->
<g id="node10" class="node">
<title>user_status</title>
<g id="a_node10"><a xlink:href="../../tables/user_status.html" xlink:title="user_status" target="_top">
<polygon fill="#ffffff" stroke="transparent" points="41.5,-318.2 41.5,-379.2 140.5,-379.2 140.5,-318.2 41.5,-318.2"/>
<polygon fill="#f5f5f5" stroke="transparent" points="42,-355.7 42,-378.7 141,-378.7 141,-355.7 42,-355.7"/>
<polygon fill="none" stroke="#000000" points="42,-355.7 42,-378.7 141,-378.7 141,-355.7 42,-355.7"/>
<text text-anchor="start" x="46.5749" y="-364.8" font-family="Helvetica,sans-Serif" font-weight="bold" font-size="11.00" fill="#000000">user_status</text>
<text text-anchor="start" x="106.5219" y="-363.8" font-family="Helvetica,sans-Serif" font-size="11.00" fill="#000000">[table]</text>
<polygon fill="none" stroke="#000000" points="42,-336.7 42,-355.7 141,-355.7 141,-336.7 42,-336.7"/>
<text text-anchor="start" x="45" y="-342.8" font-family="Helvetica,sans-Serif" font-size="11.00" fill="#000000">...</text>
<polygon fill="#ffffff" stroke="transparent" points="42,-317.7 42,-336.7 68,-336.7 68,-317.7 42,-317.7"/>
<polygon fill="none" stroke="#000000" points="42,-317.7 42,-336.7 68,-336.7 68,-317.7 42,-317.7"/>
<text text-anchor="start" x="45" y="-323.8" font-family="Helvetica,sans-Serif" font-size="11.00" fill="#000000"> &#160;</text>
<polygon fill="#ffffff" stroke="transparent" points="68,-317.7 68,-336.7 113,-336.7 113,-317.7 68,-317.7"/>
<polygon fill="none" stroke="#000000" points="68,-317.7 68,-336.7 113,-336.7 113,-317.7 68,-317.7"/>
<text text-anchor="start" x="77.6105" y="-323.8" font-family="Helvetica,sans-Serif" font-size="11.00" fill="#000000">3 rows</text>
<polygon fill="#ffffff" stroke="transparent" points="113,-317.7 113,-336.7 141,-336.7 141,-317.7 113,-317.7"/>
<polygon fill="none" stroke="#000000" points="113,-317.7 113,-336.7 141,-336.7 141,-317.7 113,-317.7"/>
<text text-anchor="start" x="122.4053" y="-323.8" font-family="Helvetica,sans-Serif" font-size="11.00" fill="#000000">1 &gt;</text>
</a>
</g>
</g>
<!-- user&#45;&gt;user_status -->
<g id="edge9" class="edge">
<title>user:w&#45;&gt;user_status:e</title>
<path fill="none" stroke="#000000" d="M250.0801,-345.7C206.6764,-345.7 190.7431,-345.7 141,-345.7"/>
<polygon fill="#000000" stroke="#000000" points="256.5,-345.7001 264.5,-349.3 260.5,-345.7 264.5,-345.7 264.5,-345.7 264.5,-345.7 260.5,-345.7 264.5,-342.1 256.5,-345.7001 256.5,-345.7001"/>
<ellipse fill="none" stroke="#000000" cx="253.3" cy="-345.7001" rx="3.2" ry="3.2"/>
</g>
<!-- alert_for_taking_paid_leave -->
<g id="node3" class="node">
<title>alert_for_taking_paid_leave</title>
<g id="a_node3"><a xlink:href="../../tables/alert_for_taking_paid_leave.html" xlink:title="alert_for_taking_paid_leave" target="_top">
<polygon fill="#ffffff" stroke="transparent" points="512.5,-422.2 512.5,-483.2 690.5,-483.2 690.5,-422.2 512.5,-422.2"/>
<polygon fill="#f5f5f5" stroke="transparent" points="512.5,-459.7 512.5,-482.7 690.5,-482.7 690.5,-459.7 512.5,-459.7"/>
<polygon fill="none" stroke="#000000" points="512.5,-459.7 512.5,-482.7 690.5,-482.7 690.5,-459.7 512.5,-459.7"/>
<text text-anchor="start" x="517.4518" y="-468.8" font-family="Helvetica,sans-Serif" font-weight="bold" font-size="11.00" fill="#000000">alert_for_taking_paid_leave</text>
<text text-anchor="start" x="656.0219" y="-467.8" font-family="Helvetica,sans-Serif" font-size="11.00" fill="#000000">[table]</text>
<polygon fill="none" stroke="#000000" points="512.5,-440.7 512.5,-459.7 690.5,-459.7 690.5,-440.7 512.5,-440.7"/>
<text text-anchor="start" x="515.5" y="-446.8" font-family="Helvetica,sans-Serif" font-size="11.00" fill="#000000">...</text>
<polygon fill="#ffffff" stroke="transparent" points="512.5,-421.7 512.5,-440.7 589.5,-440.7 589.5,-421.7 512.5,-421.7"/>
<polygon fill="none" stroke="#000000" points="512.5,-421.7 512.5,-440.7 589.5,-440.7 589.5,-421.7 512.5,-421.7"/>
<text text-anchor="start" x="515.5" y="-427.8" font-family="Helvetica,sans-Serif" font-size="11.00" fill="#000000">&lt; 1</text>
<polygon fill="#ffffff" stroke="transparent" points="589.5,-421.7 589.5,-440.7 649.5,-440.7 649.5,-421.7 589.5,-421.7"/>
<polygon fill="none" stroke="#000000" points="589.5,-421.7 589.5,-440.7 649.5,-440.7 649.5,-421.7 589.5,-421.7"/>
<text text-anchor="start" x="619.6105" y="-427.8" font-family="Helvetica,sans-Serif" font-size="11.00" fill="#000000">1 row</text>
<polygon fill="#ffffff" stroke="transparent" points="649.5,-421.7 649.5,-440.7 690.5,-440.7 690.5,-421.7 649.5,-421.7"/>
<polygon fill="none" stroke="#000000" points="649.5,-421.7 649.5,-440.7 690.5,-440.7 690.5,-421.7 649.5,-421.7"/>
<text text-anchor="start" x="681.3862" y="-427.8" font-family="Helvetica,sans-Serif" font-size="11.00" fill="#000000"> &#160;</text>
</a>
</g>
</g>
<!-- alert_for_taking_paid_leave&#45;&gt;user -->
<g id="edge2" class="edge">
<title>alert_for_taking_paid_leave:w&#45;&gt;user:e</title>
<path fill="none" stroke="#000000" d="M502.1216,-448.9911C445.8961,-440.9765 449.0133,-367.7 385.5,-367.7"/>
<polygon fill="#000000" stroke="#000000" points="511.9745,-445.6548 511.4292,-453.6362 509.833,-453.5271 510.3782,-445.5457 511.9745,-445.6548"/>
<polyline fill="none" stroke="#000000" points="512.5,-449.7 508.5093,-449.4274 "/>
<ellipse fill="none" stroke="#000000" cx="505.3167" cy="-449.2093" rx="3.2" ry="3.2"/>
</g>
<!-- granting_paid_leave_rule_detail -->
<g id="node4" class="node">
<title>granting_paid_leave_rule_detail</title>
<g id="a_node4"><a xlink:href="../../tables/granting_paid_leave_rule_detail.html" xlink:title="granting_paid_leave_rule_detail" target="_top">
<polygon fill="#ffffff" stroke="transparent" points="223,-38.2 223,-143.2 426,-143.2 426,-38.2 223,-38.2"/>
<polygon fill="#f5f5f5" stroke="transparent" points="223.5,-119.7 223.5,-142.7 426.5,-142.7 426.5,-119.7 223.5,-119.7"/>
<polygon fill="none" stroke="#000000" points="223.5,-119.7 223.5,-142.7 426.5,-142.7 426.5,-119.7 223.5,-119.7"/>
<text text-anchor="start" x="228.5" y="-128.8" font-family="Helvetica,sans-Serif" font-weight="bold" font-size="11.00" fill="#000000">granting_paid_leave_rule_detail</text>
<text text-anchor="start" x="391.5437" y="-127.8" font-family="Helvetica,sans-Serif" font-size="11.00" fill="#000000">[table]</text>
<polygon fill="none" stroke="#000000" points="223.5,-97.7 223.5,-119.7 426.5,-119.7 426.5,-97.7 223.5,-97.7"/>
<image xlink:href="../../images/primaryKeys.png" width="11px" height="12px" preserveAspectRatio="xMinYMin meet" x="228.5" y="-114.7"/>
<text text-anchor="start" x="243.5" y="-104.8" font-family="Helvetica,sans-Serif" font-size="11.00" fill="#000000">id</text>
<polygon fill="none" stroke="#000000" points="223.5,-75.7 223.5,-97.7 426.5,-97.7 426.5,-75.7 223.5,-75.7"/>
<image xlink:href="../../images/foreignKeys.png" width="11px" height="12px" preserveAspectRatio="xMinYMin meet" x="228.5" y="-92.7"/>
<text text-anchor="start" x="243.5" y="-82.8" font-family="Helvetica,sans-Serif" font-size="11.00" fill="#000000">rule_id</text>
<polygon fill="none" stroke="#000000" points="223.5,-56.7 223.5,-75.7 426.5,-75.7 426.5,-56.7 223.5,-56.7"/>
<text text-anchor="start" x="226.5" y="-62.8" font-family="Helvetica,sans-Serif" font-size="11.00" fill="#000000">...</text>
<polygon fill="#ffffff" stroke="transparent" points="223.5,-37.7 223.5,-56.7 302.5,-56.7 302.5,-37.7 223.5,-37.7"/>
<polygon fill="none" stroke="#000000" points="223.5,-37.7 223.5,-56.7 302.5,-56.7 302.5,-37.7 223.5,-37.7"/>
<text text-anchor="start" x="226.5" y="-43.8" font-family="Helvetica,sans-Serif" font-size="11.00" fill="#000000">&lt; 1</text>
<polygon fill="#ffffff" stroke="transparent" points="302.5,-37.7 302.5,-56.7 375.5,-56.7 375.5,-37.7 302.5,-37.7"/>
<polygon fill="none" stroke="#000000" points="302.5,-37.7 302.5,-56.7 375.5,-56.7 375.5,-37.7 302.5,-37.7"/>
<text text-anchor="start" x="333.9956" y="-43.8" font-family="Helvetica,sans-Serif" font-size="11.00" fill="#000000">32 rows</text>
<polygon fill="#ffffff" stroke="transparent" points="375.5,-37.7 375.5,-56.7 426.5,-56.7 426.5,-37.7 375.5,-37.7"/>
<polygon fill="none" stroke="#000000" points="375.5,-37.7 375.5,-56.7 426.5,-56.7 426.5,-37.7 375.5,-37.7"/>
<text text-anchor="start" x="407.9053" y="-43.8" font-family="Helvetica,sans-Serif" font-size="11.00" fill="#000000">1 &gt;</text>
</a>
</g>
</g>
<!-- granting_paid_leave_rule -->
<g id="node5" class="node">
<title>granting_paid_leave_rule</title>
<g id="a_node5"><a xlink:href="../../tables/granting_paid_leave_rule.html" xlink:title="granting_paid_leave_rule" target="_top">
<polygon fill="#ffffff" stroke="transparent" points="8,-111.2 8,-172.2 174,-172.2 174,-111.2 8,-111.2"/>
<polygon fill="#f5f5f5" stroke="transparent" points="8,-148.7 8,-171.7 174,-171.7 174,-148.7 8,-148.7"/>
<polygon fill="none" stroke="#000000" points="8,-148.7 8,-171.7 174,-171.7 174,-148.7 8,-148.7"/>
<text text-anchor="start" x="12.7587" y="-157.8" font-family="Helvetica,sans-Serif" font-weight="bold" font-size="11.00" fill="#000000">granting_paid_leave_rule</text>
<text text-anchor="start" x="139.5219" y="-156.8" font-family="Helvetica,sans-Serif" font-size="11.00" fill="#000000">[table]</text>
<polygon fill="none" stroke="#000000" points="8,-129.7 8,-148.7 174,-148.7 174,-129.7 8,-129.7"/>
<text text-anchor="start" x="11" y="-135.8" font-family="Helvetica,sans-Serif" font-size="11.00" fill="#000000">...</text>
<polygon fill="#ffffff" stroke="transparent" points="8,-110.7 8,-129.7 70,-129.7 70,-110.7 8,-110.7"/>
<polygon fill="none" stroke="#000000" points="8,-110.7 8,-129.7 70,-129.7 70,-110.7 8,-110.7"/>
<text text-anchor="start" x="11" y="-116.8" font-family="Helvetica,sans-Serif" font-size="11.00" fill="#000000"> &#160;</text>
<polygon fill="#ffffff" stroke="transparent" points="70,-110.7 70,-129.7 127,-129.7 127,-110.7 70,-110.7"/>
<polygon fill="none" stroke="#000000" points="70,-110.7 70,-129.7 127,-129.7 127,-110.7 70,-110.7"/>
<text text-anchor="start" x="97.1105" y="-116.8" font-family="Helvetica,sans-Serif" font-size="11.00" fill="#000000">1 row</text>
<polygon fill="#ffffff" stroke="transparent" points="127,-110.7 127,-129.7 174,-129.7 174,-110.7 127,-110.7"/>
<polygon fill="none" stroke="#000000" points="127,-110.7 127,-129.7 174,-129.7 174,-110.7 127,-110.7"/>
<text text-anchor="start" x="155.4053" y="-116.8" font-family="Helvetica,sans-Serif" font-size="11.00" fill="#000000">2 &gt;</text>
</a>
</g>
</g>
<!-- granting_paid_leave_rule_detail&#45;&gt;granting_paid_leave_rule -->
<g id="edge3" class="edge">
<title>granting_paid_leave_rule_detail:w&#45;&gt;granting_paid_leave_rule:e</title>
<path fill="none" stroke="#000000" d="M209.8175,-91.4988C195.3354,-104.3719 199.9253,-138.7 174,-138.7"/>
<polygon fill="#000000" stroke="#000000" points="215.9508,-89.3477 224.6915,-90.0971 219.7254,-88.0239 223.5,-86.7 223.5,-86.7 223.5,-86.7 219.7254,-88.0239 222.3085,-83.3029 215.9508,-89.3477 215.9508,-89.3477"/>
<ellipse fill="none" stroke="#000000" cx="212.9312" cy="-90.4068" rx="3.2" ry="3.2"/>
</g>
<!-- leave_period -->
<g id="node6" class="node">
<title>leave_period</title>
<g id="a_node6"><a xlink:href="../../tables/leave_period.html" xlink:title="leave_period" target="_top">
<polygon fill="#ffffff" stroke="transparent" points="549,-340.2 549,-401.2 654,-401.2 654,-340.2 549,-340.2"/>
<polygon fill="#f5f5f5" stroke="transparent" points="549.5,-377.7 549.5,-400.7 654.5,-400.7 654.5,-377.7 549.5,-377.7"/>
<polygon fill="none" stroke="#000000" points="549.5,-377.7 549.5,-400.7 654.5,-400.7 654.5,-377.7 549.5,-377.7"/>
<text text-anchor="start" x="554.0186" y="-386.8" font-family="Helvetica,sans-Serif" font-weight="bold" font-size="11.00" fill="#000000">leave_period</text>
<text text-anchor="start" x="620.0219" y="-385.8" font-family="Helvetica,sans-Serif" font-size="11.00" fill="#000000">[table]</text>
<polygon fill="none" stroke="#000000" points="549.5,-358.7 549.5,-377.7 654.5,-377.7 654.5,-358.7 549.5,-358.7"/>
<text text-anchor="start" x="552.5" y="-364.8" font-family="Helvetica,sans-Serif" font-size="11.00" fill="#000000">...</text>
<polygon fill="#ffffff" stroke="transparent" points="549.5,-339.7 549.5,-358.7 587.5,-358.7 587.5,-339.7 549.5,-339.7"/>
<polygon fill="none" stroke="#000000" points="549.5,-339.7 549.5,-358.7 587.5,-358.7 587.5,-339.7 549.5,-339.7"/>
<text text-anchor="start" x="552.5" y="-345.8" font-family="Helvetica,sans-Serif" font-size="11.00" fill="#000000">&lt; 1</text>
<polygon fill="#ffffff" stroke="transparent" points="587.5,-339.7 587.5,-358.7 633.5,-358.7 633.5,-339.7 587.5,-339.7"/>
<polygon fill="none" stroke="#000000" points="587.5,-339.7 587.5,-358.7 633.5,-358.7 633.5,-339.7 587.5,-339.7"/>
<text text-anchor="start" x="598.1105" y="-345.8" font-family="Helvetica,sans-Serif" font-size="11.00" fill="#000000">0 rows</text>
<polygon fill="#ffffff" stroke="transparent" points="633.5,-339.7 633.5,-358.7 654.5,-358.7 654.5,-339.7 633.5,-339.7"/>
<polygon fill="none" stroke="#000000" points="633.5,-339.7 633.5,-358.7 654.5,-358.7 654.5,-339.7 633.5,-339.7"/>
<text text-anchor="start" x="645.3862" y="-345.8" font-family="Helvetica,sans-Serif" font-size="11.00" fill="#000000"> &#160;</text>
</a>
</g>
</g>
<!-- leave_period&#45;&gt;user -->
<g id="edge4" class="edge">
<title>leave_period:w&#45;&gt;user:e</title>
<path fill="none" stroke="#000000" d="M534.8978,-367.7C473.7783,-367.7 453.2639,-367.7 385.5,-367.7"/>
<polygon fill="#000000" stroke="#000000" points="541.5,-367.7001 549.5,-371.3 545.5,-367.7 549.5,-367.7 549.5,-367.7 549.5,-367.7 545.5,-367.7 549.5,-364.1 541.5,-367.7001 541.5,-367.7001"/>
<ellipse fill="none" stroke="#000000" cx="538.3" cy="-367.7001" rx="3.2" ry="3.2"/>
</g>
<!-- manager -->
<g id="node7" class="node">
<title>manager</title>
<g id="a_node7"><a xlink:href="../../tables/manager.html" xlink:title="manager" target="_top">
<polygon fill="#ffffff" stroke="transparent" points="558.5,-258.2 558.5,-319.2 644.5,-319.2 644.5,-258.2 558.5,-258.2"/>
<polygon fill="#f5f5f5" stroke="transparent" points="558.5,-295.7 558.5,-318.7 644.5,-318.7 644.5,-295.7 558.5,-295.7"/>
<polygon fill="none" stroke="#000000" points="558.5,-295.7 558.5,-318.7 644.5,-318.7 644.5,-295.7 558.5,-295.7"/>
<text text-anchor="start" x="563.3009" y="-304.8" font-family="Helvetica,sans-Serif" font-weight="bold" font-size="11.00" fill="#000000">manager</text>
<text text-anchor="start" x="610.0219" y="-303.8" font-family="Helvetica,sans-Serif" font-size="11.00" fill="#000000">[table]</text>
<polygon fill="none" stroke="#000000" points="558.5,-276.7 558.5,-295.7 644.5,-295.7 644.5,-276.7 558.5,-276.7"/>
<text text-anchor="start" x="561.5" y="-282.8" font-family="Helvetica,sans-Serif" font-size="11.00" fill="#000000">...</text>
<polygon fill="#ffffff" stroke="transparent" points="558.5,-257.7 558.5,-276.7 586.5,-276.7 586.5,-257.7 558.5,-257.7"/>
<polygon fill="none" stroke="#000000" points="558.5,-257.7 558.5,-276.7 586.5,-276.7 586.5,-257.7 558.5,-257.7"/>
<text text-anchor="start" x="561.5" y="-263.8" font-family="Helvetica,sans-Serif" font-size="11.00" fill="#000000">&lt; 2</text>
<polygon fill="#ffffff" stroke="transparent" points="586.5,-257.7 586.5,-276.7 628.5,-276.7 628.5,-257.7 586.5,-257.7"/>
<polygon fill="none" stroke="#000000" points="586.5,-257.7 586.5,-276.7 628.5,-276.7 628.5,-257.7 586.5,-257.7"/>
<text text-anchor="start" x="593.1105" y="-263.8" font-family="Helvetica,sans-Serif" font-size="11.00" fill="#000000">0 rows</text>
<polygon fill="#ffffff" stroke="transparent" points="628.5,-257.7 628.5,-276.7 644.5,-276.7 644.5,-257.7 628.5,-257.7"/>
<polygon fill="none" stroke="#000000" points="628.5,-257.7 628.5,-276.7 644.5,-276.7 644.5,-257.7 628.5,-257.7"/>
<text text-anchor="start" x="635.3862" y="-263.8" font-family="Helvetica,sans-Serif" font-size="11.00" fill="#000000"> &#160;</text>
</a>
</g>
</g>
<!-- manager&#45;&gt;user -->
<g id="edge5" class="edge">
<title>manager:w&#45;&gt;user:e</title>
<path fill="none" stroke="#000000" d="M544.4853,-289.7664C504.0489,-306.3123 403.9054,-367.7 385.5,-367.7"/>
<polygon fill="#000000" stroke="#000000" points="550.8169,-287.9293 559.5032,-289.1574 554.6584,-286.8147 558.5,-285.7 558.5,-285.7 558.5,-285.7 554.6584,-286.8147 557.4968,-282.2426 550.8169,-287.9293 550.8169,-287.9293"/>
<ellipse fill="none" stroke="#000000" cx="547.7436" cy="-288.821" rx="3.2" ry="3.2"/>
</g>
<!-- member -->
<g id="node8" class="node">
<title>member</title>
<g id="a_node8"><a xlink:href="../../tables/member.html" xlink:title="member" target="_top">
<polygon fill="#ffffff" stroke="transparent" points="560,-586.2 560,-647.2 643,-647.2 643,-586.2 560,-586.2"/>
<polygon fill="#f5f5f5" stroke="transparent" points="560.5,-623.7 560.5,-646.7 643.5,-646.7 643.5,-623.7 560.5,-623.7"/>
<polygon fill="none" stroke="#000000" points="560.5,-623.7 560.5,-646.7 643.5,-646.7 643.5,-623.7 560.5,-623.7"/>
<text text-anchor="start" x="565.3348" y="-632.8" font-family="Helvetica,sans-Serif" font-weight="bold" font-size="11.00" fill="#000000">member</text>
<text text-anchor="start" x="609.0219" y="-631.8" font-family="Helvetica,sans-Serif" font-size="11.00" fill="#000000">[table]</text>
<polygon fill="none" stroke="#000000" points="560.5,-604.7 560.5,-623.7 643.5,-623.7 643.5,-604.7 560.5,-604.7"/>
<text text-anchor="start" x="563.5" y="-610.8" font-family="Helvetica,sans-Serif" font-size="11.00" fill="#000000">...</text>
<polygon fill="#ffffff" stroke="transparent" points="560.5,-585.7 560.5,-604.7 587.5,-604.7 587.5,-585.7 560.5,-585.7"/>
<polygon fill="none" stroke="#000000" points="560.5,-585.7 560.5,-604.7 587.5,-604.7 587.5,-585.7 560.5,-585.7"/>
<text text-anchor="start" x="563.5" y="-591.8" font-family="Helvetica,sans-Serif" font-size="11.00" fill="#000000">&lt; 2</text>
<polygon fill="#ffffff" stroke="transparent" points="587.5,-585.7 587.5,-604.7 628.5,-604.7 628.5,-585.7 587.5,-585.7"/>
<polygon fill="none" stroke="#000000" points="587.5,-585.7 587.5,-604.7 628.5,-604.7 628.5,-585.7 587.5,-585.7"/>
<text text-anchor="start" x="593.1105" y="-591.8" font-family="Helvetica,sans-Serif" font-size="11.00" fill="#000000">0 rows</text>
<polygon fill="#ffffff" stroke="transparent" points="628.5,-585.7 628.5,-604.7 643.5,-604.7 643.5,-585.7 628.5,-585.7"/>
<polygon fill="none" stroke="#000000" points="628.5,-585.7 628.5,-604.7 643.5,-604.7 643.5,-585.7 628.5,-585.7"/>
<text text-anchor="start" x="634.3862" y="-591.8" font-family="Helvetica,sans-Serif" font-size="11.00" fill="#000000"> &#160;</text>
</a>
</g>
</g>
<!-- member&#45;&gt;user -->
<g id="edge6" class="edge">
<title>member:w&#45;&gt;user:e</title>
<path fill="none" stroke="#000000" d="M545.8049,-613.4176C511.4321,-611.9196 494.8245,-603.8769 467,-575.7 397.2362,-505.0527 484.7876,-367.7 385.5,-367.7"/>
<polygon fill="#000000" stroke="#000000" points="552.5015,-613.5462 560.4308,-617.2993 556.5007,-613.6231 560.5,-613.7 560.5,-613.7 560.5,-613.7 556.5007,-613.6231 560.5692,-610.1007 552.5015,-613.5462 552.5015,-613.5462"/>
<ellipse fill="none" stroke="#000000" cx="549.3021" cy="-613.4847" rx="3.2" ry="3.2"/>
</g>
<!-- paid_leave_grant_history -->
<g id="node9" class="node">
<title>paid_leave_grant_history</title>
<g id="a_node9"><a xlink:href="../../tables/paid_leave_grant_history.html" xlink:title="paid_leave_grant_history" target="_top">
<polygon fill="#ffffff" stroke="transparent" points="475,-42.7 475,-154.7 728,-154.7 728,-42.7 475,-42.7"/>
<polygon fill="#f5f5f5" stroke="transparent" points="477.5,-129.7 477.5,-152.7 726.5,-152.7 726.5,-129.7 477.5,-129.7"/>
<polygon fill="none" stroke="#000000" points="477.5,-129.7 477.5,-152.7 726.5,-152.7 726.5,-129.7 477.5,-129.7"/>
<text text-anchor="start" x="482.5" y="-138.8" font-family="Helvetica,sans-Serif" font-weight="bold" font-size="11.00" fill="#000000">paid_leave_grant_history</text>
<text text-anchor="start" x="691.5437" y="-137.8" font-family="Helvetica,sans-Serif" font-size="11.00" fill="#000000">[table]</text>
<polygon fill="none" stroke="#000000" points="477.5,-107.7 477.5,-129.7 642.5,-129.7 642.5,-107.7 477.5,-107.7"/>
<image xlink:href="../../images/primaryKeys.png" width="11px" height="12px" preserveAspectRatio="xMinYMin meet" x="482.5" y="-124.7"/>
<text text-anchor="start" x="497.5" y="-114.8" font-family="Helvetica,sans-Serif" font-size="11.00" fill="#000000">user_id</text>
<polygon fill="none" stroke="#000000" points="642.5,-107.7 642.5,-129.7 726.5,-129.7 726.5,-107.7 642.5,-107.7"/>
<text text-anchor="start" x="645.5" y="-115.4" font-family="Helvetica,sans-Serif" font-size="11.00" fill="#000000">int4[10]</text>
<polygon fill="none" stroke="#000000" points="477.5,-85.7 477.5,-107.7 642.5,-107.7 642.5,-85.7 477.5,-85.7"/>
<image xlink:href="../../images/primaryKeys.png" width="11px" height="12px" preserveAspectRatio="xMinYMin meet" x="482.5" y="-102.7"/>
<text text-anchor="start" x="497.5" y="-92.8" font-family="Helvetica,sans-Serif" font-size="11.00" fill="#000000">rule_detail_id</text>
<polygon fill="none" stroke="#000000" points="642.5,-85.7 642.5,-107.7 726.5,-107.7 726.5,-85.7 642.5,-85.7"/>
<text text-anchor="start" x="645.5" y="-93.4" font-family="Helvetica,sans-Serif" font-size="11.00" fill="#000000">int4[10]</text>
<polygon fill="none" stroke="#000000" points="477.5,-63.7 477.5,-85.7 642.5,-85.7 642.5,-63.7 477.5,-63.7"/>
<text text-anchor="start" x="497.5" y="-70.8" font-family="Helvetica,sans-Serif" font-size="11.00" fill="#000000">created_at</text>
<polygon fill="none" stroke="#000000" points="642.5,-63.7 642.5,-85.7 726.5,-85.7 726.5,-63.7 642.5,-63.7"/>
<text text-anchor="start" x="645.3807" y="-71.4" font-family="Helvetica,sans-Serif" font-size="11.00" fill="#000000">timestamp[29,6]</text>
<polygon fill="#ffffff" stroke="transparent" points="477.5,-44.7 477.5,-63.7 551.5,-63.7 551.5,-44.7 477.5,-44.7"/>
<polygon fill="none" stroke="#000000" points="477.5,-44.7 477.5,-63.7 551.5,-63.7 551.5,-44.7 477.5,-44.7"/>
<text text-anchor="start" x="480.5" y="-50.8" font-family="Helvetica,sans-Serif" font-size="11.00" fill="#000000">&lt; 2</text>
<polygon fill="#ffffff" stroke="transparent" points="551.5,-44.7 551.5,-63.7 642.5,-63.7 642.5,-44.7 551.5,-44.7"/>
<polygon fill="none" stroke="#000000" points="551.5,-44.7 551.5,-63.7 642.5,-63.7 642.5,-44.7 551.5,-44.7"/>
<text text-anchor="start" x="607.1105" y="-50.8" font-family="Helvetica,sans-Serif" font-size="11.00" fill="#000000">0 rows</text>
<polygon fill="#ffffff" stroke="transparent" points="642.5,-44.7 642.5,-63.7 726.5,-63.7 726.5,-44.7 642.5,-44.7"/>
<polygon fill="none" stroke="#000000" points="642.5,-44.7 642.5,-63.7 726.5,-63.7 726.5,-44.7 642.5,-44.7"/>
<text text-anchor="start" x="707.9053" y="-50.8" font-family="Helvetica,sans-Serif" font-size="11.00" fill="#000000">0 &gt;</text>
<polygon fill="none" stroke="#000000" stroke-width="2" points="476,-43.7 476,-153.7 727,-153.7 727,-43.7 476,-43.7"/>
</a>
</g>
</g>
<!-- paid_leave_grant_history&#45;&gt;user -->
<g id="edge8" class="edge">
<title>paid_leave_grant_history:w&#45;&gt;user:e</title>
<path fill="none" stroke="#000000" d="M464.0665,-123.9007C422.3482,-159.6579 439.42,-367.7 385.5,-367.7"/>
<polygon fill="#000000" stroke="#000000" points="470.0396,-121.5883 478.7997,-122.0572 473.7698,-120.1441 477.5,-118.7 477.5,-118.7 477.5,-118.7 473.7698,-120.1441 476.2003,-115.3428 470.0396,-121.5883 470.0396,-121.5883"/>
<ellipse fill="none" stroke="#000000" cx="467.0554" cy="-122.7436" rx="3.2" ry="3.2"/>
</g>
<!-- paid_leave_grant_history&#45;&gt;granting_paid_leave_rule_detail -->
<g id="edge7" class="edge">
<title>paid_leave_grant_history:w&#45;&gt;granting_paid_leave_rule_detail:e</title>
<path fill="none" stroke="#000000" d="M462.9822,-98.575C450.8214,-101.95 443.9642,-108.7 426.5,-108.7"/>
<polygon fill="#000000" stroke="#000000" points="469.5659,-97.7247 477.9611,-100.2703 473.5329,-97.2124 477.5,-96.7 477.5,-96.7 477.5,-96.7 473.5329,-97.2124 477.0389,-93.1297 469.5659,-97.7247 469.5659,-97.7247"/>
<ellipse fill="none" stroke="#000000" cx="466.3923" cy="-98.1346" rx="3.2" ry="3.2"/>
</g>
<!-- user_rule -->
<g id="node11" class="node">
<title>user_rule</title>
<g id="a_node11"><a xlink:href="../../tables/user_rule.html" xlink:title="user_rule" target="_top">
<polygon fill="#ffffff" stroke="transparent" points="557.5,-176.2 557.5,-237.2 645.5,-237.2 645.5,-176.2 557.5,-176.2"/>
<polygon fill="#f5f5f5" stroke="transparent" points="557.5,-213.7 557.5,-236.7 645.5,-236.7 645.5,-213.7 557.5,-213.7"/>
<polygon fill="none" stroke="#000000" points="557.5,-213.7 557.5,-236.7 645.5,-236.7 645.5,-213.7 557.5,-213.7"/>
<text text-anchor="start" x="562.0804" y="-222.8" font-family="Helvetica,sans-Serif" font-weight="bold" font-size="11.00" fill="#000000">user_rule</text>
<text text-anchor="start" x="611.0219" y="-221.8" font-family="Helvetica,sans-Serif" font-size="11.00" fill="#000000">[table]</text>
<polygon fill="none" stroke="#000000" points="557.5,-194.7 557.5,-213.7 645.5,-213.7 645.5,-194.7 557.5,-194.7"/>
<text text-anchor="start" x="560.5" y="-200.8" font-family="Helvetica,sans-Serif" font-size="11.00" fill="#000000">...</text>
<polygon fill="#ffffff" stroke="transparent" points="557.5,-175.7 557.5,-194.7 586.5,-194.7 586.5,-175.7 557.5,-175.7"/>
<polygon fill="none" stroke="#000000" points="557.5,-175.7 557.5,-194.7 586.5,-194.7 586.5,-175.7 557.5,-175.7"/>
<text text-anchor="start" x="560.5" y="-181.8" font-family="Helvetica,sans-Serif" font-size="11.00" fill="#000000">&lt; 2</text>
<polygon fill="#ffffff" stroke="transparent" points="586.5,-175.7 586.5,-194.7 628.5,-194.7 628.5,-175.7 586.5,-175.7"/>
<polygon fill="none" stroke="#000000" points="586.5,-175.7 586.5,-194.7 628.5,-194.7 628.5,-175.7 586.5,-175.7"/>
<text text-anchor="start" x="593.1105" y="-181.8" font-family="Helvetica,sans-Serif" font-size="11.00" fill="#000000">2 rows</text>
<polygon fill="#ffffff" stroke="transparent" points="628.5,-175.7 628.5,-194.7 645.5,-194.7 645.5,-175.7 628.5,-175.7"/>
<polygon fill="none" stroke="#000000" points="628.5,-175.7 628.5,-194.7 645.5,-194.7 645.5,-175.7 628.5,-175.7"/>
<text text-anchor="start" x="636.3862" y="-181.8" font-family="Helvetica,sans-Serif" font-size="11.00" fill="#000000"> &#160;</text>
</a>
</g>
</g>
<!-- user_rule&#45;&gt;user -->
<g id="edge11" class="edge">
<title>user_rule:w&#45;&gt;user:e</title>
<path fill="none" stroke="#000000" d="M546.6609,-204.0263C510.5593,-206.3396 497.9125,-220.9485 467,-247.7 418.2494,-289.8885 449.9709,-367.7 385.5,-367.7"/>
<polygon fill="#000000" stroke="#000000" points="556.58,-199.7259 556.8208,-207.7223 555.2215,-207.7704 554.9807,-199.774 556.58,-199.7259"/>
<polyline fill="none" stroke="#000000" points="557.5,-203.7 553.5018,-203.8204 "/>
<ellipse fill="none" stroke="#000000" cx="550.3033" cy="-203.9167" rx="3.2" ry="3.2"/>
</g>
<!-- user_rule&#45;&gt;granting_paid_leave_rule -->
<g id="edge10" class="edge">
<title>user_rule:w&#45;&gt;granting_paid_leave_rule:e</title>
<path fill="none" stroke="#000000" d="M542.9759,-203.6614C401.0027,-202.8832 359.3289,-190.222 215,-153.7 196.1895,-148.94 193.4034,-138.7 174,-138.7"/>
<polygon fill="#000000" stroke="#000000" points="549.5,-203.6787 557.4904,-207.3 553.5,-203.6893 557.5,-203.7 557.5,-203.7 557.5,-203.7 553.5,-203.6893 557.5096,-200.1 549.5,-203.6787 549.5,-203.6787"/>
<ellipse fill="none" stroke="#000000" cx="546.3" cy="-203.6701" rx="3.2" ry="3.2"/>
</g>
</g>
</svg>
