<?xml version="1.0" encoding="UTF-8" standalone="no"?>
<!DOCTYPE svg PUBLIC "-//W3C//DTD SVG 1.1//EN"
 "http://www.w3.org/Graphics/SVG/1.1/DTD/svg11.dtd">
<!-- Generated by graphviz version 2.40.1 (20161225.0304)
 -->
<!-- Title: oneDegreeRelationshipsDiagram Pages: 1 -->
<svg width="529pt" height="281pt"
 viewBox="0.00 0.00 529.00 281.20" xmlns="http://www.w3.org/2000/svg" xmlns:xlink="http://www.w3.org/1999/xlink">
<g id="graph0" class="graph" transform="scale(1 1) rotate(0) translate(4 277.2)">
<title>oneDegreeRelationshipsDiagram</title>
<polygon fill="#ffffff" stroke="transparent" points="-4,4 -4,-277.2 525,-277.2 525,4 -4,4"/>
<text text-anchor="middle" x="72.4936" y="-7.3" font-family="Helvetica,sans-Serif" font-size="11.00" fill="#000000">Generated by SchemaSpy</text>
<!-- paid_leave_grant_history -->
<g id="node1" class="node">
<title>paid_leave_grant_history</title>
<g id="a_node1"><a xlink:href="../../tables/paid_leave_grant_history.html" xlink:title="paid_leave_grant_history" target="_top">
<polygon fill="#ffffff" stroke="transparent" points="260,-106.7 260,-218.7 513,-218.7 513,-106.7 260,-106.7"/>
<polygon fill="#f5f5f5" stroke="transparent" points="262.5,-193.7 262.5,-216.7 511.5,-216.7 511.5,-193.7 262.5,-193.7"/>
<polygon fill="none" stroke="#000000" points="262.5,-193.7 262.5,-216.7 511.5,-216.7 511.5,-193.7 262.5,-193.7"/>
<text text-anchor="start" x="267.5" y="-202.8" font-family="Helvetica,sans-Serif" font-weight="bold" font-size="11.00" fill="#000000">paid_leave_grant_history</text>
<text text-anchor="start" x="476.5437" y="-201.8" font-family="Helvetica,sans-Serif" font-size="11.00" fill="#000000">[table]</text>
<polygon fill="none" stroke="#000000" points="262.5,-171.7 262.5,-193.7 427.5,-193.7 427.5,-171.7 262.5,-171.7"/>
<image xlink:href="../../images/primaryKeys.png" width="11px" height="12px" preserveAspectRatio="xMinYMin meet" x="267.5" y="-188.7"/>
<text text-anchor="start" x="282.5" y="-178.8" font-family="Helvetica,sans-Serif" font-size="11.00" fill="#000000">user_id</text>
<polygon fill="none" stroke="#000000" points="427.5,-171.7 427.5,-193.7 511.5,-193.7 511.5,-171.7 427.5,-171.7"/>
<text text-anchor="start" x="430.5" y="-179.4" font-family="Helvetica,sans-Serif" font-size="11.00" fill="#000000">int4[10]</text>
<polygon fill="none" stroke="#000000" points="262.5,-149.7 262.5,-171.7 427.5,-171.7 427.5,-149.7 262.5,-149.7"/>
<image xlink:href="../../images/primaryKeys.png" width="11px" height="12px" preserveAspectRatio="xMinYMin meet" x="267.5" y="-166.7"/>
<text text-anchor="start" x="282.5" y="-156.8" font-family="Helvetica,sans-Serif" font-size="11.00" fill="#000000">rule_detail_id</text>
<polygon fill="none" stroke="#000000" points="427.5,-149.7 427.5,-171.7 511.5,-171.7 511.5,-149.7 427.5,-149.7"/>
<text text-anchor="start" x="430.5" y="-157.4" font-family="Helvetica,sans-Serif" font-size="11.00" fill="#000000">int4[10]</text>
<polygon fill="none" stroke="#000000" points="262.5,-127.7 262.5,-149.7 427.5,-149.7 427.5,-127.7 262.5,-127.7"/>
<text text-anchor="start" x="282.5" y="-134.8" font-family="Helvetica,sans-Serif" font-size="11.00" fill="#000000">created_at</text>
<polygon fill="none" stroke="#000000" points="427.5,-127.7 427.5,-149.7 511.5,-149.7 511.5,-127.7 427.5,-127.7"/>
<text text-anchor="start" x="430.3807" y="-135.4" font-family="Helvetica,sans-Serif" font-size="11.00" fill="#000000">timestamp[29,6]</text>
<polygon fill="#ffffff" stroke="transparent" points="262.5,-108.7 262.5,-127.7 336.5,-127.7 336.5,-108.7 262.5,-108.7"/>
<polygon fill="none" stroke="#000000" points="262.5,-108.7 262.5,-127.7 336.5,-127.7 336.5,-108.7 262.5,-108.7"/>
<text text-anchor="start" x="265.5" y="-114.8" font-family="Helvetica,sans-Serif" font-size="11.00" fill="#000000">&lt; 2</text>
<polygon fill="#ffffff" stroke="transparent" points="336.5,-108.7 336.5,-127.7 427.5,-127.7 427.5,-108.7 336.5,-108.7"/>
<polygon fill="none" stroke="#000000" points="336.5,-108.7 336.5,-127.7 427.5,-127.7 427.5,-108.7 336.5,-108.7"/>
<text text-anchor="start" x="392.1105" y="-114.8" font-family="Helvetica,sans-Serif" font-size="11.00" fill="#000000">0 rows</text>
<polygon fill="#ffffff" stroke="transparent" points="427.5,-108.7 427.5,-127.7 511.5,-127.7 511.5,-108.7 427.5,-108.7"/>
<polygon fill="none" stroke="#000000" points="427.5,-108.7 427.5,-127.7 511.5,-127.7 511.5,-108.7 427.5,-108.7"/>
<text text-anchor="start" x="492.9053" y="-114.8" font-family="Helvetica,sans-Serif" font-size="11.00" fill="#000000">0 &gt;</text>
<polygon fill="none" stroke="#000000" stroke-width="2" points="261,-107.7 261,-217.7 512,-217.7 512,-107.7 261,-107.7"/>
</a>
</g>
</g>
<!-- granting_paid_leave_rule_detail -->
<g id="node2" class="node">
<title>granting_paid_leave_rule_detail</title>
<g id="a_node2"><a xlink:href="../../tables/granting_paid_leave_rule_detail.html" xlink:title="granting_paid_leave_rule_detail" target="_top">
<polygon fill="#ffffff" stroke="transparent" points="8,-38.2 8,-143.2 211,-143.2 211,-38.2 8,-38.2"/>
<polygon fill="#f5f5f5" stroke="transparent" points="8.5,-119.7 8.5,-142.7 211.5,-142.7 211.5,-119.7 8.5,-119.7"/>
<polygon fill="none" stroke="#000000" points="8.5,-119.7 8.5,-142.7 211.5,-142.7 211.5,-119.7 8.5,-119.7"/>
<text text-anchor="start" x="13.5" y="-128.8" font-family="Helvetica,sans-Serif" font-weight="bold" font-size="11.00" fill="#000000">granting_paid_leave_rule_detail</text>
<text text-anchor="start" x="176.5437" y="-127.8" font-family="Helvetica,sans-Serif" font-size="11.00" fill="#000000">[table]</text>
<polygon fill="none" stroke="#000000" points="8.5,-97.7 8.5,-119.7 211.5,-119.7 211.5,-97.7 8.5,-97.7"/>
<image xlink:href="../../images/primaryKeys.png" width="11px" height="12px" preserveAspectRatio="xMinYMin meet" x="13.5" y="-114.7"/>
<text text-anchor="start" x="28.5" y="-104.8" font-family="Helvetica,sans-Serif" font-size="11.00" fill="#000000">id</text>
<polygon fill="none" stroke="#000000" points="8.5,-75.7 8.5,-97.7 211.5,-97.7 211.5,-75.7 8.5,-75.7"/>
<image xlink:href="../../images/foreignKeys.png" width="11px" height="12px" preserveAspectRatio="xMinYMin meet" x="13.5" y="-92.7"/>
<text text-anchor="start" x="28.5" y="-82.8" font-family="Helvetica,sans-Serif" font-size="11.00" fill="#000000">rule_id</text>
<polygon fill="none" stroke="#000000" points="8.5,-56.7 8.5,-75.7 211.5,-75.7 211.5,-56.7 8.5,-56.7"/>
<text text-anchor="start" x="11.5" y="-62.8" font-family="Helvetica,sans-Serif" font-size="11.00" fill="#000000">...</text>
<polygon fill="#ffffff" stroke="transparent" points="8.5,-37.7 8.5,-56.7 87.5,-56.7 87.5,-37.7 8.5,-37.7"/>
<polygon fill="none" stroke="#000000" points="8.5,-37.7 8.5,-56.7 87.5,-56.7 87.5,-37.7 8.5,-37.7"/>
<text text-anchor="start" x="11.5" y="-43.8" font-family="Helvetica,sans-Serif" font-size="11.00" fill="#000000">&lt; 1</text>
<polygon fill="#ffffff" stroke="transparent" points="87.5,-37.7 87.5,-56.7 160.5,-56.7 160.5,-37.7 87.5,-37.7"/>
<polygon fill="none" stroke="#000000" points="87.5,-37.7 87.5,-56.7 160.5,-56.7 160.5,-37.7 87.5,-37.7"/>
<text text-anchor="start" x="118.9956" y="-43.8" font-family="Helvetica,sans-Serif" font-size="11.00" fill="#000000">32 rows</text>
<polygon fill="#ffffff" stroke="transparent" points="160.5,-37.7 160.5,-56.7 211.5,-56.7 211.5,-37.7 160.5,-37.7"/>
<polygon fill="none" stroke="#000000" points="160.5,-37.7 160.5,-56.7 211.5,-56.7 211.5,-37.7 160.5,-37.7"/>
<text text-anchor="start" x="192.9053" y="-43.8" font-family="Helvetica,sans-Serif" font-size="11.00" fill="#000000">1 &gt;</text>
</a>
</g>
</g>
<!-- paid_leave_grant_history&#45;&gt;granting_paid_leave_rule_detail -->
<g id="edge1" class="edge">
<title>paid_leave_grant_history:w&#45;&gt;granting_paid_leave_rule_detail:e</title>
<path fill="none" stroke="#000000" d="M248.5468,-155.9012C233.661,-143.0281 237.8017,-108.7 211.5,-108.7"/>
<polygon fill="#000000" stroke="#000000" points="254.9349,-158.0982 261.3292,-164.1043 258.7175,-159.3991 262.5,-160.7 262.5,-160.7 262.5,-160.7 258.7175,-159.3991 263.6708,-157.2957 254.9349,-158.0982 254.9349,-158.0982"/>
<ellipse fill="none" stroke="#000000" cx="251.9089" cy="-157.0574" rx="3.2" ry="3.2"/>
</g>
<!-- user -->
<g id="node3" class="node">
<title>user</title>
<g id="a_node3"><a xlink:href="../../tables/user.html" xlink:title="user" target="_top">
<polygon fill="#ffffff" stroke="transparent" points="49,-164.2 49,-269.2 170,-269.2 170,-164.2 49,-164.2"/>
<polygon fill="#f5f5f5" stroke="transparent" points="49.5,-245.7 49.5,-268.7 170.5,-268.7 170.5,-245.7 49.5,-245.7"/>
<polygon fill="none" stroke="#000000" points="49.5,-245.7 49.5,-268.7 170.5,-268.7 170.5,-245.7 49.5,-245.7"/>
<text text-anchor="start" x="54.5" y="-254.8" font-family="Helvetica,sans-Serif" font-weight="bold" font-size="11.00" fill="#000000">user</text>
<text text-anchor="start" x="135.5437" y="-253.8" font-family="Helvetica,sans-Serif" font-size="11.00" fill="#000000">[table]</text>
<polygon fill="none" stroke="#000000" points="49.5,-223.7 49.5,-245.7 170.5,-245.7 170.5,-223.7 49.5,-223.7"/>
<image xlink:href="../../images/primaryKeys.png" width="11px" height="12px" preserveAspectRatio="xMinYMin meet" x="54.5" y="-240.7"/>
<text text-anchor="start" x="69.5" y="-230.8" font-family="Helvetica,sans-Serif" font-size="11.00" fill="#000000">id</text>
<polygon fill="none" stroke="#000000" points="49.5,-201.7 49.5,-223.7 170.5,-223.7 170.5,-201.7 49.5,-201.7"/>
<image xlink:href="../../images/foreignKeys.png" width="11px" height="12px" preserveAspectRatio="xMinYMin meet" x="54.5" y="-218.7"/>
<text text-anchor="start" x="69.5" y="-208.8" font-family="Helvetica,sans-Serif" font-size="11.00" fill="#000000">status</text>
<polygon fill="none" stroke="#000000" points="49.5,-182.7 49.5,-201.7 170.5,-201.7 170.5,-182.7 49.5,-182.7"/>
<text text-anchor="start" x="52.5" y="-188.8" font-family="Helvetica,sans-Serif" font-size="11.00" fill="#000000">...</text>
<polygon fill="#ffffff" stroke="transparent" points="49.5,-163.7 49.5,-182.7 90.5,-182.7 90.5,-163.7 49.5,-163.7"/>
<polygon fill="none" stroke="#000000" points="49.5,-163.7 49.5,-182.7 90.5,-182.7 90.5,-163.7 49.5,-163.7"/>
<text text-anchor="start" x="52.5" y="-169.8" font-family="Helvetica,sans-Serif" font-size="11.00" fill="#000000">&lt; 1</text>
<polygon fill="#ffffff" stroke="transparent" points="90.5,-163.7 90.5,-182.7 138.5,-182.7 138.5,-163.7 90.5,-163.7"/>
<polygon fill="none" stroke="#000000" points="90.5,-163.7 90.5,-182.7 138.5,-182.7 138.5,-163.7 90.5,-163.7"/>
<text text-anchor="start" x="103.1105" y="-169.8" font-family="Helvetica,sans-Serif" font-size="11.00" fill="#000000">3 rows</text>
<polygon fill="#ffffff" stroke="transparent" points="138.5,-163.7 138.5,-182.7 170.5,-182.7 170.5,-163.7 138.5,-163.7"/>
<polygon fill="none" stroke="#000000" points="138.5,-163.7 138.5,-182.7 170.5,-182.7 170.5,-163.7 138.5,-163.7"/>
<text text-anchor="start" x="151.9053" y="-169.8" font-family="Helvetica,sans-Serif" font-size="11.00" fill="#000000">7 &gt;</text>
</a>
</g>
</g>
<!-- paid_leave_grant_history&#45;&gt;user -->
<g id="edge2" class="edge">
<title>paid_leave_grant_history:w&#45;&gt;user:e</title>
<path fill="none" stroke="#000000" d="M247.8451,-184.675C215.314,-194.1734 211.9642,-234.7 170.5,-234.7"/>
<polygon fill="#000000" stroke="#000000" points="254.5717,-183.7685 262.9808,-186.2677 258.5358,-183.2343 262.5,-182.7 262.5,-182.7 262.5,-182.7 258.5358,-183.2343 262.0192,-179.1323 254.5717,-183.7685 254.5717,-183.7685"/>
<ellipse fill="none" stroke="#000000" cx="251.4003" cy="-184.1959" rx="3.2" ry="3.2"/>
</g>
</g>
</svg>
