<?xml version="1.0" encoding="UTF-8" standalone="no"?>
<!DOCTYPE svg PUBLIC "-//W3C//DTD SVG 1.1//EN"
 "http://www.w3.org/Graphics/SVG/1.1/DTD/svg11.dtd">
<!-- Generated by graphviz version 2.40.1 (20161225.0304)
 -->
<!-- Title: twoDegreesRelationshipsDiagram Pages: 1 -->
<svg width="580pt" height="603pt"
 viewBox="0.00 0.00 580.00 603.20" xmlns="http://www.w3.org/2000/svg" xmlns:xlink="http://www.w3.org/1999/xlink">
<g id="graph0" class="graph" transform="scale(1 1) rotate(0) translate(4 599.2)">
<title>twoDegreesRelationshipsDiagram</title>
<polygon fill="#ffffff" stroke="transparent" points="-4,4 -4,-599.2 576,-599.2 576,4 -4,4"/>
<text text-anchor="middle" x="72.4936" y="-7.3" font-family="Helvetica,sans-Serif" font-size="11.00" fill="#000000">Generated by SchemaSpy</text>
<!-- account -->
<g id="node1" class="node">
<title>account</title>
<g id="a_node1"><a xlink:href="../../tables/account.html" xlink:title="account" target="_top">
<polygon fill="#ffffff" stroke="transparent" points="434.5,-530.2 434.5,-591.2 515.5,-591.2 515.5,-530.2 434.5,-530.2"/>
<polygon fill="#f5f5f5" stroke="transparent" points="435,-567.7 435,-590.7 516,-590.7 516,-567.7 435,-567.7"/>
<polygon fill="none" stroke="#000000" points="435,-567.7 435,-590.7 516,-590.7 516,-567.7 435,-567.7"/>
<text text-anchor="start" x="439.7418" y="-576.8" font-family="Helvetica,sans-Serif" font-weight="bold" font-size="11.00" fill="#000000">account</text>
<text text-anchor="start" x="481.5219" y="-575.8" font-family="Helvetica,sans-Serif" font-size="11.00" fill="#000000">[table]</text>
<polygon fill="none" stroke="#000000" points="435,-548.7 435,-567.7 516,-567.7 516,-548.7 435,-548.7"/>
<text text-anchor="start" x="438" y="-554.8" font-family="Helvetica,sans-Serif" font-size="11.00" fill="#000000">...</text>
<polygon fill="#ffffff" stroke="transparent" points="435,-529.7 435,-548.7 461,-548.7 461,-529.7 435,-529.7"/>
<polygon fill="none" stroke="#000000" points="435,-529.7 435,-548.7 461,-548.7 461,-529.7 435,-529.7"/>
<text text-anchor="start" x="438" y="-535.8" font-family="Helvetica,sans-Serif" font-size="11.00" fill="#000000">&lt; 1</text>
<polygon fill="#ffffff" stroke="transparent" points="461,-529.7 461,-548.7 501,-548.7 501,-529.7 461,-529.7"/>
<polygon fill="none" stroke="#000000" points="461,-529.7 461,-548.7 501,-548.7 501,-529.7 461,-529.7"/>
<text text-anchor="start" x="465.6105" y="-535.8" font-family="Helvetica,sans-Serif" font-size="11.00" fill="#000000">3 rows</text>
<polygon fill="#ffffff" stroke="transparent" points="501,-529.7 501,-548.7 516,-548.7 516,-529.7 501,-529.7"/>
<polygon fill="none" stroke="#000000" points="501,-529.7 501,-548.7 516,-548.7 516,-529.7 501,-529.7"/>
<text text-anchor="start" x="506.8862" y="-535.8" font-family="Helvetica,sans-Serif" font-size="11.00" fill="#000000"> &#160;</text>
</a>
</g>
</g>
<!-- user -->
<g id="node2" class="node">
<title>user</title>
<g id="a_node2"><a xlink:href="../../tables/user.html" xlink:title="user" target="_top">
<polygon fill="#ffffff" stroke="transparent" points="216,-241.2 216,-346.2 337,-346.2 337,-241.2 216,-241.2"/>
<polygon fill="#f5f5f5" stroke="transparent" points="216.5,-322.7 216.5,-345.7 337.5,-345.7 337.5,-322.7 216.5,-322.7"/>
<polygon fill="none" stroke="#000000" points="216.5,-322.7 216.5,-345.7 337.5,-345.7 337.5,-322.7 216.5,-322.7"/>
<text text-anchor="start" x="221.5" y="-331.8" font-family="Helvetica,sans-Serif" font-weight="bold" font-size="11.00" fill="#000000">user</text>
<text text-anchor="start" x="302.5437" y="-330.8" font-family="Helvetica,sans-Serif" font-size="11.00" fill="#000000">[table]</text>
<polygon fill="none" stroke="#000000" points="216.5,-300.7 216.5,-322.7 337.5,-322.7 337.5,-300.7 216.5,-300.7"/>
<image xlink:href="../../images/primaryKeys.png" width="11px" height="12px" preserveAspectRatio="xMinYMin meet" x="221.5" y="-317.7"/>
<text text-anchor="start" x="236.5" y="-307.8" font-family="Helvetica,sans-Serif" font-size="11.00" fill="#000000">id</text>
<polygon fill="none" stroke="#000000" points="216.5,-278.7 216.5,-300.7 337.5,-300.7 337.5,-278.7 216.5,-278.7"/>
<image xlink:href="../../images/foreignKeys.png" width="11px" height="12px" preserveAspectRatio="xMinYMin meet" x="221.5" y="-295.7"/>
<text text-anchor="start" x="236.5" y="-285.8" font-family="Helvetica,sans-Serif" font-size="11.00" fill="#000000">status</text>
<polygon fill="none" stroke="#000000" points="216.5,-259.7 216.5,-278.7 337.5,-278.7 337.5,-259.7 216.5,-259.7"/>
<text text-anchor="start" x="219.5" y="-265.8" font-family="Helvetica,sans-Serif" font-size="11.00" fill="#000000">...</text>
<polygon fill="#ffffff" stroke="transparent" points="216.5,-240.7 216.5,-259.7 257.5,-259.7 257.5,-240.7 216.5,-240.7"/>
<polygon fill="none" stroke="#000000" points="216.5,-240.7 216.5,-259.7 257.5,-259.7 257.5,-240.7 216.5,-240.7"/>
<text text-anchor="start" x="219.5" y="-246.8" font-family="Helvetica,sans-Serif" font-size="11.00" fill="#000000">&lt; 1</text>
<polygon fill="#ffffff" stroke="transparent" points="257.5,-240.7 257.5,-259.7 305.5,-259.7 305.5,-240.7 257.5,-240.7"/>
<polygon fill="none" stroke="#000000" points="257.5,-240.7 257.5,-259.7 305.5,-259.7 305.5,-240.7 257.5,-240.7"/>
<text text-anchor="start" x="270.1105" y="-246.8" font-family="Helvetica,sans-Serif" font-size="11.00" fill="#000000">3 rows</text>
<polygon fill="#ffffff" stroke="transparent" points="305.5,-240.7 305.5,-259.7 337.5,-259.7 337.5,-240.7 305.5,-240.7"/>
<polygon fill="none" stroke="#000000" points="305.5,-240.7 305.5,-259.7 337.5,-259.7 337.5,-240.7 305.5,-240.7"/>
<text text-anchor="start" x="318.9053" y="-246.8" font-family="Helvetica,sans-Serif" font-size="11.00" fill="#000000">7 &gt;</text>
</a>
</g>
</g>
<!-- account&#45;&gt;user -->
<g id="edge1" class="edge">
<title>account:w&#45;&gt;user:e</title>
<path fill="none" stroke="#000000" d="M424.5014,-557.1066C402.0217,-554.3371 392.7677,-541.8734 378,-519.7 351.8968,-480.5067 384.5903,-311.7 337.5,-311.7"/>
<polygon fill="#000000" stroke="#000000" points="434.4271,-553.6612 433.9755,-561.6485 432.378,-561.5582 432.8296,-553.5709 434.4271,-553.6612"/>
<polyline fill="none" stroke="#000000" points="435,-557.7 431.0064,-557.4742 "/>
<ellipse fill="none" stroke="#000000" cx="427.8115" cy="-557.2936" rx="3.2" ry="3.2"/>
</g>
<!-- user_status -->
<g id="node8" class="node">
<title>user_status</title>
<g id="a_node8"><a xlink:href="../../tables/user_status.html" xlink:title="user_status" target="_top">
<polygon fill="#ffffff" stroke="transparent" points="8,-257.7 8,-325.7 167,-325.7 167,-257.7 8,-257.7"/>
<polygon fill="#f5f5f5" stroke="transparent" points="10.5,-300.7 10.5,-323.7 165.5,-323.7 165.5,-300.7 10.5,-300.7"/>
<polygon fill="none" stroke="#000000" points="10.5,-300.7 10.5,-323.7 165.5,-323.7 165.5,-300.7 10.5,-300.7"/>
<text text-anchor="start" x="15.5" y="-309.8" font-family="Helvetica,sans-Serif" font-weight="bold" font-size="11.00" fill="#000000">user_status</text>
<text text-anchor="start" x="130.5437" y="-308.8" font-family="Helvetica,sans-Serif" font-size="11.00" fill="#000000">[table]</text>
<polygon fill="none" stroke="#000000" points="10.5,-278.7 10.5,-300.7 98.5,-300.7 98.5,-278.7 10.5,-278.7"/>
<image xlink:href="../../images/primaryKeys.png" width="11px" height="12px" preserveAspectRatio="xMinYMin meet" x="15.5" y="-295.7"/>
<text text-anchor="start" x="30.5" y="-285.8" font-family="Helvetica,sans-Serif" font-size="11.00" fill="#000000">status</text>
<polygon fill="none" stroke="#000000" points="98.5,-278.7 98.5,-300.7 165.5,-300.7 165.5,-278.7 98.5,-278.7"/>
<text text-anchor="start" x="101.4365" y="-286.4" font-family="Helvetica,sans-Serif" font-size="11.00" fill="#000000">varchar[100]</text>
<polygon fill="#ffffff" stroke="transparent" points="10.5,-259.7 10.5,-278.7 45.5,-278.7 45.5,-259.7 10.5,-259.7"/>
<polygon fill="none" stroke="#000000" points="10.5,-259.7 10.5,-278.7 45.5,-278.7 45.5,-259.7 10.5,-259.7"/>
<text text-anchor="start" x="13.5" y="-265.8" font-family="Helvetica,sans-Serif" font-size="11.00" fill="#000000">&lt; 0</text>
<polygon fill="#ffffff" stroke="transparent" points="45.5,-259.7 45.5,-278.7 98.5,-278.7 98.5,-259.7 45.5,-259.7"/>
<polygon fill="none" stroke="#000000" points="45.5,-259.7 45.5,-278.7 98.5,-278.7 98.5,-259.7 45.5,-259.7"/>
<text text-anchor="start" x="63.1105" y="-265.8" font-family="Helvetica,sans-Serif" font-size="11.00" fill="#000000">3 rows</text>
<polygon fill="#ffffff" stroke="transparent" points="98.5,-259.7 98.5,-278.7 165.5,-278.7 165.5,-259.7 98.5,-259.7"/>
<polygon fill="none" stroke="#000000" points="98.5,-259.7 98.5,-278.7 165.5,-278.7 165.5,-259.7 98.5,-259.7"/>
<text text-anchor="start" x="146.9053" y="-265.8" font-family="Helvetica,sans-Serif" font-size="11.00" fill="#000000">1 &gt;</text>
<polygon fill="none" stroke="#000000" stroke-width="2" points="9,-258.7 9,-324.7 166,-324.7 166,-258.7 9,-258.7"/>
</a>
</g>
</g>
<!-- user&#45;&gt;user_status -->
<g id="edge7" class="edge">
<title>user:w&#45;&gt;user_status:e</title>
<path fill="none" stroke="#000000" d="M201.776,-289.7C189.7815,-289.7 182.3229,-289.7 165.5,-289.7"/>
<polygon fill="#000000" stroke="#000000" points="208.5,-289.7001 216.5,-293.3 212.5,-289.7 216.5,-289.7 216.5,-289.7 216.5,-289.7 212.5,-289.7 216.5,-286.1 208.5,-289.7001 208.5,-289.7001"/>
<ellipse fill="none" stroke="#000000" cx="205.3" cy="-289.7001" rx="3.2" ry="3.2"/>
</g>
<!-- alert_for_taking_paid_leave -->
<g id="node3" class="node">
<title>alert_for_taking_paid_leave</title>
<g id="a_node3"><a xlink:href="../../tables/alert_for_taking_paid_leave.html" xlink:title="alert_for_taking_paid_leave" target="_top">
<polygon fill="#ffffff" stroke="transparent" points="386,-448.2 386,-509.2 564,-509.2 564,-448.2 386,-448.2"/>
<polygon fill="#f5f5f5" stroke="transparent" points="386,-485.7 386,-508.7 564,-508.7 564,-485.7 386,-485.7"/>
<polygon fill="none" stroke="#000000" points="386,-485.7 386,-508.7 564,-508.7 564,-485.7 386,-485.7"/>
<text text-anchor="start" x="390.9518" y="-494.8" font-family="Helvetica,sans-Serif" font-weight="bold" font-size="11.00" fill="#000000">alert_for_taking_paid_leave</text>
<text text-anchor="start" x="529.5219" y="-493.8" font-family="Helvetica,sans-Serif" font-size="11.00" fill="#000000">[table]</text>
<polygon fill="none" stroke="#000000" points="386,-466.7 386,-485.7 564,-485.7 564,-466.7 386,-466.7"/>
<text text-anchor="start" x="389" y="-472.8" font-family="Helvetica,sans-Serif" font-size="11.00" fill="#000000">...</text>
<polygon fill="#ffffff" stroke="transparent" points="386,-447.7 386,-466.7 463,-466.7 463,-447.7 386,-447.7"/>
<polygon fill="none" stroke="#000000" points="386,-447.7 386,-466.7 463,-466.7 463,-447.7 386,-447.7"/>
<text text-anchor="start" x="389" y="-453.8" font-family="Helvetica,sans-Serif" font-size="11.00" fill="#000000">&lt; 1</text>
<polygon fill="#ffffff" stroke="transparent" points="463,-447.7 463,-466.7 523,-466.7 523,-447.7 463,-447.7"/>
<polygon fill="none" stroke="#000000" points="463,-447.7 463,-466.7 523,-466.7 523,-447.7 463,-447.7"/>
<text text-anchor="start" x="493.1105" y="-453.8" font-family="Helvetica,sans-Serif" font-size="11.00" fill="#000000">1 row</text>
<polygon fill="#ffffff" stroke="transparent" points="523,-447.7 523,-466.7 564,-466.7 564,-447.7 523,-447.7"/>
<polygon fill="none" stroke="#000000" points="523,-447.7 523,-466.7 564,-466.7 564,-447.7 523,-447.7"/>
<text text-anchor="start" x="554.8862" y="-453.8" font-family="Helvetica,sans-Serif" font-size="11.00" fill="#000000"> &#160;</text>
</a>
</g>
</g>
<!-- alert_for_taking_paid_leave&#45;&gt;user -->
<g id="edge2" class="edge">
<title>alert_for_taking_paid_leave:w&#45;&gt;user:e</title>
<path fill="none" stroke="#000000" d="M375.4202,-474.3799C320.4093,-458.8592 409.5011,-311.7 337.5,-311.7"/>
<polygon fill="#000000" stroke="#000000" points="385.7015,-471.6317 384.7109,-479.5702 383.1232,-479.372 384.1138,-471.4336 385.7015,-471.6317"/>
<polyline fill="none" stroke="#000000" points="386,-475.7 382.0308,-475.2047 "/>
<ellipse fill="none" stroke="#000000" cx="378.8554" cy="-474.8085" rx="3.2" ry="3.2"/>
</g>
<!-- leave_period -->
<g id="node4" class="node">
<title>leave_period</title>
<g id="a_node4"><a xlink:href="../../tables/leave_period.html" xlink:title="leave_period" target="_top">
<polygon fill="#ffffff" stroke="transparent" points="422.5,-366.2 422.5,-427.2 527.5,-427.2 527.5,-366.2 422.5,-366.2"/>
<polygon fill="#f5f5f5" stroke="transparent" points="423,-403.7 423,-426.7 528,-426.7 528,-403.7 423,-403.7"/>
<polygon fill="none" stroke="#000000" points="423,-403.7 423,-426.7 528,-426.7 528,-403.7 423,-403.7"/>
<text text-anchor="start" x="427.5186" y="-412.8" font-family="Helvetica,sans-Serif" font-weight="bold" font-size="11.00" fill="#000000">leave_period</text>
<text text-anchor="start" x="493.5219" y="-411.8" font-family="Helvetica,sans-Serif" font-size="11.00" fill="#000000">[table]</text>
<polygon fill="none" stroke="#000000" points="423,-384.7 423,-403.7 528,-403.7 528,-384.7 423,-384.7"/>
<text text-anchor="start" x="426" y="-390.8" font-family="Helvetica,sans-Serif" font-size="11.00" fill="#000000">...</text>
<polygon fill="#ffffff" stroke="transparent" points="423,-365.7 423,-384.7 461,-384.7 461,-365.7 423,-365.7"/>
<polygon fill="none" stroke="#000000" points="423,-365.7 423,-384.7 461,-384.7 461,-365.7 423,-365.7"/>
<text text-anchor="start" x="426" y="-371.8" font-family="Helvetica,sans-Serif" font-size="11.00" fill="#000000">&lt; 1</text>
<polygon fill="#ffffff" stroke="transparent" points="461,-365.7 461,-384.7 507,-384.7 507,-365.7 461,-365.7"/>
<polygon fill="none" stroke="#000000" points="461,-365.7 461,-384.7 507,-384.7 507,-365.7 461,-365.7"/>
<text text-anchor="start" x="471.6105" y="-371.8" font-family="Helvetica,sans-Serif" font-size="11.00" fill="#000000">0 rows</text>
<polygon fill="#ffffff" stroke="transparent" points="507,-365.7 507,-384.7 528,-384.7 528,-365.7 507,-365.7"/>
<polygon fill="none" stroke="#000000" points="507,-365.7 507,-384.7 528,-384.7 528,-365.7 507,-365.7"/>
<text text-anchor="start" x="518.8862" y="-371.8" font-family="Helvetica,sans-Serif" font-size="11.00" fill="#000000"> &#160;</text>
</a>
</g>
</g>
<!-- leave_period&#45;&gt;user -->
<g id="edge3" class="edge">
<title>leave_period:w&#45;&gt;user:e</title>
<path fill="none" stroke="#000000" d="M408.7249,-390.8891C395.8842,-384.7788 392.6189,-369.7071 378,-355.7 358.8088,-337.312 364.0786,-311.7 337.5,-311.7"/>
<polygon fill="#000000" stroke="#000000" points="415.1507,-392.1544 422.3045,-397.2322 419.0754,-392.9272 423,-393.7 423,-393.7 423,-393.7 419.0754,-392.9272 423.6955,-390.1678 415.1507,-392.1544 415.1507,-392.1544"/>
<ellipse fill="none" stroke="#000000" cx="412.011" cy="-391.5361" rx="3.2" ry="3.2"/>
</g>
<!-- manager -->
<g id="node5" class="node">
<title>manager</title>
<g id="a_node5"><a xlink:href="../../tables/manager.html" xlink:title="manager" target="_top">
<polygon fill="#ffffff" stroke="transparent" points="432,-284.2 432,-345.2 518,-345.2 518,-284.2 432,-284.2"/>
<polygon fill="#f5f5f5" stroke="transparent" points="432,-321.7 432,-344.7 518,-344.7 518,-321.7 432,-321.7"/>
<polygon fill="none" stroke="#000000" points="432,-321.7 432,-344.7 518,-344.7 518,-321.7 432,-321.7"/>
<text text-anchor="start" x="436.8009" y="-330.8" font-family="Helvetica,sans-Serif" font-weight="bold" font-size="11.00" fill="#000000">manager</text>
<text text-anchor="start" x="483.5219" y="-329.8" font-family="Helvetica,sans-Serif" font-size="11.00" fill="#000000">[table]</text>
<polygon fill="none" stroke="#000000" points="432,-302.7 432,-321.7 518,-321.7 518,-302.7 432,-302.7"/>
<text text-anchor="start" x="435" y="-308.8" font-family="Helvetica,sans-Serif" font-size="11.00" fill="#000000">...</text>
<polygon fill="#ffffff" stroke="transparent" points="432,-283.7 432,-302.7 460,-302.7 460,-283.7 432,-283.7"/>
<polygon fill="none" stroke="#000000" points="432,-283.7 432,-302.7 460,-302.7 460,-283.7 432,-283.7"/>
<text text-anchor="start" x="435" y="-289.8" font-family="Helvetica,sans-Serif" font-size="11.00" fill="#000000">&lt; 2</text>
<polygon fill="#ffffff" stroke="transparent" points="460,-283.7 460,-302.7 502,-302.7 502,-283.7 460,-283.7"/>
<polygon fill="none" stroke="#000000" points="460,-283.7 460,-302.7 502,-302.7 502,-283.7 460,-283.7"/>
<text text-anchor="start" x="466.6105" y="-289.8" font-family="Helvetica,sans-Serif" font-size="11.00" fill="#000000">0 rows</text>
<polygon fill="#ffffff" stroke="transparent" points="502,-283.7 502,-302.7 518,-302.7 518,-283.7 502,-283.7"/>
<polygon fill="none" stroke="#000000" points="502,-283.7 502,-302.7 518,-302.7 518,-283.7 502,-283.7"/>
<text text-anchor="start" x="508.8862" y="-289.8" font-family="Helvetica,sans-Serif" font-size="11.00" fill="#000000"> &#160;</text>
</a>
</g>
</g>
<!-- manager&#45;&gt;user -->
<g id="edge4" class="edge">
<title>manager:w&#45;&gt;user:e</title>
<path fill="none" stroke="#000000" d="M417.1932,-311.7C386.7695,-311.7 374.0859,-311.7 337.5,-311.7"/>
<polygon fill="#000000" stroke="#000000" points="424,-311.7001 432,-315.3 428,-311.7 432,-311.7 432,-311.7 432,-311.7 428,-311.7 432,-308.1 424,-311.7001 424,-311.7001"/>
<ellipse fill="none" stroke="#000000" cx="420.8" cy="-311.7001" rx="3.2" ry="3.2"/>
</g>
<!-- member -->
<g id="node6" class="node">
<title>member</title>
<g id="a_node6"><a xlink:href="../../tables/member.html" xlink:title="member" target="_top">
<polygon fill="#ffffff" stroke="transparent" points="433.5,-202.2 433.5,-263.2 516.5,-263.2 516.5,-202.2 433.5,-202.2"/>
<polygon fill="#f5f5f5" stroke="transparent" points="434,-239.7 434,-262.7 517,-262.7 517,-239.7 434,-239.7"/>
<polygon fill="none" stroke="#000000" points="434,-239.7 434,-262.7 517,-262.7 517,-239.7 434,-239.7"/>
<text text-anchor="start" x="438.8348" y="-248.8" font-family="Helvetica,sans-Serif" font-weight="bold" font-size="11.00" fill="#000000">member</text>
<text text-anchor="start" x="482.5219" y="-247.8" font-family="Helvetica,sans-Serif" font-size="11.00" fill="#000000">[table]</text>
<polygon fill="none" stroke="#000000" points="434,-220.7 434,-239.7 517,-239.7 517,-220.7 434,-220.7"/>
<text text-anchor="start" x="437" y="-226.8" font-family="Helvetica,sans-Serif" font-size="11.00" fill="#000000">...</text>
<polygon fill="#ffffff" stroke="transparent" points="434,-201.7 434,-220.7 461,-220.7 461,-201.7 434,-201.7"/>
<polygon fill="none" stroke="#000000" points="434,-201.7 434,-220.7 461,-220.7 461,-201.7 434,-201.7"/>
<text text-anchor="start" x="437" y="-207.8" font-family="Helvetica,sans-Serif" font-size="11.00" fill="#000000">&lt; 2</text>
<polygon fill="#ffffff" stroke="transparent" points="461,-201.7 461,-220.7 502,-220.7 502,-201.7 461,-201.7"/>
<polygon fill="none" stroke="#000000" points="461,-201.7 461,-220.7 502,-220.7 502,-201.7 461,-201.7"/>
<text text-anchor="start" x="466.6105" y="-207.8" font-family="Helvetica,sans-Serif" font-size="11.00" fill="#000000">0 rows</text>
<polygon fill="#ffffff" stroke="transparent" points="502,-201.7 502,-220.7 517,-220.7 517,-201.7 502,-201.7"/>
<polygon fill="none" stroke="#000000" points="502,-201.7 502,-220.7 517,-220.7 517,-201.7 502,-201.7"/>
<text text-anchor="start" x="507.8862" y="-207.8" font-family="Helvetica,sans-Serif" font-size="11.00" fill="#000000"> &#160;</text>
</a>
</g>
</g>
<!-- member&#45;&gt;user -->
<g id="edge5" class="edge">
<title>member:w&#45;&gt;user:e</title>
<path fill="none" stroke="#000000" d="M419.6515,-231.8125C401.4616,-238.0112 397.6947,-256.7798 378,-273.7 359.2778,-289.7846 362.1827,-311.7 337.5,-311.7"/>
<polygon fill="#000000" stroke="#000000" points="426.0853,-230.8653 434.5244,-233.2616 430.0427,-230.2826 434,-229.7 434,-229.7 434,-229.7 430.0427,-230.2826 433.4756,-226.1384 426.0853,-230.8653 426.0853,-230.8653"/>
<ellipse fill="none" stroke="#000000" cx="422.9194" cy="-231.3314" rx="3.2" ry="3.2"/>
</g>
<!-- paid_leave_grant_history -->
<g id="node7" class="node">
<title>paid_leave_grant_history</title>
<g id="a_node7"><a xlink:href="../../tables/paid_leave_grant_history.html" xlink:title="paid_leave_grant_history" target="_top">
<polygon fill="#ffffff" stroke="transparent" points="392.5,-120.2 392.5,-181.2 557.5,-181.2 557.5,-120.2 392.5,-120.2"/>
<polygon fill="#f5f5f5" stroke="transparent" points="393,-157.7 393,-180.7 558,-180.7 558,-157.7 393,-157.7"/>
<polygon fill="none" stroke="#000000" points="393,-157.7 393,-180.7 558,-180.7 558,-157.7 393,-157.7"/>
<text text-anchor="start" x="397.5656" y="-166.8" font-family="Helvetica,sans-Serif" font-weight="bold" font-size="11.00" fill="#000000">paid_leave_grant_history</text>
<text text-anchor="start" x="523.5219" y="-165.8" font-family="Helvetica,sans-Serif" font-size="11.00" fill="#000000">[table]</text>
<polygon fill="none" stroke="#000000" points="393,-138.7 393,-157.7 558,-157.7 558,-138.7 393,-138.7"/>
<text text-anchor="start" x="396" y="-144.8" font-family="Helvetica,sans-Serif" font-size="11.00" fill="#000000">...</text>
<polygon fill="#ffffff" stroke="transparent" points="393,-119.7 393,-138.7 461,-138.7 461,-119.7 393,-119.7"/>
<polygon fill="none" stroke="#000000" points="393,-119.7 393,-138.7 461,-138.7 461,-119.7 393,-119.7"/>
<text text-anchor="start" x="396" y="-125.8" font-family="Helvetica,sans-Serif" font-size="11.00" fill="#000000">&lt; 2</text>
<polygon fill="#ffffff" stroke="transparent" points="461,-119.7 461,-138.7 522,-138.7 522,-119.7 461,-119.7"/>
<polygon fill="none" stroke="#000000" points="461,-119.7 461,-138.7 522,-138.7 522,-119.7 461,-119.7"/>
<text text-anchor="start" x="486.6105" y="-125.8" font-family="Helvetica,sans-Serif" font-size="11.00" fill="#000000">0 rows</text>
<polygon fill="#ffffff" stroke="transparent" points="522,-119.7 522,-138.7 558,-138.7 558,-119.7 522,-119.7"/>
<polygon fill="none" stroke="#000000" points="522,-119.7 522,-138.7 558,-138.7 558,-119.7 522,-119.7"/>
<text text-anchor="start" x="548.8862" y="-125.8" font-family="Helvetica,sans-Serif" font-size="11.00" fill="#000000"> &#160;</text>
</a>
</g>
</g>
<!-- paid_leave_grant_history&#45;&gt;user -->
<g id="edge6" class="edge">
<title>paid_leave_grant_history:w&#45;&gt;user:e</title>
<path fill="none" stroke="#000000" d="M378.621,-150.276C329.6907,-171.1404 408.7385,-311.7 337.5,-311.7"/>
<polygon fill="#000000" stroke="#000000" points="385.1254,-149.1108 393.6349,-151.2436 389.0627,-148.4054 393,-147.7 393,-147.7 393,-147.7 389.0627,-148.4054 392.3651,-144.1564 385.1254,-149.1108 385.1254,-149.1108"/>
<ellipse fill="none" stroke="#000000" cx="381.9755" cy="-149.6751" rx="3.2" ry="3.2"/>
</g>
<!-- user_rule -->
<g id="node9" class="node">
<title>user_rule</title>
<g id="a_node9"><a xlink:href="../../tables/user_rule.html" xlink:title="user_rule" target="_top">
<polygon fill="#ffffff" stroke="transparent" points="431,-38.2 431,-99.2 519,-99.2 519,-38.2 431,-38.2"/>
<polygon fill="#f5f5f5" stroke="transparent" points="431,-75.7 431,-98.7 519,-98.7 519,-75.7 431,-75.7"/>
<polygon fill="none" stroke="#000000" points="431,-75.7 431,-98.7 519,-98.7 519,-75.7 431,-75.7"/>
<text text-anchor="start" x="435.5804" y="-84.8" font-family="Helvetica,sans-Serif" font-weight="bold" font-size="11.00" fill="#000000">user_rule</text>
<text text-anchor="start" x="484.5219" y="-83.8" font-family="Helvetica,sans-Serif" font-size="11.00" fill="#000000">[table]</text>
<polygon fill="none" stroke="#000000" points="431,-56.7 431,-75.7 519,-75.7 519,-56.7 431,-56.7"/>
<text text-anchor="start" x="434" y="-62.8" font-family="Helvetica,sans-Serif" font-size="11.00" fill="#000000">...</text>
<polygon fill="#ffffff" stroke="transparent" points="431,-37.7 431,-56.7 460,-56.7 460,-37.7 431,-37.7"/>
<polygon fill="none" stroke="#000000" points="431,-37.7 431,-56.7 460,-56.7 460,-37.7 431,-37.7"/>
<text text-anchor="start" x="434" y="-43.8" font-family="Helvetica,sans-Serif" font-size="11.00" fill="#000000">&lt; 2</text>
<polygon fill="#ffffff" stroke="transparent" points="460,-37.7 460,-56.7 502,-56.7 502,-37.7 460,-37.7"/>
<polygon fill="none" stroke="#000000" points="460,-37.7 460,-56.7 502,-56.7 502,-37.7 460,-37.7"/>
<text text-anchor="start" x="466.6105" y="-43.8" font-family="Helvetica,sans-Serif" font-size="11.00" fill="#000000">2 rows</text>
<polygon fill="#ffffff" stroke="transparent" points="502,-37.7 502,-56.7 519,-56.7 519,-37.7 502,-37.7"/>
<polygon fill="none" stroke="#000000" points="502,-37.7 502,-56.7 519,-56.7 519,-37.7 502,-37.7"/>
<text text-anchor="start" x="509.8862" y="-43.8" font-family="Helvetica,sans-Serif" font-size="11.00" fill="#000000"> &#160;</text>
</a>
</g>
</g>
<!-- user_rule&#45;&gt;user -->
<g id="edge8" class="edge">
<title>user_rule:w&#45;&gt;user:e</title>
<path fill="none" stroke="#000000" d="M420.5761,-66.5122C398.5695,-70.2611 391.7244,-86.6946 378,-109.7 354.5445,-149.0173 383.2822,-311.7 337.5,-311.7"/>
<polygon fill="#000000" stroke="#000000" points="429.8916,-61.7742 430.5132,-69.7501 428.918,-69.8744 428.2965,-61.8986 429.8916,-61.7742"/>
<polyline fill="none" stroke="#000000" points="431,-65.7 427.0121,-66.0108 "/>
<ellipse fill="none" stroke="#000000" cx="423.8218" cy="-66.2594" rx="3.2" ry="3.2"/>
</g>
</g>
</svg>
