<?xml version="1.0" encoding="UTF-8" standalone="no"?>
<!DOCTYPE svg PUBLIC "-//W3C//DTD SVG 1.1//EN"
 "http://www.w3.org/Graphics/SVG/1.1/DTD/svg11.dtd">
<!-- Generated by graphviz version 2.40.1 (20161225.0304)
 -->
<!-- Title: oneDegreeRelationshipsDiagram Pages: 1 -->
<svg width="360pt" height="259pt"
 viewBox="0.00 0.00 360.00 259.20" xmlns="http://www.w3.org/2000/svg" xmlns:xlink="http://www.w3.org/1999/xlink">
<g id="graph0" class="graph" transform="scale(1 1) rotate(0) translate(4 255.2)">
<title>oneDegreeRelationshipsDiagram</title>
<polygon fill="#ffffff" stroke="transparent" points="-4,4 -4,-255.2 356,-255.2 356,4 -4,4"/>
<text text-anchor="middle" x="72.4936" y="-7.3" font-family="Helvetica,sans-Serif" font-size="11.00" fill="#000000">Generated by SchemaSpy</text>
<!-- user_rule -->
<g id="node1" class="node">
<title>user_rule</title>
<g id="a_node1"><a xlink:href="../../tables/user_rule.html" xlink:title="user_rule" target="_top">
<polygon fill="#ffffff" stroke="transparent" points="223,-106.7 223,-196.7 344,-196.7 344,-106.7 223,-106.7"/>
<polygon fill="#f5f5f5" stroke="transparent" points="225.5,-171.7 225.5,-194.7 342.5,-194.7 342.5,-171.7 225.5,-171.7"/>
<polygon fill="none" stroke="#000000" points="225.5,-171.7 225.5,-194.7 342.5,-194.7 342.5,-171.7 225.5,-171.7"/>
<text text-anchor="start" x="230.5" y="-180.8" font-family="Helvetica,sans-Serif" font-weight="bold" font-size="11.00" fill="#000000">user_rule</text>
<text text-anchor="start" x="307.5437" y="-179.8" font-family="Helvetica,sans-Serif" font-size="11.00" fill="#000000">[table]</text>
<polygon fill="none" stroke="#000000" points="225.5,-149.7 225.5,-171.7 300.5,-171.7 300.5,-149.7 225.5,-149.7"/>
<image xlink:href="../../images/primaryKeys.png" width="11px" height="12px" preserveAspectRatio="xMinYMin meet" x="230.5" y="-166.7"/>
<text text-anchor="start" x="245.5" y="-156.8" font-family="Helvetica,sans-Serif" font-size="11.00" fill="#000000">user_id</text>
<polygon fill="none" stroke="#000000" points="300.5,-149.7 300.5,-171.7 342.5,-171.7 342.5,-149.7 300.5,-149.7"/>
<text text-anchor="start" x="303.4644" y="-157.4" font-family="Helvetica,sans-Serif" font-size="11.00" fill="#000000">int4[10]</text>
<polygon fill="none" stroke="#000000" points="225.5,-127.7 225.5,-149.7 300.5,-149.7 300.5,-127.7 225.5,-127.7"/>
<image xlink:href="../../images/foreignKeys.png" width="11px" height="12px" preserveAspectRatio="xMinYMin meet" x="230.5" y="-144.7"/>
<text text-anchor="start" x="245.5" y="-134.8" font-family="Helvetica,sans-Serif" font-size="11.00" fill="#000000">rule_id</text>
<polygon fill="none" stroke="#000000" points="300.5,-127.7 300.5,-149.7 342.5,-149.7 342.5,-127.7 300.5,-127.7"/>
<text text-anchor="start" x="303.4644" y="-135.4" font-family="Helvetica,sans-Serif" font-size="11.00" fill="#000000">int4[10]</text>
<polygon fill="#ffffff" stroke="transparent" points="225.5,-108.7 225.5,-127.7 254.5,-127.7 254.5,-108.7 225.5,-108.7"/>
<polygon fill="none" stroke="#000000" points="225.5,-108.7 225.5,-127.7 254.5,-127.7 254.5,-108.7 225.5,-108.7"/>
<text text-anchor="start" x="228.5" y="-114.8" font-family="Helvetica,sans-Serif" font-size="11.00" fill="#000000">&lt; 2</text>
<polygon fill="#ffffff" stroke="transparent" points="254.5,-108.7 254.5,-127.7 300.5,-127.7 300.5,-108.7 254.5,-108.7"/>
<polygon fill="none" stroke="#000000" points="254.5,-108.7 254.5,-127.7 300.5,-127.7 300.5,-108.7 254.5,-108.7"/>
<text text-anchor="start" x="265.1105" y="-114.8" font-family="Helvetica,sans-Serif" font-size="11.00" fill="#000000">2 rows</text>
<polygon fill="#ffffff" stroke="transparent" points="300.5,-108.7 300.5,-127.7 342.5,-127.7 342.5,-108.7 300.5,-108.7"/>
<polygon fill="none" stroke="#000000" points="300.5,-108.7 300.5,-127.7 342.5,-127.7 342.5,-108.7 300.5,-108.7"/>
<text text-anchor="start" x="323.9053" y="-114.8" font-family="Helvetica,sans-Serif" font-size="11.00" fill="#000000">0 &gt;</text>
<polygon fill="none" stroke="#000000" stroke-width="2" points="224,-107.7 224,-195.7 343,-195.7 343,-107.7 224,-107.7"/>
</a>
</g>
</g>
<!-- granting_paid_leave_rule -->
<g id="node2" class="node">
<title>granting_paid_leave_rule</title>
<g id="a_node2"><a xlink:href="../../tables/granting_paid_leave_rule.html" xlink:title="granting_paid_leave_rule" target="_top">
<polygon fill="#ffffff" stroke="transparent" points="8,-38.2 8,-121.2 174,-121.2 174,-38.2 8,-38.2"/>
<polygon fill="#f5f5f5" stroke="transparent" points="8,-97.7 8,-120.7 174,-120.7 174,-97.7 8,-97.7"/>
<polygon fill="none" stroke="#000000" points="8,-97.7 8,-120.7 174,-120.7 174,-97.7 8,-97.7"/>
<text text-anchor="start" x="12.7587" y="-106.8" font-family="Helvetica,sans-Serif" font-weight="bold" font-size="11.00" fill="#000000">granting_paid_leave_rule</text>
<text text-anchor="start" x="139.5219" y="-105.8" font-family="Helvetica,sans-Serif" font-size="11.00" fill="#000000">[table]</text>
<polygon fill="none" stroke="#000000" points="8,-75.7 8,-97.7 174,-97.7 174,-75.7 8,-75.7"/>
<image xlink:href="../../images/primaryKeys.png" width="11px" height="12px" preserveAspectRatio="xMinYMin meet" x="13" y="-92.7"/>
<text text-anchor="start" x="29" y="-82.8" font-family="Helvetica,sans-Serif" font-size="11.00" fill="#000000">id</text>
<polygon fill="none" stroke="#000000" points="8,-56.7 8,-75.7 174,-75.7 174,-56.7 8,-56.7"/>
<text text-anchor="start" x="11" y="-62.8" font-family="Helvetica,sans-Serif" font-size="11.00" fill="#000000">...</text>
<polygon fill="#ffffff" stroke="transparent" points="8,-37.7 8,-56.7 70,-56.7 70,-37.7 8,-37.7"/>
<polygon fill="none" stroke="#000000" points="8,-37.7 8,-56.7 70,-56.7 70,-37.7 8,-37.7"/>
<text text-anchor="start" x="11" y="-43.8" font-family="Helvetica,sans-Serif" font-size="11.00" fill="#000000"> &#160;</text>
<polygon fill="#ffffff" stroke="transparent" points="70,-37.7 70,-56.7 127,-56.7 127,-37.7 70,-37.7"/>
<polygon fill="none" stroke="#000000" points="70,-37.7 70,-56.7 127,-56.7 127,-37.7 70,-37.7"/>
<text text-anchor="start" x="97.1105" y="-43.8" font-family="Helvetica,sans-Serif" font-size="11.00" fill="#000000">1 row</text>
<polygon fill="#ffffff" stroke="transparent" points="127,-37.7 127,-56.7 174,-56.7 174,-37.7 127,-37.7"/>
<polygon fill="none" stroke="#000000" points="127,-37.7 127,-56.7 174,-56.7 174,-37.7 127,-37.7"/>
<text text-anchor="start" x="155.4053" y="-43.8" font-family="Helvetica,sans-Serif" font-size="11.00" fill="#000000">2 &gt;</text>
</a>
</g>
</g>
<!-- user_rule&#45;&gt;granting_paid_leave_rule -->
<g id="edge1" class="edge">
<title>user_rule:w&#45;&gt;granting_paid_leave_rule:e</title>
<path fill="none" stroke="#000000" d="M211.4561,-133.9012C196.4356,-121.0281 200.4284,-86.7 174,-86.7"/>
<polygon fill="#000000" stroke="#000000" points="217.9297,-136.1132 224.3359,-142.1066 221.7149,-137.4066 225.5,-138.7 225.5,-138.7 225.5,-138.7 221.7149,-137.4066 226.6641,-135.2934 217.9297,-136.1132 217.9297,-136.1132"/>
<ellipse fill="none" stroke="#000000" cx="214.9016" cy="-135.0785" rx="3.2" ry="3.2"/>
</g>
<!-- user -->
<g id="node3" class="node">
<title>user</title>
<g id="a_node3"><a xlink:href="../../tables/user.html" xlink:title="user" target="_top">
<polygon fill="#ffffff" stroke="transparent" points="30.5,-142.2 30.5,-247.2 151.5,-247.2 151.5,-142.2 30.5,-142.2"/>
<polygon fill="#f5f5f5" stroke="transparent" points="31,-223.7 31,-246.7 152,-246.7 152,-223.7 31,-223.7"/>
<polygon fill="none" stroke="#000000" points="31,-223.7 31,-246.7 152,-246.7 152,-223.7 31,-223.7"/>
<text text-anchor="start" x="36" y="-232.8" font-family="Helvetica,sans-Serif" font-weight="bold" font-size="11.00" fill="#000000">user</text>
<text text-anchor="start" x="117.0437" y="-231.8" font-family="Helvetica,sans-Serif" font-size="11.00" fill="#000000">[table]</text>
<polygon fill="none" stroke="#000000" points="31,-201.7 31,-223.7 152,-223.7 152,-201.7 31,-201.7"/>
<image xlink:href="../../images/primaryKeys.png" width="11px" height="12px" preserveAspectRatio="xMinYMin meet" x="36" y="-218.7"/>
<text text-anchor="start" x="51" y="-208.8" font-family="Helvetica,sans-Serif" font-size="11.00" fill="#000000">id</text>
<polygon fill="none" stroke="#000000" points="31,-179.7 31,-201.7 152,-201.7 152,-179.7 31,-179.7"/>
<image xlink:href="../../images/foreignKeys.png" width="11px" height="12px" preserveAspectRatio="xMinYMin meet" x="36" y="-196.7"/>
<text text-anchor="start" x="51" y="-186.8" font-family="Helvetica,sans-Serif" font-size="11.00" fill="#000000">status</text>
<polygon fill="none" stroke="#000000" points="31,-160.7 31,-179.7 152,-179.7 152,-160.7 31,-160.7"/>
<text text-anchor="start" x="34" y="-166.8" font-family="Helvetica,sans-Serif" font-size="11.00" fill="#000000">...</text>
<polygon fill="#ffffff" stroke="transparent" points="31,-141.7 31,-160.7 72,-160.7 72,-141.7 31,-141.7"/>
<polygon fill="none" stroke="#000000" points="31,-141.7 31,-160.7 72,-160.7 72,-141.7 31,-141.7"/>
<text text-anchor="start" x="34" y="-147.8" font-family="Helvetica,sans-Serif" font-size="11.00" fill="#000000">&lt; 1</text>
<polygon fill="#ffffff" stroke="transparent" points="72,-141.7 72,-160.7 120,-160.7 120,-141.7 72,-141.7"/>
<polygon fill="none" stroke="#000000" points="72,-141.7 72,-160.7 120,-160.7 120,-141.7 72,-141.7"/>
<text text-anchor="start" x="84.6105" y="-147.8" font-family="Helvetica,sans-Serif" font-size="11.00" fill="#000000">3 rows</text>
<polygon fill="#ffffff" stroke="transparent" points="120,-141.7 120,-160.7 152,-160.7 152,-141.7 120,-141.7"/>
<polygon fill="none" stroke="#000000" points="120,-141.7 120,-160.7 152,-160.7 152,-141.7 120,-141.7"/>
<text text-anchor="start" x="133.4053" y="-147.8" font-family="Helvetica,sans-Serif" font-size="11.00" fill="#000000">7 &gt;</text>
</a>
</g>
</g>
<!-- user_rule&#45;&gt;user -->
<g id="edge2" class="edge">
<title>user_rule:w&#45;&gt;user:e</title>
<path fill="none" stroke="#000000" d="M215.0217,-162.0909C186.3162,-170.3603 188.1077,-212.7 152,-212.7"/>
<polygon fill="#000000" stroke="#000000" points="224.1806,-156.8401 225.2333,-164.7705 223.6472,-164.981 222.5945,-157.0506 224.1806,-156.8401"/>
<polyline fill="none" stroke="#000000" points="225.5,-160.7 221.5348,-161.2264 "/>
<ellipse fill="none" stroke="#000000" cx="218.3626" cy="-161.6475" rx="3.2" ry="3.2"/>
</g>
</g>
</svg>
