<?xml version="1.0" encoding="UTF-8" standalone="no"?>
<!DOCTYPE svg PUBLIC "-//W3C//DTD SVG 1.1//EN"
 "http://www.w3.org/Graphics/SVG/1.1/DTD/svg11.dtd">
<!-- Generated by graphviz version 2.40.1 (20161225.0304)
 -->
<!-- Title: twoDegreesRelationshipsDiagram Pages: 1 -->
<svg width="664pt" height="633pt"
 viewBox="0.00 0.00 664.00 633.20" xmlns="http://www.w3.org/2000/svg" xmlns:xlink="http://www.w3.org/1999/xlink">
<g id="graph0" class="graph" transform="scale(1 1) rotate(0) translate(4 629.2)">
<title>twoDegreesRelationshipsDiagram</title>
<polygon fill="#ffffff" stroke="transparent" points="-4,4 -4,-629.2 660,-629.2 660,4 -4,4"/>
<text text-anchor="middle" x="72.4936" y="-7.3" font-family="Helvetica,sans-Serif" font-size="11.00" fill="#000000">Generated by SchemaSpy</text>
<!-- account -->
<g id="node1" class="node">
<title>account</title>
<g id="a_node1"><a xlink:href="../../tables/account.html" xlink:title="account" target="_top">
<polygon fill="#ffffff" stroke="transparent" points="518.5,-478.2 518.5,-539.2 599.5,-539.2 599.5,-478.2 518.5,-478.2"/>
<polygon fill="#f5f5f5" stroke="transparent" points="519,-515.7 519,-538.7 600,-538.7 600,-515.7 519,-515.7"/>
<polygon fill="none" stroke="#000000" points="519,-515.7 519,-538.7 600,-538.7 600,-515.7 519,-515.7"/>
<text text-anchor="start" x="523.7418" y="-524.8" font-family="Helvetica,sans-Serif" font-weight="bold" font-size="11.00" fill="#000000">account</text>
<text text-anchor="start" x="565.5219" y="-523.8" font-family="Helvetica,sans-Serif" font-size="11.00" fill="#000000">[table]</text>
<polygon fill="none" stroke="#000000" points="519,-496.7 519,-515.7 600,-515.7 600,-496.7 519,-496.7"/>
<text text-anchor="start" x="522" y="-502.8" font-family="Helvetica,sans-Serif" font-size="11.00" fill="#000000">...</text>
<polygon fill="#ffffff" stroke="transparent" points="519,-477.7 519,-496.7 545,-496.7 545,-477.7 519,-477.7"/>
<polygon fill="none" stroke="#000000" points="519,-477.7 519,-496.7 545,-496.7 545,-477.7 519,-477.7"/>
<text text-anchor="start" x="522" y="-483.8" font-family="Helvetica,sans-Serif" font-size="11.00" fill="#000000">&lt; 1</text>
<polygon fill="#ffffff" stroke="transparent" points="545,-477.7 545,-496.7 585,-496.7 585,-477.7 545,-477.7"/>
<polygon fill="none" stroke="#000000" points="545,-477.7 545,-496.7 585,-496.7 585,-477.7 545,-477.7"/>
<text text-anchor="start" x="549.6105" y="-483.8" font-family="Helvetica,sans-Serif" font-size="11.00" fill="#000000">3 rows</text>
<polygon fill="#ffffff" stroke="transparent" points="585,-477.7 585,-496.7 600,-496.7 600,-477.7 585,-477.7"/>
<polygon fill="none" stroke="#000000" points="585,-477.7 585,-496.7 600,-496.7 600,-477.7 585,-477.7"/>
<text text-anchor="start" x="590.8862" y="-483.8" font-family="Helvetica,sans-Serif" font-size="11.00" fill="#000000"> &#160;</text>
</a>
</g>
</g>
<!-- user -->
<g id="node2" class="node">
<title>user</title>
<g id="a_node2"><a xlink:href="../../tables/user.html" xlink:title="user" target="_top">
<polygon fill="#ffffff" stroke="transparent" points="261.5,-271.2 261.5,-376.2 382.5,-376.2 382.5,-271.2 261.5,-271.2"/>
<polygon fill="#f5f5f5" stroke="transparent" points="262,-352.7 262,-375.7 383,-375.7 383,-352.7 262,-352.7"/>
<polygon fill="none" stroke="#000000" points="262,-352.7 262,-375.7 383,-375.7 383,-352.7 262,-352.7"/>
<text text-anchor="start" x="267" y="-361.8" font-family="Helvetica,sans-Serif" font-weight="bold" font-size="11.00" fill="#000000">user</text>
<text text-anchor="start" x="348.0437" y="-360.8" font-family="Helvetica,sans-Serif" font-size="11.00" fill="#000000">[table]</text>
<polygon fill="none" stroke="#000000" points="262,-330.7 262,-352.7 383,-352.7 383,-330.7 262,-330.7"/>
<image xlink:href="../../images/primaryKeys.png" width="11px" height="12px" preserveAspectRatio="xMinYMin meet" x="267" y="-347.7"/>
<text text-anchor="start" x="282" y="-337.8" font-family="Helvetica,sans-Serif" font-size="11.00" fill="#000000">id</text>
<polygon fill="none" stroke="#000000" points="262,-308.7 262,-330.7 383,-330.7 383,-308.7 262,-308.7"/>
<image xlink:href="../../images/foreignKeys.png" width="11px" height="12px" preserveAspectRatio="xMinYMin meet" x="267" y="-325.7"/>
<text text-anchor="start" x="282" y="-315.8" font-family="Helvetica,sans-Serif" font-size="11.00" fill="#000000">status</text>
<polygon fill="none" stroke="#000000" points="262,-289.7 262,-308.7 383,-308.7 383,-289.7 262,-289.7"/>
<text text-anchor="start" x="265" y="-295.8" font-family="Helvetica,sans-Serif" font-size="11.00" fill="#000000">...</text>
<polygon fill="#ffffff" stroke="transparent" points="262,-270.7 262,-289.7 303,-289.7 303,-270.7 262,-270.7"/>
<polygon fill="none" stroke="#000000" points="262,-270.7 262,-289.7 303,-289.7 303,-270.7 262,-270.7"/>
<text text-anchor="start" x="265" y="-276.8" font-family="Helvetica,sans-Serif" font-size="11.00" fill="#000000">&lt; 1</text>
<polygon fill="#ffffff" stroke="transparent" points="303,-270.7 303,-289.7 351,-289.7 351,-270.7 303,-270.7"/>
<polygon fill="none" stroke="#000000" points="303,-270.7 303,-289.7 351,-289.7 351,-270.7 303,-270.7"/>
<text text-anchor="start" x="315.6105" y="-276.8" font-family="Helvetica,sans-Serif" font-size="11.00" fill="#000000">3 rows</text>
<polygon fill="#ffffff" stroke="transparent" points="351,-270.7 351,-289.7 383,-289.7 383,-270.7 351,-270.7"/>
<polygon fill="none" stroke="#000000" points="351,-270.7 351,-289.7 383,-289.7 383,-270.7 351,-270.7"/>
<text text-anchor="start" x="364.4053" y="-276.8" font-family="Helvetica,sans-Serif" font-size="11.00" fill="#000000">7 &gt;</text>
</a>
</g>
</g>
<!-- account&#45;&gt;user -->
<g id="edge1" class="edge">
<title>account:w&#45;&gt;user:e</title>
<path fill="none" stroke="#000000" d="M508.39,-504.9164C486.9155,-501.4367 480.4898,-486.7144 462,-467.7 415.9208,-420.3133 449.0968,-341.7 383,-341.7"/>
<polygon fill="#000000" stroke="#000000" points="518.4968,-501.6519 517.9075,-509.6302 516.3119,-509.5123 516.9012,-501.5341 518.4968,-501.6519"/>
<polyline fill="none" stroke="#000000" points="519,-505.7 515.0109,-505.4053 "/>
<ellipse fill="none" stroke="#000000" cx="511.8196" cy="-505.1696" rx="3.2" ry="3.2"/>
</g>
<!-- user_status -->
<g id="node10" class="node">
<title>user_status</title>
<g id="a_node10"><a xlink:href="../../tables/user_status.html" xlink:title="user_status" target="_top">
<polygon fill="#ffffff" stroke="transparent" points="41.5,-292.2 41.5,-353.2 140.5,-353.2 140.5,-292.2 41.5,-292.2"/>
<polygon fill="#f5f5f5" stroke="transparent" points="42,-329.7 42,-352.7 141,-352.7 141,-329.7 42,-329.7"/>
<polygon fill="none" stroke="#000000" points="42,-329.7 42,-352.7 141,-352.7 141,-329.7 42,-329.7"/>
<text text-anchor="start" x="46.5749" y="-338.8" font-family="Helvetica,sans-Serif" font-weight="bold" font-size="11.00" fill="#000000">user_status</text>
<text text-anchor="start" x="106.5219" y="-337.8" font-family="Helvetica,sans-Serif" font-size="11.00" fill="#000000">[table]</text>
<polygon fill="none" stroke="#000000" points="42,-310.7 42,-329.7 141,-329.7 141,-310.7 42,-310.7"/>
<text text-anchor="start" x="45" y="-316.8" font-family="Helvetica,sans-Serif" font-size="11.00" fill="#000000">...</text>
<polygon fill="#ffffff" stroke="transparent" points="42,-291.7 42,-310.7 68,-310.7 68,-291.7 42,-291.7"/>
<polygon fill="none" stroke="#000000" points="42,-291.7 42,-310.7 68,-310.7 68,-291.7 42,-291.7"/>
<text text-anchor="start" x="45" y="-297.8" font-family="Helvetica,sans-Serif" font-size="11.00" fill="#000000"> &#160;</text>
<polygon fill="#ffffff" stroke="transparent" points="68,-291.7 68,-310.7 113,-310.7 113,-291.7 68,-291.7"/>
<polygon fill="none" stroke="#000000" points="68,-291.7 68,-310.7 113,-310.7 113,-291.7 68,-291.7"/>
<text text-anchor="start" x="77.6105" y="-297.8" font-family="Helvetica,sans-Serif" font-size="11.00" fill="#000000">3 rows</text>
<polygon fill="#ffffff" stroke="transparent" points="113,-291.7 113,-310.7 141,-310.7 141,-291.7 113,-291.7"/>
<polygon fill="none" stroke="#000000" points="113,-291.7 113,-310.7 141,-310.7 141,-291.7 113,-291.7"/>
<text text-anchor="start" x="122.4053" y="-297.8" font-family="Helvetica,sans-Serif" font-size="11.00" fill="#000000">1 &gt;</text>
</a>
</g>
</g>
<!-- user&#45;&gt;user_status -->
<g id="edge9" class="edge">
<title>user:w&#45;&gt;user_status:e</title>
<path fill="none" stroke="#000000" d="M247.5974,-319.7C205.2795,-319.7 189.6311,-319.7 141,-319.7"/>
<polygon fill="#000000" stroke="#000000" points="254,-319.7001 262,-323.3 258,-319.7 262,-319.7 262,-319.7 262,-319.7 258,-319.7 262,-316.1 254,-319.7001 254,-319.7001"/>
<ellipse fill="none" stroke="#000000" cx="250.8" cy="-319.7001" rx="3.2" ry="3.2"/>
</g>
<!-- alert_for_taking_paid_leave -->
<g id="node3" class="node">
<title>alert_for_taking_paid_leave</title>
<g id="a_node3"><a xlink:href="../../tables/alert_for_taking_paid_leave.html" xlink:title="alert_for_taking_paid_leave" target="_top">
<polygon fill="#ffffff" stroke="transparent" points="470,-396.2 470,-457.2 648,-457.2 648,-396.2 470,-396.2"/>
<polygon fill="#f5f5f5" stroke="transparent" points="470,-433.7 470,-456.7 648,-456.7 648,-433.7 470,-433.7"/>
<polygon fill="none" stroke="#000000" points="470,-433.7 470,-456.7 648,-456.7 648,-433.7 470,-433.7"/>
<text text-anchor="start" x="474.9518" y="-442.8" font-family="Helvetica,sans-Serif" font-weight="bold" font-size="11.00" fill="#000000">alert_for_taking_paid_leave</text>
<text text-anchor="start" x="613.5219" y="-441.8" font-family="Helvetica,sans-Serif" font-size="11.00" fill="#000000">[table]</text>
<polygon fill="none" stroke="#000000" points="470,-414.7 470,-433.7 648,-433.7 648,-414.7 470,-414.7"/>
<text text-anchor="start" x="473" y="-420.8" font-family="Helvetica,sans-Serif" font-size="11.00" fill="#000000">...</text>
<polygon fill="#ffffff" stroke="transparent" points="470,-395.7 470,-414.7 547,-414.7 547,-395.7 470,-395.7"/>
<polygon fill="none" stroke="#000000" points="470,-395.7 470,-414.7 547,-414.7 547,-395.7 470,-395.7"/>
<text text-anchor="start" x="473" y="-401.8" font-family="Helvetica,sans-Serif" font-size="11.00" fill="#000000">&lt; 1</text>
<polygon fill="#ffffff" stroke="transparent" points="547,-395.7 547,-414.7 607,-414.7 607,-395.7 547,-395.7"/>
<polygon fill="none" stroke="#000000" points="547,-395.7 547,-414.7 607,-414.7 607,-395.7 547,-395.7"/>
<text text-anchor="start" x="577.1105" y="-401.8" font-family="Helvetica,sans-Serif" font-size="11.00" fill="#000000">1 row</text>
<polygon fill="#ffffff" stroke="transparent" points="607,-395.7 607,-414.7 648,-414.7 648,-395.7 607,-395.7"/>
<polygon fill="none" stroke="#000000" points="607,-395.7 607,-414.7 648,-414.7 648,-395.7 607,-395.7"/>
<text text-anchor="start" x="638.8862" y="-401.8" font-family="Helvetica,sans-Serif" font-size="11.00" fill="#000000"> &#160;</text>
</a>
</g>
</g>
<!-- alert_for_taking_paid_leave&#45;&gt;user -->
<g id="edge2" class="edge">
<title>alert_for_taking_paid_leave:w&#45;&gt;user:e</title>
<path fill="none" stroke="#000000" d="M459.5602,-422.4772C419.2721,-412.2767 432.295,-341.7 383,-341.7"/>
<polygon fill="#000000" stroke="#000000" points="469.6708,-419.6341 468.7401,-427.5798 467.1509,-427.3936 468.0817,-419.4479 469.6708,-419.6341"/>
<polyline fill="none" stroke="#000000" points="470,-423.7 466.0272,-423.2346 "/>
<ellipse fill="none" stroke="#000000" cx="462.8489" cy="-422.8623" rx="3.2" ry="3.2"/>
</g>
<!-- granting_paid_leave_rule_detail -->
<g id="node4" class="node">
<title>granting_paid_leave_rule_detail</title>
<g id="a_node4"><a xlink:href="../../tables/granting_paid_leave_rule_detail.html" xlink:title="granting_paid_leave_rule_detail" target="_top">
<polygon fill="#ffffff" stroke="transparent" points="223,-46.2 223,-107.2 421,-107.2 421,-46.2 223,-46.2"/>
<polygon fill="#f5f5f5" stroke="transparent" points="223,-83.7 223,-106.7 421,-106.7 421,-83.7 223,-83.7"/>
<polygon fill="none" stroke="#000000" points="223,-83.7 223,-106.7 421,-106.7 421,-83.7 223,-83.7"/>
<text text-anchor="start" x="227.5595" y="-92.8" font-family="Helvetica,sans-Serif" font-weight="bold" font-size="11.00" fill="#000000">granting_paid_leave_rule_detail</text>
<text text-anchor="start" x="386.5219" y="-91.8" font-family="Helvetica,sans-Serif" font-size="11.00" fill="#000000">[table]</text>
<polygon fill="none" stroke="#000000" points="223,-64.7 223,-83.7 421,-83.7 421,-64.7 223,-64.7"/>
<text text-anchor="start" x="226" y="-70.8" font-family="Helvetica,sans-Serif" font-size="11.00" fill="#000000">...</text>
<polygon fill="#ffffff" stroke="transparent" points="223,-45.7 223,-64.7 300,-64.7 300,-45.7 223,-45.7"/>
<polygon fill="none" stroke="#000000" points="223,-45.7 223,-64.7 300,-64.7 300,-45.7 223,-45.7"/>
<text text-anchor="start" x="226" y="-51.8" font-family="Helvetica,sans-Serif" font-size="11.00" fill="#000000">&lt; 1</text>
<polygon fill="#ffffff" stroke="transparent" points="300,-45.7 300,-64.7 372,-64.7 372,-45.7 300,-45.7"/>
<polygon fill="none" stroke="#000000" points="300,-45.7 300,-64.7 372,-64.7 372,-45.7 300,-45.7"/>
<text text-anchor="start" x="330.4956" y="-51.8" font-family="Helvetica,sans-Serif" font-size="11.00" fill="#000000">32 rows</text>
<polygon fill="#ffffff" stroke="transparent" points="372,-45.7 372,-64.7 421,-64.7 421,-45.7 372,-45.7"/>
<polygon fill="none" stroke="#000000" points="372,-45.7 372,-64.7 421,-64.7 421,-45.7 372,-45.7"/>
<text text-anchor="start" x="402.4053" y="-51.8" font-family="Helvetica,sans-Serif" font-size="11.00" fill="#000000">1 &gt;</text>
</a>
</g>
</g>
<!-- granting_paid_leave_rule -->
<g id="node5" class="node">
<title>granting_paid_leave_rule</title>
<g id="a_node5"><a xlink:href="../../tables/granting_paid_leave_rule.html" xlink:title="granting_paid_leave_rule" target="_top">
<polygon fill="#ffffff" stroke="transparent" points="8,-68.2 8,-151.2 174,-151.2 174,-68.2 8,-68.2"/>
<polygon fill="#f5f5f5" stroke="transparent" points="8,-127.7 8,-150.7 174,-150.7 174,-127.7 8,-127.7"/>
<polygon fill="none" stroke="#000000" points="8,-127.7 8,-150.7 174,-150.7 174,-127.7 8,-127.7"/>
<text text-anchor="start" x="12.7587" y="-136.8" font-family="Helvetica,sans-Serif" font-weight="bold" font-size="11.00" fill="#000000">granting_paid_leave_rule</text>
<text text-anchor="start" x="139.5219" y="-135.8" font-family="Helvetica,sans-Serif" font-size="11.00" fill="#000000">[table]</text>
<polygon fill="none" stroke="#000000" points="8,-105.7 8,-127.7 174,-127.7 174,-105.7 8,-105.7"/>
<image xlink:href="../../images/primaryKeys.png" width="11px" height="12px" preserveAspectRatio="xMinYMin meet" x="13" y="-122.7"/>
<text text-anchor="start" x="29" y="-112.8" font-family="Helvetica,sans-Serif" font-size="11.00" fill="#000000">id</text>
<polygon fill="none" stroke="#000000" points="8,-86.7 8,-105.7 174,-105.7 174,-86.7 8,-86.7"/>
<text text-anchor="start" x="11" y="-92.8" font-family="Helvetica,sans-Serif" font-size="11.00" fill="#000000">...</text>
<polygon fill="#ffffff" stroke="transparent" points="8,-67.7 8,-86.7 70,-86.7 70,-67.7 8,-67.7"/>
<polygon fill="none" stroke="#000000" points="8,-67.7 8,-86.7 70,-86.7 70,-67.7 8,-67.7"/>
<text text-anchor="start" x="11" y="-73.8" font-family="Helvetica,sans-Serif" font-size="11.00" fill="#000000"> &#160;</text>
<polygon fill="#ffffff" stroke="transparent" points="70,-67.7 70,-86.7 127,-86.7 127,-67.7 70,-67.7"/>
<polygon fill="none" stroke="#000000" points="70,-67.7 70,-86.7 127,-86.7 127,-67.7 70,-67.7"/>
<text text-anchor="start" x="97.1105" y="-73.8" font-family="Helvetica,sans-Serif" font-size="11.00" fill="#000000">1 row</text>
<polygon fill="#ffffff" stroke="transparent" points="127,-67.7 127,-86.7 174,-86.7 174,-67.7 127,-67.7"/>
<polygon fill="none" stroke="#000000" points="127,-67.7 127,-86.7 174,-86.7 174,-67.7 127,-67.7"/>
<text text-anchor="start" x="155.4053" y="-73.8" font-family="Helvetica,sans-Serif" font-size="11.00" fill="#000000">2 &gt;</text>
</a>
</g>
</g>
<!-- granting_paid_leave_rule_detail&#45;&gt;granting_paid_leave_rule -->
<g id="edge3" class="edge">
<title>granting_paid_leave_rule_detail:w&#45;&gt;granting_paid_leave_rule:e</title>
<path fill="none" stroke="#000000" d="M209.015,-78.6326C196.1135,-89.9274 196.8625,-116.7 174,-116.7"/>
<polygon fill="#000000" stroke="#000000" points="215.4555,-76.361 224.1975,-77.095 219.2278,-75.0305 223,-73.7 223,-73.7 223,-73.7 219.2278,-75.0305 221.8025,-70.305 215.4555,-76.361 215.4555,-76.361"/>
<ellipse fill="none" stroke="#000000" cx="212.4377" cy="-77.4255" rx="3.2" ry="3.2"/>
</g>
<!-- leave_period -->
<g id="node6" class="node">
<title>leave_period</title>
<g id="a_node6"><a xlink:href="../../tables/leave_period.html" xlink:title="leave_period" target="_top">
<polygon fill="#ffffff" stroke="transparent" points="506.5,-314.2 506.5,-375.2 611.5,-375.2 611.5,-314.2 506.5,-314.2"/>
<polygon fill="#f5f5f5" stroke="transparent" points="507,-351.7 507,-374.7 612,-374.7 612,-351.7 507,-351.7"/>
<polygon fill="none" stroke="#000000" points="507,-351.7 507,-374.7 612,-374.7 612,-351.7 507,-351.7"/>
<text text-anchor="start" x="511.5186" y="-360.8" font-family="Helvetica,sans-Serif" font-weight="bold" font-size="11.00" fill="#000000">leave_period</text>
<text text-anchor="start" x="577.5219" y="-359.8" font-family="Helvetica,sans-Serif" font-size="11.00" fill="#000000">[table]</text>
<polygon fill="none" stroke="#000000" points="507,-332.7 507,-351.7 612,-351.7 612,-332.7 507,-332.7"/>
<text text-anchor="start" x="510" y="-338.8" font-family="Helvetica,sans-Serif" font-size="11.00" fill="#000000">...</text>
<polygon fill="#ffffff" stroke="transparent" points="507,-313.7 507,-332.7 545,-332.7 545,-313.7 507,-313.7"/>
<polygon fill="none" stroke="#000000" points="507,-313.7 507,-332.7 545,-332.7 545,-313.7 507,-313.7"/>
<text text-anchor="start" x="510" y="-319.8" font-family="Helvetica,sans-Serif" font-size="11.00" fill="#000000">&lt; 1</text>
<polygon fill="#ffffff" stroke="transparent" points="545,-313.7 545,-332.7 591,-332.7 591,-313.7 545,-313.7"/>
<polygon fill="none" stroke="#000000" points="545,-313.7 545,-332.7 591,-332.7 591,-313.7 545,-313.7"/>
<text text-anchor="start" x="555.6105" y="-319.8" font-family="Helvetica,sans-Serif" font-size="11.00" fill="#000000">0 rows</text>
<polygon fill="#ffffff" stroke="transparent" points="591,-313.7 591,-332.7 612,-332.7 612,-313.7 591,-313.7"/>
<polygon fill="none" stroke="#000000" points="591,-313.7 591,-332.7 612,-332.7 612,-313.7 591,-313.7"/>
<text text-anchor="start" x="602.8862" y="-319.8" font-family="Helvetica,sans-Serif" font-size="11.00" fill="#000000"> &#160;</text>
</a>
</g>
</g>
<!-- leave_period&#45;&gt;user -->
<g id="edge4" class="edge">
<title>leave_period:w&#45;&gt;user:e</title>
<path fill="none" stroke="#000000" d="M492.5217,-341.7C448.9423,-341.7 432.9444,-341.7 383,-341.7"/>
<polygon fill="#000000" stroke="#000000" points="499,-341.7001 507,-345.3 503,-341.7 507,-341.7 507,-341.7 507,-341.7 503,-341.7 507,-338.1 499,-341.7001 499,-341.7001"/>
<ellipse fill="none" stroke="#000000" cx="495.8" cy="-341.7001" rx="3.2" ry="3.2"/>
</g>
<!-- manager -->
<g id="node7" class="node">
<title>manager</title>
<g id="a_node7"><a xlink:href="../../tables/manager.html" xlink:title="manager" target="_top">
<polygon fill="#ffffff" stroke="transparent" points="516,-232.2 516,-293.2 602,-293.2 602,-232.2 516,-232.2"/>
<polygon fill="#f5f5f5" stroke="transparent" points="516,-269.7 516,-292.7 602,-292.7 602,-269.7 516,-269.7"/>
<polygon fill="none" stroke="#000000" points="516,-269.7 516,-292.7 602,-292.7 602,-269.7 516,-269.7"/>
<text text-anchor="start" x="520.8009" y="-278.8" font-family="Helvetica,sans-Serif" font-weight="bold" font-size="11.00" fill="#000000">manager</text>
<text text-anchor="start" x="567.5219" y="-277.8" font-family="Helvetica,sans-Serif" font-size="11.00" fill="#000000">[table]</text>
<polygon fill="none" stroke="#000000" points="516,-250.7 516,-269.7 602,-269.7 602,-250.7 516,-250.7"/>
<text text-anchor="start" x="519" y="-256.8" font-family="Helvetica,sans-Serif" font-size="11.00" fill="#000000">...</text>
<polygon fill="#ffffff" stroke="transparent" points="516,-231.7 516,-250.7 544,-250.7 544,-231.7 516,-231.7"/>
<polygon fill="none" stroke="#000000" points="516,-231.7 516,-250.7 544,-250.7 544,-231.7 516,-231.7"/>
<text text-anchor="start" x="519" y="-237.8" font-family="Helvetica,sans-Serif" font-size="11.00" fill="#000000">&lt; 2</text>
<polygon fill="#ffffff" stroke="transparent" points="544,-231.7 544,-250.7 586,-250.7 586,-231.7 544,-231.7"/>
<polygon fill="none" stroke="#000000" points="544,-231.7 544,-250.7 586,-250.7 586,-231.7 544,-231.7"/>
<text text-anchor="start" x="550.6105" y="-237.8" font-family="Helvetica,sans-Serif" font-size="11.00" fill="#000000">0 rows</text>
<polygon fill="#ffffff" stroke="transparent" points="586,-231.7 586,-250.7 602,-250.7 602,-231.7 586,-231.7"/>
<polygon fill="none" stroke="#000000" points="586,-231.7 586,-250.7 602,-250.7 602,-231.7 586,-231.7"/>
<text text-anchor="start" x="592.8862" y="-237.8" font-family="Helvetica,sans-Serif" font-size="11.00" fill="#000000"> &#160;</text>
</a>
</g>
</g>
<!-- manager&#45;&gt;user -->
<g id="edge5" class="edge">
<title>manager:w&#45;&gt;user:e</title>
<path fill="none" stroke="#000000" d="M501.3758,-261.0548C447.0167,-271.7164 447.1533,-341.7 383,-341.7"/>
<polygon fill="#000000" stroke="#000000" points="508.0341,-260.438 516.3321,-263.2846 512.0171,-260.069 516,-259.7 516,-259.7 516,-259.7 512.0171,-260.069 515.6679,-256.1154 508.0341,-260.438 508.0341,-260.438"/>
<ellipse fill="none" stroke="#000000" cx="504.8478" cy="-260.7333" rx="3.2" ry="3.2"/>
</g>
<!-- member -->
<g id="node8" class="node">
<title>member</title>
<g id="a_node8"><a xlink:href="../../tables/member.html" xlink:title="member" target="_top">
<polygon fill="#ffffff" stroke="transparent" points="517.5,-560.2 517.5,-621.2 600.5,-621.2 600.5,-560.2 517.5,-560.2"/>
<polygon fill="#f5f5f5" stroke="transparent" points="518,-597.7 518,-620.7 601,-620.7 601,-597.7 518,-597.7"/>
<polygon fill="none" stroke="#000000" points="518,-597.7 518,-620.7 601,-620.7 601,-597.7 518,-597.7"/>
<text text-anchor="start" x="522.8348" y="-606.8" font-family="Helvetica,sans-Serif" font-weight="bold" font-size="11.00" fill="#000000">member</text>
<text text-anchor="start" x="566.5219" y="-605.8" font-family="Helvetica,sans-Serif" font-size="11.00" fill="#000000">[table]</text>
<polygon fill="none" stroke="#000000" points="518,-578.7 518,-597.7 601,-597.7 601,-578.7 518,-578.7"/>
<text text-anchor="start" x="521" y="-584.8" font-family="Helvetica,sans-Serif" font-size="11.00" fill="#000000">...</text>
<polygon fill="#ffffff" stroke="transparent" points="518,-559.7 518,-578.7 545,-578.7 545,-559.7 518,-559.7"/>
<polygon fill="none" stroke="#000000" points="518,-559.7 518,-578.7 545,-578.7 545,-559.7 518,-559.7"/>
<text text-anchor="start" x="521" y="-565.8" font-family="Helvetica,sans-Serif" font-size="11.00" fill="#000000">&lt; 2</text>
<polygon fill="#ffffff" stroke="transparent" points="545,-559.7 545,-578.7 586,-578.7 586,-559.7 545,-559.7"/>
<polygon fill="none" stroke="#000000" points="545,-559.7 545,-578.7 586,-578.7 586,-559.7 545,-559.7"/>
<text text-anchor="start" x="550.6105" y="-565.8" font-family="Helvetica,sans-Serif" font-size="11.00" fill="#000000">0 rows</text>
<polygon fill="#ffffff" stroke="transparent" points="586,-559.7 586,-578.7 601,-578.7 601,-559.7 586,-559.7"/>
<polygon fill="none" stroke="#000000" points="586,-559.7 586,-578.7 601,-578.7 601,-559.7 586,-559.7"/>
<text text-anchor="start" x="591.8862" y="-565.8" font-family="Helvetica,sans-Serif" font-size="11.00" fill="#000000"> &#160;</text>
</a>
</g>
</g>
<!-- member&#45;&gt;user -->
<g id="edge6" class="edge">
<title>member:w&#45;&gt;user:e</title>
<path fill="none" stroke="#000000" d="M503.5185,-586.4351C402.4738,-567.4736 502.4777,-341.7 383,-341.7"/>
<polygon fill="#000000" stroke="#000000" points="510.0303,-587.0038 517.6867,-591.2863 514.0152,-587.3519 518,-587.7 518,-587.7 518,-587.7 514.0152,-587.3519 518.3133,-584.1137 510.0303,-587.0038 510.0303,-587.0038"/>
<ellipse fill="none" stroke="#000000" cx="506.8425" cy="-586.7254" rx="3.2" ry="3.2"/>
</g>
<!-- paid_leave_grant_history -->
<g id="node9" class="node">
<title>paid_leave_grant_history</title>
<g id="a_node9"><a xlink:href="../../tables/paid_leave_grant_history.html" xlink:title="paid_leave_grant_history" target="_top">
<polygon fill="#ffffff" stroke="transparent" points="476.5,-38.2 476.5,-99.2 641.5,-99.2 641.5,-38.2 476.5,-38.2"/>
<polygon fill="#f5f5f5" stroke="transparent" points="477,-75.7 477,-98.7 642,-98.7 642,-75.7 477,-75.7"/>
<polygon fill="none" stroke="#000000" points="477,-75.7 477,-98.7 642,-98.7 642,-75.7 477,-75.7"/>
<text text-anchor="start" x="481.5656" y="-84.8" font-family="Helvetica,sans-Serif" font-weight="bold" font-size="11.00" fill="#000000">paid_leave_grant_history</text>
<text text-anchor="start" x="607.5219" y="-83.8" font-family="Helvetica,sans-Serif" font-size="11.00" fill="#000000">[table]</text>
<polygon fill="none" stroke="#000000" points="477,-56.7 477,-75.7 642,-75.7 642,-56.7 477,-56.7"/>
<text text-anchor="start" x="480" y="-62.8" font-family="Helvetica,sans-Serif" font-size="11.00" fill="#000000">...</text>
<polygon fill="#ffffff" stroke="transparent" points="477,-37.7 477,-56.7 545,-56.7 545,-37.7 477,-37.7"/>
<polygon fill="none" stroke="#000000" points="477,-37.7 477,-56.7 545,-56.7 545,-37.7 477,-37.7"/>
<text text-anchor="start" x="480" y="-43.8" font-family="Helvetica,sans-Serif" font-size="11.00" fill="#000000">&lt; 2</text>
<polygon fill="#ffffff" stroke="transparent" points="545,-37.7 545,-56.7 606,-56.7 606,-37.7 545,-37.7"/>
<polygon fill="none" stroke="#000000" points="545,-37.7 545,-56.7 606,-56.7 606,-37.7 545,-37.7"/>
<text text-anchor="start" x="570.6105" y="-43.8" font-family="Helvetica,sans-Serif" font-size="11.00" fill="#000000">0 rows</text>
<polygon fill="#ffffff" stroke="transparent" points="606,-37.7 606,-56.7 642,-56.7 642,-37.7 606,-37.7"/>
<polygon fill="none" stroke="#000000" points="606,-37.7 606,-56.7 642,-56.7 642,-37.7 606,-37.7"/>
<text text-anchor="start" x="632.8862" y="-43.8" font-family="Helvetica,sans-Serif" font-size="11.00" fill="#000000"> &#160;</text>
</a>
</g>
</g>
<!-- paid_leave_grant_history&#45;&gt;user -->
<g id="edge8" class="edge">
<title>paid_leave_grant_history:w&#45;&gt;user:e</title>
<path fill="none" stroke="#000000" d="M463.2625,-70.7261C417.2627,-108.1333 442.6044,-341.7 383,-341.7"/>
<polygon fill="#000000" stroke="#000000" points="469.487,-68.4488 478.2369,-69.0808 473.2435,-67.0744 477,-65.7 477,-65.7 477,-65.7 473.2435,-67.0744 475.7631,-62.3192 469.487,-68.4488 469.487,-68.4488"/>
<ellipse fill="none" stroke="#000000" cx="466.4819" cy="-69.5483" rx="3.2" ry="3.2"/>
</g>
<!-- paid_leave_grant_history&#45;&gt;granting_paid_leave_rule_detail -->
<g id="edge7" class="edge">
<title>paid_leave_grant_history:w&#45;&gt;granting_paid_leave_rule_detail:e</title>
<path fill="none" stroke="#000000" d="M462.451,-66.7459C448.2709,-68.9144 440.4454,-73.7 421,-73.7"/>
<polygon fill="#000000" stroke="#000000" points="469.0206,-66.2737 477.2581,-69.2907 473.0103,-65.9868 477,-65.7 477,-65.7 477,-65.7 473.0103,-65.9868 476.7419,-62.1093 469.0206,-66.2737 469.0206,-66.2737"/>
<ellipse fill="none" stroke="#000000" cx="465.8288" cy="-66.5031" rx="3.2" ry="3.2"/>
</g>
<!-- user_rule -->
<g id="node11" class="node">
<title>user_rule</title>
<g id="a_node11"><a xlink:href="../../tables/user_rule.html" xlink:title="user_rule" target="_top">
<polygon fill="#ffffff" stroke="transparent" points="498.5,-120.7 498.5,-210.7 619.5,-210.7 619.5,-120.7 498.5,-120.7"/>
<polygon fill="#f5f5f5" stroke="transparent" points="501,-185.7 501,-208.7 618,-208.7 618,-185.7 501,-185.7"/>
<polygon fill="none" stroke="#000000" points="501,-185.7 501,-208.7 618,-208.7 618,-185.7 501,-185.7"/>
<text text-anchor="start" x="506" y="-194.8" font-family="Helvetica,sans-Serif" font-weight="bold" font-size="11.00" fill="#000000">user_rule</text>
<text text-anchor="start" x="583.0437" y="-193.8" font-family="Helvetica,sans-Serif" font-size="11.00" fill="#000000">[table]</text>
<polygon fill="none" stroke="#000000" points="501,-163.7 501,-185.7 576,-185.7 576,-163.7 501,-163.7"/>
<image xlink:href="../../images/primaryKeys.png" width="11px" height="12px" preserveAspectRatio="xMinYMin meet" x="506" y="-180.7"/>
<text text-anchor="start" x="521" y="-170.8" font-family="Helvetica,sans-Serif" font-size="11.00" fill="#000000">user_id</text>
<polygon fill="none" stroke="#000000" points="576,-163.7 576,-185.7 618,-185.7 618,-163.7 576,-163.7"/>
<text text-anchor="start" x="578.9644" y="-171.4" font-family="Helvetica,sans-Serif" font-size="11.00" fill="#000000">int4[10]</text>
<polygon fill="none" stroke="#000000" points="501,-141.7 501,-163.7 576,-163.7 576,-141.7 501,-141.7"/>
<image xlink:href="../../images/foreignKeys.png" width="11px" height="12px" preserveAspectRatio="xMinYMin meet" x="506" y="-158.7"/>
<text text-anchor="start" x="521" y="-148.8" font-family="Helvetica,sans-Serif" font-size="11.00" fill="#000000">rule_id</text>
<polygon fill="none" stroke="#000000" points="576,-141.7 576,-163.7 618,-163.7 618,-141.7 576,-141.7"/>
<text text-anchor="start" x="578.9644" y="-149.4" font-family="Helvetica,sans-Serif" font-size="11.00" fill="#000000">int4[10]</text>
<polygon fill="#ffffff" stroke="transparent" points="501,-122.7 501,-141.7 530,-141.7 530,-122.7 501,-122.7"/>
<polygon fill="none" stroke="#000000" points="501,-122.7 501,-141.7 530,-141.7 530,-122.7 501,-122.7"/>
<text text-anchor="start" x="504" y="-128.8" font-family="Helvetica,sans-Serif" font-size="11.00" fill="#000000">&lt; 2</text>
<polygon fill="#ffffff" stroke="transparent" points="530,-122.7 530,-141.7 576,-141.7 576,-122.7 530,-122.7"/>
<polygon fill="none" stroke="#000000" points="530,-122.7 530,-141.7 576,-141.7 576,-122.7 530,-122.7"/>
<text text-anchor="start" x="540.6105" y="-128.8" font-family="Helvetica,sans-Serif" font-size="11.00" fill="#000000">2 rows</text>
<polygon fill="#ffffff" stroke="transparent" points="576,-122.7 576,-141.7 618,-141.7 618,-122.7 576,-122.7"/>
<polygon fill="none" stroke="#000000" points="576,-122.7 576,-141.7 618,-141.7 618,-122.7 576,-122.7"/>
<text text-anchor="start" x="599.4053" y="-128.8" font-family="Helvetica,sans-Serif" font-size="11.00" fill="#000000">0 &gt;</text>
<polygon fill="none" stroke="#000000" stroke-width="2" points="499.5,-121.7 499.5,-209.7 618.5,-209.7 618.5,-121.7 499.5,-121.7"/>
</a>
</g>
</g>
<!-- user_rule&#45;&gt;user -->
<g id="edge11" class="edge">
<title>user_rule:w&#45;&gt;user:e</title>
<path fill="none" stroke="#000000" d="M490.5765,-175.5198C415.0893,-188.1183 470.1535,-341.7 383,-341.7"/>
<polygon fill="#000000" stroke="#000000" points="499.8888,-170.775 500.5161,-178.7504 498.921,-178.8759 498.2937,-170.9005 499.8888,-170.775"/>
<polyline fill="none" stroke="#000000" points="501,-174.7 497.0123,-175.0137 "/>
<ellipse fill="none" stroke="#000000" cx="493.8222" cy="-175.2646" rx="3.2" ry="3.2"/>
</g>
<!-- user_rule&#45;&gt;granting_paid_leave_rule -->
<g id="edge10" class="edge">
<title>user_rule:w&#45;&gt;granting_paid_leave_rule:e</title>
<path fill="none" stroke="#000000" d="M486.39,-152.5767C352.2945,-150.2811 315.214,-116.7 174,-116.7"/>
<polygon fill="#000000" stroke="#000000" points="493.0003,-152.6324 500.9696,-156.2999 497.0001,-152.6662 501,-152.7 501,-152.7 501,-152.7 497.0001,-152.6662 501.0304,-149.1001 493.0003,-152.6324 493.0003,-152.6324"/>
<ellipse fill="none" stroke="#000000" cx="489.8004" cy="-152.6054" rx="3.2" ry="3.2"/>
</g>
</g>
</svg>
