<?xml version="1.0" encoding="UTF-8" standalone="no"?>
<!DOCTYPE svg PUBLIC "-//W3C//DTD SVG 1.1//EN"
 "http://www.w3.org/Graphics/SVG/1.1/DTD/svg11.dtd">
<!-- Generated by graphviz version 2.40.1 (20161225.0304)
 -->
<!-- Title: oneDegreeRelationshipsDiagram Pages: 1 -->
<svg width="612pt" height="849pt"
 viewBox="0.00 0.00 612.00 848.70" xmlns="http://www.w3.org/2000/svg" xmlns:xlink="http://www.w3.org/1999/xlink">
<g id="graph0" class="graph" transform="scale(1 1) rotate(0) translate(4 844.7)">
<title>oneDegreeRelationshipsDiagram</title>
<polygon fill="#ffffff" stroke="transparent" points="-4,4 -4,-844.7 608,-844.7 608,4 -4,4"/>
<text text-anchor="middle" x="72.4936" y="-7.3" font-family="Helvetica,sans-Serif" font-size="11.00" fill="#000000">Generated by SchemaSpy</text>
<!-- account -->
<g id="node1" class="node">
<title>account</title>
<g id="a_node1"><a xlink:href="../../tables/account.html" xlink:title="account" target="_top">
<polygon fill="#ffffff" stroke="transparent" points="446,-753.7 446,-836.7 567,-836.7 567,-753.7 446,-753.7"/>
<polygon fill="#f5f5f5" stroke="transparent" points="446.5,-813.2 446.5,-836.2 567.5,-836.2 567.5,-813.2 446.5,-813.2"/>
<polygon fill="none" stroke="#000000" points="446.5,-813.2 446.5,-836.2 567.5,-836.2 567.5,-813.2 446.5,-813.2"/>
<text text-anchor="start" x="451.5" y="-822.3" font-family="Helvetica,sans-Serif" font-weight="bold" font-size="11.00" fill="#000000">account</text>
<text text-anchor="start" x="532.5437" y="-821.3" font-family="Helvetica,sans-Serif" font-size="11.00" fill="#000000">[table]</text>
<polygon fill="none" stroke="#000000" points="446.5,-791.2 446.5,-813.2 567.5,-813.2 567.5,-791.2 446.5,-791.2"/>
<image xlink:href="../../images/primaryKeys.png" width="11px" height="12px" preserveAspectRatio="xMinYMin meet" x="451.5" y="-808.2"/>
<text text-anchor="start" x="466.5" y="-798.3" font-family="Helvetica,sans-Serif" font-size="11.00" fill="#000000">user_id</text>
<polygon fill="none" stroke="#000000" points="446.5,-772.2 446.5,-791.2 567.5,-791.2 567.5,-772.2 446.5,-772.2"/>
<text text-anchor="start" x="449.5" y="-778.3" font-family="Helvetica,sans-Serif" font-size="11.00" fill="#000000">...</text>
<polygon fill="#ffffff" stroke="transparent" points="446.5,-753.2 446.5,-772.2 492.5,-772.2 492.5,-753.2 446.5,-753.2"/>
<polygon fill="none" stroke="#000000" points="446.5,-753.2 446.5,-772.2 492.5,-772.2 492.5,-753.2 446.5,-753.2"/>
<text text-anchor="start" x="449.5" y="-759.3" font-family="Helvetica,sans-Serif" font-size="11.00" fill="#000000">&lt; 1</text>
<polygon fill="#ffffff" stroke="transparent" points="492.5,-753.2 492.5,-772.2 542.5,-772.2 542.5,-753.2 492.5,-753.2"/>
<polygon fill="none" stroke="#000000" points="492.5,-753.2 492.5,-772.2 542.5,-772.2 542.5,-753.2 492.5,-753.2"/>
<text text-anchor="start" x="507.1105" y="-759.3" font-family="Helvetica,sans-Serif" font-size="11.00" fill="#000000">3 rows</text>
<polygon fill="#ffffff" stroke="transparent" points="542.5,-753.2 542.5,-772.2 567.5,-772.2 567.5,-753.2 542.5,-753.2"/>
<polygon fill="none" stroke="#000000" points="542.5,-753.2 542.5,-772.2 567.5,-772.2 567.5,-753.2 542.5,-753.2"/>
<text text-anchor="start" x="558.3862" y="-759.3" font-family="Helvetica,sans-Serif" font-size="11.00" fill="#000000"> &#160;</text>
</a>
</g>
</g>
<!-- user -->
<g id="node2" class="node">
<title>user</title>
<g id="a_node2"><a xlink:href="../../tables/user.html" xlink:title="user" target="_top">
<polygon fill="#ffffff" stroke="transparent" points="156,-238.2 156,-482.2 368,-482.2 368,-238.2 156,-238.2"/>
<polygon fill="#f5f5f5" stroke="transparent" points="158,-457.2 158,-480.2 366,-480.2 366,-457.2 158,-457.2"/>
<polygon fill="none" stroke="#000000" points="158,-457.2 158,-480.2 366,-480.2 366,-457.2 158,-457.2"/>
<text text-anchor="start" x="163" y="-466.3" font-family="Helvetica,sans-Serif" font-weight="bold" font-size="11.00" fill="#000000">user</text>
<text text-anchor="start" x="331.0437" y="-465.3" font-family="Helvetica,sans-Serif" font-size="11.00" fill="#000000">[table]</text>
<polygon fill="none" stroke="#000000" points="158,-435.2 158,-457.2 279,-457.2 279,-435.2 158,-435.2"/>
<image xlink:href="../../images/primaryKeys.png" width="11px" height="12px" preserveAspectRatio="xMinYMin meet" x="163" y="-452.2"/>
<text text-anchor="start" x="178" y="-442.3" font-family="Helvetica,sans-Serif" font-size="11.00" fill="#000000">id</text>
<polygon fill="none" stroke="#000000" points="279,-435.2 279,-457.2 366,-457.2 366,-435.2 279,-435.2"/>
<text text-anchor="start" x="282" y="-442.9" font-family="Helvetica,sans-Serif" font-size="11.00" fill="#000000">int4[10]</text>
<polygon fill="none" stroke="#000000" points="158,-413.2 158,-435.2 279,-435.2 279,-413.2 158,-413.2"/>
<image xlink:href="../../images/foreignKeys.png" width="11px" height="12px" preserveAspectRatio="xMinYMin meet" x="163" y="-430.2"/>
<text text-anchor="start" x="178" y="-420.3" font-family="Helvetica,sans-Serif" font-size="11.00" fill="#000000">status</text>
<polygon fill="none" stroke="#000000" points="279,-413.2 279,-435.2 366,-435.2 366,-413.2 279,-413.2"/>
<text text-anchor="start" x="282" y="-420.9" font-family="Helvetica,sans-Serif" font-size="11.00" fill="#000000">varchar[100]</text>
<polygon fill="none" stroke="#000000" points="158,-391.2 158,-413.2 279,-413.2 279,-391.2 158,-391.2"/>
<text text-anchor="start" x="178" y="-398.3" font-family="Helvetica,sans-Serif" font-size="11.00" fill="#000000">email</text>
<polygon fill="none" stroke="#000000" points="279,-391.2 279,-413.2 366,-413.2 366,-391.2 279,-391.2"/>
<text text-anchor="start" x="282" y="-398.9" font-family="Helvetica,sans-Serif" font-size="11.00" fill="#000000">varchar[100]</text>
<polygon fill="none" stroke="#000000" points="158,-369.2 158,-391.2 279,-391.2 279,-369.2 158,-369.2"/>
<text text-anchor="start" x="178" y="-376.3" font-family="Helvetica,sans-Serif" font-size="11.00" fill="#000000">name</text>
<polygon fill="none" stroke="#000000" points="279,-369.2 279,-391.2 366,-391.2 366,-369.2 279,-369.2"/>
<text text-anchor="start" x="282" y="-376.9" font-family="Helvetica,sans-Serif" font-size="11.00" fill="#000000">varchar[100]</text>
<polygon fill="none" stroke="#000000" points="158,-347.2 158,-369.2 279,-369.2 279,-347.2 158,-347.2"/>
<text text-anchor="start" x="178" y="-354.3" font-family="Helvetica,sans-Serif" font-size="11.00" fill="#000000">hire_date</text>
<polygon fill="none" stroke="#000000" points="279,-347.2 279,-369.2 366,-369.2 366,-347.2 279,-347.2"/>
<text text-anchor="start" x="282" y="-354.9" font-family="Helvetica,sans-Serif" font-size="11.00" fill="#000000">date[13]</text>
<polygon fill="none" stroke="#000000" points="158,-325.2 158,-347.2 279,-347.2 279,-325.2 158,-325.2"/>
<text text-anchor="start" x="178" y="-332.3" font-family="Helvetica,sans-Serif" font-size="11.00" fill="#000000">register_datetime</text>
<polygon fill="none" stroke="#000000" points="279,-325.2 279,-347.2 366,-347.2 366,-325.2 279,-325.2"/>
<text text-anchor="start" x="282" y="-332.9" font-family="Helvetica,sans-Serif" font-size="11.00" fill="#000000">timestamp[29,6]</text>
<polygon fill="none" stroke="#000000" points="158,-303.2 158,-325.2 279,-325.2 279,-303.2 158,-303.2"/>
<text text-anchor="start" x="178" y="-310.3" font-family="Helvetica,sans-Serif" font-size="11.00" fill="#000000">update_datetime</text>
<polygon fill="none" stroke="#000000" points="279,-303.2 279,-325.2 366,-325.2 366,-303.2 279,-303.2"/>
<text text-anchor="start" x="282" y="-310.9" font-family="Helvetica,sans-Serif" font-size="11.00" fill="#000000">timestamp[29,6]</text>
<polygon fill="none" stroke="#000000" points="158,-281.2 158,-303.2 279,-303.2 279,-281.2 158,-281.2"/>
<text text-anchor="start" x="178" y="-288.3" font-family="Helvetica,sans-Serif" font-size="11.00" fill="#000000">deleted</text>
<polygon fill="none" stroke="#000000" points="279,-281.2 279,-303.2 366,-303.2 366,-281.2 279,-281.2"/>
<text text-anchor="start" x="282" y="-288.9" font-family="Helvetica,sans-Serif" font-size="11.00" fill="#000000">bool[1]</text>
<polygon fill="none" stroke="#000000" points="158,-259.2 158,-281.2 279,-281.2 279,-259.2 158,-259.2"/>
<text text-anchor="start" x="178" y="-266.3" font-family="Helvetica,sans-Serif" font-size="11.00" fill="#000000">leftover_holiday</text>
<polygon fill="none" stroke="#000000" points="279,-259.2 279,-281.2 366,-281.2 366,-259.2 279,-259.2"/>
<text text-anchor="start" x="281.5437" y="-266.9" font-family="Helvetica,sans-Serif" font-size="11.00" fill="#000000">numeric[131089]</text>
<polygon fill="#ffffff" stroke="transparent" points="158,-240.2 158,-259.2 210,-259.2 210,-240.2 158,-240.2"/>
<polygon fill="none" stroke="#000000" points="158,-240.2 158,-259.2 210,-259.2 210,-240.2 158,-240.2"/>
<text text-anchor="start" x="161" y="-246.3" font-family="Helvetica,sans-Serif" font-size="11.00" fill="#000000">&lt; 1</text>
<polygon fill="#ffffff" stroke="transparent" points="210,-240.2 210,-259.2 279,-259.2 279,-240.2 210,-240.2"/>
<polygon fill="none" stroke="#000000" points="210,-240.2 210,-259.2 279,-259.2 279,-240.2 210,-240.2"/>
<text text-anchor="start" x="243.6105" y="-246.3" font-family="Helvetica,sans-Serif" font-size="11.00" fill="#000000">3 rows</text>
<polygon fill="#ffffff" stroke="transparent" points="279,-240.2 279,-259.2 366,-259.2 366,-240.2 279,-240.2"/>
<polygon fill="none" stroke="#000000" points="279,-240.2 279,-259.2 366,-259.2 366,-240.2 279,-240.2"/>
<text text-anchor="start" x="347.4053" y="-246.3" font-family="Helvetica,sans-Serif" font-size="11.00" fill="#000000">7 &gt;</text>
<polygon fill="none" stroke="#000000" stroke-width="2" points="157,-239.2 157,-481.2 367,-481.2 367,-239.2 157,-239.2"/>
</a>
</g>
</g>
<!-- account&#45;&gt;user -->
<g id="edge1" class="edge">
<title>account:w&#45;&gt;user:e</title>
<path fill="none" stroke="#000000" d="M436.1427,-800.7767C416.3039,-794.5122 418.4072,-768.578 409,-743.2 385.821,-680.6697 432.6881,-446.2 366,-446.2"/>
<polygon fill="#000000" stroke="#000000" points="446.2521,-798.1283 445.1628,-806.0538 443.5777,-805.836 444.6669,-797.9105 446.2521,-798.1283"/>
<polyline fill="none" stroke="#000000" points="446.5,-802.2 442.5372,-801.6554 "/>
<ellipse fill="none" stroke="#000000" cx="439.367" cy="-801.2197" rx="3.2" ry="3.2"/>
</g>
<!-- user_status -->
<g id="node8" class="node">
<title>user_status</title>
<g id="a_node8"><a xlink:href="../../tables/user_status.html" xlink:title="user_status" target="_top">
<polygon fill="#ffffff" stroke="transparent" points="8,-394.2 8,-458.2 107,-458.2 107,-394.2 8,-394.2"/>
<polygon fill="#f5f5f5" stroke="transparent" points="8.5,-435.2 8.5,-458.2 107.5,-458.2 107.5,-435.2 8.5,-435.2"/>
<polygon fill="none" stroke="#000000" points="8.5,-435.2 8.5,-458.2 107.5,-458.2 107.5,-435.2 8.5,-435.2"/>
<text text-anchor="start" x="13.0749" y="-444.3" font-family="Helvetica,sans-Serif" font-weight="bold" font-size="11.00" fill="#000000">user_status</text>
<text text-anchor="start" x="73.0219" y="-443.3" font-family="Helvetica,sans-Serif" font-size="11.00" fill="#000000">[table]</text>
<polygon fill="none" stroke="#000000" points="8.5,-413.2 8.5,-435.2 107.5,-435.2 107.5,-413.2 8.5,-413.2"/>
<image xlink:href="../../images/primaryKeys.png" width="11px" height="12px" preserveAspectRatio="xMinYMin meet" x="13.5" y="-430.2"/>
<text text-anchor="start" x="34.5" y="-420.3" font-family="Helvetica,sans-Serif" font-size="11.00" fill="#000000">status</text>
<polygon fill="#ffffff" stroke="transparent" points="8.5,-394.2 8.5,-413.2 34.5,-413.2 34.5,-394.2 8.5,-394.2"/>
<polygon fill="none" stroke="#000000" points="8.5,-394.2 8.5,-413.2 34.5,-413.2 34.5,-394.2 8.5,-394.2"/>
<text text-anchor="start" x="11.5" y="-400.3" font-family="Helvetica,sans-Serif" font-size="11.00" fill="#000000"> &#160;</text>
<polygon fill="#ffffff" stroke="transparent" points="34.5,-394.2 34.5,-413.2 79.5,-413.2 79.5,-394.2 34.5,-394.2"/>
<polygon fill="none" stroke="#000000" points="34.5,-394.2 34.5,-413.2 79.5,-413.2 79.5,-394.2 34.5,-394.2"/>
<text text-anchor="start" x="44.1105" y="-400.3" font-family="Helvetica,sans-Serif" font-size="11.00" fill="#000000">3 rows</text>
<polygon fill="#ffffff" stroke="transparent" points="79.5,-394.2 79.5,-413.2 107.5,-413.2 107.5,-394.2 79.5,-394.2"/>
<polygon fill="none" stroke="#000000" points="79.5,-394.2 79.5,-413.2 107.5,-413.2 107.5,-394.2 79.5,-394.2"/>
<text text-anchor="start" x="88.9053" y="-400.3" font-family="Helvetica,sans-Serif" font-size="11.00" fill="#000000">1 &gt;</text>
</a>
</g>
</g>
<!-- user&#45;&gt;user_status -->
<g id="edge7" class="edge">
<title>user:w&#45;&gt;user_status:e</title>
<path fill="none" stroke="#000000" d="M143.4203,-424.2C131.5435,-424.2 124.158,-424.2 107.5,-424.2"/>
<polygon fill="#000000" stroke="#000000" points="150,-424.2001 158,-427.8 154,-424.2 158,-424.2 158,-424.2 158,-424.2 154,-424.2 158,-420.6 150,-424.2001 150,-424.2001"/>
<ellipse fill="none" stroke="#000000" cx="146.8" cy="-424.2001" rx="3.2" ry="3.2"/>
</g>
<!-- alert_for_taking_paid_leave -->
<g id="node3" class="node">
<title>alert_for_taking_paid_leave</title>
<g id="a_node3"><a xlink:href="../../tables/alert_for_taking_paid_leave.html" xlink:title="alert_for_taking_paid_leave" target="_top">
<polygon fill="#ffffff" stroke="transparent" points="417,-649.7 417,-732.7 596,-732.7 596,-649.7 417,-649.7"/>
<polygon fill="#f5f5f5" stroke="transparent" points="417.5,-709.2 417.5,-732.2 596.5,-732.2 596.5,-709.2 417.5,-709.2"/>
<polygon fill="none" stroke="#000000" points="417.5,-709.2 417.5,-732.2 596.5,-732.2 596.5,-709.2 417.5,-709.2"/>
<text text-anchor="start" x="422.5" y="-718.3" font-family="Helvetica,sans-Serif" font-weight="bold" font-size="11.00" fill="#000000">alert_for_taking_paid_leave</text>
<text text-anchor="start" x="562.0219" y="-717.3" font-family="Helvetica,sans-Serif" font-size="11.00" fill="#000000">[table]</text>
<polygon fill="none" stroke="#000000" points="417.5,-687.2 417.5,-709.2 596.5,-709.2 596.5,-687.2 417.5,-687.2"/>
<image xlink:href="../../images/primaryKeys.png" width="11px" height="12px" preserveAspectRatio="xMinYMin meet" x="422.5" y="-704.2"/>
<text text-anchor="start" x="437.5" y="-694.3" font-family="Helvetica,sans-Serif" font-size="11.00" fill="#000000">user_id</text>
<polygon fill="none" stroke="#000000" points="417.5,-668.2 417.5,-687.2 596.5,-687.2 596.5,-668.2 417.5,-668.2"/>
<text text-anchor="start" x="420.5" y="-674.3" font-family="Helvetica,sans-Serif" font-size="11.00" fill="#000000">...</text>
<polygon fill="#ffffff" stroke="transparent" points="417.5,-649.2 417.5,-668.2 495.5,-668.2 495.5,-649.2 417.5,-649.2"/>
<polygon fill="none" stroke="#000000" points="417.5,-649.2 417.5,-668.2 495.5,-668.2 495.5,-649.2 417.5,-649.2"/>
<text text-anchor="start" x="420.5" y="-655.3" font-family="Helvetica,sans-Serif" font-size="11.00" fill="#000000">&lt; 1</text>
<polygon fill="#ffffff" stroke="transparent" points="495.5,-649.2 495.5,-668.2 555.5,-668.2 555.5,-649.2 495.5,-649.2"/>
<polygon fill="none" stroke="#000000" points="495.5,-649.2 495.5,-668.2 555.5,-668.2 555.5,-649.2 495.5,-649.2"/>
<text text-anchor="start" x="525.6105" y="-655.3" font-family="Helvetica,sans-Serif" font-size="11.00" fill="#000000">1 row</text>
<polygon fill="#ffffff" stroke="transparent" points="555.5,-649.2 555.5,-668.2 596.5,-668.2 596.5,-649.2 555.5,-649.2"/>
<polygon fill="none" stroke="#000000" points="555.5,-649.2 555.5,-668.2 596.5,-668.2 596.5,-649.2 555.5,-649.2"/>
<text text-anchor="start" x="587.3862" y="-655.3" font-family="Helvetica,sans-Serif" font-size="11.00" fill="#000000"> &#160;</text>
</a>
</g>
</g>
<!-- alert_for_taking_paid_leave&#45;&gt;user -->
<g id="edge2" class="edge">
<title>alert_for_taking_paid_leave:w&#45;&gt;user:e</title>
<path fill="none" stroke="#000000" d="M407.0557,-697.385C314.6263,-681.7434 476.5193,-446.2 366,-446.2"/>
<polygon fill="#000000" stroke="#000000" points="417.0136,-694.1499 416.3912,-702.1256 414.7961,-702.0011 415.4185,-694.0254 417.0136,-694.1499"/>
<polyline fill="none" stroke="#000000" points="417.5,-698.2 413.5121,-697.8888 "/>
<ellipse fill="none" stroke="#000000" cx="410.3218" cy="-697.6398" rx="3.2" ry="3.2"/>
</g>
<!-- leave_period -->
<g id="node4" class="node">
<title>leave_period</title>
<g id="a_node4"><a xlink:href="../../tables/leave_period.html" xlink:title="leave_period" target="_top">
<polygon fill="#ffffff" stroke="transparent" points="446,-523.7 446,-628.7 567,-628.7 567,-523.7 446,-523.7"/>
<polygon fill="#f5f5f5" stroke="transparent" points="446.5,-605.2 446.5,-628.2 567.5,-628.2 567.5,-605.2 446.5,-605.2"/>
<polygon fill="none" stroke="#000000" points="446.5,-605.2 446.5,-628.2 567.5,-628.2 567.5,-605.2 446.5,-605.2"/>
<text text-anchor="start" x="451.5" y="-614.3" font-family="Helvetica,sans-Serif" font-weight="bold" font-size="11.00" fill="#000000">leave_period</text>
<text text-anchor="start" x="532.5437" y="-613.3" font-family="Helvetica,sans-Serif" font-size="11.00" fill="#000000">[table]</text>
<polygon fill="none" stroke="#000000" points="446.5,-583.2 446.5,-605.2 567.5,-605.2 567.5,-583.2 446.5,-583.2"/>
<image xlink:href="../../images/primaryKeys.png" width="11px" height="12px" preserveAspectRatio="xMinYMin meet" x="451.5" y="-600.2"/>
<text text-anchor="start" x="466.5" y="-590.3" font-family="Helvetica,sans-Serif" font-size="11.00" fill="#000000">id</text>
<polygon fill="none" stroke="#000000" points="446.5,-561.2 446.5,-583.2 567.5,-583.2 567.5,-561.2 446.5,-561.2"/>
<image xlink:href="../../images/foreignKeys.png" width="11px" height="12px" preserveAspectRatio="xMinYMin meet" x="451.5" y="-578.2"/>
<text text-anchor="start" x="466.5" y="-568.3" font-family="Helvetica,sans-Serif" font-size="11.00" fill="#000000">user_id</text>
<polygon fill="none" stroke="#000000" points="446.5,-542.2 446.5,-561.2 567.5,-561.2 567.5,-542.2 446.5,-542.2"/>
<text text-anchor="start" x="449.5" y="-548.3" font-family="Helvetica,sans-Serif" font-size="11.00" fill="#000000">...</text>
<polygon fill="#ffffff" stroke="transparent" points="446.5,-523.2 446.5,-542.2 492.5,-542.2 492.5,-523.2 446.5,-523.2"/>
<polygon fill="none" stroke="#000000" points="446.5,-523.2 446.5,-542.2 492.5,-542.2 492.5,-523.2 446.5,-523.2"/>
<text text-anchor="start" x="449.5" y="-529.3" font-family="Helvetica,sans-Serif" font-size="11.00" fill="#000000">&lt; 1</text>
<polygon fill="#ffffff" stroke="transparent" points="492.5,-523.2 492.5,-542.2 542.5,-542.2 542.5,-523.2 492.5,-523.2"/>
<polygon fill="none" stroke="#000000" points="492.5,-523.2 492.5,-542.2 542.5,-542.2 542.5,-523.2 492.5,-523.2"/>
<text text-anchor="start" x="507.1105" y="-529.3" font-family="Helvetica,sans-Serif" font-size="11.00" fill="#000000">0 rows</text>
<polygon fill="#ffffff" stroke="transparent" points="542.5,-523.2 542.5,-542.2 567.5,-542.2 567.5,-523.2 542.5,-523.2"/>
<polygon fill="none" stroke="#000000" points="542.5,-523.2 542.5,-542.2 567.5,-542.2 567.5,-523.2 542.5,-523.2"/>
<text text-anchor="start" x="558.3862" y="-529.3" font-family="Helvetica,sans-Serif" font-size="11.00" fill="#000000"> &#160;</text>
</a>
</g>
</g>
<!-- leave_period&#45;&gt;user -->
<g id="edge3" class="edge">
<title>leave_period:w&#45;&gt;user:e</title>
<path fill="none" stroke="#000000" d="M432.1311,-569.6831C388.011,-551.9247 426.8723,-446.2 366,-446.2"/>
<polygon fill="#000000" stroke="#000000" points="438.62,-570.8197 445.8788,-575.746 442.56,-571.5098 446.5,-572.2 446.5,-572.2 446.5,-572.2 442.56,-571.5098 447.1212,-568.654 438.62,-570.8197 438.62,-570.8197"/>
<ellipse fill="none" stroke="#000000" cx="435.468" cy="-570.2675" rx="3.2" ry="3.2"/>
</g>
<!-- manager -->
<g id="node5" class="node">
<title>manager</title>
<g id="a_node5"><a xlink:href="../../tables/manager.html" xlink:title="manager" target="_top">
<polygon fill="#ffffff" stroke="transparent" points="446,-397.7 446,-502.7 567,-502.7 567,-397.7 446,-397.7"/>
<polygon fill="#f5f5f5" stroke="transparent" points="446.5,-479.2 446.5,-502.2 567.5,-502.2 567.5,-479.2 446.5,-479.2"/>
<polygon fill="none" stroke="#000000" points="446.5,-479.2 446.5,-502.2 567.5,-502.2 567.5,-479.2 446.5,-479.2"/>
<text text-anchor="start" x="451.5" y="-488.3" font-family="Helvetica,sans-Serif" font-weight="bold" font-size="11.00" fill="#000000">manager</text>
<text text-anchor="start" x="532.5437" y="-487.3" font-family="Helvetica,sans-Serif" font-size="11.00" fill="#000000">[table]</text>
<polygon fill="none" stroke="#000000" points="446.5,-457.2 446.5,-479.2 567.5,-479.2 567.5,-457.2 446.5,-457.2"/>
<image xlink:href="../../images/primaryKeys.png" width="11px" height="12px" preserveAspectRatio="xMinYMin meet" x="451.5" y="-474.2"/>
<text text-anchor="start" x="466.5" y="-464.3" font-family="Helvetica,sans-Serif" font-size="11.00" fill="#000000">group_id</text>
<polygon fill="none" stroke="#000000" points="446.5,-435.2 446.5,-457.2 567.5,-457.2 567.5,-435.2 446.5,-435.2"/>
<image xlink:href="../../images/primaryKeys.png" width="11px" height="12px" preserveAspectRatio="xMinYMin meet" x="451.5" y="-452.2"/>
<text text-anchor="start" x="466.5" y="-442.3" font-family="Helvetica,sans-Serif" font-size="11.00" fill="#000000">user_id</text>
<polygon fill="none" stroke="#000000" points="446.5,-416.2 446.5,-435.2 567.5,-435.2 567.5,-416.2 446.5,-416.2"/>
<text text-anchor="start" x="449.5" y="-422.3" font-family="Helvetica,sans-Serif" font-size="11.00" fill="#000000">...</text>
<polygon fill="#ffffff" stroke="transparent" points="446.5,-397.2 446.5,-416.2 492.5,-416.2 492.5,-397.2 446.5,-397.2"/>
<polygon fill="none" stroke="#000000" points="446.5,-397.2 446.5,-416.2 492.5,-416.2 492.5,-397.2 446.5,-397.2"/>
<text text-anchor="start" x="449.5" y="-403.3" font-family="Helvetica,sans-Serif" font-size="11.00" fill="#000000">&lt; 2</text>
<polygon fill="#ffffff" stroke="transparent" points="492.5,-397.2 492.5,-416.2 542.5,-416.2 542.5,-397.2 492.5,-397.2"/>
<polygon fill="none" stroke="#000000" points="492.5,-397.2 492.5,-416.2 542.5,-416.2 542.5,-397.2 492.5,-397.2"/>
<text text-anchor="start" x="507.1105" y="-403.3" font-family="Helvetica,sans-Serif" font-size="11.00" fill="#000000">0 rows</text>
<polygon fill="#ffffff" stroke="transparent" points="542.5,-397.2 542.5,-416.2 567.5,-416.2 567.5,-397.2 542.5,-397.2"/>
<polygon fill="none" stroke="#000000" points="542.5,-397.2 542.5,-416.2 567.5,-416.2 567.5,-397.2 542.5,-397.2"/>
<text text-anchor="start" x="558.3862" y="-403.3" font-family="Helvetica,sans-Serif" font-size="11.00" fill="#000000"> &#160;</text>
</a>
</g>
</g>
<!-- manager&#45;&gt;user -->
<g id="edge4" class="edge">
<title>manager:w&#45;&gt;user:e</title>
<path fill="none" stroke="#000000" d="M431.827,-446.2C407.3742,-446.2 396.3273,-446.2 366,-446.2"/>
<polygon fill="#000000" stroke="#000000" points="438.5,-446.2001 446.5,-449.8 442.5,-446.2 446.5,-446.2 446.5,-446.2 446.5,-446.2 442.5,-446.2 446.5,-442.6 438.5,-446.2001 438.5,-446.2001"/>
<ellipse fill="none" stroke="#000000" cx="435.3" cy="-446.2001" rx="3.2" ry="3.2"/>
</g>
<!-- member -->
<g id="node6" class="node">
<title>member</title>
<g id="a_node6"><a xlink:href="../../tables/member.html" xlink:title="member" target="_top">
<polygon fill="#ffffff" stroke="transparent" points="446,-271.7 446,-376.7 567,-376.7 567,-271.7 446,-271.7"/>
<polygon fill="#f5f5f5" stroke="transparent" points="446.5,-353.2 446.5,-376.2 567.5,-376.2 567.5,-353.2 446.5,-353.2"/>
<polygon fill="none" stroke="#000000" points="446.5,-353.2 446.5,-376.2 567.5,-376.2 567.5,-353.2 446.5,-353.2"/>
<text text-anchor="start" x="451.5" y="-362.3" font-family="Helvetica,sans-Serif" font-weight="bold" font-size="11.00" fill="#000000">member</text>
<text text-anchor="start" x="532.5437" y="-361.3" font-family="Helvetica,sans-Serif" font-size="11.00" fill="#000000">[table]</text>
<polygon fill="none" stroke="#000000" points="446.5,-331.2 446.5,-353.2 567.5,-353.2 567.5,-331.2 446.5,-331.2"/>
<image xlink:href="../../images/primaryKeys.png" width="11px" height="12px" preserveAspectRatio="xMinYMin meet" x="451.5" y="-348.2"/>
<text text-anchor="start" x="466.5" y="-338.3" font-family="Helvetica,sans-Serif" font-size="11.00" fill="#000000">group_id</text>
<polygon fill="none" stroke="#000000" points="446.5,-309.2 446.5,-331.2 567.5,-331.2 567.5,-309.2 446.5,-309.2"/>
<image xlink:href="../../images/primaryKeys.png" width="11px" height="12px" preserveAspectRatio="xMinYMin meet" x="451.5" y="-326.2"/>
<text text-anchor="start" x="466.5" y="-316.3" font-family="Helvetica,sans-Serif" font-size="11.00" fill="#000000">user_id</text>
<polygon fill="none" stroke="#000000" points="446.5,-290.2 446.5,-309.2 567.5,-309.2 567.5,-290.2 446.5,-290.2"/>
<text text-anchor="start" x="449.5" y="-296.3" font-family="Helvetica,sans-Serif" font-size="11.00" fill="#000000">...</text>
<polygon fill="#ffffff" stroke="transparent" points="446.5,-271.2 446.5,-290.2 492.5,-290.2 492.5,-271.2 446.5,-271.2"/>
<polygon fill="none" stroke="#000000" points="446.5,-271.2 446.5,-290.2 492.5,-290.2 492.5,-271.2 446.5,-271.2"/>
<text text-anchor="start" x="449.5" y="-277.3" font-family="Helvetica,sans-Serif" font-size="11.00" fill="#000000">&lt; 2</text>
<polygon fill="#ffffff" stroke="transparent" points="492.5,-271.2 492.5,-290.2 542.5,-290.2 542.5,-271.2 492.5,-271.2"/>
<polygon fill="none" stroke="#000000" points="492.5,-271.2 492.5,-290.2 542.5,-290.2 542.5,-271.2 492.5,-271.2"/>
<text text-anchor="start" x="507.1105" y="-277.3" font-family="Helvetica,sans-Serif" font-size="11.00" fill="#000000">0 rows</text>
<polygon fill="#ffffff" stroke="transparent" points="542.5,-271.2 542.5,-290.2 567.5,-290.2 567.5,-271.2 542.5,-271.2"/>
<polygon fill="none" stroke="#000000" points="542.5,-271.2 542.5,-290.2 567.5,-290.2 567.5,-271.2 542.5,-271.2"/>
<text text-anchor="start" x="558.3862" y="-277.3" font-family="Helvetica,sans-Serif" font-size="11.00" fill="#000000"> &#160;</text>
</a>
</g>
</g>
<!-- member&#45;&gt;user -->
<g id="edge5" class="edge">
<title>member:w&#45;&gt;user:e</title>
<path fill="none" stroke="#000000" d="M432.1311,-322.7169C388.011,-340.4753 426.8723,-446.2 366,-446.2"/>
<polygon fill="#000000" stroke="#000000" points="438.62,-321.5803 447.1212,-323.746 442.56,-320.8902 446.5,-320.2 446.5,-320.2 446.5,-320.2 442.56,-320.8902 445.8788,-316.654 438.62,-321.5803 438.62,-321.5803"/>
<ellipse fill="none" stroke="#000000" cx="435.468" cy="-322.1325" rx="3.2" ry="3.2"/>
</g>
<!-- paid_leave_grant_history -->
<g id="node7" class="node">
<title>paid_leave_grant_history</title>
<g id="a_node7"><a xlink:href="../../tables/paid_leave_grant_history.html" xlink:title="paid_leave_grant_history" target="_top">
<polygon fill="#ffffff" stroke="transparent" points="424,-145.7 424,-250.7 589,-250.7 589,-145.7 424,-145.7"/>
<polygon fill="#f5f5f5" stroke="transparent" points="424.5,-227.2 424.5,-250.2 589.5,-250.2 589.5,-227.2 424.5,-227.2"/>
<polygon fill="none" stroke="#000000" points="424.5,-227.2 424.5,-250.2 589.5,-250.2 589.5,-227.2 424.5,-227.2"/>
<text text-anchor="start" x="429.0656" y="-236.3" font-family="Helvetica,sans-Serif" font-weight="bold" font-size="11.00" fill="#000000">paid_leave_grant_history</text>
<text text-anchor="start" x="555.0219" y="-235.3" font-family="Helvetica,sans-Serif" font-size="11.00" fill="#000000">[table]</text>
<polygon fill="none" stroke="#000000" points="424.5,-205.2 424.5,-227.2 589.5,-227.2 589.5,-205.2 424.5,-205.2"/>
<image xlink:href="../../images/primaryKeys.png" width="11px" height="12px" preserveAspectRatio="xMinYMin meet" x="429.5" y="-222.2"/>
<text text-anchor="start" x="444.5" y="-212.3" font-family="Helvetica,sans-Serif" font-size="11.00" fill="#000000">user_id</text>
<polygon fill="none" stroke="#000000" points="424.5,-183.2 424.5,-205.2 589.5,-205.2 589.5,-183.2 424.5,-183.2"/>
<image xlink:href="../../images/primaryKeys.png" width="11px" height="12px" preserveAspectRatio="xMinYMin meet" x="429.5" y="-200.2"/>
<text text-anchor="start" x="444.5" y="-190.3" font-family="Helvetica,sans-Serif" font-size="11.00" fill="#000000">rule_detail_id</text>
<polygon fill="none" stroke="#000000" points="424.5,-164.2 424.5,-183.2 589.5,-183.2 589.5,-164.2 424.5,-164.2"/>
<text text-anchor="start" x="427.5" y="-170.3" font-family="Helvetica,sans-Serif" font-size="11.00" fill="#000000">...</text>
<polygon fill="#ffffff" stroke="transparent" points="424.5,-145.2 424.5,-164.2 492.5,-164.2 492.5,-145.2 424.5,-145.2"/>
<polygon fill="none" stroke="#000000" points="424.5,-145.2 424.5,-164.2 492.5,-164.2 492.5,-145.2 424.5,-145.2"/>
<text text-anchor="start" x="427.5" y="-151.3" font-family="Helvetica,sans-Serif" font-size="11.00" fill="#000000">&lt; 2</text>
<polygon fill="#ffffff" stroke="transparent" points="492.5,-145.2 492.5,-164.2 553.5,-164.2 553.5,-145.2 492.5,-145.2"/>
<polygon fill="none" stroke="#000000" points="492.5,-145.2 492.5,-164.2 553.5,-164.2 553.5,-145.2 492.5,-145.2"/>
<text text-anchor="start" x="518.1105" y="-151.3" font-family="Helvetica,sans-Serif" font-size="11.00" fill="#000000">0 rows</text>
<polygon fill="#ffffff" stroke="transparent" points="553.5,-145.2 553.5,-164.2 589.5,-164.2 589.5,-145.2 553.5,-145.2"/>
<polygon fill="none" stroke="#000000" points="553.5,-145.2 553.5,-164.2 589.5,-164.2 589.5,-145.2 553.5,-145.2"/>
<text text-anchor="start" x="580.3862" y="-151.3" font-family="Helvetica,sans-Serif" font-size="11.00" fill="#000000"> &#160;</text>
</a>
</g>
</g>
<!-- paid_leave_grant_history&#45;&gt;user -->
<g id="edge6" class="edge">
<title>paid_leave_grant_history:w&#45;&gt;user:e</title>
<path fill="none" stroke="#000000" d="M409.8894,-218.0514C334.3849,-239.8182 465.9147,-446.2 366,-446.2"/>
<polygon fill="#000000" stroke="#000000" points="416.5635,-217.2057 424.9526,-219.7714 420.5317,-216.7029 424.5,-216.2 424.5,-216.2 424.5,-216.2 420.5317,-216.7029 424.0474,-212.6286 416.5635,-217.2057 416.5635,-217.2057"/>
<ellipse fill="none" stroke="#000000" cx="413.3888" cy="-217.608" rx="3.2" ry="3.2"/>
</g>
<!-- user_rule -->
<g id="node9" class="node">
<title>user_rule</title>
<g id="a_node9"><a xlink:href="../../tables/user_rule.html" xlink:title="user_rule" target="_top">
<polygon fill="#ffffff" stroke="transparent" points="462.5,-38.2 462.5,-124.2 550.5,-124.2 550.5,-38.2 462.5,-38.2"/>
<polygon fill="#f5f5f5" stroke="transparent" points="462.5,-101.2 462.5,-124.2 550.5,-124.2 550.5,-101.2 462.5,-101.2"/>
<polygon fill="none" stroke="#000000" points="462.5,-101.2 462.5,-124.2 550.5,-124.2 550.5,-101.2 462.5,-101.2"/>
<text text-anchor="start" x="467.0804" y="-110.3" font-family="Helvetica,sans-Serif" font-weight="bold" font-size="11.00" fill="#000000">user_rule</text>
<text text-anchor="start" x="516.0219" y="-109.3" font-family="Helvetica,sans-Serif" font-size="11.00" fill="#000000">[table]</text>
<polygon fill="none" stroke="#000000" points="462.5,-79.2 462.5,-101.2 550.5,-101.2 550.5,-79.2 462.5,-79.2"/>
<image xlink:href="../../images/primaryKeys.png" width="11px" height="12px" preserveAspectRatio="xMinYMin meet" x="467.5" y="-96.2"/>
<text text-anchor="start" x="489.5" y="-86.3" font-family="Helvetica,sans-Serif" font-size="11.00" fill="#000000">user_id</text>
<polygon fill="none" stroke="#000000" points="462.5,-57.2 462.5,-79.2 550.5,-79.2 550.5,-57.2 462.5,-57.2"/>
<image xlink:href="../../images/foreignKeys.png" width="11px" height="12px" preserveAspectRatio="xMinYMin meet" x="467.5" y="-74.2"/>
<text text-anchor="start" x="489.5" y="-64.3" font-family="Helvetica,sans-Serif" font-size="11.00" fill="#000000">rule_id</text>
<polygon fill="#ffffff" stroke="transparent" points="462.5,-38.2 462.5,-57.2 491.5,-57.2 491.5,-38.2 462.5,-38.2"/>
<polygon fill="none" stroke="#000000" points="462.5,-38.2 462.5,-57.2 491.5,-57.2 491.5,-38.2 462.5,-38.2"/>
<text text-anchor="start" x="465.5" y="-44.3" font-family="Helvetica,sans-Serif" font-size="11.00" fill="#000000">&lt; 2</text>
<polygon fill="#ffffff" stroke="transparent" points="491.5,-38.2 491.5,-57.2 533.5,-57.2 533.5,-38.2 491.5,-38.2"/>
<polygon fill="none" stroke="#000000" points="491.5,-38.2 491.5,-57.2 533.5,-57.2 533.5,-38.2 491.5,-38.2"/>
<text text-anchor="start" x="498.1105" y="-44.3" font-family="Helvetica,sans-Serif" font-size="11.00" fill="#000000">2 rows</text>
<polygon fill="#ffffff" stroke="transparent" points="533.5,-38.2 533.5,-57.2 550.5,-57.2 550.5,-38.2 533.5,-38.2"/>
<polygon fill="none" stroke="#000000" points="533.5,-38.2 533.5,-57.2 550.5,-57.2 550.5,-38.2 533.5,-38.2"/>
<text text-anchor="start" x="541.3862" y="-44.3" font-family="Helvetica,sans-Serif" font-size="11.00" fill="#000000"> &#160;</text>
</a>
</g>
</g>
<!-- user_rule&#45;&gt;user -->
<g id="edge8" class="edge">
<title>user_rule:w&#45;&gt;user:e</title>
<path fill="none" stroke="#000000" d="M451.8964,-91.0179C429.4574,-94.7967 422.1397,-111.3994 409,-135.2 375.2799,-196.2787 435.7686,-446.2 366,-446.2"/>
<polygon fill="#000000" stroke="#000000" points="461.3947,-86.2734 462.01,-94.2497 460.4148,-94.3728 459.7994,-86.3965 461.3947,-86.2734"/>
<polyline fill="none" stroke="#000000" points="462.5,-90.2 458.5118,-90.5077 "/>
<ellipse fill="none" stroke="#000000" cx="455.3213" cy="-90.7538" rx="3.2" ry="3.2"/>
</g>
</g>
</svg>
