<?xml version="1.0" encoding="UTF-8" standalone="no"?>
<!DOCTYPE svg PUBLIC "-//W3C//DTD SVG 1.1//EN"
 "http://www.w3.org/Graphics/SVG/1.1/DTD/svg11.dtd">
<!-- Generated by graphviz version 2.40.1 (20161225.0304)
 -->
<!-- Title: twoDegreesRelationshipsDiagram Pages: 1 -->
<svg width="679pt" height="849pt"
 viewBox="0.00 0.00 679.00 848.70" xmlns="http://www.w3.org/2000/svg" xmlns:xlink="http://www.w3.org/1999/xlink">
<g id="graph0" class="graph" transform="scale(1 1) rotate(0) translate(4 844.7)">
<title>twoDegreesRelationshipsDiagram</title>
<polygon fill="#ffffff" stroke="transparent" points="-4,4 -4,-844.7 675,-844.7 675,4 -4,4"/>
<text text-anchor="middle" x="72.4936" y="-7.3" font-family="Helvetica,sans-Serif" font-size="11.00" fill="#000000">Generated by SchemaSpy</text>
<!-- account -->
<g id="node1" class="node">
<title>account</title>
<g id="a_node1"><a xlink:href="../../tables/account.html" xlink:title="account" target="_top">
<polygon fill="#ffffff" stroke="transparent" points="513,-501.7 513,-584.7 634,-584.7 634,-501.7 513,-501.7"/>
<polygon fill="#f5f5f5" stroke="transparent" points="513.5,-561.2 513.5,-584.2 634.5,-584.2 634.5,-561.2 513.5,-561.2"/>
<polygon fill="none" stroke="#000000" points="513.5,-561.2 513.5,-584.2 634.5,-584.2 634.5,-561.2 513.5,-561.2"/>
<text text-anchor="start" x="518.5" y="-570.3" font-family="Helvetica,sans-Serif" font-weight="bold" font-size="11.00" fill="#000000">account</text>
<text text-anchor="start" x="599.5437" y="-569.3" font-family="Helvetica,sans-Serif" font-size="11.00" fill="#000000">[table]</text>
<polygon fill="none" stroke="#000000" points="513.5,-539.2 513.5,-561.2 634.5,-561.2 634.5,-539.2 513.5,-539.2"/>
<image xlink:href="../../images/primaryKeys.png" width="11px" height="12px" preserveAspectRatio="xMinYMin meet" x="518.5" y="-556.2"/>
<text text-anchor="start" x="533.5" y="-546.3" font-family="Helvetica,sans-Serif" font-size="11.00" fill="#000000">user_id</text>
<polygon fill="none" stroke="#000000" points="513.5,-520.2 513.5,-539.2 634.5,-539.2 634.5,-520.2 513.5,-520.2"/>
<text text-anchor="start" x="516.5" y="-526.3" font-family="Helvetica,sans-Serif" font-size="11.00" fill="#000000">...</text>
<polygon fill="#ffffff" stroke="transparent" points="513.5,-501.2 513.5,-520.2 559.5,-520.2 559.5,-501.2 513.5,-501.2"/>
<polygon fill="none" stroke="#000000" points="513.5,-501.2 513.5,-520.2 559.5,-520.2 559.5,-501.2 513.5,-501.2"/>
<text text-anchor="start" x="516.5" y="-507.3" font-family="Helvetica,sans-Serif" font-size="11.00" fill="#000000">&lt; 1</text>
<polygon fill="#ffffff" stroke="transparent" points="559.5,-501.2 559.5,-520.2 609.5,-520.2 609.5,-501.2 559.5,-501.2"/>
<polygon fill="none" stroke="#000000" points="559.5,-501.2 559.5,-520.2 609.5,-520.2 609.5,-501.2 559.5,-501.2"/>
<text text-anchor="start" x="574.1105" y="-507.3" font-family="Helvetica,sans-Serif" font-size="11.00" fill="#000000">3 rows</text>
<polygon fill="#ffffff" stroke="transparent" points="609.5,-501.2 609.5,-520.2 634.5,-520.2 634.5,-501.2 609.5,-501.2"/>
<polygon fill="none" stroke="#000000" points="609.5,-501.2 609.5,-520.2 634.5,-520.2 634.5,-501.2 609.5,-501.2"/>
<text text-anchor="start" x="625.3862" y="-507.3" font-family="Helvetica,sans-Serif" font-size="11.00" fill="#000000"> &#160;</text>
</a>
</g>
</g>
<!-- user -->
<g id="node2" class="node">
<title>user</title>
<g id="a_node2"><a xlink:href="../../tables/user.html" xlink:title="user" target="_top">
<polygon fill="#ffffff" stroke="transparent" points="223,-238.2 223,-482.2 435,-482.2 435,-238.2 223,-238.2"/>
<polygon fill="#f5f5f5" stroke="transparent" points="225,-457.2 225,-480.2 433,-480.2 433,-457.2 225,-457.2"/>
<polygon fill="none" stroke="#000000" points="225,-457.2 225,-480.2 433,-480.2 433,-457.2 225,-457.2"/>
<text text-anchor="start" x="230" y="-466.3" font-family="Helvetica,sans-Serif" font-weight="bold" font-size="11.00" fill="#000000">user</text>
<text text-anchor="start" x="398.0437" y="-465.3" font-family="Helvetica,sans-Serif" font-size="11.00" fill="#000000">[table]</text>
<polygon fill="none" stroke="#000000" points="225,-435.2 225,-457.2 346,-457.2 346,-435.2 225,-435.2"/>
<image xlink:href="../../images/primaryKeys.png" width="11px" height="12px" preserveAspectRatio="xMinYMin meet" x="230" y="-452.2"/>
<text text-anchor="start" x="245" y="-442.3" font-family="Helvetica,sans-Serif" font-size="11.00" fill="#000000">id</text>
<polygon fill="none" stroke="#000000" points="346,-435.2 346,-457.2 433,-457.2 433,-435.2 346,-435.2"/>
<text text-anchor="start" x="349" y="-442.9" font-family="Helvetica,sans-Serif" font-size="11.00" fill="#000000">int4[10]</text>
<polygon fill="none" stroke="#000000" points="225,-413.2 225,-435.2 346,-435.2 346,-413.2 225,-413.2"/>
<image xlink:href="../../images/foreignKeys.png" width="11px" height="12px" preserveAspectRatio="xMinYMin meet" x="230" y="-430.2"/>
<text text-anchor="start" x="245" y="-420.3" font-family="Helvetica,sans-Serif" font-size="11.00" fill="#000000">status</text>
<polygon fill="none" stroke="#000000" points="346,-413.2 346,-435.2 433,-435.2 433,-413.2 346,-413.2"/>
<text text-anchor="start" x="349" y="-420.9" font-family="Helvetica,sans-Serif" font-size="11.00" fill="#000000">varchar[100]</text>
<polygon fill="none" stroke="#000000" points="225,-391.2 225,-413.2 346,-413.2 346,-391.2 225,-391.2"/>
<text text-anchor="start" x="245" y="-398.3" font-family="Helvetica,sans-Serif" font-size="11.00" fill="#000000">email</text>
<polygon fill="none" stroke="#000000" points="346,-391.2 346,-413.2 433,-413.2 433,-391.2 346,-391.2"/>
<text text-anchor="start" x="349" y="-398.9" font-family="Helvetica,sans-Serif" font-size="11.00" fill="#000000">varchar[100]</text>
<polygon fill="none" stroke="#000000" points="225,-369.2 225,-391.2 346,-391.2 346,-369.2 225,-369.2"/>
<text text-anchor="start" x="245" y="-376.3" font-family="Helvetica,sans-Serif" font-size="11.00" fill="#000000">name</text>
<polygon fill="none" stroke="#000000" points="346,-369.2 346,-391.2 433,-391.2 433,-369.2 346,-369.2"/>
<text text-anchor="start" x="349" y="-376.9" font-family="Helvetica,sans-Serif" font-size="11.00" fill="#000000">varchar[100]</text>
<polygon fill="none" stroke="#000000" points="225,-347.2 225,-369.2 346,-369.2 346,-347.2 225,-347.2"/>
<text text-anchor="start" x="245" y="-354.3" font-family="Helvetica,sans-Serif" font-size="11.00" fill="#000000">hire_date</text>
<polygon fill="none" stroke="#000000" points="346,-347.2 346,-369.2 433,-369.2 433,-347.2 346,-347.2"/>
<text text-anchor="start" x="349" y="-354.9" font-family="Helvetica,sans-Serif" font-size="11.00" fill="#000000">date[13]</text>
<polygon fill="none" stroke="#000000" points="225,-325.2 225,-347.2 346,-347.2 346,-325.2 225,-325.2"/>
<text text-anchor="start" x="245" y="-332.3" font-family="Helvetica,sans-Serif" font-size="11.00" fill="#000000">register_datetime</text>
<polygon fill="none" stroke="#000000" points="346,-325.2 346,-347.2 433,-347.2 433,-325.2 346,-325.2"/>
<text text-anchor="start" x="349" y="-332.9" font-family="Helvetica,sans-Serif" font-size="11.00" fill="#000000">timestamp[29,6]</text>
<polygon fill="none" stroke="#000000" points="225,-303.2 225,-325.2 346,-325.2 346,-303.2 225,-303.2"/>
<text text-anchor="start" x="245" y="-310.3" font-family="Helvetica,sans-Serif" font-size="11.00" fill="#000000">update_datetime</text>
<polygon fill="none" stroke="#000000" points="346,-303.2 346,-325.2 433,-325.2 433,-303.2 346,-303.2"/>
<text text-anchor="start" x="349" y="-310.9" font-family="Helvetica,sans-Serif" font-size="11.00" fill="#000000">timestamp[29,6]</text>
<polygon fill="none" stroke="#000000" points="225,-281.2 225,-303.2 346,-303.2 346,-281.2 225,-281.2"/>
<text text-anchor="start" x="245" y="-288.3" font-family="Helvetica,sans-Serif" font-size="11.00" fill="#000000">deleted</text>
<polygon fill="none" stroke="#000000" points="346,-281.2 346,-303.2 433,-303.2 433,-281.2 346,-281.2"/>
<text text-anchor="start" x="349" y="-288.9" font-family="Helvetica,sans-Serif" font-size="11.00" fill="#000000">bool[1]</text>
<polygon fill="none" stroke="#000000" points="225,-259.2 225,-281.2 346,-281.2 346,-259.2 225,-259.2"/>
<text text-anchor="start" x="245" y="-266.3" font-family="Helvetica,sans-Serif" font-size="11.00" fill="#000000">leftover_holiday</text>
<polygon fill="none" stroke="#000000" points="346,-259.2 346,-281.2 433,-281.2 433,-259.2 346,-259.2"/>
<text text-anchor="start" x="348.5437" y="-266.9" font-family="Helvetica,sans-Serif" font-size="11.00" fill="#000000">numeric[131089]</text>
<polygon fill="#ffffff" stroke="transparent" points="225,-240.2 225,-259.2 277,-259.2 277,-240.2 225,-240.2"/>
<polygon fill="none" stroke="#000000" points="225,-240.2 225,-259.2 277,-259.2 277,-240.2 225,-240.2"/>
<text text-anchor="start" x="228" y="-246.3" font-family="Helvetica,sans-Serif" font-size="11.00" fill="#000000">&lt; 1</text>
<polygon fill="#ffffff" stroke="transparent" points="277,-240.2 277,-259.2 346,-259.2 346,-240.2 277,-240.2"/>
<polygon fill="none" stroke="#000000" points="277,-240.2 277,-259.2 346,-259.2 346,-240.2 277,-240.2"/>
<text text-anchor="start" x="310.6105" y="-246.3" font-family="Helvetica,sans-Serif" font-size="11.00" fill="#000000">3 rows</text>
<polygon fill="#ffffff" stroke="transparent" points="346,-240.2 346,-259.2 433,-259.2 433,-240.2 346,-240.2"/>
<polygon fill="none" stroke="#000000" points="346,-240.2 346,-259.2 433,-259.2 433,-240.2 346,-240.2"/>
<text text-anchor="start" x="414.4053" y="-246.3" font-family="Helvetica,sans-Serif" font-size="11.00" fill="#000000">7 &gt;</text>
<polygon fill="none" stroke="#000000" stroke-width="2" points="224,-239.2 224,-481.2 434,-481.2 434,-239.2 224,-239.2"/>
</a>
</g>
</g>
<!-- account&#45;&gt;user -->
<g id="edge1" class="edge">
<title>account:w&#45;&gt;user:e</title>
<path fill="none" stroke="#000000" d="M503.0547,-548.8851C459.4652,-536.8461 487.5697,-446.2 433,-446.2"/>
<polygon fill="#000000" stroke="#000000" points="513.2059,-546.1314 512.2066,-554.0687 510.6191,-553.8689 511.6184,-545.9315 513.2059,-546.1314"/>
<polyline fill="none" stroke="#000000" points="513.5,-550.2 509.5313,-549.7004 "/>
<ellipse fill="none" stroke="#000000" cx="506.3564" cy="-549.3006" rx="3.2" ry="3.2"/>
</g>
<!-- user_status -->
<g id="node11" class="node">
<title>user_status</title>
<g id="a_node11"><a xlink:href="../../tables/user_status.html" xlink:title="user_status" target="_top">
<polygon fill="#ffffff" stroke="transparent" points="41.5,-394.2 41.5,-458.2 140.5,-458.2 140.5,-394.2 41.5,-394.2"/>
<polygon fill="#f5f5f5" stroke="transparent" points="42,-435.2 42,-458.2 141,-458.2 141,-435.2 42,-435.2"/>
<polygon fill="none" stroke="#000000" points="42,-435.2 42,-458.2 141,-458.2 141,-435.2 42,-435.2"/>
<text text-anchor="start" x="46.5749" y="-444.3" font-family="Helvetica,sans-Serif" font-weight="bold" font-size="11.00" fill="#000000">user_status</text>
<text text-anchor="start" x="106.5219" y="-443.3" font-family="Helvetica,sans-Serif" font-size="11.00" fill="#000000">[table]</text>
<polygon fill="none" stroke="#000000" points="42,-413.2 42,-435.2 141,-435.2 141,-413.2 42,-413.2"/>
<image xlink:href="../../images/primaryKeys.png" width="11px" height="12px" preserveAspectRatio="xMinYMin meet" x="47" y="-430.2"/>
<text text-anchor="start" x="68" y="-420.3" font-family="Helvetica,sans-Serif" font-size="11.00" fill="#000000">status</text>
<polygon fill="#ffffff" stroke="transparent" points="42,-394.2 42,-413.2 68,-413.2 68,-394.2 42,-394.2"/>
<polygon fill="none" stroke="#000000" points="42,-394.2 42,-413.2 68,-413.2 68,-394.2 42,-394.2"/>
<text text-anchor="start" x="45" y="-400.3" font-family="Helvetica,sans-Serif" font-size="11.00" fill="#000000"> &#160;</text>
<polygon fill="#ffffff" stroke="transparent" points="68,-394.2 68,-413.2 113,-413.2 113,-394.2 68,-394.2"/>
<polygon fill="none" stroke="#000000" points="68,-394.2 68,-413.2 113,-413.2 113,-394.2 68,-394.2"/>
<text text-anchor="start" x="77.6105" y="-400.3" font-family="Helvetica,sans-Serif" font-size="11.00" fill="#000000">3 rows</text>
<polygon fill="#ffffff" stroke="transparent" points="113,-394.2 113,-413.2 141,-413.2 141,-394.2 113,-394.2"/>
<polygon fill="none" stroke="#000000" points="113,-394.2 113,-413.2 141,-413.2 141,-394.2 113,-394.2"/>
<text text-anchor="start" x="122.4053" y="-400.3" font-family="Helvetica,sans-Serif" font-size="11.00" fill="#000000">1 &gt;</text>
</a>
</g>
</g>
<!-- user&#45;&gt;user_status -->
<g id="edge11" class="edge">
<title>user:w&#45;&gt;user_status:e</title>
<path fill="none" stroke="#000000" d="M210.3981,-424.2C184.3839,-424.2 172.9375,-424.2 141,-424.2"/>
<polygon fill="#000000" stroke="#000000" points="217,-424.2001 225,-427.8 221,-424.2 225,-424.2 225,-424.2 225,-424.2 221,-424.2 225,-420.6 217,-424.2001 217,-424.2001"/>
<ellipse fill="none" stroke="#000000" cx="213.8" cy="-424.2001" rx="3.2" ry="3.2"/>
</g>
<!-- alert_for_taking_paid_leave -->
<g id="node3" class="node">
<title>alert_for_taking_paid_leave</title>
<g id="a_node3"><a xlink:href="../../tables/alert_for_taking_paid_leave.html" xlink:title="alert_for_taking_paid_leave" target="_top">
<polygon fill="#ffffff" stroke="transparent" points="484,-397.7 484,-480.7 663,-480.7 663,-397.7 484,-397.7"/>
<polygon fill="#f5f5f5" stroke="transparent" points="484.5,-457.2 484.5,-480.2 663.5,-480.2 663.5,-457.2 484.5,-457.2"/>
<polygon fill="none" stroke="#000000" points="484.5,-457.2 484.5,-480.2 663.5,-480.2 663.5,-457.2 484.5,-457.2"/>
<text text-anchor="start" x="489.5" y="-466.3" font-family="Helvetica,sans-Serif" font-weight="bold" font-size="11.00" fill="#000000">alert_for_taking_paid_leave</text>
<text text-anchor="start" x="629.0219" y="-465.3" font-family="Helvetica,sans-Serif" font-size="11.00" fill="#000000">[table]</text>
<polygon fill="none" stroke="#000000" points="484.5,-435.2 484.5,-457.2 663.5,-457.2 663.5,-435.2 484.5,-435.2"/>
<image xlink:href="../../images/primaryKeys.png" width="11px" height="12px" preserveAspectRatio="xMinYMin meet" x="489.5" y="-452.2"/>
<text text-anchor="start" x="504.5" y="-442.3" font-family="Helvetica,sans-Serif" font-size="11.00" fill="#000000">user_id</text>
<polygon fill="none" stroke="#000000" points="484.5,-416.2 484.5,-435.2 663.5,-435.2 663.5,-416.2 484.5,-416.2"/>
<text text-anchor="start" x="487.5" y="-422.3" font-family="Helvetica,sans-Serif" font-size="11.00" fill="#000000">...</text>
<polygon fill="#ffffff" stroke="transparent" points="484.5,-397.2 484.5,-416.2 562.5,-416.2 562.5,-397.2 484.5,-397.2"/>
<polygon fill="none" stroke="#000000" points="484.5,-397.2 484.5,-416.2 562.5,-416.2 562.5,-397.2 484.5,-397.2"/>
<text text-anchor="start" x="487.5" y="-403.3" font-family="Helvetica,sans-Serif" font-size="11.00" fill="#000000">&lt; 1</text>
<polygon fill="#ffffff" stroke="transparent" points="562.5,-397.2 562.5,-416.2 622.5,-416.2 622.5,-397.2 562.5,-397.2"/>
<polygon fill="none" stroke="#000000" points="562.5,-397.2 562.5,-416.2 622.5,-416.2 622.5,-397.2 562.5,-397.2"/>
<text text-anchor="start" x="592.6105" y="-403.3" font-family="Helvetica,sans-Serif" font-size="11.00" fill="#000000">1 row</text>
<polygon fill="#ffffff" stroke="transparent" points="622.5,-397.2 622.5,-416.2 663.5,-416.2 663.5,-397.2 622.5,-397.2"/>
<polygon fill="none" stroke="#000000" points="622.5,-397.2 622.5,-416.2 663.5,-416.2 663.5,-397.2 622.5,-397.2"/>
<text text-anchor="start" x="654.3862" y="-403.3" font-family="Helvetica,sans-Serif" font-size="11.00" fill="#000000"> &#160;</text>
</a>
</g>
</g>
<!-- alert_for_taking_paid_leave&#45;&gt;user -->
<g id="edge2" class="edge">
<title>alert_for_taking_paid_leave:w&#45;&gt;user:e</title>
<path fill="none" stroke="#000000" d="M474.045,-446.2C459.137,-446.2 451.9549,-446.2 433,-446.2"/>
<polygon fill="#000000" stroke="#000000" points="483.7,-442.2 483.7,-450.2 482.1,-450.2 482.1,-442.2 483.7,-442.2"/>
<polyline fill="none" stroke="#000000" points="484.5,-446.2 480.5,-446.2 "/>
<ellipse fill="none" stroke="#000000" cx="477.3" cy="-446.2001" rx="3.2" ry="3.2"/>
</g>
<!-- granting_paid_leave_rule_detail -->
<g id="node4" class="node">
<title>granting_paid_leave_rule_detail</title>
<g id="a_node4"><a xlink:href="../../tables/granting_paid_leave_rule_detail.html" xlink:title="granting_paid_leave_rule_detail" target="_top">
<polygon fill="#ffffff" stroke="transparent" points="230,-139.7 230,-200.7 428,-200.7 428,-139.7 230,-139.7"/>
<polygon fill="#f5f5f5" stroke="transparent" points="230,-177.2 230,-200.2 428,-200.2 428,-177.2 230,-177.2"/>
<polygon fill="none" stroke="#000000" points="230,-177.2 230,-200.2 428,-200.2 428,-177.2 230,-177.2"/>
<text text-anchor="start" x="234.5595" y="-186.3" font-family="Helvetica,sans-Serif" font-weight="bold" font-size="11.00" fill="#000000">granting_paid_leave_rule_detail</text>
<text text-anchor="start" x="393.5219" y="-185.3" font-family="Helvetica,sans-Serif" font-size="11.00" fill="#000000">[table]</text>
<polygon fill="none" stroke="#000000" points="230,-158.2 230,-177.2 428,-177.2 428,-158.2 230,-158.2"/>
<text text-anchor="start" x="233" y="-164.3" font-family="Helvetica,sans-Serif" font-size="11.00" fill="#000000">...</text>
<polygon fill="#ffffff" stroke="transparent" points="230,-139.2 230,-158.2 307,-158.2 307,-139.2 230,-139.2"/>
<polygon fill="none" stroke="#000000" points="230,-139.2 230,-158.2 307,-158.2 307,-139.2 230,-139.2"/>
<text text-anchor="start" x="233" y="-145.3" font-family="Helvetica,sans-Serif" font-size="11.00" fill="#000000">&lt; 1</text>
<polygon fill="#ffffff" stroke="transparent" points="307,-139.2 307,-158.2 379,-158.2 379,-139.2 307,-139.2"/>
<polygon fill="none" stroke="#000000" points="307,-139.2 307,-158.2 379,-158.2 379,-139.2 307,-139.2"/>
<text text-anchor="start" x="337.4956" y="-145.3" font-family="Helvetica,sans-Serif" font-size="11.00" fill="#000000">32 rows</text>
<polygon fill="#ffffff" stroke="transparent" points="379,-139.2 379,-158.2 428,-158.2 428,-139.2 379,-139.2"/>
<polygon fill="none" stroke="#000000" points="379,-139.2 379,-158.2 428,-158.2 428,-139.2 379,-139.2"/>
<text text-anchor="start" x="409.4053" y="-145.3" font-family="Helvetica,sans-Serif" font-size="11.00" fill="#000000">1 &gt;</text>
</a>
</g>
</g>
<!-- granting_paid_leave_rule -->
<g id="node5" class="node">
<title>granting_paid_leave_rule</title>
<g id="a_node5"><a xlink:href="../../tables/granting_paid_leave_rule.html" xlink:title="granting_paid_leave_rule" target="_top">
<polygon fill="#ffffff" stroke="transparent" points="8,-113.7 8,-174.7 174,-174.7 174,-113.7 8,-113.7"/>
<polygon fill="#f5f5f5" stroke="transparent" points="8,-151.2 8,-174.2 174,-174.2 174,-151.2 8,-151.2"/>
<polygon fill="none" stroke="#000000" points="8,-151.2 8,-174.2 174,-174.2 174,-151.2 8,-151.2"/>
<text text-anchor="start" x="12.7587" y="-160.3" font-family="Helvetica,sans-Serif" font-weight="bold" font-size="11.00" fill="#000000">granting_paid_leave_rule</text>
<text text-anchor="start" x="139.5219" y="-159.3" font-family="Helvetica,sans-Serif" font-size="11.00" fill="#000000">[table]</text>
<polygon fill="none" stroke="#000000" points="8,-132.2 8,-151.2 174,-151.2 174,-132.2 8,-132.2"/>
<text text-anchor="start" x="11" y="-138.3" font-family="Helvetica,sans-Serif" font-size="11.00" fill="#000000">...</text>
<polygon fill="#ffffff" stroke="transparent" points="8,-113.2 8,-132.2 70,-132.2 70,-113.2 8,-113.2"/>
<polygon fill="none" stroke="#000000" points="8,-113.2 8,-132.2 70,-132.2 70,-113.2 8,-113.2"/>
<text text-anchor="start" x="11" y="-119.3" font-family="Helvetica,sans-Serif" font-size="11.00" fill="#000000"> &#160;</text>
<polygon fill="#ffffff" stroke="transparent" points="70,-113.2 70,-132.2 127,-132.2 127,-113.2 70,-113.2"/>
<polygon fill="none" stroke="#000000" points="70,-113.2 70,-132.2 127,-132.2 127,-113.2 70,-113.2"/>
<text text-anchor="start" x="97.1105" y="-119.3" font-family="Helvetica,sans-Serif" font-size="11.00" fill="#000000">1 row</text>
<polygon fill="#ffffff" stroke="transparent" points="127,-113.2 127,-132.2 174,-132.2 174,-113.2 127,-113.2"/>
<polygon fill="none" stroke="#000000" points="127,-113.2 127,-132.2 174,-132.2 174,-113.2 127,-113.2"/>
<text text-anchor="start" x="155.4053" y="-119.3" font-family="Helvetica,sans-Serif" font-size="11.00" fill="#000000">2 &gt;</text>
</a>
</g>
</g>
<!-- granting_paid_leave_rule_detail&#45;&gt;granting_paid_leave_rule -->
<g id="edge3" class="edge">
<title>granting_paid_leave_rule_detail:w&#45;&gt;granting_paid_leave_rule:e</title>
<path fill="none" stroke="#000000" d="M215.6547,-164.2175C200.9162,-157.3881 195.6524,-141.2 174,-141.2"/>
<polygon fill="#000000" stroke="#000000" points="222.1675,-165.5715 229.2672,-170.7246 226.0837,-166.3858 230,-167.2 230,-167.2 230,-167.2 226.0837,-166.3858 230.7328,-163.6754 222.1675,-165.5715 222.1675,-165.5715"/>
<ellipse fill="none" stroke="#000000" cx="219.0345" cy="-164.9201" rx="3.2" ry="3.2"/>
</g>
<!-- leave_period -->
<g id="node6" class="node">
<title>leave_period</title>
<g id="a_node6"><a xlink:href="../../tables/leave_period.html" xlink:title="leave_period" target="_top">
<polygon fill="#ffffff" stroke="transparent" points="513,-271.7 513,-376.7 634,-376.7 634,-271.7 513,-271.7"/>
<polygon fill="#f5f5f5" stroke="transparent" points="513.5,-353.2 513.5,-376.2 634.5,-376.2 634.5,-353.2 513.5,-353.2"/>
<polygon fill="none" stroke="#000000" points="513.5,-353.2 513.5,-376.2 634.5,-376.2 634.5,-353.2 513.5,-353.2"/>
<text text-anchor="start" x="518.5" y="-362.3" font-family="Helvetica,sans-Serif" font-weight="bold" font-size="11.00" fill="#000000">leave_period</text>
<text text-anchor="start" x="599.5437" y="-361.3" font-family="Helvetica,sans-Serif" font-size="11.00" fill="#000000">[table]</text>
<polygon fill="none" stroke="#000000" points="513.5,-331.2 513.5,-353.2 634.5,-353.2 634.5,-331.2 513.5,-331.2"/>
<image xlink:href="../../images/primaryKeys.png" width="11px" height="12px" preserveAspectRatio="xMinYMin meet" x="518.5" y="-348.2"/>
<text text-anchor="start" x="533.5" y="-338.3" font-family="Helvetica,sans-Serif" font-size="11.00" fill="#000000">id</text>
<polygon fill="none" stroke="#000000" points="513.5,-309.2 513.5,-331.2 634.5,-331.2 634.5,-309.2 513.5,-309.2"/>
<image xlink:href="../../images/foreignKeys.png" width="11px" height="12px" preserveAspectRatio="xMinYMin meet" x="518.5" y="-326.2"/>
<text text-anchor="start" x="533.5" y="-316.3" font-family="Helvetica,sans-Serif" font-size="11.00" fill="#000000">user_id</text>
<polygon fill="none" stroke="#000000" points="513.5,-290.2 513.5,-309.2 634.5,-309.2 634.5,-290.2 513.5,-290.2"/>
<text text-anchor="start" x="516.5" y="-296.3" font-family="Helvetica,sans-Serif" font-size="11.00" fill="#000000">...</text>
<polygon fill="#ffffff" stroke="transparent" points="513.5,-271.2 513.5,-290.2 559.5,-290.2 559.5,-271.2 513.5,-271.2"/>
<polygon fill="none" stroke="#000000" points="513.5,-271.2 513.5,-290.2 559.5,-290.2 559.5,-271.2 513.5,-271.2"/>
<text text-anchor="start" x="516.5" y="-277.3" font-family="Helvetica,sans-Serif" font-size="11.00" fill="#000000">&lt; 1</text>
<polygon fill="#ffffff" stroke="transparent" points="559.5,-271.2 559.5,-290.2 609.5,-290.2 609.5,-271.2 559.5,-271.2"/>
<polygon fill="none" stroke="#000000" points="559.5,-271.2 559.5,-290.2 609.5,-290.2 609.5,-271.2 559.5,-271.2"/>
<text text-anchor="start" x="574.1105" y="-277.3" font-family="Helvetica,sans-Serif" font-size="11.00" fill="#000000">0 rows</text>
<polygon fill="#ffffff" stroke="transparent" points="609.5,-271.2 609.5,-290.2 634.5,-290.2 634.5,-271.2 609.5,-271.2"/>
<polygon fill="none" stroke="#000000" points="609.5,-271.2 609.5,-290.2 634.5,-290.2 634.5,-271.2 609.5,-271.2"/>
<text text-anchor="start" x="625.3862" y="-277.3" font-family="Helvetica,sans-Serif" font-size="11.00" fill="#000000"> &#160;</text>
</a>
</g>
</g>
<!-- leave_period&#45;&gt;user -->
<g id="edge4" class="edge">
<title>leave_period:w&#45;&gt;user:e</title>
<path fill="none" stroke="#000000" d="M499.1311,-322.7169C455.011,-340.4753 493.8723,-446.2 433,-446.2"/>
<polygon fill="#000000" stroke="#000000" points="505.62,-321.5803 514.1212,-323.746 509.56,-320.8902 513.5,-320.2 513.5,-320.2 513.5,-320.2 509.56,-320.8902 512.8788,-316.654 505.62,-321.5803 505.62,-321.5803"/>
<ellipse fill="none" stroke="#000000" cx="502.468" cy="-322.1325" rx="3.2" ry="3.2"/>
</g>
<!-- manager -->
<g id="node7" class="node">
<title>manager</title>
<g id="a_node7"><a xlink:href="../../tables/manager.html" xlink:title="manager" target="_top">
<polygon fill="#ffffff" stroke="transparent" points="513,-605.7 513,-710.7 634,-710.7 634,-605.7 513,-605.7"/>
<polygon fill="#f5f5f5" stroke="transparent" points="513.5,-687.2 513.5,-710.2 634.5,-710.2 634.5,-687.2 513.5,-687.2"/>
<polygon fill="none" stroke="#000000" points="513.5,-687.2 513.5,-710.2 634.5,-710.2 634.5,-687.2 513.5,-687.2"/>
<text text-anchor="start" x="518.5" y="-696.3" font-family="Helvetica,sans-Serif" font-weight="bold" font-size="11.00" fill="#000000">manager</text>
<text text-anchor="start" x="599.5437" y="-695.3" font-family="Helvetica,sans-Serif" font-size="11.00" fill="#000000">[table]</text>
<polygon fill="none" stroke="#000000" points="513.5,-665.2 513.5,-687.2 634.5,-687.2 634.5,-665.2 513.5,-665.2"/>
<image xlink:href="../../images/primaryKeys.png" width="11px" height="12px" preserveAspectRatio="xMinYMin meet" x="518.5" y="-682.2"/>
<text text-anchor="start" x="533.5" y="-672.3" font-family="Helvetica,sans-Serif" font-size="11.00" fill="#000000">group_id</text>
<polygon fill="none" stroke="#000000" points="513.5,-643.2 513.5,-665.2 634.5,-665.2 634.5,-643.2 513.5,-643.2"/>
<image xlink:href="../../images/primaryKeys.png" width="11px" height="12px" preserveAspectRatio="xMinYMin meet" x="518.5" y="-660.2"/>
<text text-anchor="start" x="533.5" y="-650.3" font-family="Helvetica,sans-Serif" font-size="11.00" fill="#000000">user_id</text>
<polygon fill="none" stroke="#000000" points="513.5,-624.2 513.5,-643.2 634.5,-643.2 634.5,-624.2 513.5,-624.2"/>
<text text-anchor="start" x="516.5" y="-630.3" font-family="Helvetica,sans-Serif" font-size="11.00" fill="#000000">...</text>
<polygon fill="#ffffff" stroke="transparent" points="513.5,-605.2 513.5,-624.2 559.5,-624.2 559.5,-605.2 513.5,-605.2"/>
<polygon fill="none" stroke="#000000" points="513.5,-605.2 513.5,-624.2 559.5,-624.2 559.5,-605.2 513.5,-605.2"/>
<text text-anchor="start" x="516.5" y="-611.3" font-family="Helvetica,sans-Serif" font-size="11.00" fill="#000000">&lt; 2</text>
<polygon fill="#ffffff" stroke="transparent" points="559.5,-605.2 559.5,-624.2 609.5,-624.2 609.5,-605.2 559.5,-605.2"/>
<polygon fill="none" stroke="#000000" points="559.5,-605.2 559.5,-624.2 609.5,-624.2 609.5,-605.2 559.5,-605.2"/>
<text text-anchor="start" x="574.1105" y="-611.3" font-family="Helvetica,sans-Serif" font-size="11.00" fill="#000000">0 rows</text>
<polygon fill="#ffffff" stroke="transparent" points="609.5,-605.2 609.5,-624.2 634.5,-624.2 634.5,-605.2 609.5,-605.2"/>
<polygon fill="none" stroke="#000000" points="609.5,-605.2 609.5,-624.2 634.5,-624.2 634.5,-605.2 609.5,-605.2"/>
<text text-anchor="start" x="625.3862" y="-611.3" font-family="Helvetica,sans-Serif" font-size="11.00" fill="#000000"> &#160;</text>
</a>
</g>
</g>
<!-- manager&#45;&gt;user -->
<g id="edge6" class="edge">
<title>manager:w&#45;&gt;user:e</title>
<path fill="none" stroke="#000000" d="M499.112,-652.4018C426.6043,-632.0721 526.7053,-446.2 433,-446.2"/>
<polygon fill="#000000" stroke="#000000" points="505.5618,-653.2079 513.0535,-657.7722 509.5309,-653.7039 513.5,-654.2 513.5,-654.2 513.5,-654.2 509.5309,-653.7039 513.9465,-650.6278 505.5618,-653.2079 505.5618,-653.2079"/>
<ellipse fill="none" stroke="#000000" cx="502.3865" cy="-652.811" rx="3.2" ry="3.2"/>
</g>
<!-- group -->
<g id="node8" class="node">
<title>group</title>
<g id="a_node8"><a xlink:href="../../tables/group.html" xlink:title="group" target="_top">
<polygon fill="#ffffff" stroke="transparent" points="293.5,-711.7 293.5,-772.7 364.5,-772.7 364.5,-711.7 293.5,-711.7"/>
<polygon fill="#f5f5f5" stroke="transparent" points="294,-749.2 294,-772.2 365,-772.2 365,-749.2 294,-749.2"/>
<polygon fill="none" stroke="#000000" points="294,-749.2 294,-772.2 365,-772.2 365,-749.2 294,-749.2"/>
<text text-anchor="start" x="298.9393" y="-758.3" font-family="Helvetica,sans-Serif" font-weight="bold" font-size="11.00" fill="#000000">group</text>
<text text-anchor="start" x="330.5219" y="-757.3" font-family="Helvetica,sans-Serif" font-size="11.00" fill="#000000">[table]</text>
<polygon fill="none" stroke="#000000" points="294,-730.2 294,-749.2 365,-749.2 365,-730.2 294,-730.2"/>
<text text-anchor="start" x="297" y="-736.3" font-family="Helvetica,sans-Serif" font-size="11.00" fill="#000000">...</text>
<polygon fill="#ffffff" stroke="transparent" points="294,-711.2 294,-730.2 309,-730.2 309,-711.2 294,-711.2"/>
<polygon fill="none" stroke="#000000" points="294,-711.2 294,-730.2 309,-730.2 309,-711.2 294,-711.2"/>
<text text-anchor="start" x="297" y="-717.3" font-family="Helvetica,sans-Serif" font-size="11.00" fill="#000000"> &#160;</text>
<polygon fill="#ffffff" stroke="transparent" points="309,-711.2 309,-730.2 342,-730.2 342,-711.2 309,-711.2"/>
<polygon fill="none" stroke="#000000" points="309,-711.2 309,-730.2 342,-730.2 342,-711.2 309,-711.2"/>
<text text-anchor="start" x="312.1105" y="-717.3" font-family="Helvetica,sans-Serif" font-size="11.00" fill="#000000">1 row</text>
<polygon fill="#ffffff" stroke="transparent" points="342,-711.2 342,-730.2 365,-730.2 365,-711.2 342,-711.2"/>
<polygon fill="none" stroke="#000000" points="342,-711.2 342,-730.2 365,-730.2 365,-711.2 342,-711.2"/>
<text text-anchor="start" x="346.4053" y="-717.3" font-family="Helvetica,sans-Serif" font-size="11.00" fill="#000000">2 &gt;</text>
</a>
</g>
</g>
<!-- manager&#45;&gt;group -->
<g id="edge5" class="edge">
<title>manager:w&#45;&gt;group:e</title>
<path fill="none" stroke="#000000" d="M498.9499,-677.1395C440.7196,-684.9765 431.5128,-739.2 365,-739.2"/>
<polygon fill="#000000" stroke="#000000" points="505.5166,-676.7155 513.732,-679.7925 509.5083,-676.4578 513.5,-676.2 513.5,-676.2 513.5,-676.2 509.5083,-676.4578 513.268,-672.6075 505.5166,-676.7155 505.5166,-676.7155"/>
<ellipse fill="none" stroke="#000000" cx="502.3233" cy="-676.9217" rx="3.2" ry="3.2"/>
</g>
<!-- member -->
<g id="node9" class="node">
<title>member</title>
<g id="a_node9"><a xlink:href="../../tables/member.html" xlink:title="member" target="_top">
<polygon fill="#ffffff" stroke="transparent" points="513,-731.7 513,-836.7 634,-836.7 634,-731.7 513,-731.7"/>
<polygon fill="#f5f5f5" stroke="transparent" points="513.5,-813.2 513.5,-836.2 634.5,-836.2 634.5,-813.2 513.5,-813.2"/>
<polygon fill="none" stroke="#000000" points="513.5,-813.2 513.5,-836.2 634.5,-836.2 634.5,-813.2 513.5,-813.2"/>
<text text-anchor="start" x="518.5" y="-822.3" font-family="Helvetica,sans-Serif" font-weight="bold" font-size="11.00" fill="#000000">member</text>
<text text-anchor="start" x="599.5437" y="-821.3" font-family="Helvetica,sans-Serif" font-size="11.00" fill="#000000">[table]</text>
<polygon fill="none" stroke="#000000" points="513.5,-791.2 513.5,-813.2 634.5,-813.2 634.5,-791.2 513.5,-791.2"/>
<image xlink:href="../../images/primaryKeys.png" width="11px" height="12px" preserveAspectRatio="xMinYMin meet" x="518.5" y="-808.2"/>
<text text-anchor="start" x="533.5" y="-798.3" font-family="Helvetica,sans-Serif" font-size="11.00" fill="#000000">group_id</text>
<polygon fill="none" stroke="#000000" points="513.5,-769.2 513.5,-791.2 634.5,-791.2 634.5,-769.2 513.5,-769.2"/>
<image xlink:href="../../images/primaryKeys.png" width="11px" height="12px" preserveAspectRatio="xMinYMin meet" x="518.5" y="-786.2"/>
<text text-anchor="start" x="533.5" y="-776.3" font-family="Helvetica,sans-Serif" font-size="11.00" fill="#000000">user_id</text>
<polygon fill="none" stroke="#000000" points="513.5,-750.2 513.5,-769.2 634.5,-769.2 634.5,-750.2 513.5,-750.2"/>
<text text-anchor="start" x="516.5" y="-756.3" font-family="Helvetica,sans-Serif" font-size="11.00" fill="#000000">...</text>
<polygon fill="#ffffff" stroke="transparent" points="513.5,-731.2 513.5,-750.2 559.5,-750.2 559.5,-731.2 513.5,-731.2"/>
<polygon fill="none" stroke="#000000" points="513.5,-731.2 513.5,-750.2 559.5,-750.2 559.5,-731.2 513.5,-731.2"/>
<text text-anchor="start" x="516.5" y="-737.3" font-family="Helvetica,sans-Serif" font-size="11.00" fill="#000000">&lt; 2</text>
<polygon fill="#ffffff" stroke="transparent" points="559.5,-731.2 559.5,-750.2 609.5,-750.2 609.5,-731.2 559.5,-731.2"/>
<polygon fill="none" stroke="#000000" points="559.5,-731.2 559.5,-750.2 609.5,-750.2 609.5,-731.2 559.5,-731.2"/>
<text text-anchor="start" x="574.1105" y="-737.3" font-family="Helvetica,sans-Serif" font-size="11.00" fill="#000000">0 rows</text>
<polygon fill="#ffffff" stroke="transparent" points="609.5,-731.2 609.5,-750.2 634.5,-750.2 634.5,-731.2 609.5,-731.2"/>
<polygon fill="none" stroke="#000000" points="609.5,-731.2 609.5,-750.2 634.5,-750.2 634.5,-731.2 609.5,-731.2"/>
<text text-anchor="start" x="625.3862" y="-737.3" font-family="Helvetica,sans-Serif" font-size="11.00" fill="#000000"> &#160;</text>
</a>
</g>
</g>
<!-- member&#45;&gt;user -->
<g id="edge8" class="edge">
<title>member:w&#45;&gt;user:e</title>
<path fill="none" stroke="#000000" d="M498.9885,-777.0044C483.6095,-768.542 484.8227,-744.5937 476,-721.2 454.1733,-663.3254 494.8537,-446.2 433,-446.2"/>
<polygon fill="#000000" stroke="#000000" points="505.6872,-778.4795 512.7258,-783.7158 509.5936,-779.3397 513.5,-780.2 513.5,-780.2 513.5,-780.2 509.5936,-779.3397 514.2742,-776.6842 505.6872,-778.4795 505.6872,-778.4795"/>
<ellipse fill="none" stroke="#000000" cx="502.5621" cy="-777.7912" rx="3.2" ry="3.2"/>
</g>
<!-- member&#45;&gt;group -->
<g id="edge7" class="edge">
<title>member:w&#45;&gt;group:e</title>
<path fill="none" stroke="#000000" d="M498.9499,-801.2605C440.7196,-793.4235 431.5128,-739.2 365,-739.2"/>
<polygon fill="#000000" stroke="#000000" points="505.5166,-801.6845 513.268,-805.7925 509.5083,-801.9422 513.5,-802.2 513.5,-802.2 513.5,-802.2 509.5083,-801.9422 513.732,-798.6075 505.5166,-801.6845 505.5166,-801.6845"/>
<ellipse fill="none" stroke="#000000" cx="502.3233" cy="-801.4783" rx="3.2" ry="3.2"/>
</g>
<!-- paid_leave_grant_history -->
<g id="node10" class="node">
<title>paid_leave_grant_history</title>
<g id="a_node10"><a xlink:href="../../tables/paid_leave_grant_history.html" xlink:title="paid_leave_grant_history" target="_top">
<polygon fill="#ffffff" stroke="transparent" points="491,-145.7 491,-250.7 656,-250.7 656,-145.7 491,-145.7"/>
<polygon fill="#f5f5f5" stroke="transparent" points="491.5,-227.2 491.5,-250.2 656.5,-250.2 656.5,-227.2 491.5,-227.2"/>
<polygon fill="none" stroke="#000000" points="491.5,-227.2 491.5,-250.2 656.5,-250.2 656.5,-227.2 491.5,-227.2"/>
<text text-anchor="start" x="496.0656" y="-236.3" font-family="Helvetica,sans-Serif" font-weight="bold" font-size="11.00" fill="#000000">paid_leave_grant_history</text>
<text text-anchor="start" x="622.0219" y="-235.3" font-family="Helvetica,sans-Serif" font-size="11.00" fill="#000000">[table]</text>
<polygon fill="none" stroke="#000000" points="491.5,-205.2 491.5,-227.2 656.5,-227.2 656.5,-205.2 491.5,-205.2"/>
<image xlink:href="../../images/primaryKeys.png" width="11px" height="12px" preserveAspectRatio="xMinYMin meet" x="496.5" y="-222.2"/>
<text text-anchor="start" x="511.5" y="-212.3" font-family="Helvetica,sans-Serif" font-size="11.00" fill="#000000">user_id</text>
<polygon fill="none" stroke="#000000" points="491.5,-183.2 491.5,-205.2 656.5,-205.2 656.5,-183.2 491.5,-183.2"/>
<image xlink:href="../../images/primaryKeys.png" width="11px" height="12px" preserveAspectRatio="xMinYMin meet" x="496.5" y="-200.2"/>
<text text-anchor="start" x="511.5" y="-190.3" font-family="Helvetica,sans-Serif" font-size="11.00" fill="#000000">rule_detail_id</text>
<polygon fill="none" stroke="#000000" points="491.5,-164.2 491.5,-183.2 656.5,-183.2 656.5,-164.2 491.5,-164.2"/>
<text text-anchor="start" x="494.5" y="-170.3" font-family="Helvetica,sans-Serif" font-size="11.00" fill="#000000">...</text>
<polygon fill="#ffffff" stroke="transparent" points="491.5,-145.2 491.5,-164.2 559.5,-164.2 559.5,-145.2 491.5,-145.2"/>
<polygon fill="none" stroke="#000000" points="491.5,-145.2 491.5,-164.2 559.5,-164.2 559.5,-145.2 491.5,-145.2"/>
<text text-anchor="start" x="494.5" y="-151.3" font-family="Helvetica,sans-Serif" font-size="11.00" fill="#000000">&lt; 2</text>
<polygon fill="#ffffff" stroke="transparent" points="559.5,-145.2 559.5,-164.2 620.5,-164.2 620.5,-145.2 559.5,-145.2"/>
<polygon fill="none" stroke="#000000" points="559.5,-145.2 559.5,-164.2 620.5,-164.2 620.5,-145.2 559.5,-145.2"/>
<text text-anchor="start" x="585.1105" y="-151.3" font-family="Helvetica,sans-Serif" font-size="11.00" fill="#000000">0 rows</text>
<polygon fill="#ffffff" stroke="transparent" points="620.5,-145.2 620.5,-164.2 656.5,-164.2 656.5,-145.2 620.5,-145.2"/>
<polygon fill="none" stroke="#000000" points="620.5,-145.2 620.5,-164.2 656.5,-164.2 656.5,-145.2 620.5,-145.2"/>
<text text-anchor="start" x="647.3862" y="-151.3" font-family="Helvetica,sans-Serif" font-size="11.00" fill="#000000"> &#160;</text>
</a>
</g>
</g>
<!-- paid_leave_grant_history&#45;&gt;user -->
<g id="edge10" class="edge">
<title>paid_leave_grant_history:w&#45;&gt;user:e</title>
<path fill="none" stroke="#000000" d="M476.8894,-218.0514C401.3849,-239.8182 532.9147,-446.2 433,-446.2"/>
<polygon fill="#000000" stroke="#000000" points="483.5635,-217.2057 491.9526,-219.7714 487.5317,-216.7029 491.5,-216.2 491.5,-216.2 491.5,-216.2 487.5317,-216.7029 491.0474,-212.6286 483.5635,-217.2057 483.5635,-217.2057"/>
<ellipse fill="none" stroke="#000000" cx="480.3888" cy="-217.608" rx="3.2" ry="3.2"/>
</g>
<!-- paid_leave_grant_history&#45;&gt;granting_paid_leave_rule_detail -->
<g id="edge9" class="edge">
<title>paid_leave_grant_history:w&#45;&gt;granting_paid_leave_rule_detail:e</title>
<path fill="none" stroke="#000000" d="M477.1383,-191.8039C459.0768,-185.196 453.0371,-167.2 428,-167.2"/>
<polygon fill="#000000" stroke="#000000" points="483.6091,-192.8834 490.9076,-197.7509 487.5545,-193.5417 491.5,-194.2 491.5,-194.2 491.5,-194.2 487.5545,-193.5417 492.0924,-190.6491 483.6091,-192.8834 483.6091,-192.8834"/>
<ellipse fill="none" stroke="#000000" cx="480.4527" cy="-192.3568" rx="3.2" ry="3.2"/>
</g>
<!-- user_rule -->
<g id="node12" class="node">
<title>user_rule</title>
<g id="a_node12"><a xlink:href="../../tables/user_rule.html" xlink:title="user_rule" target="_top">
<polygon fill="#ffffff" stroke="transparent" points="529.5,-38.2 529.5,-124.2 617.5,-124.2 617.5,-38.2 529.5,-38.2"/>
<polygon fill="#f5f5f5" stroke="transparent" points="529.5,-101.2 529.5,-124.2 617.5,-124.2 617.5,-101.2 529.5,-101.2"/>
<polygon fill="none" stroke="#000000" points="529.5,-101.2 529.5,-124.2 617.5,-124.2 617.5,-101.2 529.5,-101.2"/>
<text text-anchor="start" x="534.0804" y="-110.3" font-family="Helvetica,sans-Serif" font-weight="bold" font-size="11.00" fill="#000000">user_rule</text>
<text text-anchor="start" x="583.0219" y="-109.3" font-family="Helvetica,sans-Serif" font-size="11.00" fill="#000000">[table]</text>
<polygon fill="none" stroke="#000000" points="529.5,-79.2 529.5,-101.2 617.5,-101.2 617.5,-79.2 529.5,-79.2"/>
<image xlink:href="../../images/primaryKeys.png" width="11px" height="12px" preserveAspectRatio="xMinYMin meet" x="534.5" y="-96.2"/>
<text text-anchor="start" x="556.5" y="-86.3" font-family="Helvetica,sans-Serif" font-size="11.00" fill="#000000">user_id</text>
<polygon fill="none" stroke="#000000" points="529.5,-57.2 529.5,-79.2 617.5,-79.2 617.5,-57.2 529.5,-57.2"/>
<image xlink:href="../../images/foreignKeys.png" width="11px" height="12px" preserveAspectRatio="xMinYMin meet" x="534.5" y="-74.2"/>
<text text-anchor="start" x="556.5" y="-64.3" font-family="Helvetica,sans-Serif" font-size="11.00" fill="#000000">rule_id</text>
<polygon fill="#ffffff" stroke="transparent" points="529.5,-38.2 529.5,-57.2 558.5,-57.2 558.5,-38.2 529.5,-38.2"/>
<polygon fill="none" stroke="#000000" points="529.5,-38.2 529.5,-57.2 558.5,-57.2 558.5,-38.2 529.5,-38.2"/>
<text text-anchor="start" x="532.5" y="-44.3" font-family="Helvetica,sans-Serif" font-size="11.00" fill="#000000">&lt; 2</text>
<polygon fill="#ffffff" stroke="transparent" points="558.5,-38.2 558.5,-57.2 600.5,-57.2 600.5,-38.2 558.5,-38.2"/>
<polygon fill="none" stroke="#000000" points="558.5,-38.2 558.5,-57.2 600.5,-57.2 600.5,-38.2 558.5,-38.2"/>
<text text-anchor="start" x="565.1105" y="-44.3" font-family="Helvetica,sans-Serif" font-size="11.00" fill="#000000">2 rows</text>
<polygon fill="#ffffff" stroke="transparent" points="600.5,-38.2 600.5,-57.2 617.5,-57.2 617.5,-38.2 600.5,-38.2"/>
<polygon fill="none" stroke="#000000" points="600.5,-38.2 600.5,-57.2 617.5,-57.2 617.5,-38.2 600.5,-38.2"/>
<text text-anchor="start" x="608.3862" y="-44.3" font-family="Helvetica,sans-Serif" font-size="11.00" fill="#000000"> &#160;</text>
</a>
</g>
</g>
<!-- user_rule&#45;&gt;user -->
<g id="edge13" class="edge">
<title>user_rule:w&#45;&gt;user:e</title>
<path fill="none" stroke="#000000" d="M518.8964,-91.0179C496.4574,-94.7967 489.1397,-111.3994 476,-135.2 442.2799,-196.2787 502.7686,-446.2 433,-446.2"/>
<polygon fill="#000000" stroke="#000000" points="528.3947,-86.2734 529.01,-94.2497 527.4148,-94.3728 526.7994,-86.3965 528.3947,-86.2734"/>
<polyline fill="none" stroke="#000000" points="529.5,-90.2 525.5118,-90.5077 "/>
<ellipse fill="none" stroke="#000000" cx="522.3213" cy="-90.7538" rx="3.2" ry="3.2"/>
</g>
<!-- user_rule&#45;&gt;granting_paid_leave_rule -->
<g id="edge12" class="edge">
<title>user_rule:w&#45;&gt;granting_paid_leave_rule:e</title>
<path fill="none" stroke="#000000" d="M514.8766,-68.3007C384.6147,-70.1349 348.4996,-96.7913 215,-129.2 196.5492,-133.6792 192.9867,-141.2 174,-141.2"/>
<polygon fill="#000000" stroke="#000000" points="521.5002,-68.2551 529.5248,-71.7999 525.5001,-68.2276 529.5,-68.2 529.5,-68.2 529.5,-68.2 525.5001,-68.2276 529.4752,-64.6001 521.5002,-68.2551 521.5002,-68.2551"/>
<ellipse fill="none" stroke="#000000" cx="518.3003" cy="-68.2772" rx="3.2" ry="3.2"/>
</g>
</g>
</svg>
