<?xml version="1.0" encoding="UTF-8" standalone="no"?>
<!DOCTYPE svg PUBLIC "-//W3C//DTD SVG 1.1//EN"
 "http://www.w3.org/Graphics/SVG/1.1/DTD/svg11.dtd">
<!-- Generated by graphviz version 2.40.1 (20161225.0304)
 -->
<!-- Title: oneDegreeRelationshipsDiagram Pages: 1 -->
<svg width="353pt" height="155pt"
 viewBox="0.00 0.00 353.00 155.20" xmlns="http://www.w3.org/2000/svg" xmlns:xlink="http://www.w3.org/1999/xlink">
<g id="graph0" class="graph" transform="scale(1 1) rotate(0) translate(4 151.2)">
<title>oneDegreeRelationshipsDiagram</title>
<polygon fill="#ffffff" stroke="transparent" points="-4,4 -4,-151.2 349,-151.2 349,4 -4,4"/>
<text text-anchor="middle" x="72.4936" y="-7.3" font-family="Helvetica,sans-Serif" font-size="11.00" fill="#000000">Generated by SchemaSpy</text>
<!-- user -->
<g id="node1" class="node">
<title>user</title>
<g id="a_node1"><a xlink:href="../../tables/user.html" xlink:title="user" target="_top">
<polygon fill="#ffffff" stroke="transparent" points="216,-38.2 216,-143.2 337,-143.2 337,-38.2 216,-38.2"/>
<polygon fill="#f5f5f5" stroke="transparent" points="216.5,-119.7 216.5,-142.7 337.5,-142.7 337.5,-119.7 216.5,-119.7"/>
<polygon fill="none" stroke="#000000" points="216.5,-119.7 216.5,-142.7 337.5,-142.7 337.5,-119.7 216.5,-119.7"/>
<text text-anchor="start" x="221.5" y="-128.8" font-family="Helvetica,sans-Serif" font-weight="bold" font-size="11.00" fill="#000000">user</text>
<text text-anchor="start" x="302.5437" y="-127.8" font-family="Helvetica,sans-Serif" font-size="11.00" fill="#000000">[table]</text>
<polygon fill="none" stroke="#000000" points="216.5,-97.7 216.5,-119.7 337.5,-119.7 337.5,-97.7 216.5,-97.7"/>
<image xlink:href="../../images/primaryKeys.png" width="11px" height="12px" preserveAspectRatio="xMinYMin meet" x="221.5" y="-114.7"/>
<text text-anchor="start" x="236.5" y="-104.8" font-family="Helvetica,sans-Serif" font-size="11.00" fill="#000000">id</text>
<polygon fill="none" stroke="#000000" points="216.5,-75.7 216.5,-97.7 337.5,-97.7 337.5,-75.7 216.5,-75.7"/>
<image xlink:href="../../images/foreignKeys.png" width="11px" height="12px" preserveAspectRatio="xMinYMin meet" x="221.5" y="-92.7"/>
<text text-anchor="start" x="236.5" y="-82.8" font-family="Helvetica,sans-Serif" font-size="11.00" fill="#000000">status</text>
<polygon fill="none" stroke="#000000" points="216.5,-56.7 216.5,-75.7 337.5,-75.7 337.5,-56.7 216.5,-56.7"/>
<text text-anchor="start" x="219.5" y="-62.8" font-family="Helvetica,sans-Serif" font-size="11.00" fill="#000000">...</text>
<polygon fill="#ffffff" stroke="transparent" points="216.5,-37.7 216.5,-56.7 257.5,-56.7 257.5,-37.7 216.5,-37.7"/>
<polygon fill="none" stroke="#000000" points="216.5,-37.7 216.5,-56.7 257.5,-56.7 257.5,-37.7 216.5,-37.7"/>
<text text-anchor="start" x="219.5" y="-43.8" font-family="Helvetica,sans-Serif" font-size="11.00" fill="#000000">&lt; 1</text>
<polygon fill="#ffffff" stroke="transparent" points="257.5,-37.7 257.5,-56.7 305.5,-56.7 305.5,-37.7 257.5,-37.7"/>
<polygon fill="none" stroke="#000000" points="257.5,-37.7 257.5,-56.7 305.5,-56.7 305.5,-37.7 257.5,-37.7"/>
<text text-anchor="start" x="270.1105" y="-43.8" font-family="Helvetica,sans-Serif" font-size="11.00" fill="#000000">3 rows</text>
<polygon fill="#ffffff" stroke="transparent" points="305.5,-37.7 305.5,-56.7 337.5,-56.7 337.5,-37.7 305.5,-37.7"/>
<polygon fill="none" stroke="#000000" points="305.5,-37.7 305.5,-56.7 337.5,-56.7 337.5,-37.7 305.5,-37.7"/>
<text text-anchor="start" x="318.9053" y="-43.8" font-family="Helvetica,sans-Serif" font-size="11.00" fill="#000000">7 &gt;</text>
</a>
</g>
</g>
<!-- user_status -->
<g id="node2" class="node">
<title>user_status</title>
<g id="a_node2"><a xlink:href="../../tables/user_status.html" xlink:title="user_status" target="_top">
<polygon fill="#ffffff" stroke="transparent" points="8,-54.7 8,-122.7 167,-122.7 167,-54.7 8,-54.7"/>
<polygon fill="#f5f5f5" stroke="transparent" points="10.5,-97.7 10.5,-120.7 165.5,-120.7 165.5,-97.7 10.5,-97.7"/>
<polygon fill="none" stroke="#000000" points="10.5,-97.7 10.5,-120.7 165.5,-120.7 165.5,-97.7 10.5,-97.7"/>
<text text-anchor="start" x="15.5" y="-106.8" font-family="Helvetica,sans-Serif" font-weight="bold" font-size="11.00" fill="#000000">user_status</text>
<text text-anchor="start" x="130.5437" y="-105.8" font-family="Helvetica,sans-Serif" font-size="11.00" fill="#000000">[table]</text>
<polygon fill="none" stroke="#000000" points="10.5,-75.7 10.5,-97.7 98.5,-97.7 98.5,-75.7 10.5,-75.7"/>
<image xlink:href="../../images/primaryKeys.png" width="11px" height="12px" preserveAspectRatio="xMinYMin meet" x="15.5" y="-92.7"/>
<text text-anchor="start" x="30.5" y="-82.8" font-family="Helvetica,sans-Serif" font-size="11.00" fill="#000000">status</text>
<polygon fill="none" stroke="#000000" points="98.5,-75.7 98.5,-97.7 165.5,-97.7 165.5,-75.7 98.5,-75.7"/>
<text text-anchor="start" x="101.4365" y="-83.4" font-family="Helvetica,sans-Serif" font-size="11.00" fill="#000000">varchar[100]</text>
<polygon fill="#ffffff" stroke="transparent" points="10.5,-56.7 10.5,-75.7 45.5,-75.7 45.5,-56.7 10.5,-56.7"/>
<polygon fill="none" stroke="#000000" points="10.5,-56.7 10.5,-75.7 45.5,-75.7 45.5,-56.7 10.5,-56.7"/>
<text text-anchor="start" x="13.5" y="-62.8" font-family="Helvetica,sans-Serif" font-size="11.00" fill="#000000">&lt; 0</text>
<polygon fill="#ffffff" stroke="transparent" points="45.5,-56.7 45.5,-75.7 98.5,-75.7 98.5,-56.7 45.5,-56.7"/>
<polygon fill="none" stroke="#000000" points="45.5,-56.7 45.5,-75.7 98.5,-75.7 98.5,-56.7 45.5,-56.7"/>
<text text-anchor="start" x="63.1105" y="-62.8" font-family="Helvetica,sans-Serif" font-size="11.00" fill="#000000">3 rows</text>
<polygon fill="#ffffff" stroke="transparent" points="98.5,-56.7 98.5,-75.7 165.5,-75.7 165.5,-56.7 98.5,-56.7"/>
<polygon fill="none" stroke="#000000" points="98.5,-56.7 98.5,-75.7 165.5,-75.7 165.5,-56.7 98.5,-56.7"/>
<text text-anchor="start" x="146.9053" y="-62.8" font-family="Helvetica,sans-Serif" font-size="11.00" fill="#000000">1 &gt;</text>
<polygon fill="none" stroke="#000000" stroke-width="2" points="9,-55.7 9,-121.7 166,-121.7 166,-55.7 9,-55.7"/>
</a>
</g>
</g>
<!-- user&#45;&gt;user_status -->
<g id="edge1" class="edge">
<title>user:w&#45;&gt;user_status:e</title>
<path fill="none" stroke="#000000" d="M201.776,-86.7C189.7815,-86.7 182.3229,-86.7 165.5,-86.7"/>
<polygon fill="#000000" stroke="#000000" points="208.5,-86.7001 216.5,-90.3 212.5,-86.7 216.5,-86.7 216.5,-86.7 216.5,-86.7 212.5,-86.7 216.5,-83.1 208.5,-86.7001 208.5,-86.7001"/>
<ellipse fill="none" stroke="#000000" cx="205.3" cy="-86.7001" rx="3.2" ry="3.2"/>
</g>
</g>
</svg>
