<?xml version="1.0" encoding="UTF-8" standalone="no"?>
<!DOCTYPE svg PUBLIC "-//W3C//DTD SVG 1.1//EN"
 "http://www.w3.org/Graphics/SVG/1.1/DTD/svg11.dtd">
<!-- Generated by graphviz version 2.40.1 (20161225.0304)
 -->
<!-- Title: largeImpliedRelationshipsDiagram Pages: 1 -->
<svg width="341pt" height="246pt"
 viewBox="0.00 0.00 341.00 246.20" xmlns="http://www.w3.org/2000/svg" xmlns:xlink="http://www.w3.org/1999/xlink">
<g id="graph0" class="graph" transform="scale(1 1) rotate(0) translate(4 242.2)">
<title>largeImpliedRelationshipsDiagram</title>
<polygon fill="#ffffff" stroke="transparent" points="-4,4 -4,-242.2 337,-242.2 337,4 -4,4"/>
<text text-anchor="middle" x="72.4936" y="-7.3" font-family="Helvetica,sans-Serif" font-size="11.00" fill="#000000">Generated by SchemaSpy</text>
<!-- dispatcher_latest_event -->
<g id="node1" class="node">
<title>dispatcher_latest_event</title>
<g id="a_node1"><a xlink:href="../../tables/dispatcher_latest_event.html" xlink:title="dispatcher_latest_event" target="_top">
<polygon fill="#ffffff" stroke="transparent" points="166,-148.2 166,-234.2 325,-234.2 325,-148.2 166,-148.2"/>
<polygon fill="#f5f5f5" stroke="transparent" points="166.5,-211.2 166.5,-234.2 325.5,-234.2 325.5,-211.2 166.5,-211.2"/>
<polygon fill="none" stroke="#000000" points="166.5,-211.2 166.5,-234.2 325.5,-234.2 325.5,-211.2 166.5,-211.2"/>
<text text-anchor="start" x="171.425" y="-220.3" font-family="Helvetica,sans-Serif" font-weight="bold" font-size="11.00" fill="#000000">dispatcher_latest_event</text>
<text text-anchor="start" x="291.0219" y="-219.3" font-family="Helvetica,sans-Serif" font-size="11.00" fill="#000000">[table]</text>
<polygon fill="none" stroke="#000000" points="166.5,-189.2 166.5,-211.2 325.5,-211.2 325.5,-189.2 166.5,-189.2"/>
<image xlink:href="../../images/primaryKeys.png" width="11px" height="12px" preserveAspectRatio="xMinYMin meet" x="171.5" y="-206.2"/>
<text text-anchor="start" x="187.5" y="-196.3" font-family="Helvetica,sans-Serif" font-size="11.00" fill="#000000">id</text>
<polygon fill="none" stroke="#000000" points="166.5,-167.2 166.5,-189.2 325.5,-189.2 325.5,-167.2 166.5,-167.2"/>
<image xlink:href="../../images/foreignKeys.png" width="11px" height="12px" preserveAspectRatio="xMinYMin meet" x="171.5" y="-184.2"/>
<text text-anchor="start" x="187.5" y="-174.3" font-family="Helvetica,sans-Serif" font-size="11.00" fill="#000000">event_id</text>
<polygon fill="#ffffff" stroke="transparent" points="166.5,-148.2 166.5,-167.2 226.5,-167.2 226.5,-148.2 166.5,-148.2"/>
<polygon fill="none" stroke="#000000" points="166.5,-148.2 166.5,-167.2 226.5,-167.2 226.5,-148.2 166.5,-148.2"/>
<text text-anchor="start" x="169.5" y="-154.3" font-family="Helvetica,sans-Serif" font-size="11.00" fill="#000000"> &#160;</text>
<polygon fill="#ffffff" stroke="transparent" points="226.5,-148.2 226.5,-167.2 288.5,-167.2 288.5,-148.2 226.5,-148.2"/>
<polygon fill="none" stroke="#000000" points="226.5,-148.2 226.5,-167.2 288.5,-167.2 288.5,-148.2 226.5,-148.2"/>
<text text-anchor="start" x="253.1105" y="-154.3" font-family="Helvetica,sans-Serif" font-size="11.00" fill="#000000">0 rows</text>
<polygon fill="#ffffff" stroke="transparent" points="288.5,-148.2 288.5,-167.2 325.5,-167.2 325.5,-148.2 288.5,-148.2"/>
<polygon fill="none" stroke="#000000" points="288.5,-148.2 288.5,-167.2 325.5,-167.2 325.5,-148.2 288.5,-148.2"/>
<text text-anchor="start" x="316.3862" y="-154.3" font-family="Helvetica,sans-Serif" font-size="11.00" fill="#000000"> &#160;</text>
</a>
</g>
</g>
<!-- event_store -->
<g id="node2" class="node">
<title>event_store</title>
<g id="a_node2"><a xlink:href="../../tables/event_store.html" xlink:title="event_store" target="_top">
<polygon fill="#ffffff" stroke="transparent" points="8,-38.2 8,-212.2 117,-212.2 117,-38.2 8,-38.2"/>
<polygon fill="#f5f5f5" stroke="transparent" points="8.5,-189.2 8.5,-212.2 117.5,-212.2 117.5,-189.2 8.5,-189.2"/>
<polygon fill="none" stroke="#000000" points="8.5,-189.2 8.5,-212.2 117.5,-212.2 117.5,-189.2 8.5,-189.2"/>
<text text-anchor="start" x="13.5" y="-198.3" font-family="Helvetica,sans-Serif" font-weight="bold" font-size="11.00" fill="#000000">event_store</text>
<text text-anchor="start" x="82.5437" y="-197.3" font-family="Helvetica,sans-Serif" font-size="11.00" fill="#000000">[table]</text>
<polygon fill="none" stroke="#000000" points="8.5,-167.2 8.5,-189.2 117.5,-189.2 117.5,-167.2 8.5,-167.2"/>
<image xlink:href="../../images/primaryKeys.png" width="11px" height="12px" preserveAspectRatio="xMinYMin meet" x="13.5" y="-184.2"/>
<text text-anchor="start" x="28.5" y="-174.3" font-family="Helvetica,sans-Serif" font-size="11.00" fill="#000000">id</text>
<polygon fill="none" stroke="#000000" points="8.5,-145.2 8.5,-167.2 117.5,-167.2 117.5,-145.2 8.5,-145.2"/>
<text text-anchor="start" x="28.5" y="-152.3" font-family="Helvetica,sans-Serif" font-size="11.00" fill="#000000">stream_name</text>
<polygon fill="none" stroke="#000000" points="8.5,-123.2 8.5,-145.2 117.5,-145.2 117.5,-123.2 8.5,-123.2"/>
<text text-anchor="start" x="28.5" y="-130.3" font-family="Helvetica,sans-Serif" font-size="11.00" fill="#000000">stream_version</text>
<polygon fill="none" stroke="#000000" points="8.5,-101.2 8.5,-123.2 117.5,-123.2 117.5,-101.2 8.5,-101.2"/>
<text text-anchor="start" x="28.5" y="-108.3" font-family="Helvetica,sans-Serif" font-size="11.00" fill="#000000">type</text>
<polygon fill="none" stroke="#000000" points="8.5,-79.2 8.5,-101.2 117.5,-101.2 117.5,-79.2 8.5,-79.2"/>
<text text-anchor="start" x="28.5" y="-86.3" font-family="Helvetica,sans-Serif" font-size="11.00" fill="#000000">payload</text>
<polygon fill="none" stroke="#000000" points="8.5,-57.2 8.5,-79.2 117.5,-79.2 117.5,-57.2 8.5,-57.2"/>
<text text-anchor="start" x="28.5" y="-64.3" font-family="Helvetica,sans-Serif" font-size="11.00" fill="#000000">created_at</text>
<polygon fill="#ffffff" stroke="transparent" points="8.5,-38.2 8.5,-57.2 43.5,-57.2 43.5,-38.2 8.5,-38.2"/>
<polygon fill="none" stroke="#000000" points="8.5,-38.2 8.5,-57.2 43.5,-57.2 43.5,-38.2 8.5,-38.2"/>
<text text-anchor="start" x="11.5" y="-44.3" font-family="Helvetica,sans-Serif" font-size="11.00" fill="#000000"> &#160;</text>
<polygon fill="#ffffff" stroke="transparent" points="43.5,-38.2 43.5,-57.2 93.5,-57.2 93.5,-38.2 43.5,-38.2"/>
<polygon fill="none" stroke="#000000" points="43.5,-38.2 43.5,-57.2 93.5,-57.2 93.5,-38.2 43.5,-38.2"/>
<text text-anchor="start" x="58.1105" y="-44.3" font-family="Helvetica,sans-Serif" font-size="11.00" fill="#000000">3 rows</text>
<polygon fill="#ffffff" stroke="transparent" points="93.5,-38.2 93.5,-57.2 117.5,-57.2 117.5,-38.2 93.5,-38.2"/>
<polygon fill="none" stroke="#000000" points="93.5,-38.2 93.5,-57.2 117.5,-57.2 117.5,-38.2 93.5,-38.2"/>
<text text-anchor="start" x="108.3862" y="-44.3" font-family="Helvetica,sans-Serif" font-size="11.00" fill="#000000"> &#160;</text>
</a>
</g>
</g>
<!-- dispatcher_latest_event&#45;&gt;event_store -->
<g id="edge1" class="edge">
<title>dispatcher_latest_event:w&#45;&gt;event_store:e</title>
<path fill="none" stroke="#000000" stroke-dasharray="5,2" d="M151.9909,-178.2C140.6774,-178.2 133.4931,-178.2 117.5,-178.2"/>
<polygon fill="#000000" stroke="#000000" points="158.5,-178.2001 166.5,-181.8 162.5,-178.2 166.5,-178.2 166.5,-178.2 166.5,-178.2 162.5,-178.2 166.5,-174.6 158.5,-178.2001 158.5,-178.2001"/>
<ellipse fill="none" stroke="#000000" cx="155.3" cy="-178.2001" rx="3.2" ry="3.2"/>
</g>
</g>
</svg>
