<?xml version="1.0" encoding="UTF-8" standalone="no"?>
<!DOCTYPE svg PUBLIC "-//W3C//DTD SVG 1.1//EN"
 "http://www.w3.org/Graphics/SVG/1.1/DTD/svg11.dtd">
<!-- Generated by graphviz version 2.40.1 (20161225.0304)
 -->
<!-- Title: compactImpliedRelationshipsDiagram Pages: 1 -->
<svg width="341pt" height="155pt"
 viewBox="0.00 0.00 341.00 154.70" xmlns="http://www.w3.org/2000/svg" xmlns:xlink="http://www.w3.org/1999/xlink">
<g id="graph0" class="graph" transform="scale(1 1) rotate(0) translate(4 150.7)">
<title>compactImpliedRelationshipsDiagram</title>
<polygon fill="#ffffff" stroke="transparent" points="-4,4 -4,-150.7 337,-150.7 337,4 -4,4"/>
<text text-anchor="middle" x="72.4936" y="-7.3" font-family="Helvetica,sans-Serif" font-size="11.00" fill="#000000">Generated by SchemaSpy</text>
<!-- dispatcher_latest_event -->
<g id="node1" class="node">
<title>dispatcher_latest_event</title>
<g id="a_node1"><a xlink:href="../../tables/dispatcher_latest_event.html" xlink:title="dispatcher_latest_event" target="_top">
<polygon fill="#ffffff" stroke="transparent" points="166,-56.7 166,-142.7 325,-142.7 325,-56.7 166,-56.7"/>
<polygon fill="#f5f5f5" stroke="transparent" points="166.5,-119.7 166.5,-142.7 325.5,-142.7 325.5,-119.7 166.5,-119.7"/>
<polygon fill="none" stroke="#000000" points="166.5,-119.7 166.5,-142.7 325.5,-142.7 325.5,-119.7 166.5,-119.7"/>
<text text-anchor="start" x="171.425" y="-128.8" font-family="Helvetica,sans-Serif" font-weight="bold" font-size="11.00" fill="#000000">dispatcher_latest_event</text>
<text text-anchor="start" x="291.0219" y="-127.8" font-family="Helvetica,sans-Serif" font-size="11.00" fill="#000000">[table]</text>
<polygon fill="none" stroke="#000000" points="166.5,-97.7 166.5,-119.7 325.5,-119.7 325.5,-97.7 166.5,-97.7"/>
<image xlink:href="../../images/primaryKeys.png" width="11px" height="12px" preserveAspectRatio="xMinYMin meet" x="171.5" y="-114.7"/>
<text text-anchor="start" x="187.5" y="-104.8" font-family="Helvetica,sans-Serif" font-size="11.00" fill="#000000">id</text>
<polygon fill="none" stroke="#000000" points="166.5,-75.7 166.5,-97.7 325.5,-97.7 325.5,-75.7 166.5,-75.7"/>
<image xlink:href="../../images/foreignKeys.png" width="11px" height="12px" preserveAspectRatio="xMinYMin meet" x="171.5" y="-92.7"/>
<text text-anchor="start" x="187.5" y="-82.8" font-family="Helvetica,sans-Serif" font-size="11.00" fill="#000000">event_id</text>
<polygon fill="#ffffff" stroke="transparent" points="166.5,-56.7 166.5,-75.7 226.5,-75.7 226.5,-56.7 166.5,-56.7"/>
<polygon fill="none" stroke="#000000" points="166.5,-56.7 166.5,-75.7 226.5,-75.7 226.5,-56.7 166.5,-56.7"/>
<text text-anchor="start" x="169.5" y="-62.8" font-family="Helvetica,sans-Serif" font-size="11.00" fill="#000000"> &#160;</text>
<polygon fill="#ffffff" stroke="transparent" points="226.5,-56.7 226.5,-75.7 288.5,-75.7 288.5,-56.7 226.5,-56.7"/>
<polygon fill="none" stroke="#000000" points="226.5,-56.7 226.5,-75.7 288.5,-75.7 288.5,-56.7 226.5,-56.7"/>
<text text-anchor="start" x="253.1105" y="-62.8" font-family="Helvetica,sans-Serif" font-size="11.00" fill="#000000">0 rows</text>
<polygon fill="#ffffff" stroke="transparent" points="288.5,-56.7 288.5,-75.7 325.5,-75.7 325.5,-56.7 288.5,-56.7"/>
<polygon fill="none" stroke="#000000" points="288.5,-56.7 288.5,-75.7 325.5,-75.7 325.5,-56.7 288.5,-56.7"/>
<text text-anchor="start" x="316.3862" y="-62.8" font-family="Helvetica,sans-Serif" font-size="11.00" fill="#000000"> &#160;</text>
</a>
</g>
</g>
<!-- event_store -->
<g id="node2" class="node">
<title>event_store</title>
<g id="a_node2"><a xlink:href="../../tables/event_store.html" xlink:title="event_store" target="_top">
<polygon fill="#ffffff" stroke="transparent" points="8,-38.2 8,-121.2 117,-121.2 117,-38.2 8,-38.2"/>
<polygon fill="#f5f5f5" stroke="transparent" points="8.5,-97.7 8.5,-120.7 117.5,-120.7 117.5,-97.7 8.5,-97.7"/>
<polygon fill="none" stroke="#000000" points="8.5,-97.7 8.5,-120.7 117.5,-120.7 117.5,-97.7 8.5,-97.7"/>
<text text-anchor="start" x="13.5" y="-106.8" font-family="Helvetica,sans-Serif" font-weight="bold" font-size="11.00" fill="#000000">event_store</text>
<text text-anchor="start" x="82.5437" y="-105.8" font-family="Helvetica,sans-Serif" font-size="11.00" fill="#000000">[table]</text>
<polygon fill="none" stroke="#000000" points="8.5,-75.7 8.5,-97.7 117.5,-97.7 117.5,-75.7 8.5,-75.7"/>
<image xlink:href="../../images/primaryKeys.png" width="11px" height="12px" preserveAspectRatio="xMinYMin meet" x="13.5" y="-92.7"/>
<text text-anchor="start" x="28.5" y="-82.8" font-family="Helvetica,sans-Serif" font-size="11.00" fill="#000000">id</text>
<polygon fill="none" stroke="#000000" points="8.5,-56.7 8.5,-75.7 117.5,-75.7 117.5,-56.7 8.5,-56.7"/>
<text text-anchor="start" x="11.5" y="-62.8" font-family="Helvetica,sans-Serif" font-size="11.00" fill="#000000">...</text>
<polygon fill="#ffffff" stroke="transparent" points="8.5,-37.7 8.5,-56.7 43.5,-56.7 43.5,-37.7 8.5,-37.7"/>
<polygon fill="none" stroke="#000000" points="8.5,-37.7 8.5,-56.7 43.5,-56.7 43.5,-37.7 8.5,-37.7"/>
<text text-anchor="start" x="11.5" y="-43.8" font-family="Helvetica,sans-Serif" font-size="11.00" fill="#000000"> &#160;</text>
<polygon fill="#ffffff" stroke="transparent" points="43.5,-37.7 43.5,-56.7 93.5,-56.7 93.5,-37.7 43.5,-37.7"/>
<polygon fill="none" stroke="#000000" points="43.5,-37.7 43.5,-56.7 93.5,-56.7 93.5,-37.7 43.5,-37.7"/>
<text text-anchor="start" x="58.1105" y="-43.8" font-family="Helvetica,sans-Serif" font-size="11.00" fill="#000000">3 rows</text>
<polygon fill="#ffffff" stroke="transparent" points="93.5,-37.7 93.5,-56.7 117.5,-56.7 117.5,-37.7 93.5,-37.7"/>
<polygon fill="none" stroke="#000000" points="93.5,-37.7 93.5,-56.7 117.5,-56.7 117.5,-37.7 93.5,-37.7"/>
<text text-anchor="start" x="108.3862" y="-43.8" font-family="Helvetica,sans-Serif" font-size="11.00" fill="#000000"> &#160;</text>
</a>
</g>
</g>
<!-- dispatcher_latest_event&#45;&gt;event_store -->
<g id="edge1" class="edge">
<title>dispatcher_latest_event:w&#45;&gt;event_store:e</title>
<path fill="none" stroke="#000000" stroke-dasharray="5,2" d="M151.9909,-86.7C140.6774,-86.7 133.4931,-86.7 117.5,-86.7"/>
<polygon fill="#000000" stroke="#000000" points="158.5,-86.7001 166.5,-90.3 162.5,-86.7 166.5,-86.7 166.5,-86.7 166.5,-86.7 162.5,-86.7 166.5,-83.1 158.5,-86.7001 158.5,-86.7001"/>
<ellipse fill="none" stroke="#000000" cx="155.3" cy="-86.7001" rx="3.2" ry="3.2"/>
</g>
</g>
</svg>
