<?xml version="1.0" encoding="UTF-8" standalone="no"?>
<!DOCTYPE svg PUBLIC "-//W3C//DTD SVG 1.1//EN"
 "http://www.w3.org/Graphics/SVG/1.1/DTD/svg11.dtd">
<!-- Generated by graphviz version 2.40.1 (20161225.0304)
 -->
<!-- Title: largeRelationshipsDiagram Pages: 1 -->
<svg width="443pt" height="180pt"
 viewBox="0.00 0.00 443.00 180.20" xmlns="http://www.w3.org/2000/svg" xmlns:xlink="http://www.w3.org/1999/xlink">
<g id="graph0" class="graph" transform="scale(1 1) rotate(0) translate(4 176.2)">
<title>largeRelationshipsDiagram</title>
<polygon fill="#ffffff" stroke="transparent" points="-4,4 -4,-176.2 439,-176.2 439,4 -4,4"/>
<text text-anchor="middle" x="72.4936" y="-7.3" font-family="Helvetica,sans-Serif" font-size="11.00" fill="#000000">Generated by SchemaSpy</text>
<!-- paid_holidays_grant_rule -->
<g id="node1" class="node">
<title>paid_holidays_grant_rule</title>
<g id="a_node1"><a xlink:href="../../tables/paid_holidays_grant_rule.html" xlink:title="paid_holidays_grant_rule" target="_top">
<polygon fill="#ffffff" stroke="transparent" points="8,-38.2 8,-146.2 174,-146.2 174,-38.2 8,-38.2"/>
<polygon fill="#f5f5f5" stroke="transparent" points="8,-123.2 8,-146.2 174,-146.2 174,-123.2 8,-123.2"/>
<polygon fill="none" stroke="#000000" points="8,-123.2 8,-146.2 174,-146.2 174,-123.2 8,-123.2"/>
<text text-anchor="start" x="13" y="-132.3" font-family="Helvetica,sans-Serif" font-weight="bold" font-size="11.00" fill="#000000">paid_holidays_grant_rule</text>
<text text-anchor="start" x="139.5219" y="-131.3" font-family="Helvetica,sans-Serif" font-size="11.00" fill="#000000">[table]</text>
<polygon fill="none" stroke="#000000" points="8,-101.2 8,-123.2 174,-123.2 174,-101.2 8,-101.2"/>
<image xlink:href="../../images/primaryKeys.png" width="11px" height="12px" preserveAspectRatio="xMinYMin meet" x="13" y="-118.2"/>
<text text-anchor="start" x="28" y="-108.3" font-family="Helvetica,sans-Serif" font-size="11.00" fill="#000000">id</text>
<polygon fill="none" stroke="#000000" points="8,-79.2 8,-101.2 174,-101.2 174,-79.2 8,-79.2"/>
<text text-anchor="start" x="28" y="-86.3" font-family="Helvetica,sans-Serif" font-size="11.00" fill="#000000">valid_from</text>
<polygon fill="none" stroke="#000000" points="8,-57.2 8,-79.2 174,-79.2 174,-57.2 8,-57.2"/>
<text text-anchor="start" x="28" y="-64.3" font-family="Helvetica,sans-Serif" font-size="11.00" fill="#000000">valid_to</text>
<polygon fill="#ffffff" stroke="transparent" points="8,-38.2 8,-57.2 67,-57.2 67,-38.2 8,-38.2"/>
<polygon fill="none" stroke="#000000" points="8,-38.2 8,-57.2 67,-57.2 67,-38.2 8,-38.2"/>
<text text-anchor="start" x="11" y="-44.3" font-family="Helvetica,sans-Serif" font-size="11.00" fill="#000000"> &#160;</text>
<polygon fill="#ffffff" stroke="transparent" points="67,-38.2 67,-57.2 129,-57.2 129,-38.2 67,-38.2"/>
<polygon fill="none" stroke="#000000" points="67,-38.2 67,-57.2 129,-57.2 129,-38.2 67,-38.2"/>
<text text-anchor="start" x="93.6105" y="-44.3" font-family="Helvetica,sans-Serif" font-size="11.00" fill="#000000">0 rows</text>
<polygon fill="#ffffff" stroke="transparent" points="129,-38.2 129,-57.2 174,-57.2 174,-38.2 129,-38.2"/>
<polygon fill="none" stroke="#000000" points="129,-38.2 129,-57.2 174,-57.2 174,-38.2 129,-38.2"/>
<text text-anchor="start" x="155.4053" y="-44.3" font-family="Helvetica,sans-Serif" font-size="11.00" fill="#000000">1 &gt;</text>
</a>
</g>
</g>
<!-- paid_holidays_grant_rule_detail -->
<g id="node2" class="node">
<title>paid_holidays_grant_rule_detail</title>
<g id="a_node2"><a xlink:href="../../tables/paid_holidays_grant_rule_detail.html" xlink:title="paid_holidays_grant_rule_detail" target="_top">
<polygon fill="#ffffff" stroke="transparent" points="223,-38.2 223,-168.2 427,-168.2 427,-38.2 223,-38.2"/>
<polygon fill="#f5f5f5" stroke="transparent" points="223,-145.2 223,-168.2 427,-168.2 427,-145.2 223,-145.2"/>
<polygon fill="none" stroke="#000000" points="223,-145.2 223,-168.2 427,-168.2 427,-145.2 223,-145.2"/>
<text text-anchor="start" x="228" y="-154.3" font-family="Helvetica,sans-Serif" font-weight="bold" font-size="11.00" fill="#000000">paid_holidays_grant_rule_detail</text>
<text text-anchor="start" x="392.0437" y="-153.3" font-family="Helvetica,sans-Serif" font-size="11.00" fill="#000000">[table]</text>
<polygon fill="none" stroke="#000000" points="223,-123.2 223,-145.2 427,-145.2 427,-123.2 223,-123.2"/>
<image xlink:href="../../images/primaryKeys.png" width="11px" height="12px" preserveAspectRatio="xMinYMin meet" x="228" y="-140.2"/>
<text text-anchor="start" x="243" y="-130.3" font-family="Helvetica,sans-Serif" font-size="11.00" fill="#000000">id</text>
<polygon fill="none" stroke="#000000" points="223,-101.2 223,-123.2 427,-123.2 427,-101.2 223,-101.2"/>
<image xlink:href="../../images/foreignKeys.png" width="11px" height="12px" preserveAspectRatio="xMinYMin meet" x="228" y="-118.2"/>
<text text-anchor="start" x="243" y="-108.3" font-family="Helvetica,sans-Serif" font-size="11.00" fill="#000000">rule_id</text>
<polygon fill="none" stroke="#000000" points="223,-79.2 223,-101.2 427,-101.2 427,-79.2 223,-79.2"/>
<text text-anchor="start" x="243" y="-86.3" font-family="Helvetica,sans-Serif" font-size="11.00" fill="#000000">elapsed_months</text>
<polygon fill="none" stroke="#000000" points="223,-57.2 223,-79.2 427,-79.2 427,-57.2 223,-57.2"/>
<text text-anchor="start" x="243" y="-64.3" font-family="Helvetica,sans-Serif" font-size="11.00" fill="#000000">granted_days</text>
<polygon fill="#ffffff" stroke="transparent" points="223,-38.2 223,-57.2 310,-57.2 310,-38.2 223,-38.2"/>
<polygon fill="none" stroke="#000000" points="223,-38.2 223,-57.2 310,-57.2 310,-38.2 223,-38.2"/>
<text text-anchor="start" x="226" y="-44.3" font-family="Helvetica,sans-Serif" font-size="11.00" fill="#000000">&lt; 1</text>
<polygon fill="#ffffff" stroke="transparent" points="310,-38.2 310,-57.2 381,-57.2 381,-38.2 310,-38.2"/>
<polygon fill="none" stroke="#000000" points="310,-38.2 310,-57.2 381,-57.2 381,-38.2 310,-38.2"/>
<text text-anchor="start" x="345.6105" y="-44.3" font-family="Helvetica,sans-Serif" font-size="11.00" fill="#000000">0 rows</text>
<polygon fill="#ffffff" stroke="transparent" points="381,-38.2 381,-57.2 427,-57.2 427,-38.2 381,-38.2"/>
<polygon fill="none" stroke="#000000" points="381,-38.2 381,-57.2 427,-57.2 427,-38.2 381,-38.2"/>
<text text-anchor="start" x="417.8862" y="-44.3" font-family="Helvetica,sans-Serif" font-size="11.00" fill="#000000"> &#160;</text>
</a>
</g>
</g>
<!-- paid_holidays_grant_rule_detail&#45;&gt;paid_holidays_grant_rule -->
<g id="edge1" class="edge">
<title>paid_holidays_grant_rule_detail:w&#45;&gt;paid_holidays_grant_rule:e</title>
<path fill="none" stroke="#000000" d="M208.4909,-112.2C197.1774,-112.2 189.9931,-112.2 174,-112.2"/>
<polygon fill="#000000" stroke="#000000" points="215,-112.2001 223,-115.8 219,-112.2 223,-112.2 223,-112.2 223,-112.2 219,-112.2 223,-108.6 215,-112.2001 215,-112.2001"/>
<ellipse fill="none" stroke="#000000" cx="211.8" cy="-112.2001" rx="3.2" ry="3.2"/>
</g>
</g>
</svg>
