<?xml version="1.0" encoding="UTF-8" standalone="no"?>
<!DOCTYPE svg PUBLIC "-//W3C//DTD SVG 1.1//EN"
 "http://www.w3.org/Graphics/SVG/1.1/DTD/svg11.dtd">
<!-- Generated by graphviz version 2.40.1 (20161225.0304)
 -->
<!-- Title: compactRelationshipsDiagram Pages: 1 -->
<svg width="443pt" height="155pt"
 viewBox="0.00 0.00 443.00 155.20" xmlns="http://www.w3.org/2000/svg" xmlns:xlink="http://www.w3.org/1999/xlink">
<g id="graph0" class="graph" transform="scale(1 1) rotate(0) translate(4 151.2)">
<title>compactRelationshipsDiagram</title>
<polygon fill="#ffffff" stroke="transparent" points="-4,4 -4,-151.2 439,-151.2 439,4 -4,4"/>
<text text-anchor="middle" x="72.4936" y="-7.3" font-family="Helvetica,sans-Serif" font-size="11.00" fill="#000000">Generated by SchemaSpy</text>
<!-- paid_holidays_grant_rule -->
<g id="node1" class="node">
<title>paid_holidays_grant_rule</title>
<g id="a_node1"><a xlink:href="../../tables/paid_holidays_grant_rule.html" xlink:title="paid_holidays_grant_rule" target="_top">
<polygon fill="#ffffff" stroke="transparent" points="8,-38.2 8,-121.2 174,-121.2 174,-38.2 8,-38.2"/>
<polygon fill="#f5f5f5" stroke="transparent" points="8,-97.7 8,-120.7 174,-120.7 174,-97.7 8,-97.7"/>
<polygon fill="none" stroke="#000000" points="8,-97.7 8,-120.7 174,-120.7 174,-97.7 8,-97.7"/>
<text text-anchor="start" x="13" y="-106.8" font-family="Helvetica,sans-Serif" font-weight="bold" font-size="11.00" fill="#000000">paid_holidays_grant_rule</text>
<text text-anchor="start" x="139.5219" y="-105.8" font-family="Helvetica,sans-Serif" font-size="11.00" fill="#000000">[table]</text>
<polygon fill="none" stroke="#000000" points="8,-75.7 8,-97.7 174,-97.7 174,-75.7 8,-75.7"/>
<image xlink:href="../../images/primaryKeys.png" width="11px" height="12px" preserveAspectRatio="xMinYMin meet" x="13" y="-92.7"/>
<text text-anchor="start" x="28" y="-82.8" font-family="Helvetica,sans-Serif" font-size="11.00" fill="#000000">id</text>
<polygon fill="none" stroke="#000000" points="8,-56.7 8,-75.7 174,-75.7 174,-56.7 8,-56.7"/>
<text text-anchor="start" x="11" y="-62.8" font-family="Helvetica,sans-Serif" font-size="11.00" fill="#000000">...</text>
<polygon fill="#ffffff" stroke="transparent" points="8,-37.7 8,-56.7 67,-56.7 67,-37.7 8,-37.7"/>
<polygon fill="none" stroke="#000000" points="8,-37.7 8,-56.7 67,-56.7 67,-37.7 8,-37.7"/>
<text text-anchor="start" x="11" y="-43.8" font-family="Helvetica,sans-Serif" font-size="11.00" fill="#000000"> &#160;</text>
<polygon fill="#ffffff" stroke="transparent" points="67,-37.7 67,-56.7 129,-56.7 129,-37.7 67,-37.7"/>
<polygon fill="none" stroke="#000000" points="67,-37.7 67,-56.7 129,-56.7 129,-37.7 67,-37.7"/>
<text text-anchor="start" x="93.6105" y="-43.8" font-family="Helvetica,sans-Serif" font-size="11.00" fill="#000000">0 rows</text>
<polygon fill="#ffffff" stroke="transparent" points="129,-37.7 129,-56.7 174,-56.7 174,-37.7 129,-37.7"/>
<polygon fill="none" stroke="#000000" points="129,-37.7 129,-56.7 174,-56.7 174,-37.7 129,-37.7"/>
<text text-anchor="start" x="155.4053" y="-43.8" font-family="Helvetica,sans-Serif" font-size="11.00" fill="#000000">1 &gt;</text>
</a>
</g>
</g>
<!-- paid_holidays_grant_rule_detail -->
<g id="node2" class="node">
<title>paid_holidays_grant_rule_detail</title>
<g id="a_node2"><a xlink:href="../../tables/paid_holidays_grant_rule_detail.html" xlink:title="paid_holidays_grant_rule_detail" target="_top">
<polygon fill="#ffffff" stroke="transparent" points="223,-38.2 223,-143.2 427,-143.2 427,-38.2 223,-38.2"/>
<polygon fill="#f5f5f5" stroke="transparent" points="223,-119.7 223,-142.7 427,-142.7 427,-119.7 223,-119.7"/>
<polygon fill="none" stroke="#000000" points="223,-119.7 223,-142.7 427,-142.7 427,-119.7 223,-119.7"/>
<text text-anchor="start" x="228" y="-128.8" font-family="Helvetica,sans-Serif" font-weight="bold" font-size="11.00" fill="#000000">paid_holidays_grant_rule_detail</text>
<text text-anchor="start" x="392.0437" y="-127.8" font-family="Helvetica,sans-Serif" font-size="11.00" fill="#000000">[table]</text>
<polygon fill="none" stroke="#000000" points="223,-97.7 223,-119.7 427,-119.7 427,-97.7 223,-97.7"/>
<image xlink:href="../../images/primaryKeys.png" width="11px" height="12px" preserveAspectRatio="xMinYMin meet" x="228" y="-114.7"/>
<text text-anchor="start" x="243" y="-104.8" font-family="Helvetica,sans-Serif" font-size="11.00" fill="#000000">id</text>
<polygon fill="none" stroke="#000000" points="223,-75.7 223,-97.7 427,-97.7 427,-75.7 223,-75.7"/>
<image xlink:href="../../images/foreignKeys.png" width="11px" height="12px" preserveAspectRatio="xMinYMin meet" x="228" y="-92.7"/>
<text text-anchor="start" x="243" y="-82.8" font-family="Helvetica,sans-Serif" font-size="11.00" fill="#000000">rule_id</text>
<polygon fill="none" stroke="#000000" points="223,-56.7 223,-75.7 427,-75.7 427,-56.7 223,-56.7"/>
<text text-anchor="start" x="226" y="-62.8" font-family="Helvetica,sans-Serif" font-size="11.00" fill="#000000">...</text>
<polygon fill="#ffffff" stroke="transparent" points="223,-37.7 223,-56.7 310,-56.7 310,-37.7 223,-37.7"/>
<polygon fill="none" stroke="#000000" points="223,-37.7 223,-56.7 310,-56.7 310,-37.7 223,-37.7"/>
<text text-anchor="start" x="226" y="-43.8" font-family="Helvetica,sans-Serif" font-size="11.00" fill="#000000">&lt; 1</text>
<polygon fill="#ffffff" stroke="transparent" points="310,-37.7 310,-56.7 381,-56.7 381,-37.7 310,-37.7"/>
<polygon fill="none" stroke="#000000" points="310,-37.7 310,-56.7 381,-56.7 381,-37.7 310,-37.7"/>
<text text-anchor="start" x="345.6105" y="-43.8" font-family="Helvetica,sans-Serif" font-size="11.00" fill="#000000">0 rows</text>
<polygon fill="#ffffff" stroke="transparent" points="381,-37.7 381,-56.7 427,-56.7 427,-37.7 381,-37.7"/>
<polygon fill="none" stroke="#000000" points="381,-37.7 381,-56.7 427,-56.7 427,-37.7 381,-37.7"/>
<text text-anchor="start" x="417.8862" y="-43.8" font-family="Helvetica,sans-Serif" font-size="11.00" fill="#000000"> &#160;</text>
</a>
</g>
</g>
<!-- paid_holidays_grant_rule_detail&#45;&gt;paid_holidays_grant_rule -->
<g id="edge1" class="edge">
<title>paid_holidays_grant_rule_detail:w&#45;&gt;paid_holidays_grant_rule:e</title>
<path fill="none" stroke="#000000" d="M208.4909,-86.7C197.1774,-86.7 189.9931,-86.7 174,-86.7"/>
<polygon fill="#000000" stroke="#000000" points="215,-86.7001 223,-90.3 219,-86.7 223,-86.7 223,-86.7 223,-86.7 219,-86.7 223,-83.1 215,-86.7001 215,-86.7001"/>
<ellipse fill="none" stroke="#000000" cx="211.8" cy="-86.7001" rx="3.2" ry="3.2"/>
</g>
</g>
</svg>
