<?xml version="1.0" encoding="UTF-8" standalone="no"?>
<!DOCTYPE svg PUBLIC "-//W3C//DTD SVG 1.1//EN"
 "http://www.w3.org/Graphics/SVG/1.1/DTD/svg11.dtd">
<!-- Generated by graphviz version 2.40.1 (20161225.0304)
 -->
<!-- Title: compactRelationshipsDiagram Pages: 1 -->
<svg width="670pt" height="849pt"
 viewBox="0.00 0.00 670.00 848.70" xmlns="http://www.w3.org/2000/svg" xmlns:xlink="http://www.w3.org/1999/xlink">
<g id="graph0" class="graph" transform="scale(1 1) rotate(0) translate(4 844.7)">
<title>compactRelationshipsDiagram</title>
<polygon fill="#ffffff" stroke="transparent" points="-4,4 -4,-844.7 666,-844.7 666,4 -4,4"/>
<text text-anchor="middle" x="72.4936" y="-7.3" font-family="Helvetica,sans-Serif" font-size="11.00" fill="#000000">Generated by SchemaSpy</text>
<!-- account -->
<g id="node1" class="node">
<title>account</title>
<g id="a_node1"><a xlink:href="../../tables/account.html" xlink:title="account" target="_top">
<polygon fill="#ffffff" stroke="transparent" points="504,-501.7 504,-584.7 625,-584.7 625,-501.7 504,-501.7"/>
<polygon fill="#f5f5f5" stroke="transparent" points="504.5,-561.2 504.5,-584.2 625.5,-584.2 625.5,-561.2 504.5,-561.2"/>
<polygon fill="none" stroke="#000000" points="504.5,-561.2 504.5,-584.2 625.5,-584.2 625.5,-561.2 504.5,-561.2"/>
<text text-anchor="start" x="509.5" y="-570.3" font-family="Helvetica,sans-Serif" font-weight="bold" font-size="11.00" fill="#000000">account</text>
<text text-anchor="start" x="590.5437" y="-569.3" font-family="Helvetica,sans-Serif" font-size="11.00" fill="#000000">[table]</text>
<polygon fill="none" stroke="#000000" points="504.5,-539.2 504.5,-561.2 625.5,-561.2 625.5,-539.2 504.5,-539.2"/>
<image xlink:href="../../images/primaryKeys.png" width="11px" height="12px" preserveAspectRatio="xMinYMin meet" x="509.5" y="-556.2"/>
<text text-anchor="start" x="524.5" y="-546.3" font-family="Helvetica,sans-Serif" font-size="11.00" fill="#000000">user_id</text>
<polygon fill="none" stroke="#000000" points="504.5,-520.2 504.5,-539.2 625.5,-539.2 625.5,-520.2 504.5,-520.2"/>
<text text-anchor="start" x="507.5" y="-526.3" font-family="Helvetica,sans-Serif" font-size="11.00" fill="#000000">...</text>
<polygon fill="#ffffff" stroke="transparent" points="504.5,-501.2 504.5,-520.2 550.5,-520.2 550.5,-501.2 504.5,-501.2"/>
<polygon fill="none" stroke="#000000" points="504.5,-501.2 504.5,-520.2 550.5,-520.2 550.5,-501.2 504.5,-501.2"/>
<text text-anchor="start" x="507.5" y="-507.3" font-family="Helvetica,sans-Serif" font-size="11.00" fill="#000000">&lt; 1</text>
<polygon fill="#ffffff" stroke="transparent" points="550.5,-501.2 550.5,-520.2 600.5,-520.2 600.5,-501.2 550.5,-501.2"/>
<polygon fill="none" stroke="#000000" points="550.5,-501.2 550.5,-520.2 600.5,-520.2 600.5,-501.2 550.5,-501.2"/>
<text text-anchor="start" x="565.1105" y="-507.3" font-family="Helvetica,sans-Serif" font-size="11.00" fill="#000000">3 rows</text>
<polygon fill="#ffffff" stroke="transparent" points="600.5,-501.2 600.5,-520.2 625.5,-520.2 625.5,-501.2 600.5,-501.2"/>
<polygon fill="none" stroke="#000000" points="600.5,-501.2 600.5,-520.2 625.5,-520.2 625.5,-501.2 600.5,-501.2"/>
<text text-anchor="start" x="616.3862" y="-507.3" font-family="Helvetica,sans-Serif" font-size="11.00" fill="#000000"> &#160;</text>
</a>
</g>
</g>
<!-- user -->
<g id="node10" class="node">
<title>user</title>
<g id="a_node10"><a xlink:href="../../tables/user.html" xlink:title="user" target="_top">
<polygon fill="#ffffff" stroke="transparent" points="264,-375.7 264,-480.7 385,-480.7 385,-375.7 264,-375.7"/>
<polygon fill="#f5f5f5" stroke="transparent" points="264.5,-457.2 264.5,-480.2 385.5,-480.2 385.5,-457.2 264.5,-457.2"/>
<polygon fill="none" stroke="#000000" points="264.5,-457.2 264.5,-480.2 385.5,-480.2 385.5,-457.2 264.5,-457.2"/>
<text text-anchor="start" x="269.5" y="-466.3" font-family="Helvetica,sans-Serif" font-weight="bold" font-size="11.00" fill="#000000">user</text>
<text text-anchor="start" x="350.5437" y="-465.3" font-family="Helvetica,sans-Serif" font-size="11.00" fill="#000000">[table]</text>
<polygon fill="none" stroke="#000000" points="264.5,-435.2 264.5,-457.2 385.5,-457.2 385.5,-435.2 264.5,-435.2"/>
<image xlink:href="../../images/primaryKeys.png" width="11px" height="12px" preserveAspectRatio="xMinYMin meet" x="269.5" y="-452.2"/>
<text text-anchor="start" x="284.5" y="-442.3" font-family="Helvetica,sans-Serif" font-size="11.00" fill="#000000">id</text>
<polygon fill="none" stroke="#000000" points="264.5,-413.2 264.5,-435.2 385.5,-435.2 385.5,-413.2 264.5,-413.2"/>
<image xlink:href="../../images/foreignKeys.png" width="11px" height="12px" preserveAspectRatio="xMinYMin meet" x="269.5" y="-430.2"/>
<text text-anchor="start" x="284.5" y="-420.3" font-family="Helvetica,sans-Serif" font-size="11.00" fill="#000000">status</text>
<polygon fill="none" stroke="#000000" points="264.5,-394.2 264.5,-413.2 385.5,-413.2 385.5,-394.2 264.5,-394.2"/>
<text text-anchor="start" x="267.5" y="-400.3" font-family="Helvetica,sans-Serif" font-size="11.00" fill="#000000">...</text>
<polygon fill="#ffffff" stroke="transparent" points="264.5,-375.2 264.5,-394.2 305.5,-394.2 305.5,-375.2 264.5,-375.2"/>
<polygon fill="none" stroke="#000000" points="264.5,-375.2 264.5,-394.2 305.5,-394.2 305.5,-375.2 264.5,-375.2"/>
<text text-anchor="start" x="267.5" y="-381.3" font-family="Helvetica,sans-Serif" font-size="11.00" fill="#000000">&lt; 1</text>
<polygon fill="#ffffff" stroke="transparent" points="305.5,-375.2 305.5,-394.2 353.5,-394.2 353.5,-375.2 305.5,-375.2"/>
<polygon fill="none" stroke="#000000" points="305.5,-375.2 305.5,-394.2 353.5,-394.2 353.5,-375.2 305.5,-375.2"/>
<text text-anchor="start" x="318.1105" y="-381.3" font-family="Helvetica,sans-Serif" font-size="11.00" fill="#000000">3 rows</text>
<polygon fill="#ffffff" stroke="transparent" points="353.5,-375.2 353.5,-394.2 385.5,-394.2 385.5,-375.2 353.5,-375.2"/>
<polygon fill="none" stroke="#000000" points="353.5,-375.2 353.5,-394.2 385.5,-394.2 385.5,-375.2 353.5,-375.2"/>
<text text-anchor="start" x="366.9053" y="-381.3" font-family="Helvetica,sans-Serif" font-size="11.00" fill="#000000">7 &gt;</text>
</a>
</g>
</g>
<!-- account&#45;&gt;user -->
<g id="edge1" class="edge">
<title>account:w&#45;&gt;user:e</title>
<path fill="none" stroke="#000000" d="M494.126,-549.3629C436.27,-539.5205 452.0364,-446.2 385.5,-446.2"/>
<polygon fill="#000000" stroke="#000000" points="504.0244,-546.1486 503.3808,-554.1227 501.786,-553.994 502.4296,-546.0199 504.0244,-546.1486"/>
<polyline fill="none" stroke="#000000" points="504.5,-550.2 500.513,-549.8782 "/>
<ellipse fill="none" stroke="#000000" cx="497.3233" cy="-549.6208" rx="3.2" ry="3.2"/>
</g>
<!-- alert_for_taking_paid_leave -->
<g id="node2" class="node">
<title>alert_for_taking_paid_leave</title>
<g id="a_node2"><a xlink:href="../../tables/alert_for_taking_paid_leave.html" xlink:title="alert_for_taking_paid_leave" target="_top">
<polygon fill="#ffffff" stroke="transparent" points="475,-397.7 475,-480.7 654,-480.7 654,-397.7 475,-397.7"/>
<polygon fill="#f5f5f5" stroke="transparent" points="475.5,-457.2 475.5,-480.2 654.5,-480.2 654.5,-457.2 475.5,-457.2"/>
<polygon fill="none" stroke="#000000" points="475.5,-457.2 475.5,-480.2 654.5,-480.2 654.5,-457.2 475.5,-457.2"/>
<text text-anchor="start" x="480.5" y="-466.3" font-family="Helvetica,sans-Serif" font-weight="bold" font-size="11.00" fill="#000000">alert_for_taking_paid_leave</text>
<text text-anchor="start" x="620.0219" y="-465.3" font-family="Helvetica,sans-Serif" font-size="11.00" fill="#000000">[table]</text>
<polygon fill="none" stroke="#000000" points="475.5,-435.2 475.5,-457.2 654.5,-457.2 654.5,-435.2 475.5,-435.2"/>
<image xlink:href="../../images/primaryKeys.png" width="11px" height="12px" preserveAspectRatio="xMinYMin meet" x="480.5" y="-452.2"/>
<text text-anchor="start" x="495.5" y="-442.3" font-family="Helvetica,sans-Serif" font-size="11.00" fill="#000000">user_id</text>
<polygon fill="none" stroke="#000000" points="475.5,-416.2 475.5,-435.2 654.5,-435.2 654.5,-416.2 475.5,-416.2"/>
<text text-anchor="start" x="478.5" y="-422.3" font-family="Helvetica,sans-Serif" font-size="11.00" fill="#000000">...</text>
<polygon fill="#ffffff" stroke="transparent" points="475.5,-397.2 475.5,-416.2 553.5,-416.2 553.5,-397.2 475.5,-397.2"/>
<polygon fill="none" stroke="#000000" points="475.5,-397.2 475.5,-416.2 553.5,-416.2 553.5,-397.2 475.5,-397.2"/>
<text text-anchor="start" x="478.5" y="-403.3" font-family="Helvetica,sans-Serif" font-size="11.00" fill="#000000">&lt; 1</text>
<polygon fill="#ffffff" stroke="transparent" points="553.5,-397.2 553.5,-416.2 613.5,-416.2 613.5,-397.2 553.5,-397.2"/>
<polygon fill="none" stroke="#000000" points="553.5,-397.2 553.5,-416.2 613.5,-416.2 613.5,-397.2 553.5,-397.2"/>
<text text-anchor="start" x="583.6105" y="-403.3" font-family="Helvetica,sans-Serif" font-size="11.00" fill="#000000">1 row</text>
<polygon fill="#ffffff" stroke="transparent" points="613.5,-397.2 613.5,-416.2 654.5,-416.2 654.5,-397.2 613.5,-397.2"/>
<polygon fill="none" stroke="#000000" points="613.5,-397.2 613.5,-416.2 654.5,-416.2 654.5,-397.2 613.5,-397.2"/>
<text text-anchor="start" x="645.3862" y="-403.3" font-family="Helvetica,sans-Serif" font-size="11.00" fill="#000000"> &#160;</text>
</a>
</g>
</g>
<!-- alert_for_taking_paid_leave&#45;&gt;user -->
<g id="edge2" class="edge">
<title>alert_for_taking_paid_leave:w&#45;&gt;user:e</title>
<path fill="none" stroke="#000000" d="M464.9916,-446.2C433.3613,-446.2 421.75,-446.2 385.5,-446.2"/>
<polygon fill="#000000" stroke="#000000" points="474.7,-442.2 474.7,-450.2 473.1,-450.2 473.1,-442.2 474.7,-442.2"/>
<polyline fill="none" stroke="#000000" points="475.5,-446.2 471.5,-446.2 "/>
<ellipse fill="none" stroke="#000000" cx="468.3" cy="-446.2001" rx="3.2" ry="3.2"/>
</g>
<!-- granting_paid_leave_rule -->
<g id="node3" class="node">
<title>granting_paid_leave_rule</title>
<g id="a_node3"><a xlink:href="../../tables/granting_paid_leave_rule.html" xlink:title="granting_paid_leave_rule" target="_top">
<polygon fill="#ffffff" stroke="transparent" points="8,-71.7 8,-154.7 174,-154.7 174,-71.7 8,-71.7"/>
<polygon fill="#f5f5f5" stroke="transparent" points="8,-131.2 8,-154.2 174,-154.2 174,-131.2 8,-131.2"/>
<polygon fill="none" stroke="#000000" points="8,-131.2 8,-154.2 174,-154.2 174,-131.2 8,-131.2"/>
<text text-anchor="start" x="12.7587" y="-140.3" font-family="Helvetica,sans-Serif" font-weight="bold" font-size="11.00" fill="#000000">granting_paid_leave_rule</text>
<text text-anchor="start" x="139.5219" y="-139.3" font-family="Helvetica,sans-Serif" font-size="11.00" fill="#000000">[table]</text>
<polygon fill="none" stroke="#000000" points="8,-109.2 8,-131.2 174,-131.2 174,-109.2 8,-109.2"/>
<image xlink:href="../../images/primaryKeys.png" width="11px" height="12px" preserveAspectRatio="xMinYMin meet" x="13" y="-126.2"/>
<text text-anchor="start" x="29" y="-116.3" font-family="Helvetica,sans-Serif" font-size="11.00" fill="#000000">id</text>
<polygon fill="none" stroke="#000000" points="8,-90.2 8,-109.2 174,-109.2 174,-90.2 8,-90.2"/>
<text text-anchor="start" x="11" y="-96.3" font-family="Helvetica,sans-Serif" font-size="11.00" fill="#000000">...</text>
<polygon fill="#ffffff" stroke="transparent" points="8,-71.2 8,-90.2 70,-90.2 70,-71.2 8,-71.2"/>
<polygon fill="none" stroke="#000000" points="8,-71.2 8,-90.2 70,-90.2 70,-71.2 8,-71.2"/>
<text text-anchor="start" x="11" y="-77.3" font-family="Helvetica,sans-Serif" font-size="11.00" fill="#000000"> &#160;</text>
<polygon fill="#ffffff" stroke="transparent" points="70,-71.2 70,-90.2 127,-90.2 127,-71.2 70,-71.2"/>
<polygon fill="none" stroke="#000000" points="70,-71.2 70,-90.2 127,-90.2 127,-71.2 70,-71.2"/>
<text text-anchor="start" x="97.1105" y="-77.3" font-family="Helvetica,sans-Serif" font-size="11.00" fill="#000000">1 row</text>
<polygon fill="#ffffff" stroke="transparent" points="127,-71.2 127,-90.2 174,-90.2 174,-71.2 127,-71.2"/>
<polygon fill="none" stroke="#000000" points="127,-71.2 127,-90.2 174,-90.2 174,-71.2 127,-71.2"/>
<text text-anchor="start" x="155.4053" y="-77.3" font-family="Helvetica,sans-Serif" font-size="11.00" fill="#000000">2 &gt;</text>
</a>
</g>
</g>
<!-- granting_paid_leave_rule_detail -->
<g id="node4" class="node">
<title>granting_paid_leave_rule_detail</title>
<g id="a_node4"><a xlink:href="../../tables/granting_paid_leave_rule_detail.html" xlink:title="granting_paid_leave_rule_detail" target="_top">
<polygon fill="#ffffff" stroke="transparent" points="223,-115.7 223,-220.7 426,-220.7 426,-115.7 223,-115.7"/>
<polygon fill="#f5f5f5" stroke="transparent" points="223.5,-197.2 223.5,-220.2 426.5,-220.2 426.5,-197.2 223.5,-197.2"/>
<polygon fill="none" stroke="#000000" points="223.5,-197.2 223.5,-220.2 426.5,-220.2 426.5,-197.2 223.5,-197.2"/>
<text text-anchor="start" x="228.5" y="-206.3" font-family="Helvetica,sans-Serif" font-weight="bold" font-size="11.00" fill="#000000">granting_paid_leave_rule_detail</text>
<text text-anchor="start" x="391.5437" y="-205.3" font-family="Helvetica,sans-Serif" font-size="11.00" fill="#000000">[table]</text>
<polygon fill="none" stroke="#000000" points="223.5,-175.2 223.5,-197.2 426.5,-197.2 426.5,-175.2 223.5,-175.2"/>
<image xlink:href="../../images/primaryKeys.png" width="11px" height="12px" preserveAspectRatio="xMinYMin meet" x="228.5" y="-192.2"/>
<text text-anchor="start" x="243.5" y="-182.3" font-family="Helvetica,sans-Serif" font-size="11.00" fill="#000000">id</text>
<polygon fill="none" stroke="#000000" points="223.5,-153.2 223.5,-175.2 426.5,-175.2 426.5,-153.2 223.5,-153.2"/>
<image xlink:href="../../images/foreignKeys.png" width="11px" height="12px" preserveAspectRatio="xMinYMin meet" x="228.5" y="-170.2"/>
<text text-anchor="start" x="243.5" y="-160.3" font-family="Helvetica,sans-Serif" font-size="11.00" fill="#000000">rule_id</text>
<polygon fill="none" stroke="#000000" points="223.5,-134.2 223.5,-153.2 426.5,-153.2 426.5,-134.2 223.5,-134.2"/>
<text text-anchor="start" x="226.5" y="-140.3" font-family="Helvetica,sans-Serif" font-size="11.00" fill="#000000">...</text>
<polygon fill="#ffffff" stroke="transparent" points="223.5,-115.2 223.5,-134.2 302.5,-134.2 302.5,-115.2 223.5,-115.2"/>
<polygon fill="none" stroke="#000000" points="223.5,-115.2 223.5,-134.2 302.5,-134.2 302.5,-115.2 223.5,-115.2"/>
<text text-anchor="start" x="226.5" y="-121.3" font-family="Helvetica,sans-Serif" font-size="11.00" fill="#000000">&lt; 1</text>
<polygon fill="#ffffff" stroke="transparent" points="302.5,-115.2 302.5,-134.2 375.5,-134.2 375.5,-115.2 302.5,-115.2"/>
<polygon fill="none" stroke="#000000" points="302.5,-115.2 302.5,-134.2 375.5,-134.2 375.5,-115.2 302.5,-115.2"/>
<text text-anchor="start" x="333.9956" y="-121.3" font-family="Helvetica,sans-Serif" font-size="11.00" fill="#000000">32 rows</text>
<polygon fill="#ffffff" stroke="transparent" points="375.5,-115.2 375.5,-134.2 426.5,-134.2 426.5,-115.2 375.5,-115.2"/>
<polygon fill="none" stroke="#000000" points="375.5,-115.2 375.5,-134.2 426.5,-134.2 426.5,-115.2 375.5,-115.2"/>
<text text-anchor="start" x="407.9053" y="-121.3" font-family="Helvetica,sans-Serif" font-size="11.00" fill="#000000">1 &gt;</text>
</a>
</g>
</g>
<!-- granting_paid_leave_rule_detail&#45;&gt;granting_paid_leave_rule -->
<g id="edge3" class="edge">
<title>granting_paid_leave_rule_detail:w&#45;&gt;granting_paid_leave_rule:e</title>
<path fill="none" stroke="#000000" d="M209.7159,-159.4912C196.2705,-148.1404 197.456,-120.2 174,-120.2"/>
<polygon fill="#000000" stroke="#000000" points="215.9295,-161.6138 222.3362,-167.6067 219.7148,-162.9069 223.5,-164.2 223.5,-164.2 223.5,-164.2 219.7148,-162.9069 224.6638,-160.7933 215.9295,-161.6138 215.9295,-161.6138"/>
<ellipse fill="none" stroke="#000000" cx="212.9013" cy="-160.5794" rx="3.2" ry="3.2"/>
</g>
<!-- group -->
<g id="node5" class="node">
<title>group</title>
<g id="a_node5"><a xlink:href="../../tables/group.html" xlink:title="group" target="_top">
<polygon fill="#ffffff" stroke="transparent" points="264,-690.7 264,-773.7 385,-773.7 385,-690.7 264,-690.7"/>
<polygon fill="#f5f5f5" stroke="transparent" points="264.5,-750.2 264.5,-773.2 385.5,-773.2 385.5,-750.2 264.5,-750.2"/>
<polygon fill="none" stroke="#000000" points="264.5,-750.2 264.5,-773.2 385.5,-773.2 385.5,-750.2 264.5,-750.2"/>
<text text-anchor="start" x="269.5" y="-759.3" font-family="Helvetica,sans-Serif" font-weight="bold" font-size="11.00" fill="#000000">group</text>
<text text-anchor="start" x="350.5437" y="-758.3" font-family="Helvetica,sans-Serif" font-size="11.00" fill="#000000">[table]</text>
<polygon fill="none" stroke="#000000" points="264.5,-728.2 264.5,-750.2 385.5,-750.2 385.5,-728.2 264.5,-728.2"/>
<image xlink:href="../../images/primaryKeys.png" width="11px" height="12px" preserveAspectRatio="xMinYMin meet" x="269.5" y="-745.2"/>
<text text-anchor="start" x="284.5" y="-735.3" font-family="Helvetica,sans-Serif" font-size="11.00" fill="#000000">id</text>
<polygon fill="none" stroke="#000000" points="264.5,-709.2 264.5,-728.2 385.5,-728.2 385.5,-709.2 264.5,-709.2"/>
<text text-anchor="start" x="267.5" y="-715.3" font-family="Helvetica,sans-Serif" font-size="11.00" fill="#000000">...</text>
<polygon fill="#ffffff" stroke="transparent" points="264.5,-690.2 264.5,-709.2 304.5,-709.2 304.5,-690.2 264.5,-690.2"/>
<polygon fill="none" stroke="#000000" points="264.5,-690.2 264.5,-709.2 304.5,-709.2 304.5,-690.2 264.5,-690.2"/>
<text text-anchor="start" x="267.5" y="-696.3" font-family="Helvetica,sans-Serif" font-size="11.00" fill="#000000"> &#160;</text>
<polygon fill="#ffffff" stroke="transparent" points="304.5,-690.2 304.5,-709.2 350.5,-709.2 350.5,-690.2 304.5,-690.2"/>
<polygon fill="none" stroke="#000000" points="304.5,-690.2 304.5,-709.2 350.5,-709.2 350.5,-690.2 304.5,-690.2"/>
<text text-anchor="start" x="320.6105" y="-696.3" font-family="Helvetica,sans-Serif" font-size="11.00" fill="#000000">1 row</text>
<polygon fill="#ffffff" stroke="transparent" points="350.5,-690.2 350.5,-709.2 385.5,-709.2 385.5,-690.2 350.5,-690.2"/>
<polygon fill="none" stroke="#000000" points="350.5,-690.2 350.5,-709.2 385.5,-709.2 385.5,-690.2 350.5,-690.2"/>
<text text-anchor="start" x="366.9053" y="-696.3" font-family="Helvetica,sans-Serif" font-size="11.00" fill="#000000">2 &gt;</text>
</a>
</g>
</g>
<!-- leave_period -->
<g id="node6" class="node">
<title>leave_period</title>
<g id="a_node6"><a xlink:href="../../tables/leave_period.html" xlink:title="leave_period" target="_top">
<polygon fill="#ffffff" stroke="transparent" points="504,-271.7 504,-376.7 625,-376.7 625,-271.7 504,-271.7"/>
<polygon fill="#f5f5f5" stroke="transparent" points="504.5,-353.2 504.5,-376.2 625.5,-376.2 625.5,-353.2 504.5,-353.2"/>
<polygon fill="none" stroke="#000000" points="504.5,-353.2 504.5,-376.2 625.5,-376.2 625.5,-353.2 504.5,-353.2"/>
<text text-anchor="start" x="509.5" y="-362.3" font-family="Helvetica,sans-Serif" font-weight="bold" font-size="11.00" fill="#000000">leave_period</text>
<text text-anchor="start" x="590.5437" y="-361.3" font-family="Helvetica,sans-Serif" font-size="11.00" fill="#000000">[table]</text>
<polygon fill="none" stroke="#000000" points="504.5,-331.2 504.5,-353.2 625.5,-353.2 625.5,-331.2 504.5,-331.2"/>
<image xlink:href="../../images/primaryKeys.png" width="11px" height="12px" preserveAspectRatio="xMinYMin meet" x="509.5" y="-348.2"/>
<text text-anchor="start" x="524.5" y="-338.3" font-family="Helvetica,sans-Serif" font-size="11.00" fill="#000000">id</text>
<polygon fill="none" stroke="#000000" points="504.5,-309.2 504.5,-331.2 625.5,-331.2 625.5,-309.2 504.5,-309.2"/>
<image xlink:href="../../images/foreignKeys.png" width="11px" height="12px" preserveAspectRatio="xMinYMin meet" x="509.5" y="-326.2"/>
<text text-anchor="start" x="524.5" y="-316.3" font-family="Helvetica,sans-Serif" font-size="11.00" fill="#000000">user_id</text>
<polygon fill="none" stroke="#000000" points="504.5,-290.2 504.5,-309.2 625.5,-309.2 625.5,-290.2 504.5,-290.2"/>
<text text-anchor="start" x="507.5" y="-296.3" font-family="Helvetica,sans-Serif" font-size="11.00" fill="#000000">...</text>
<polygon fill="#ffffff" stroke="transparent" points="504.5,-271.2 504.5,-290.2 550.5,-290.2 550.5,-271.2 504.5,-271.2"/>
<polygon fill="none" stroke="#000000" points="504.5,-271.2 504.5,-290.2 550.5,-290.2 550.5,-271.2 504.5,-271.2"/>
<text text-anchor="start" x="507.5" y="-277.3" font-family="Helvetica,sans-Serif" font-size="11.00" fill="#000000">&lt; 1</text>
<polygon fill="#ffffff" stroke="transparent" points="550.5,-271.2 550.5,-290.2 600.5,-290.2 600.5,-271.2 550.5,-271.2"/>
<polygon fill="none" stroke="#000000" points="550.5,-271.2 550.5,-290.2 600.5,-290.2 600.5,-271.2 550.5,-271.2"/>
<text text-anchor="start" x="565.1105" y="-277.3" font-family="Helvetica,sans-Serif" font-size="11.00" fill="#000000">0 rows</text>
<polygon fill="#ffffff" stroke="transparent" points="600.5,-271.2 600.5,-290.2 625.5,-290.2 625.5,-271.2 600.5,-271.2"/>
<polygon fill="none" stroke="#000000" points="600.5,-271.2 600.5,-290.2 625.5,-290.2 625.5,-271.2 600.5,-271.2"/>
<text text-anchor="start" x="616.3862" y="-277.3" font-family="Helvetica,sans-Serif" font-size="11.00" fill="#000000"> &#160;</text>
</a>
</g>
</g>
<!-- leave_period&#45;&gt;user -->
<g id="edge4" class="edge">
<title>leave_period:w&#45;&gt;user:e</title>
<path fill="none" stroke="#000000" d="M489.8364,-321.9812C431.848,-337.2958 457.1115,-446.2 385.5,-446.2"/>
<polygon fill="#000000" stroke="#000000" points="496.5584,-321.1647 504.9341,-323.7737 500.5292,-320.6824 504.5,-320.2 504.5,-320.2 504.5,-320.2 500.5292,-320.6824 504.0659,-316.6263 496.5584,-321.1647 496.5584,-321.1647"/>
<ellipse fill="none" stroke="#000000" cx="493.3817" cy="-321.5506" rx="3.2" ry="3.2"/>
</g>
<!-- manager -->
<g id="node7" class="node">
<title>manager</title>
<g id="a_node7"><a xlink:href="../../tables/manager.html" xlink:title="manager" target="_top">
<polygon fill="#ffffff" stroke="transparent" points="504,-605.7 504,-710.7 625,-710.7 625,-605.7 504,-605.7"/>
<polygon fill="#f5f5f5" stroke="transparent" points="504.5,-687.2 504.5,-710.2 625.5,-710.2 625.5,-687.2 504.5,-687.2"/>
<polygon fill="none" stroke="#000000" points="504.5,-687.2 504.5,-710.2 625.5,-710.2 625.5,-687.2 504.5,-687.2"/>
<text text-anchor="start" x="509.5" y="-696.3" font-family="Helvetica,sans-Serif" font-weight="bold" font-size="11.00" fill="#000000">manager</text>
<text text-anchor="start" x="590.5437" y="-695.3" font-family="Helvetica,sans-Serif" font-size="11.00" fill="#000000">[table]</text>
<polygon fill="none" stroke="#000000" points="504.5,-665.2 504.5,-687.2 625.5,-687.2 625.5,-665.2 504.5,-665.2"/>
<image xlink:href="../../images/primaryKeys.png" width="11px" height="12px" preserveAspectRatio="xMinYMin meet" x="509.5" y="-682.2"/>
<text text-anchor="start" x="524.5" y="-672.3" font-family="Helvetica,sans-Serif" font-size="11.00" fill="#000000">group_id</text>
<polygon fill="none" stroke="#000000" points="504.5,-643.2 504.5,-665.2 625.5,-665.2 625.5,-643.2 504.5,-643.2"/>
<image xlink:href="../../images/primaryKeys.png" width="11px" height="12px" preserveAspectRatio="xMinYMin meet" x="509.5" y="-660.2"/>
<text text-anchor="start" x="524.5" y="-650.3" font-family="Helvetica,sans-Serif" font-size="11.00" fill="#000000">user_id</text>
<polygon fill="none" stroke="#000000" points="504.5,-624.2 504.5,-643.2 625.5,-643.2 625.5,-624.2 504.5,-624.2"/>
<text text-anchor="start" x="507.5" y="-630.3" font-family="Helvetica,sans-Serif" font-size="11.00" fill="#000000">...</text>
<polygon fill="#ffffff" stroke="transparent" points="504.5,-605.2 504.5,-624.2 550.5,-624.2 550.5,-605.2 504.5,-605.2"/>
<polygon fill="none" stroke="#000000" points="504.5,-605.2 504.5,-624.2 550.5,-624.2 550.5,-605.2 504.5,-605.2"/>
<text text-anchor="start" x="507.5" y="-611.3" font-family="Helvetica,sans-Serif" font-size="11.00" fill="#000000">&lt; 2</text>
<polygon fill="#ffffff" stroke="transparent" points="550.5,-605.2 550.5,-624.2 600.5,-624.2 600.5,-605.2 550.5,-605.2"/>
<polygon fill="none" stroke="#000000" points="550.5,-605.2 550.5,-624.2 600.5,-624.2 600.5,-605.2 550.5,-605.2"/>
<text text-anchor="start" x="565.1105" y="-611.3" font-family="Helvetica,sans-Serif" font-size="11.00" fill="#000000">0 rows</text>
<polygon fill="#ffffff" stroke="transparent" points="600.5,-605.2 600.5,-624.2 625.5,-624.2 625.5,-605.2 600.5,-605.2"/>
<polygon fill="none" stroke="#000000" points="600.5,-605.2 600.5,-624.2 625.5,-624.2 625.5,-605.2 600.5,-605.2"/>
<text text-anchor="start" x="616.3862" y="-611.3" font-family="Helvetica,sans-Serif" font-size="11.00" fill="#000000"> &#160;</text>
</a>
</g>
</g>
<!-- manager&#45;&gt;group -->
<g id="edge5" class="edge">
<title>manager:w&#45;&gt;group:e</title>
<path fill="none" stroke="#000000" d="M490.0415,-677.5744C444.3097,-686.7876 440.0837,-739.2 385.5,-739.2"/>
<polygon fill="#000000" stroke="#000000" points="496.5359,-676.9571 504.8407,-679.7838 500.518,-676.5786 504.5,-676.2 504.5,-676.2 504.5,-676.2 500.518,-676.5786 504.1593,-672.6162 496.5359,-676.9571 496.5359,-676.9571"/>
<ellipse fill="none" stroke="#000000" cx="493.3503" cy="-677.26" rx="3.2" ry="3.2"/>
</g>
<!-- manager&#45;&gt;user -->
<g id="edge6" class="edge">
<title>manager:w&#45;&gt;user:e</title>
<path fill="none" stroke="#000000" d="M490.0293,-652.7036C406.8623,-633.9972 486.7001,-446.2 385.5,-446.2"/>
<polygon fill="#000000" stroke="#000000" points="496.5424,-653.377 504.1297,-657.7809 500.5212,-653.7885 504.5,-654.2 504.5,-654.2 504.5,-654.2 500.5212,-653.7885 504.8703,-650.6191 496.5424,-653.377 496.5424,-653.377"/>
<ellipse fill="none" stroke="#000000" cx="493.3594" cy="-653.0479" rx="3.2" ry="3.2"/>
</g>
<!-- member -->
<g id="node8" class="node">
<title>member</title>
<g id="a_node8"><a xlink:href="../../tables/member.html" xlink:title="member" target="_top">
<polygon fill="#ffffff" stroke="transparent" points="504,-731.7 504,-836.7 625,-836.7 625,-731.7 504,-731.7"/>
<polygon fill="#f5f5f5" stroke="transparent" points="504.5,-813.2 504.5,-836.2 625.5,-836.2 625.5,-813.2 504.5,-813.2"/>
<polygon fill="none" stroke="#000000" points="504.5,-813.2 504.5,-836.2 625.5,-836.2 625.5,-813.2 504.5,-813.2"/>
<text text-anchor="start" x="509.5" y="-822.3" font-family="Helvetica,sans-Serif" font-weight="bold" font-size="11.00" fill="#000000">member</text>
<text text-anchor="start" x="590.5437" y="-821.3" font-family="Helvetica,sans-Serif" font-size="11.00" fill="#000000">[table]</text>
<polygon fill="none" stroke="#000000" points="504.5,-791.2 504.5,-813.2 625.5,-813.2 625.5,-791.2 504.5,-791.2"/>
<image xlink:href="../../images/primaryKeys.png" width="11px" height="12px" preserveAspectRatio="xMinYMin meet" x="509.5" y="-808.2"/>
<text text-anchor="start" x="524.5" y="-798.3" font-family="Helvetica,sans-Serif" font-size="11.00" fill="#000000">group_id</text>
<polygon fill="none" stroke="#000000" points="504.5,-769.2 504.5,-791.2 625.5,-791.2 625.5,-769.2 504.5,-769.2"/>
<image xlink:href="../../images/primaryKeys.png" width="11px" height="12px" preserveAspectRatio="xMinYMin meet" x="509.5" y="-786.2"/>
<text text-anchor="start" x="524.5" y="-776.3" font-family="Helvetica,sans-Serif" font-size="11.00" fill="#000000">user_id</text>
<polygon fill="none" stroke="#000000" points="504.5,-750.2 504.5,-769.2 625.5,-769.2 625.5,-750.2 504.5,-750.2"/>
<text text-anchor="start" x="507.5" y="-756.3" font-family="Helvetica,sans-Serif" font-size="11.00" fill="#000000">...</text>
<polygon fill="#ffffff" stroke="transparent" points="504.5,-731.2 504.5,-750.2 550.5,-750.2 550.5,-731.2 504.5,-731.2"/>
<polygon fill="none" stroke="#000000" points="504.5,-731.2 504.5,-750.2 550.5,-750.2 550.5,-731.2 504.5,-731.2"/>
<text text-anchor="start" x="507.5" y="-737.3" font-family="Helvetica,sans-Serif" font-size="11.00" fill="#000000">&lt; 2</text>
<polygon fill="#ffffff" stroke="transparent" points="550.5,-731.2 550.5,-750.2 600.5,-750.2 600.5,-731.2 550.5,-731.2"/>
<polygon fill="none" stroke="#000000" points="550.5,-731.2 550.5,-750.2 600.5,-750.2 600.5,-731.2 550.5,-731.2"/>
<text text-anchor="start" x="565.1105" y="-737.3" font-family="Helvetica,sans-Serif" font-size="11.00" fill="#000000">0 rows</text>
<polygon fill="#ffffff" stroke="transparent" points="600.5,-731.2 600.5,-750.2 625.5,-750.2 625.5,-731.2 600.5,-731.2"/>
<polygon fill="none" stroke="#000000" points="600.5,-731.2 600.5,-750.2 625.5,-750.2 625.5,-731.2 600.5,-731.2"/>
<text text-anchor="start" x="616.3862" y="-737.3" font-family="Helvetica,sans-Serif" font-size="11.00" fill="#000000"> &#160;</text>
</a>
</g>
</g>
<!-- member&#45;&gt;group -->
<g id="edge7" class="edge">
<title>member:w&#45;&gt;group:e</title>
<path fill="none" stroke="#000000" d="M490.0415,-800.8256C444.3097,-791.6124 440.0837,-739.2 385.5,-739.2"/>
<polygon fill="#000000" stroke="#000000" points="496.5359,-801.4429 504.1593,-805.7838 500.518,-801.8214 504.5,-802.2 504.5,-802.2 504.5,-802.2 500.518,-801.8214 504.8407,-798.6162 496.5359,-801.4429 496.5359,-801.4429"/>
<ellipse fill="none" stroke="#000000" cx="493.3503" cy="-801.14" rx="3.2" ry="3.2"/>
</g>
<!-- member&#45;&gt;user -->
<g id="edge8" class="edge">
<title>member:w&#45;&gt;user:e</title>
<path fill="none" stroke="#000000" d="M489.9472,-779.1198C359.552,-758.3885 537.8525,-446.2 385.5,-446.2"/>
<polygon fill="#000000" stroke="#000000" points="496.5219,-779.6078 504.2335,-783.7901 500.511,-779.9039 504.5,-780.2 504.5,-780.2 504.5,-780.2 500.511,-779.9039 504.7665,-776.6099 496.5219,-779.6078 496.5219,-779.6078"/>
<ellipse fill="none" stroke="#000000" cx="493.3307" cy="-779.3709" rx="3.2" ry="3.2"/>
</g>
<!-- paid_leave_grant_history -->
<g id="node9" class="node">
<title>paid_leave_grant_history</title>
<g id="a_node9"><a xlink:href="../../tables/paid_leave_grant_history.html" xlink:title="paid_leave_grant_history" target="_top">
<polygon fill="#ffffff" stroke="transparent" points="482,-145.7 482,-250.7 647,-250.7 647,-145.7 482,-145.7"/>
<polygon fill="#f5f5f5" stroke="transparent" points="482.5,-227.2 482.5,-250.2 647.5,-250.2 647.5,-227.2 482.5,-227.2"/>
<polygon fill="none" stroke="#000000" points="482.5,-227.2 482.5,-250.2 647.5,-250.2 647.5,-227.2 482.5,-227.2"/>
<text text-anchor="start" x="487.0656" y="-236.3" font-family="Helvetica,sans-Serif" font-weight="bold" font-size="11.00" fill="#000000">paid_leave_grant_history</text>
<text text-anchor="start" x="613.0219" y="-235.3" font-family="Helvetica,sans-Serif" font-size="11.00" fill="#000000">[table]</text>
<polygon fill="none" stroke="#000000" points="482.5,-205.2 482.5,-227.2 647.5,-227.2 647.5,-205.2 482.5,-205.2"/>
<image xlink:href="../../images/primaryKeys.png" width="11px" height="12px" preserveAspectRatio="xMinYMin meet" x="487.5" y="-222.2"/>
<text text-anchor="start" x="502.5" y="-212.3" font-family="Helvetica,sans-Serif" font-size="11.00" fill="#000000">user_id</text>
<polygon fill="none" stroke="#000000" points="482.5,-183.2 482.5,-205.2 647.5,-205.2 647.5,-183.2 482.5,-183.2"/>
<image xlink:href="../../images/primaryKeys.png" width="11px" height="12px" preserveAspectRatio="xMinYMin meet" x="487.5" y="-200.2"/>
<text text-anchor="start" x="502.5" y="-190.3" font-family="Helvetica,sans-Serif" font-size="11.00" fill="#000000">rule_detail_id</text>
<polygon fill="none" stroke="#000000" points="482.5,-164.2 482.5,-183.2 647.5,-183.2 647.5,-164.2 482.5,-164.2"/>
<text text-anchor="start" x="485.5" y="-170.3" font-family="Helvetica,sans-Serif" font-size="11.00" fill="#000000">...</text>
<polygon fill="#ffffff" stroke="transparent" points="482.5,-145.2 482.5,-164.2 550.5,-164.2 550.5,-145.2 482.5,-145.2"/>
<polygon fill="none" stroke="#000000" points="482.5,-145.2 482.5,-164.2 550.5,-164.2 550.5,-145.2 482.5,-145.2"/>
<text text-anchor="start" x="485.5" y="-151.3" font-family="Helvetica,sans-Serif" font-size="11.00" fill="#000000">&lt; 2</text>
<polygon fill="#ffffff" stroke="transparent" points="550.5,-145.2 550.5,-164.2 611.5,-164.2 611.5,-145.2 550.5,-145.2"/>
<polygon fill="none" stroke="#000000" points="550.5,-145.2 550.5,-164.2 611.5,-164.2 611.5,-145.2 550.5,-145.2"/>
<text text-anchor="start" x="576.1105" y="-151.3" font-family="Helvetica,sans-Serif" font-size="11.00" fill="#000000">0 rows</text>
<polygon fill="#ffffff" stroke="transparent" points="611.5,-145.2 611.5,-164.2 647.5,-164.2 647.5,-145.2 611.5,-145.2"/>
<polygon fill="none" stroke="#000000" points="611.5,-145.2 611.5,-164.2 647.5,-164.2 647.5,-145.2 611.5,-145.2"/>
<text text-anchor="start" x="638.3862" y="-151.3" font-family="Helvetica,sans-Serif" font-size="11.00" fill="#000000"> &#160;</text>
</a>
</g>
</g>
<!-- paid_leave_grant_history&#45;&gt;granting_paid_leave_rule_detail -->
<g id="edge9" class="edge">
<title>paid_leave_grant_history:w&#45;&gt;granting_paid_leave_rule_detail:e</title>
<path fill="none" stroke="#000000" d="M467.951,-193.1541C453.7709,-190.9856 445.9454,-186.2 426.5,-186.2"/>
<polygon fill="#000000" stroke="#000000" points="474.5206,-193.6263 482.2419,-197.7907 478.5103,-193.9132 482.5,-194.2 482.5,-194.2 482.5,-194.2 478.5103,-193.9132 482.7581,-190.6093 474.5206,-193.6263 474.5206,-193.6263"/>
<ellipse fill="none" stroke="#000000" cx="471.3288" cy="-193.3969" rx="3.2" ry="3.2"/>
</g>
<!-- paid_leave_grant_history&#45;&gt;user -->
<g id="edge10" class="edge">
<title>paid_leave_grant_history:w&#45;&gt;user:e</title>
<path fill="none" stroke="#000000" d="M468.1421,-217.7295C382.9705,-237.6851 491.1325,-446.2 385.5,-446.2"/>
<polygon fill="#000000" stroke="#000000" points="474.545,-217.0475 482.8814,-219.7797 478.5225,-216.6237 482.5,-216.2 482.5,-216.2 482.5,-216.2 478.5225,-216.6237 482.1186,-212.6203 474.545,-217.0475 474.545,-217.0475"/>
<ellipse fill="none" stroke="#000000" cx="471.363" cy="-217.3865" rx="3.2" ry="3.2"/>
</g>
<!-- user_status -->
<g id="node12" class="node">
<title>user_status</title>
<g id="a_node12"><a xlink:href="../../tables/user_status.html" xlink:title="user_status" target="_top">
<polygon fill="#ffffff" stroke="transparent" points="41.5,-394.2 41.5,-458.2 140.5,-458.2 140.5,-394.2 41.5,-394.2"/>
<polygon fill="#f5f5f5" stroke="transparent" points="42,-435.2 42,-458.2 141,-458.2 141,-435.2 42,-435.2"/>
<polygon fill="none" stroke="#000000" points="42,-435.2 42,-458.2 141,-458.2 141,-435.2 42,-435.2"/>
<text text-anchor="start" x="46.5749" y="-444.3" font-family="Helvetica,sans-Serif" font-weight="bold" font-size="11.00" fill="#000000">user_status</text>
<text text-anchor="start" x="106.5219" y="-443.3" font-family="Helvetica,sans-Serif" font-size="11.00" fill="#000000">[table]</text>
<polygon fill="none" stroke="#000000" points="42,-413.2 42,-435.2 141,-435.2 141,-413.2 42,-413.2"/>
<image xlink:href="../../images/primaryKeys.png" width="11px" height="12px" preserveAspectRatio="xMinYMin meet" x="47" y="-430.2"/>
<text text-anchor="start" x="68" y="-420.3" font-family="Helvetica,sans-Serif" font-size="11.00" fill="#000000">status</text>
<polygon fill="#ffffff" stroke="transparent" points="42,-394.2 42,-413.2 68,-413.2 68,-394.2 42,-394.2"/>
<polygon fill="none" stroke="#000000" points="42,-394.2 42,-413.2 68,-413.2 68,-394.2 42,-394.2"/>
<text text-anchor="start" x="45" y="-400.3" font-family="Helvetica,sans-Serif" font-size="11.00" fill="#000000"> &#160;</text>
<polygon fill="#ffffff" stroke="transparent" points="68,-394.2 68,-413.2 113,-413.2 113,-394.2 68,-394.2"/>
<polygon fill="none" stroke="#000000" points="68,-394.2 68,-413.2 113,-413.2 113,-394.2 68,-394.2"/>
<text text-anchor="start" x="77.6105" y="-400.3" font-family="Helvetica,sans-Serif" font-size="11.00" fill="#000000">3 rows</text>
<polygon fill="#ffffff" stroke="transparent" points="113,-394.2 113,-413.2 141,-413.2 141,-394.2 113,-394.2"/>
<polygon fill="none" stroke="#000000" points="113,-394.2 113,-413.2 141,-413.2 141,-394.2 113,-394.2"/>
<text text-anchor="start" x="122.4053" y="-400.3" font-family="Helvetica,sans-Serif" font-size="11.00" fill="#000000">1 &gt;</text>
</a>
</g>
</g>
<!-- user&#45;&gt;user_status -->
<g id="edge11" class="edge">
<title>user:w&#45;&gt;user_status:e</title>
<path fill="none" stroke="#000000" d="M250.0801,-424.2C206.6764,-424.2 190.7431,-424.2 141,-424.2"/>
<polygon fill="#000000" stroke="#000000" points="256.5,-424.2001 264.5,-427.8 260.5,-424.2 264.5,-424.2 264.5,-424.2 264.5,-424.2 260.5,-424.2 264.5,-420.6 256.5,-424.2001 256.5,-424.2001"/>
<ellipse fill="none" stroke="#000000" cx="253.3" cy="-424.2001" rx="3.2" ry="3.2"/>
</g>
<!-- user_rule -->
<g id="node11" class="node">
<title>user_rule</title>
<g id="a_node11"><a xlink:href="../../tables/user_rule.html" xlink:title="user_rule" target="_top">
<polygon fill="#ffffff" stroke="transparent" points="520.5,-38.2 520.5,-124.2 608.5,-124.2 608.5,-38.2 520.5,-38.2"/>
<polygon fill="#f5f5f5" stroke="transparent" points="520.5,-101.2 520.5,-124.2 608.5,-124.2 608.5,-101.2 520.5,-101.2"/>
<polygon fill="none" stroke="#000000" points="520.5,-101.2 520.5,-124.2 608.5,-124.2 608.5,-101.2 520.5,-101.2"/>
<text text-anchor="start" x="525.0804" y="-110.3" font-family="Helvetica,sans-Serif" font-weight="bold" font-size="11.00" fill="#000000">user_rule</text>
<text text-anchor="start" x="574.0219" y="-109.3" font-family="Helvetica,sans-Serif" font-size="11.00" fill="#000000">[table]</text>
<polygon fill="none" stroke="#000000" points="520.5,-79.2 520.5,-101.2 608.5,-101.2 608.5,-79.2 520.5,-79.2"/>
<image xlink:href="../../images/primaryKeys.png" width="11px" height="12px" preserveAspectRatio="xMinYMin meet" x="525.5" y="-96.2"/>
<text text-anchor="start" x="547.5" y="-86.3" font-family="Helvetica,sans-Serif" font-size="11.00" fill="#000000">user_id</text>
<polygon fill="none" stroke="#000000" points="520.5,-57.2 520.5,-79.2 608.5,-79.2 608.5,-57.2 520.5,-57.2"/>
<image xlink:href="../../images/foreignKeys.png" width="11px" height="12px" preserveAspectRatio="xMinYMin meet" x="525.5" y="-74.2"/>
<text text-anchor="start" x="547.5" y="-64.3" font-family="Helvetica,sans-Serif" font-size="11.00" fill="#000000">rule_id</text>
<polygon fill="#ffffff" stroke="transparent" points="520.5,-38.2 520.5,-57.2 549.5,-57.2 549.5,-38.2 520.5,-38.2"/>
<polygon fill="none" stroke="#000000" points="520.5,-38.2 520.5,-57.2 549.5,-57.2 549.5,-38.2 520.5,-38.2"/>
<text text-anchor="start" x="523.5" y="-44.3" font-family="Helvetica,sans-Serif" font-size="11.00" fill="#000000">&lt; 2</text>
<polygon fill="#ffffff" stroke="transparent" points="549.5,-38.2 549.5,-57.2 591.5,-57.2 591.5,-38.2 549.5,-38.2"/>
<polygon fill="none" stroke="#000000" points="549.5,-38.2 549.5,-57.2 591.5,-57.2 591.5,-38.2 549.5,-38.2"/>
<text text-anchor="start" x="556.1105" y="-44.3" font-family="Helvetica,sans-Serif" font-size="11.00" fill="#000000">2 rows</text>
<polygon fill="#ffffff" stroke="transparent" points="591.5,-38.2 591.5,-57.2 608.5,-57.2 608.5,-38.2 591.5,-38.2"/>
<polygon fill="none" stroke="#000000" points="591.5,-38.2 591.5,-57.2 608.5,-57.2 608.5,-38.2 591.5,-38.2"/>
<text text-anchor="start" x="599.3862" y="-44.3" font-family="Helvetica,sans-Serif" font-size="11.00" fill="#000000"> &#160;</text>
</a>
</g>
</g>
<!-- user_rule&#45;&gt;granting_paid_leave_rule -->
<g id="edge12" class="edge">
<title>user_rule:w&#45;&gt;granting_paid_leave_rule:e</title>
<path fill="none" stroke="#000000" d="M506.0607,-68.2209C381.0203,-68.6015 343.1854,-74.4244 215,-105.2 196.1327,-109.7298 193.4034,-120.2 174,-120.2"/>
<polygon fill="#000000" stroke="#000000" points="512.5,-68.2116 520.5052,-71.8 516.5,-68.2058 520.5,-68.2 520.5,-68.2 520.5,-68.2 516.5,-68.2058 520.4948,-64.6 512.5,-68.2116 512.5,-68.2116"/>
<ellipse fill="none" stroke="#000000" cx="509.3" cy="-68.2163" rx="3.2" ry="3.2"/>
</g>
<!-- user_rule&#45;&gt;user -->
<g id="edge13" class="edge">
<title>user_rule:w&#45;&gt;user:e</title>
<path fill="none" stroke="#000000" d="M510.1021,-90.6859C359.8526,-105.3326 551.0811,-446.2 385.5,-446.2"/>
<polygon fill="#000000" stroke="#000000" points="519.5141,-86.2417 519.8876,-94.233 518.2894,-94.3077 517.9159,-86.3164 519.5141,-86.2417"/>
<polyline fill="none" stroke="#000000" points="520.5,-90.2 516.5044,-90.3868 "/>
<ellipse fill="none" stroke="#000000" cx="513.3078" cy="-90.5362" rx="3.2" ry="3.2"/>
</g>
</g>
</svg>
