<?xml version="1.0" encoding="UTF-8" standalone="no"?>
<!DOCTYPE svg PUBLIC "-//W3C//DTD SVG 1.1//EN"
 "http://www.w3.org/Graphics/SVG/1.1/DTD/svg11.dtd">
<!-- Generated by graphviz version 2.40.1 (20161225.0304)
 -->
<!-- Title: oneDegreeRelationshipsDiagram Pages: 1 -->
<svg width="492pt" height="184pt"
 viewBox="0.00 0.00 492.00 184.20" xmlns="http://www.w3.org/2000/svg" xmlns:xlink="http://www.w3.org/1999/xlink">
<g id="graph0" class="graph" transform="scale(1 1) rotate(0) translate(4 180.2)">
<title>oneDegreeRelationshipsDiagram</title>
<polygon fill="#ffffff" stroke="transparent" points="-4,4 -4,-180.2 488,-180.2 488,4 -4,4"/>
<text text-anchor="middle" x="72.4936" y="-7.3" font-family="Helvetica,sans-Serif" font-size="11.00" fill="#000000">Generated by SchemaSpy</text>
<!-- paid_holidays_grant_rule_detail -->
<g id="node1" class="node">
<title>paid_holidays_grant_rule_detail</title>
<g id="a_node1"><a xlink:href="../../tables/paid_holidays_grant_rule_detail.html" xlink:title="paid_holidays_grant_rule_detail" target="_top">
<polygon fill="#ffffff" stroke="transparent" points="223,-38.2 223,-172.2 476,-172.2 476,-38.2 223,-38.2"/>
<polygon fill="#f5f5f5" stroke="transparent" points="225.5,-147.2 225.5,-170.2 474.5,-170.2 474.5,-147.2 225.5,-147.2"/>
<polygon fill="none" stroke="#000000" points="225.5,-147.2 225.5,-170.2 474.5,-170.2 474.5,-147.2 225.5,-147.2"/>
<text text-anchor="start" x="230.5" y="-156.3" font-family="Helvetica,sans-Serif" font-weight="bold" font-size="11.00" fill="#000000">paid_holidays_grant_rule_detail</text>
<text text-anchor="start" x="439.5437" y="-155.3" font-family="Helvetica,sans-Serif" font-size="11.00" fill="#000000">[table]</text>
<polygon fill="none" stroke="#000000" points="225.5,-125.2 225.5,-147.2 429.5,-147.2 429.5,-125.2 225.5,-125.2"/>
<image xlink:href="../../images/primaryKeys.png" width="11px" height="12px" preserveAspectRatio="xMinYMin meet" x="230.5" y="-142.2"/>
<text text-anchor="start" x="245.5" y="-132.3" font-family="Helvetica,sans-Serif" font-size="11.00" fill="#000000">id</text>
<polygon fill="none" stroke="#000000" points="429.5,-125.2 429.5,-147.2 474.5,-147.2 474.5,-125.2 429.5,-125.2"/>
<text text-anchor="start" x="432.5" y="-132.9" font-family="Helvetica,sans-Serif" font-size="11.00" fill="#000000">int4[10]</text>
<polygon fill="none" stroke="#000000" points="225.5,-103.2 225.5,-125.2 429.5,-125.2 429.5,-103.2 225.5,-103.2"/>
<image xlink:href="../../images/foreignKeys.png" width="11px" height="12px" preserveAspectRatio="xMinYMin meet" x="230.5" y="-120.2"/>
<text text-anchor="start" x="245.5" y="-110.3" font-family="Helvetica,sans-Serif" font-size="11.00" fill="#000000">rule_id</text>
<polygon fill="none" stroke="#000000" points="429.5,-103.2 429.5,-125.2 474.5,-125.2 474.5,-103.2 429.5,-103.2"/>
<text text-anchor="start" x="432.5" y="-110.9" font-family="Helvetica,sans-Serif" font-size="11.00" fill="#000000">int4[10]</text>
<polygon fill="none" stroke="#000000" points="225.5,-81.2 225.5,-103.2 429.5,-103.2 429.5,-81.2 225.5,-81.2"/>
<text text-anchor="start" x="245.5" y="-88.3" font-family="Helvetica,sans-Serif" font-size="11.00" fill="#000000">elapsed_months</text>
<polygon fill="none" stroke="#000000" points="429.5,-81.2 429.5,-103.2 474.5,-103.2 474.5,-81.2 429.5,-81.2"/>
<text text-anchor="start" x="432.1274" y="-88.9" font-family="Helvetica,sans-Serif" font-size="11.00" fill="#000000">date[13]</text>
<polygon fill="none" stroke="#000000" points="225.5,-59.2 225.5,-81.2 429.5,-81.2 429.5,-59.2 225.5,-59.2"/>
<text text-anchor="start" x="245.5" y="-66.3" font-family="Helvetica,sans-Serif" font-size="11.00" fill="#000000">granted_days</text>
<polygon fill="none" stroke="#000000" points="429.5,-59.2 429.5,-81.2 474.5,-81.2 474.5,-59.2 429.5,-59.2"/>
<text text-anchor="start" x="432.5" y="-66.9" font-family="Helvetica,sans-Serif" font-size="11.00" fill="#000000">int4[10]</text>
<polygon fill="#ffffff" stroke="transparent" points="225.5,-40.2 225.5,-59.2 318.5,-59.2 318.5,-40.2 225.5,-40.2"/>
<polygon fill="none" stroke="#000000" points="225.5,-40.2 225.5,-59.2 318.5,-59.2 318.5,-40.2 225.5,-40.2"/>
<text text-anchor="start" x="228.5" y="-46.3" font-family="Helvetica,sans-Serif" font-size="11.00" fill="#000000">&lt; 1</text>
<polygon fill="#ffffff" stroke="transparent" points="318.5,-40.2 318.5,-59.2 429.5,-59.2 429.5,-40.2 318.5,-40.2"/>
<polygon fill="none" stroke="#000000" points="318.5,-40.2 318.5,-59.2 429.5,-59.2 429.5,-40.2 318.5,-40.2"/>
<text text-anchor="start" x="394.1105" y="-46.3" font-family="Helvetica,sans-Serif" font-size="11.00" fill="#000000">0 rows</text>
<polygon fill="#ffffff" stroke="transparent" points="429.5,-40.2 429.5,-59.2 474.5,-59.2 474.5,-40.2 429.5,-40.2"/>
<polygon fill="none" stroke="#000000" points="429.5,-40.2 429.5,-59.2 474.5,-59.2 474.5,-40.2 429.5,-40.2"/>
<text text-anchor="start" x="455.9053" y="-46.3" font-family="Helvetica,sans-Serif" font-size="11.00" fill="#000000">0 &gt;</text>
<polygon fill="none" stroke="#000000" stroke-width="2" points="224,-39.2 224,-171.2 475,-171.2 475,-39.2 224,-39.2"/>
</a>
</g>
</g>
<!-- paid_holidays_grant_rule -->
<g id="node2" class="node">
<title>paid_holidays_grant_rule</title>
<g id="a_node2"><a xlink:href="../../tables/paid_holidays_grant_rule.html" xlink:title="paid_holidays_grant_rule" target="_top">
<polygon fill="#ffffff" stroke="transparent" points="8,-65.7 8,-148.7 174,-148.7 174,-65.7 8,-65.7"/>
<polygon fill="#f5f5f5" stroke="transparent" points="8,-125.2 8,-148.2 174,-148.2 174,-125.2 8,-125.2"/>
<polygon fill="none" stroke="#000000" points="8,-125.2 8,-148.2 174,-148.2 174,-125.2 8,-125.2"/>
<text text-anchor="start" x="13" y="-134.3" font-family="Helvetica,sans-Serif" font-weight="bold" font-size="11.00" fill="#000000">paid_holidays_grant_rule</text>
<text text-anchor="start" x="139.5219" y="-133.3" font-family="Helvetica,sans-Serif" font-size="11.00" fill="#000000">[table]</text>
<polygon fill="none" stroke="#000000" points="8,-103.2 8,-125.2 174,-125.2 174,-103.2 8,-103.2"/>
<image xlink:href="../../images/primaryKeys.png" width="11px" height="12px" preserveAspectRatio="xMinYMin meet" x="13" y="-120.2"/>
<text text-anchor="start" x="28" y="-110.3" font-family="Helvetica,sans-Serif" font-size="11.00" fill="#000000">id</text>
<polygon fill="none" stroke="#000000" points="8,-84.2 8,-103.2 174,-103.2 174,-84.2 8,-84.2"/>
<text text-anchor="start" x="11" y="-90.3" font-family="Helvetica,sans-Serif" font-size="11.00" fill="#000000">...</text>
<polygon fill="#ffffff" stroke="transparent" points="8,-65.2 8,-84.2 67,-84.2 67,-65.2 8,-65.2"/>
<polygon fill="none" stroke="#000000" points="8,-65.2 8,-84.2 67,-84.2 67,-65.2 8,-65.2"/>
<text text-anchor="start" x="11" y="-71.3" font-family="Helvetica,sans-Serif" font-size="11.00" fill="#000000"> &#160;</text>
<polygon fill="#ffffff" stroke="transparent" points="67,-65.2 67,-84.2 129,-84.2 129,-65.2 67,-65.2"/>
<polygon fill="none" stroke="#000000" points="67,-65.2 67,-84.2 129,-84.2 129,-65.2 67,-65.2"/>
<text text-anchor="start" x="93.6105" y="-71.3" font-family="Helvetica,sans-Serif" font-size="11.00" fill="#000000">0 rows</text>
<polygon fill="#ffffff" stroke="transparent" points="129,-65.2 129,-84.2 174,-84.2 174,-65.2 129,-65.2"/>
<polygon fill="none" stroke="#000000" points="129,-65.2 129,-84.2 174,-84.2 174,-65.2 129,-65.2"/>
<text text-anchor="start" x="155.4053" y="-71.3" font-family="Helvetica,sans-Serif" font-size="11.00" fill="#000000">1 &gt;</text>
</a>
</g>
</g>
<!-- paid_holidays_grant_rule_detail&#45;&gt;paid_holidays_grant_rule -->
<g id="edge1" class="edge">
<title>paid_holidays_grant_rule_detail:w&#45;&gt;paid_holidays_grant_rule:e</title>
<path fill="none" stroke="#000000" d="M211.0156,-114.2C198.6771,-114.2 191.1667,-114.2 174,-114.2"/>
<polygon fill="#000000" stroke="#000000" points="217.5,-114.2001 225.5,-117.8 221.5,-114.2 225.5,-114.2 225.5,-114.2 225.5,-114.2 221.5,-114.2 225.5,-110.6 217.5,-114.2001 217.5,-114.2001"/>
<ellipse fill="none" stroke="#000000" cx="214.3" cy="-114.2001" rx="3.2" ry="3.2"/>
</g>
</g>
</svg>
