<?xml version="1.0" encoding="UTF-8" standalone="no"?>
<!DOCTYPE svg PUBLIC "-//W3C//DTD SVG 1.1//EN"
 "http://www.w3.org/Graphics/SVG/1.1/DTD/svg11.dtd">
<!-- Generated by graphviz version 2.40.1 (20161225.0304)
 -->
<!-- Title: oneDegreeRelationshipsDiagram Pages: 1 -->
<svg width="531pt" height="183pt"
 viewBox="0.00 0.00 531.00 182.70" xmlns="http://www.w3.org/2000/svg" xmlns:xlink="http://www.w3.org/1999/xlink">
<g id="graph0" class="graph" transform="scale(1 1) rotate(0) translate(4 178.7)">
<title>oneDegreeRelationshipsDiagram</title>
<polygon fill="#ffffff" stroke="transparent" points="-4,4 -4,-178.7 527,-178.7 527,4 -4,4"/>
<text text-anchor="middle" x="72.4936" y="-7.3" font-family="Helvetica,sans-Serif" font-size="11.00" fill="#000000">Generated by SchemaSpy</text>
<!-- paid_holidays_grant_rule_detail -->
<g id="node1" class="node">
<title>paid_holidays_grant_rule_detail</title>
<g id="a_node1"><a xlink:href="../../tables/paid_holidays_grant_rule_detail.html" xlink:title="paid_holidays_grant_rule_detail" target="_top">
<polygon fill="#ffffff" stroke="transparent" points="311,-65.7 311,-170.7 515,-170.7 515,-65.7 311,-65.7"/>
<polygon fill="#f5f5f5" stroke="transparent" points="311,-147.2 311,-170.2 515,-170.2 515,-147.2 311,-147.2"/>
<polygon fill="none" stroke="#000000" points="311,-147.2 311,-170.2 515,-170.2 515,-147.2 311,-147.2"/>
<text text-anchor="start" x="316" y="-156.3" font-family="Helvetica,sans-Serif" font-weight="bold" font-size="11.00" fill="#000000">paid_holidays_grant_rule_detail</text>
<text text-anchor="start" x="480.0437" y="-155.3" font-family="Helvetica,sans-Serif" font-size="11.00" fill="#000000">[table]</text>
<polygon fill="none" stroke="#000000" points="311,-125.2 311,-147.2 515,-147.2 515,-125.2 311,-125.2"/>
<image xlink:href="../../images/primaryKeys.png" width="11px" height="12px" preserveAspectRatio="xMinYMin meet" x="316" y="-142.2"/>
<text text-anchor="start" x="331" y="-132.3" font-family="Helvetica,sans-Serif" font-size="11.00" fill="#000000">id</text>
<polygon fill="none" stroke="#000000" points="311,-103.2 311,-125.2 515,-125.2 515,-103.2 311,-103.2"/>
<image xlink:href="../../images/foreignKeys.png" width="11px" height="12px" preserveAspectRatio="xMinYMin meet" x="316" y="-120.2"/>
<text text-anchor="start" x="331" y="-110.3" font-family="Helvetica,sans-Serif" font-size="11.00" fill="#000000">rule_id</text>
<polygon fill="none" stroke="#000000" points="311,-84.2 311,-103.2 515,-103.2 515,-84.2 311,-84.2"/>
<text text-anchor="start" x="314" y="-90.3" font-family="Helvetica,sans-Serif" font-size="11.00" fill="#000000">...</text>
<polygon fill="#ffffff" stroke="transparent" points="311,-65.2 311,-84.2 398,-84.2 398,-65.2 311,-65.2"/>
<polygon fill="none" stroke="#000000" points="311,-65.2 311,-84.2 398,-84.2 398,-65.2 311,-65.2"/>
<text text-anchor="start" x="314" y="-71.3" font-family="Helvetica,sans-Serif" font-size="11.00" fill="#000000">&lt; 1</text>
<polygon fill="#ffffff" stroke="transparent" points="398,-65.2 398,-84.2 469,-84.2 469,-65.2 398,-65.2"/>
<polygon fill="none" stroke="#000000" points="398,-65.2 398,-84.2 469,-84.2 469,-65.2 398,-65.2"/>
<text text-anchor="start" x="433.6105" y="-71.3" font-family="Helvetica,sans-Serif" font-size="11.00" fill="#000000">0 rows</text>
<polygon fill="#ffffff" stroke="transparent" points="469,-65.2 469,-84.2 515,-84.2 515,-65.2 469,-65.2"/>
<polygon fill="none" stroke="#000000" points="469,-65.2 469,-84.2 515,-84.2 515,-65.2 469,-65.2"/>
<text text-anchor="start" x="505.8862" y="-71.3" font-family="Helvetica,sans-Serif" font-size="11.00" fill="#000000"> &#160;</text>
</a>
</g>
</g>
<!-- paid_holidays_grant_rule -->
<g id="node2" class="node">
<title>paid_holidays_grant_rule</title>
<g id="a_node2"><a xlink:href="../../tables/paid_holidays_grant_rule.html" xlink:title="paid_holidays_grant_rule" target="_top">
<polygon fill="#ffffff" stroke="transparent" points="8,-38.2 8,-150.2 262,-150.2 262,-38.2 8,-38.2"/>
<polygon fill="#f5f5f5" stroke="transparent" points="10,-125.2 10,-148.2 260,-148.2 260,-125.2 10,-125.2"/>
<polygon fill="none" stroke="#000000" points="10,-125.2 10,-148.2 260,-148.2 260,-125.2 10,-125.2"/>
<text text-anchor="start" x="15" y="-134.3" font-family="Helvetica,sans-Serif" font-weight="bold" font-size="11.00" fill="#000000">paid_holidays_grant_rule</text>
<text text-anchor="start" x="225.0437" y="-133.3" font-family="Helvetica,sans-Serif" font-size="11.00" fill="#000000">[table]</text>
<polygon fill="none" stroke="#000000" points="10,-103.2 10,-125.2 176,-125.2 176,-103.2 10,-103.2"/>
<image xlink:href="../../images/primaryKeys.png" width="11px" height="12px" preserveAspectRatio="xMinYMin meet" x="15" y="-120.2"/>
<text text-anchor="start" x="30" y="-110.3" font-family="Helvetica,sans-Serif" font-size="11.00" fill="#000000">id</text>
<polygon fill="none" stroke="#000000" points="176,-103.2 176,-125.2 260,-125.2 260,-103.2 176,-103.2"/>
<text text-anchor="start" x="179" y="-110.9" font-family="Helvetica,sans-Serif" font-size="11.00" fill="#000000">int4[10]</text>
<polygon fill="none" stroke="#000000" points="10,-81.2 10,-103.2 176,-103.2 176,-81.2 10,-81.2"/>
<text text-anchor="start" x="30" y="-88.3" font-family="Helvetica,sans-Serif" font-size="11.00" fill="#000000">valid_from</text>
<polygon fill="none" stroke="#000000" points="176,-81.2 176,-103.2 260,-103.2 260,-81.2 176,-81.2"/>
<text text-anchor="start" x="178.8807" y="-88.9" font-family="Helvetica,sans-Serif" font-size="11.00" fill="#000000">timestamp[29,6]</text>
<polygon fill="none" stroke="#000000" points="10,-59.2 10,-81.2 176,-81.2 176,-59.2 10,-59.2"/>
<text text-anchor="start" x="30" y="-66.3" font-family="Helvetica,sans-Serif" font-size="11.00" fill="#000000">valid_to</text>
<polygon fill="none" stroke="#000000" points="176,-59.2 176,-81.2 260,-81.2 260,-59.2 176,-59.2"/>
<text text-anchor="start" x="178.8807" y="-66.9" font-family="Helvetica,sans-Serif" font-size="11.00" fill="#000000">timestamp[29,6]</text>
<polygon fill="#ffffff" stroke="transparent" points="10,-40.2 10,-59.2 84,-59.2 84,-40.2 10,-40.2"/>
<polygon fill="none" stroke="#000000" points="10,-40.2 10,-59.2 84,-59.2 84,-40.2 10,-40.2"/>
<text text-anchor="start" x="13" y="-46.3" font-family="Helvetica,sans-Serif" font-size="11.00" fill="#000000">&lt; 0</text>
<polygon fill="#ffffff" stroke="transparent" points="84,-40.2 84,-59.2 176,-59.2 176,-40.2 84,-40.2"/>
<polygon fill="none" stroke="#000000" points="84,-40.2 84,-59.2 176,-59.2 176,-40.2 84,-40.2"/>
<text text-anchor="start" x="140.6105" y="-46.3" font-family="Helvetica,sans-Serif" font-size="11.00" fill="#000000">0 rows</text>
<polygon fill="#ffffff" stroke="transparent" points="176,-40.2 176,-59.2 260,-59.2 260,-40.2 176,-40.2"/>
<polygon fill="none" stroke="#000000" points="176,-40.2 176,-59.2 260,-59.2 260,-40.2 176,-40.2"/>
<text text-anchor="start" x="241.4053" y="-46.3" font-family="Helvetica,sans-Serif" font-size="11.00" fill="#000000">1 &gt;</text>
<polygon fill="none" stroke="#000000" stroke-width="2" points="9,-39.2 9,-149.2 261,-149.2 261,-39.2 9,-39.2"/>
</a>
</g>
</g>
<!-- paid_holidays_grant_rule_detail&#45;&gt;paid_holidays_grant_rule -->
<g id="edge1" class="edge">
<title>paid_holidays_grant_rule_detail:w&#45;&gt;paid_holidays_grant_rule:e</title>
<path fill="none" stroke="#000000" d="M296.276,-114.2C284.2815,-114.2 276.8229,-114.2 260,-114.2"/>
<polygon fill="#000000" stroke="#000000" points="303,-114.2001 311,-117.8 307,-114.2 311,-114.2 311,-114.2 311,-114.2 307,-114.2 311,-110.6 303,-114.2001 303,-114.2001"/>
<ellipse fill="none" stroke="#000000" cx="299.8" cy="-114.2001" rx="3.2" ry="3.2"/>
</g>
</g>
</svg>
