<?xml version="1.0" encoding="UTF-8" standalone="no"?>
<!DOCTYPE svg PUBLIC "-//W3C//DTD SVG 1.1//EN"
 "http://www.w3.org/Graphics/SVG/1.1/DTD/svg11.dtd">
<!-- Generated by graphviz version 2.40.1 (20161225.0304)
 -->
<!-- Title: dispatcher_latest_event Pages: 1 -->
<svg width="252pt" height="106pt"
 viewBox="0.00 0.00 252.00 106.00" xmlns="http://www.w3.org/2000/svg" xmlns:xlink="http://www.w3.org/1999/xlink">
<g id="graph0" class="graph" transform="scale(1 1) rotate(0) translate(4 102)">
<title>dispatcher_latest_event</title>
<polygon fill="#ffffff" stroke="transparent" points="-4,4 -4,-102 248,-102 248,4 -4,4"/>
<!-- dispatcher_latest_event -->
<g id="node1" class="node">
<title>dispatcher_latest_event</title>
<g id="a_node1"><a xlink:href="../../tables/dispatcher_latest_event.html" xlink:title="dispatcher_latest_event" target="_top">
<polygon fill="#ffffff" stroke="transparent" points="8,-4 8,-94 236,-94 236,-4 8,-4"/>
<polygon fill="#f5f5f5" stroke="transparent" points="10,-69 10,-92 234,-92 234,-69 10,-69"/>
<polygon fill="none" stroke="#000000" points="10,-69 10,-92 234,-92 234,-69 10,-69"/>
<text text-anchor="start" x="15" y="-78.1" font-family="Helvetica,sans-Serif" font-weight="bold" font-size="11.00" fill="#000000">dispatcher_latest_event</text>
<text text-anchor="start" x="199.0437" y="-77.1" font-family="Helvetica,sans-Serif" font-size="11.00" fill="#000000">[table]</text>
<polygon fill="none" stroke="#000000" points="10,-47 10,-69 167,-69 167,-47 10,-47"/>
<image xlink:href="../../images/primaryKeys.png" width="11px" height="12px" preserveAspectRatio="xMinYMin meet" x="15" y="-64"/>
<text text-anchor="start" x="30" y="-54.1" font-family="Helvetica,sans-Serif" font-size="11.00" fill="#000000">id</text>
<polygon fill="none" stroke="#000000" points="167,-47 167,-69 234,-69 234,-47 167,-47"/>
<text text-anchor="start" x="169.9365" y="-54.7" font-family="Helvetica,sans-Serif" font-size="11.00" fill="#000000">varchar[255]</text>
<polygon fill="none" stroke="#000000" points="10,-25 10,-47 167,-47 167,-25 10,-25"/>
<image xlink:href="../../images/foreignKeys.png" width="11px" height="12px" preserveAspectRatio="xMinYMin meet" x="15" y="-42"/>
<text text-anchor="start" x="30" y="-32.1" font-family="Helvetica,sans-Serif" font-size="11.00" fill="#000000">event_id</text>
<polygon fill="none" stroke="#000000" points="167,-25 167,-47 234,-47 234,-25 167,-25"/>
<text text-anchor="start" x="170" y="-32.7" font-family="Helvetica,sans-Serif" font-size="11.00" fill="#000000">int8[19]</text>
<polygon fill="#ffffff" stroke="transparent" points="10,-6 10,-25 80,-25 80,-6 10,-6"/>
<polygon fill="none" stroke="#000000" points="10,-6 10,-25 80,-25 80,-6 10,-6"/>
<text text-anchor="start" x="13" y="-12.1" font-family="Helvetica,sans-Serif" font-size="11.00" fill="#000000">&lt; 0</text>
<polygon fill="#ffffff" stroke="transparent" points="80,-6 80,-25 167,-25 167,-6 80,-6"/>
<polygon fill="none" stroke="#000000" points="80,-6 80,-25 167,-25 167,-6 80,-6"/>
<text text-anchor="start" x="131.6105" y="-12.1" font-family="Helvetica,sans-Serif" font-size="11.00" fill="#000000">0 rows</text>
<polygon fill="#ffffff" stroke="transparent" points="167,-6 167,-25 234,-25 234,-6 167,-6"/>
<polygon fill="none" stroke="#000000" points="167,-6 167,-25 234,-25 234,-6 167,-6"/>
<text text-anchor="start" x="215.4053" y="-12.1" font-family="Helvetica,sans-Serif" font-size="11.00" fill="#000000">0 &gt;</text>
<polygon fill="none" stroke="#000000" stroke-width="2" points="9,-5 9,-93 235,-93 235,-5 9,-5"/>
</a>
</g>
</g>
</g>
</svg>
