<?xml version="1.0" encoding="UTF-8" standalone="no"?>
<!DOCTYPE svg PUBLIC "-//W3C//DTD SVG 1.1//EN"
 "http://www.w3.org/Graphics/SVG/1.1/DTD/svg11.dtd">
<!-- Generated by graphviz version 2.40.1 (20161225.0304)
 -->
<!-- Title: event_store Pages: 1 -->
<svg width="227pt" height="194pt"
 viewBox="0.00 0.00 227.00 194.00" xmlns="http://www.w3.org/2000/svg" xmlns:xlink="http://www.w3.org/1999/xlink">
<g id="graph0" class="graph" transform="scale(1 1) rotate(0) translate(4 190)">
<title>event_store</title>
<polygon fill="#ffffff" stroke="transparent" points="-4,4 -4,-190 223,-190 223,4 -4,4"/>
<!-- event_store -->
<g id="node1" class="node">
<title>event_store</title>
<g id="a_node1"><a xlink:href="../../tables/event_store.html" xlink:title="event_store" target="_top">
<polygon fill="#ffffff" stroke="transparent" points="8,-4 8,-182 211,-182 211,-4 8,-4"/>
<polygon fill="#f5f5f5" stroke="transparent" points="10.5,-157 10.5,-180 209.5,-180 209.5,-157 10.5,-157"/>
<polygon fill="none" stroke="#000000" points="10.5,-157 10.5,-180 209.5,-180 209.5,-157 10.5,-157"/>
<text text-anchor="start" x="15.5" y="-166.1" font-family="Helvetica,sans-Serif" font-weight="bold" font-size="11.00" fill="#000000">event_store</text>
<text text-anchor="start" x="174.5437" y="-165.1" font-family="Helvetica,sans-Serif" font-size="11.00" fill="#000000">[table]</text>
<polygon fill="none" stroke="#000000" points="10.5,-135 10.5,-157 119.5,-157 119.5,-135 10.5,-135"/>
<image xlink:href="../../images/primaryKeys.png" width="11px" height="12px" preserveAspectRatio="xMinYMin meet" x="15.5" y="-152"/>
<text text-anchor="start" x="30.5" y="-142.1" font-family="Helvetica,sans-Serif" font-size="11.00" fill="#000000">id</text>
<polygon fill="none" stroke="#000000" points="119.5,-135 119.5,-157 209.5,-157 209.5,-135 119.5,-135"/>
<text text-anchor="start" x="122.5" y="-142.7" font-family="Helvetica,sans-Serif" font-size="11.00" fill="#000000">int8[19]</text>
<polygon fill="none" stroke="#000000" points="10.5,-113 10.5,-135 119.5,-135 119.5,-113 10.5,-113"/>
<text text-anchor="start" x="30.5" y="-120.1" font-family="Helvetica,sans-Serif" font-size="11.00" fill="#000000">stream_name</text>
<polygon fill="none" stroke="#000000" points="119.5,-113 119.5,-135 209.5,-135 209.5,-113 119.5,-113"/>
<text text-anchor="start" x="122.5" y="-120.7" font-family="Helvetica,sans-Serif" font-size="11.00" fill="#000000">varchar[36]</text>
<polygon fill="none" stroke="#000000" points="10.5,-91 10.5,-113 119.5,-113 119.5,-91 10.5,-91"/>
<text text-anchor="start" x="30.5" y="-98.1" font-family="Helvetica,sans-Serif" font-size="11.00" fill="#000000">stream_version</text>
<polygon fill="none" stroke="#000000" points="119.5,-91 119.5,-113 209.5,-113 209.5,-91 119.5,-91"/>
<text text-anchor="start" x="122.5" y="-98.7" font-family="Helvetica,sans-Serif" font-size="11.00" fill="#000000">int4[10]</text>
<polygon fill="none" stroke="#000000" points="10.5,-69 10.5,-91 119.5,-91 119.5,-69 10.5,-69"/>
<text text-anchor="start" x="30.5" y="-76.1" font-family="Helvetica,sans-Serif" font-size="11.00" fill="#000000">type</text>
<polygon fill="none" stroke="#000000" points="119.5,-69 119.5,-91 209.5,-91 209.5,-69 119.5,-69"/>
<text text-anchor="start" x="122.5" y="-76.7" font-family="Helvetica,sans-Serif" font-size="11.00" fill="#000000">varchar[255]</text>
<polygon fill="none" stroke="#000000" points="10.5,-47 10.5,-69 119.5,-69 119.5,-47 10.5,-47"/>
<text text-anchor="start" x="30.5" y="-54.1" font-family="Helvetica,sans-Serif" font-size="11.00" fill="#000000">payload</text>
<polygon fill="none" stroke="#000000" points="119.5,-47 119.5,-69 209.5,-69 209.5,-47 119.5,-47"/>
<text text-anchor="start" x="122.0042" y="-54.7" font-family="Helvetica,sans-Serif" font-size="11.00" fill="#000000">text[2147483647]</text>
<polygon fill="none" stroke="#000000" points="10.5,-25 10.5,-47 119.5,-47 119.5,-25 10.5,-25"/>
<text text-anchor="start" x="30.5" y="-32.1" font-family="Helvetica,sans-Serif" font-size="11.00" fill="#000000">created_at</text>
<polygon fill="none" stroke="#000000" points="119.5,-25 119.5,-47 209.5,-47 209.5,-25 119.5,-25"/>
<text text-anchor="start" x="122.5" y="-32.7" font-family="Helvetica,sans-Serif" font-size="11.00" fill="#000000">timestamp[29,6]</text>
<polygon fill="#ffffff" stroke="transparent" points="10.5,-6 10.5,-25 56.5,-25 56.5,-6 10.5,-6"/>
<polygon fill="none" stroke="#000000" points="10.5,-6 10.5,-25 56.5,-25 56.5,-6 10.5,-6"/>
<text text-anchor="start" x="13.5" y="-12.1" font-family="Helvetica,sans-Serif" font-size="11.00" fill="#000000">&lt; 0</text>
<polygon fill="#ffffff" stroke="transparent" points="56.5,-6 56.5,-25 119.5,-25 119.5,-6 56.5,-6"/>
<polygon fill="none" stroke="#000000" points="56.5,-6 56.5,-25 119.5,-25 119.5,-6 56.5,-6"/>
<text text-anchor="start" x="84.1105" y="-12.1" font-family="Helvetica,sans-Serif" font-size="11.00" fill="#000000">3 rows</text>
<polygon fill="#ffffff" stroke="transparent" points="119.5,-6 119.5,-25 209.5,-25 209.5,-6 119.5,-6"/>
<polygon fill="none" stroke="#000000" points="119.5,-6 119.5,-25 209.5,-25 209.5,-6 119.5,-6"/>
<text text-anchor="start" x="190.9053" y="-12.1" font-family="Helvetica,sans-Serif" font-size="11.00" fill="#000000">0 &gt;</text>
<polygon fill="none" stroke="#000000" stroke-width="2" points="9,-5 9,-181 210,-181 210,-5 9,-5"/>
</a>
</g>
</g>
</g>
</svg>
