<?xml version="1.0" encoding="UTF-8" standalone="no"?>
<!DOCTYPE svg PUBLIC "-//W3C//DTD SVG 1.1//EN"
 "http://www.w3.org/Graphics/SVG/1.1/DTD/svg11.dtd">
<!-- Generated by graphviz version 2.40.1 (20161225.0304)
 -->
<!-- Title: snap_shot Pages: 1 -->
<svg width="238pt" height="150pt"
 viewBox="0.00 0.00 238.00 150.00" xmlns="http://www.w3.org/2000/svg" xmlns:xlink="http://www.w3.org/1999/xlink">
<g id="graph0" class="graph" transform="scale(1 1) rotate(0) translate(4 146)">
<title>snap_shot</title>
<polygon fill="#ffffff" stroke="transparent" points="-4,4 -4,-146 234,-146 234,4 -4,4"/>
<!-- snap_shot -->
<g id="node1" class="node">
<title>snap_shot</title>
<g id="a_node1"><a xlink:href="../../tables/snap_shot.html" xlink:title="snap_shot" target="_top">
<polygon fill="#ffffff" stroke="transparent" points="8,-4 8,-138 222,-138 222,-4 8,-4"/>
<polygon fill="#f5f5f5" stroke="transparent" points="10,-113 10,-136 220,-136 220,-113 10,-113"/>
<polygon fill="none" stroke="#000000" points="10,-113 10,-136 220,-136 220,-113 10,-113"/>
<text text-anchor="start" x="15" y="-122.1" font-family="Helvetica,sans-Serif" font-weight="bold" font-size="11.00" fill="#000000">snap_shot</text>
<text text-anchor="start" x="185.0437" y="-121.1" font-family="Helvetica,sans-Serif" font-size="11.00" fill="#000000">[table]</text>
<polygon fill="none" stroke="#000000" points="10,-91 10,-113 126,-113 126,-91 10,-91"/>
<image xlink:href="../../images/primaryKeys.png" width="11px" height="12px" preserveAspectRatio="xMinYMin meet" x="15" y="-108"/>
<text text-anchor="start" x="30" y="-98.1" font-family="Helvetica,sans-Serif" font-size="11.00" fill="#000000">aggregate_id</text>
<polygon fill="none" stroke="#000000" points="126,-91 126,-113 220,-113 220,-91 126,-91"/>
<text text-anchor="start" x="128.9758" y="-98.7" font-family="Helvetica,sans-Serif" font-size="11.00" fill="#000000">uuid[2147483647]</text>
<polygon fill="none" stroke="#000000" points="10,-69 10,-91 126,-91 126,-69 10,-69"/>
<text text-anchor="start" x="30" y="-76.1" font-family="Helvetica,sans-Serif" font-size="11.00" fill="#000000">version</text>
<polygon fill="none" stroke="#000000" points="126,-69 126,-91 220,-91 220,-69 126,-69"/>
<text text-anchor="start" x="129" y="-76.7" font-family="Helvetica,sans-Serif" font-size="11.00" fill="#000000">int4[10]</text>
<polygon fill="none" stroke="#000000" points="10,-47 10,-69 126,-69 126,-47 10,-47"/>
<text text-anchor="start" x="30" y="-54.1" font-family="Helvetica,sans-Serif" font-size="11.00" fill="#000000">payload</text>
<polygon fill="none" stroke="#000000" points="126,-47 126,-69 220,-69 220,-47 126,-47"/>
<text text-anchor="start" x="129" y="-54.7" font-family="Helvetica,sans-Serif" font-size="11.00" fill="#000000">text[2147483647]</text>
<polygon fill="none" stroke="#000000" points="10,-25 10,-47 126,-47 126,-25 10,-25"/>
<text text-anchor="start" x="30" y="-32.1" font-family="Helvetica,sans-Serif" font-size="11.00" fill="#000000">update_datetime</text>
<polygon fill="none" stroke="#000000" points="126,-25 126,-47 220,-47 220,-25 126,-25"/>
<text text-anchor="start" x="129" y="-32.7" font-family="Helvetica,sans-Serif" font-size="11.00" fill="#000000">timestamp[29,6]</text>
<polygon fill="#ffffff" stroke="transparent" points="10,-6 10,-25 59,-25 59,-6 10,-6"/>
<polygon fill="none" stroke="#000000" points="10,-6 10,-25 59,-25 59,-6 10,-6"/>
<text text-anchor="start" x="13" y="-12.1" font-family="Helvetica,sans-Serif" font-size="11.00" fill="#000000">&lt; 0</text>
<polygon fill="#ffffff" stroke="transparent" points="59,-6 59,-25 126,-25 126,-6 59,-6"/>
<polygon fill="none" stroke="#000000" points="59,-6 59,-25 126,-25 126,-6 59,-6"/>
<text text-anchor="start" x="90.6105" y="-12.1" font-family="Helvetica,sans-Serif" font-size="11.00" fill="#000000">0 rows</text>
<polygon fill="#ffffff" stroke="transparent" points="126,-6 126,-25 220,-25 220,-6 126,-6"/>
<polygon fill="none" stroke="#000000" points="126,-6 126,-25 220,-25 220,-6 126,-6"/>
<text text-anchor="start" x="201.4053" y="-12.1" font-family="Helvetica,sans-Serif" font-size="11.00" fill="#000000">0 &gt;</text>
<polygon fill="none" stroke="#000000" stroke-width="2" points="9,-5 9,-137 221,-137 221,-5 9,-5"/>
</a>
</g>
</g>
</g>
</svg>
