<?xml version="1.0" encoding="UTF-8" standalone="no"?>
<!DOCTYPE svg PUBLIC "-//W3C//DTD SVG 1.1//EN"
 "http://www.w3.org/Graphics/SVG/1.1/DTD/svg11.dtd">
<!-- Generated by graphviz version 2.40.1 (20161225.0304)
 -->
<!-- Title: oneDegreeRelationshipsDiagramImplied Pages: 1 -->
<svg width="410pt" height="157pt"
 viewBox="0.00 0.00 410.00 156.70" xmlns="http://www.w3.org/2000/svg" xmlns:xlink="http://www.w3.org/1999/xlink">
<g id="graph0" class="graph" transform="scale(1 1) rotate(0) translate(4 152.7)">
<title>oneDegreeRelationshipsDiagramImplied</title>
<polygon fill="#ffffff" stroke="transparent" points="-4,4 -4,-152.7 406,-152.7 406,4 -4,4"/>
<text text-anchor="middle" x="72.4936" y="-7.3" font-family="Helvetica,sans-Serif" font-size="11.00" fill="#000000">Generated by SchemaSpy</text>
<!-- dispatcher_latest_event -->
<g id="node1" class="node">
<title>dispatcher_latest_event</title>
<g id="a_node1"><a xlink:href="../../tables/dispatcher_latest_event.html" xlink:title="dispatcher_latest_event" target="_top">
<polygon fill="#ffffff" stroke="transparent" points="166,-54.7 166,-144.7 394,-144.7 394,-54.7 166,-54.7"/>
<polygon fill="#f5f5f5" stroke="transparent" points="168,-119.7 168,-142.7 392,-142.7 392,-119.7 168,-119.7"/>
<polygon fill="none" stroke="#000000" points="168,-119.7 168,-142.7 392,-142.7 392,-119.7 168,-119.7"/>
<text text-anchor="start" x="173" y="-128.8" font-family="Helvetica,sans-Serif" font-weight="bold" font-size="11.00" fill="#000000">dispatcher_latest_event</text>
<text text-anchor="start" x="357.0437" y="-127.8" font-family="Helvetica,sans-Serif" font-size="11.00" fill="#000000">[table]</text>
<polygon fill="none" stroke="#000000" points="168,-97.7 168,-119.7 325,-119.7 325,-97.7 168,-97.7"/>
<image xlink:href="../../images/primaryKeys.png" width="11px" height="12px" preserveAspectRatio="xMinYMin meet" x="173" y="-114.7"/>
<text text-anchor="start" x="188" y="-104.8" font-family="Helvetica,sans-Serif" font-size="11.00" fill="#000000">id</text>
<polygon fill="none" stroke="#000000" points="325,-97.7 325,-119.7 392,-119.7 392,-97.7 325,-97.7"/>
<text text-anchor="start" x="327.9365" y="-105.4" font-family="Helvetica,sans-Serif" font-size="11.00" fill="#000000">varchar[255]</text>
<polygon fill="none" stroke="#000000" points="168,-75.7 168,-97.7 325,-97.7 325,-75.7 168,-75.7"/>
<image xlink:href="../../images/foreignKeys.png" width="11px" height="12px" preserveAspectRatio="xMinYMin meet" x="173" y="-92.7"/>
<text text-anchor="start" x="188" y="-82.8" font-family="Helvetica,sans-Serif" font-size="11.00" fill="#000000">event_id</text>
<polygon fill="none" stroke="#000000" points="325,-75.7 325,-97.7 392,-97.7 392,-75.7 325,-75.7"/>
<text text-anchor="start" x="328" y="-83.4" font-family="Helvetica,sans-Serif" font-size="11.00" fill="#000000">int8[19]</text>
<polygon fill="#ffffff" stroke="transparent" points="168,-56.7 168,-75.7 238,-75.7 238,-56.7 168,-56.7"/>
<polygon fill="none" stroke="#000000" points="168,-56.7 168,-75.7 238,-75.7 238,-56.7 168,-56.7"/>
<text text-anchor="start" x="171" y="-62.8" font-family="Helvetica,sans-Serif" font-size="11.00" fill="#000000">&lt; 1</text>
<polygon fill="#ffffff" stroke="transparent" points="238,-56.7 238,-75.7 325,-75.7 325,-56.7 238,-56.7"/>
<polygon fill="none" stroke="#000000" points="238,-56.7 238,-75.7 325,-75.7 325,-56.7 238,-56.7"/>
<text text-anchor="start" x="289.6105" y="-62.8" font-family="Helvetica,sans-Serif" font-size="11.00" fill="#000000">0 rows</text>
<polygon fill="#ffffff" stroke="transparent" points="325,-56.7 325,-75.7 392,-75.7 392,-56.7 325,-56.7"/>
<polygon fill="none" stroke="#000000" points="325,-56.7 325,-75.7 392,-75.7 392,-56.7 325,-56.7"/>
<text text-anchor="start" x="373.4053" y="-62.8" font-family="Helvetica,sans-Serif" font-size="11.00" fill="#000000">0 &gt;</text>
<polygon fill="none" stroke="#000000" stroke-width="2" points="167,-55.7 167,-143.7 393,-143.7 393,-55.7 167,-55.7"/>
</a>
</g>
</g>
<!-- event_store -->
<g id="node2" class="node">
<title>event_store</title>
<g id="a_node2"><a xlink:href="../../tables/event_store.html" xlink:title="event_store" target="_top">
<polygon fill="#ffffff" stroke="transparent" points="8,-38.2 8,-121.2 117,-121.2 117,-38.2 8,-38.2"/>
<polygon fill="#f5f5f5" stroke="transparent" points="8.5,-97.7 8.5,-120.7 117.5,-120.7 117.5,-97.7 8.5,-97.7"/>
<polygon fill="none" stroke="#000000" points="8.5,-97.7 8.5,-120.7 117.5,-120.7 117.5,-97.7 8.5,-97.7"/>
<text text-anchor="start" x="13.5" y="-106.8" font-family="Helvetica,sans-Serif" font-weight="bold" font-size="11.00" fill="#000000">event_store</text>
<text text-anchor="start" x="82.5437" y="-105.8" font-family="Helvetica,sans-Serif" font-size="11.00" fill="#000000">[table]</text>
<polygon fill="none" stroke="#000000" points="8.5,-75.7 8.5,-97.7 117.5,-97.7 117.5,-75.7 8.5,-75.7"/>
<image xlink:href="../../images/primaryKeys.png" width="11px" height="12px" preserveAspectRatio="xMinYMin meet" x="13.5" y="-92.7"/>
<text text-anchor="start" x="28.5" y="-82.8" font-family="Helvetica,sans-Serif" font-size="11.00" fill="#000000">id</text>
<polygon fill="none" stroke="#000000" points="8.5,-56.7 8.5,-75.7 117.5,-75.7 117.5,-56.7 8.5,-56.7"/>
<text text-anchor="start" x="11.5" y="-62.8" font-family="Helvetica,sans-Serif" font-size="11.00" fill="#000000">...</text>
<polygon fill="#ffffff" stroke="transparent" points="8.5,-37.7 8.5,-56.7 39.5,-56.7 39.5,-37.7 8.5,-37.7"/>
<polygon fill="none" stroke="#000000" points="8.5,-37.7 8.5,-56.7 39.5,-56.7 39.5,-37.7 8.5,-37.7"/>
<text text-anchor="start" x="11.5" y="-43.8" font-family="Helvetica,sans-Serif" font-size="11.00" fill="#000000"> &#160;</text>
<polygon fill="#ffffff" stroke="transparent" points="39.5,-37.7 39.5,-56.7 86.5,-56.7 86.5,-37.7 39.5,-37.7"/>
<polygon fill="none" stroke="#000000" points="39.5,-37.7 39.5,-56.7 86.5,-56.7 86.5,-37.7 39.5,-37.7"/>
<text text-anchor="start" x="51.1105" y="-43.8" font-family="Helvetica,sans-Serif" font-size="11.00" fill="#000000">3 rows</text>
<polygon fill="#ffffff" stroke="transparent" points="86.5,-37.7 86.5,-56.7 117.5,-56.7 117.5,-37.7 86.5,-37.7"/>
<polygon fill="none" stroke="#000000" points="86.5,-37.7 86.5,-56.7 117.5,-56.7 117.5,-37.7 86.5,-37.7"/>
<text text-anchor="start" x="98.9053" y="-43.8" font-family="Helvetica,sans-Serif" font-size="11.00" fill="#000000">1 &gt;</text>
</a>
</g>
</g>
<!-- dispatcher_latest_event&#45;&gt;event_store -->
<g id="edge1" class="edge">
<title>dispatcher_latest_event:w&#45;&gt;event_store:e</title>
<path fill="none" stroke="#000000" stroke-dasharray="5,2" d="M153.4203,-86.7C141.5435,-86.7 134.158,-86.7 117.5,-86.7"/>
<polygon fill="#000000" stroke="#000000" points="160,-86.7001 168,-90.3 164,-86.7 168,-86.7 168,-86.7 168,-86.7 164,-86.7 168,-83.1 160,-86.7001 160,-86.7001"/>
<ellipse fill="none" stroke="#000000" cx="156.8" cy="-86.7001" rx="3.2" ry="3.2"/>
</g>
</g>
</svg>
