<?xml version="1.0" encoding="UTF-8" standalone="no"?>
<!DOCTYPE svg PUBLIC "-//W3C//DTD SVG 1.1//EN"
 "http://www.w3.org/Graphics/SVG/1.1/DTD/svg11.dtd">
<!-- Generated by graphviz version 2.40.1 (20161225.0304)
 -->
<!-- Title: oneDegreeRelationshipsDiagramImplied Pages: 1 -->
<svg width="435pt" height="248pt"
 viewBox="0.00 0.00 435.00 248.20" xmlns="http://www.w3.org/2000/svg" xmlns:xlink="http://www.w3.org/1999/xlink">
<g id="graph0" class="graph" transform="scale(1 1) rotate(0) translate(4 244.2)">
<title>oneDegreeRelationshipsDiagramImplied</title>
<polygon fill="#ffffff" stroke="transparent" points="-4,4 -4,-244.2 431,-244.2 431,4 -4,4"/>
<text text-anchor="middle" x="72.4936" y="-7.3" font-family="Helvetica,sans-Serif" font-size="11.00" fill="#000000">Generated by SchemaSpy</text>
<!-- dispatcher_latest_event -->
<g id="node1" class="node">
<title>dispatcher_latest_event</title>
<g id="a_node1"><a xlink:href="../../tables/dispatcher_latest_event.html" xlink:title="dispatcher_latest_event" target="_top">
<polygon fill="#ffffff" stroke="transparent" points="260,-150.2 260,-236.2 419,-236.2 419,-150.2 260,-150.2"/>
<polygon fill="#f5f5f5" stroke="transparent" points="260.5,-213.2 260.5,-236.2 419.5,-236.2 419.5,-213.2 260.5,-213.2"/>
<polygon fill="none" stroke="#000000" points="260.5,-213.2 260.5,-236.2 419.5,-236.2 419.5,-213.2 260.5,-213.2"/>
<text text-anchor="start" x="265.425" y="-222.3" font-family="Helvetica,sans-Serif" font-weight="bold" font-size="11.00" fill="#000000">dispatcher_latest_event</text>
<text text-anchor="start" x="385.0219" y="-221.3" font-family="Helvetica,sans-Serif" font-size="11.00" fill="#000000">[table]</text>
<polygon fill="none" stroke="#000000" points="260.5,-191.2 260.5,-213.2 419.5,-213.2 419.5,-191.2 260.5,-191.2"/>
<image xlink:href="../../images/primaryKeys.png" width="11px" height="12px" preserveAspectRatio="xMinYMin meet" x="265.5" y="-208.2"/>
<text text-anchor="start" x="281.5" y="-198.3" font-family="Helvetica,sans-Serif" font-size="11.00" fill="#000000">id</text>
<polygon fill="none" stroke="#000000" points="260.5,-169.2 260.5,-191.2 419.5,-191.2 419.5,-169.2 260.5,-169.2"/>
<image xlink:href="../../images/foreignKeys.png" width="11px" height="12px" preserveAspectRatio="xMinYMin meet" x="265.5" y="-186.2"/>
<text text-anchor="start" x="281.5" y="-176.3" font-family="Helvetica,sans-Serif" font-size="11.00" fill="#000000">event_id</text>
<polygon fill="#ffffff" stroke="transparent" points="260.5,-150.2 260.5,-169.2 325.5,-169.2 325.5,-150.2 260.5,-150.2"/>
<polygon fill="none" stroke="#000000" points="260.5,-150.2 260.5,-169.2 325.5,-169.2 325.5,-150.2 260.5,-150.2"/>
<text text-anchor="start" x="263.5" y="-156.3" font-family="Helvetica,sans-Serif" font-size="11.00" fill="#000000">&lt; 1</text>
<polygon fill="#ffffff" stroke="transparent" points="325.5,-150.2 325.5,-169.2 385.5,-169.2 385.5,-150.2 325.5,-150.2"/>
<polygon fill="none" stroke="#000000" points="325.5,-150.2 325.5,-169.2 385.5,-169.2 385.5,-150.2 325.5,-150.2"/>
<text text-anchor="start" x="350.1105" y="-156.3" font-family="Helvetica,sans-Serif" font-size="11.00" fill="#000000">0 rows</text>
<polygon fill="#ffffff" stroke="transparent" points="385.5,-150.2 385.5,-169.2 419.5,-169.2 419.5,-150.2 385.5,-150.2"/>
<polygon fill="none" stroke="#000000" points="385.5,-150.2 385.5,-169.2 419.5,-169.2 419.5,-150.2 385.5,-150.2"/>
<text text-anchor="start" x="410.3862" y="-156.3" font-family="Helvetica,sans-Serif" font-size="11.00" fill="#000000"> &#160;</text>
</a>
</g>
</g>
<!-- event_store -->
<g id="node2" class="node">
<title>event_store</title>
<g id="a_node2"><a xlink:href="../../tables/event_store.html" xlink:title="event_store" target="_top">
<polygon fill="#ffffff" stroke="transparent" points="8,-38.2 8,-216.2 211,-216.2 211,-38.2 8,-38.2"/>
<polygon fill="#f5f5f5" stroke="transparent" points="10.5,-191.2 10.5,-214.2 209.5,-214.2 209.5,-191.2 10.5,-191.2"/>
<polygon fill="none" stroke="#000000" points="10.5,-191.2 10.5,-214.2 209.5,-214.2 209.5,-191.2 10.5,-191.2"/>
<text text-anchor="start" x="15.5" y="-200.3" font-family="Helvetica,sans-Serif" font-weight="bold" font-size="11.00" fill="#000000">event_store</text>
<text text-anchor="start" x="174.5437" y="-199.3" font-family="Helvetica,sans-Serif" font-size="11.00" fill="#000000">[table]</text>
<polygon fill="none" stroke="#000000" points="10.5,-169.2 10.5,-191.2 119.5,-191.2 119.5,-169.2 10.5,-169.2"/>
<image xlink:href="../../images/primaryKeys.png" width="11px" height="12px" preserveAspectRatio="xMinYMin meet" x="15.5" y="-186.2"/>
<text text-anchor="start" x="30.5" y="-176.3" font-family="Helvetica,sans-Serif" font-size="11.00" fill="#000000">id</text>
<polygon fill="none" stroke="#000000" points="119.5,-169.2 119.5,-191.2 209.5,-191.2 209.5,-169.2 119.5,-169.2"/>
<text text-anchor="start" x="122.5" y="-176.9" font-family="Helvetica,sans-Serif" font-size="11.00" fill="#000000">int8[19]</text>
<polygon fill="none" stroke="#000000" points="10.5,-147.2 10.5,-169.2 119.5,-169.2 119.5,-147.2 10.5,-147.2"/>
<text text-anchor="start" x="30.5" y="-154.3" font-family="Helvetica,sans-Serif" font-size="11.00" fill="#000000">stream_name</text>
<polygon fill="none" stroke="#000000" points="119.5,-147.2 119.5,-169.2 209.5,-169.2 209.5,-147.2 119.5,-147.2"/>
<text text-anchor="start" x="122.5" y="-154.9" font-family="Helvetica,sans-Serif" font-size="11.00" fill="#000000">varchar[36]</text>
<polygon fill="none" stroke="#000000" points="10.5,-125.2 10.5,-147.2 119.5,-147.2 119.5,-125.2 10.5,-125.2"/>
<text text-anchor="start" x="30.5" y="-132.3" font-family="Helvetica,sans-Serif" font-size="11.00" fill="#000000">stream_version</text>
<polygon fill="none" stroke="#000000" points="119.5,-125.2 119.5,-147.2 209.5,-147.2 209.5,-125.2 119.5,-125.2"/>
<text text-anchor="start" x="122.5" y="-132.9" font-family="Helvetica,sans-Serif" font-size="11.00" fill="#000000">int4[10]</text>
<polygon fill="none" stroke="#000000" points="10.5,-103.2 10.5,-125.2 119.5,-125.2 119.5,-103.2 10.5,-103.2"/>
<text text-anchor="start" x="30.5" y="-110.3" font-family="Helvetica,sans-Serif" font-size="11.00" fill="#000000">type</text>
<polygon fill="none" stroke="#000000" points="119.5,-103.2 119.5,-125.2 209.5,-125.2 209.5,-103.2 119.5,-103.2"/>
<text text-anchor="start" x="122.5" y="-110.9" font-family="Helvetica,sans-Serif" font-size="11.00" fill="#000000">varchar[255]</text>
<polygon fill="none" stroke="#000000" points="10.5,-81.2 10.5,-103.2 119.5,-103.2 119.5,-81.2 10.5,-81.2"/>
<text text-anchor="start" x="30.5" y="-88.3" font-family="Helvetica,sans-Serif" font-size="11.00" fill="#000000">payload</text>
<polygon fill="none" stroke="#000000" points="119.5,-81.2 119.5,-103.2 209.5,-103.2 209.5,-81.2 119.5,-81.2"/>
<text text-anchor="start" x="122.0042" y="-88.9" font-family="Helvetica,sans-Serif" font-size="11.00" fill="#000000">text[2147483647]</text>
<polygon fill="none" stroke="#000000" points="10.5,-59.2 10.5,-81.2 119.5,-81.2 119.5,-59.2 10.5,-59.2"/>
<text text-anchor="start" x="30.5" y="-66.3" font-family="Helvetica,sans-Serif" font-size="11.00" fill="#000000">created_at</text>
<polygon fill="none" stroke="#000000" points="119.5,-59.2 119.5,-81.2 209.5,-81.2 209.5,-59.2 119.5,-59.2"/>
<text text-anchor="start" x="122.5" y="-66.9" font-family="Helvetica,sans-Serif" font-size="11.00" fill="#000000">timestamp[29,6]</text>
<polygon fill="#ffffff" stroke="transparent" points="10.5,-40.2 10.5,-59.2 56.5,-59.2 56.5,-40.2 10.5,-40.2"/>
<polygon fill="none" stroke="#000000" points="10.5,-40.2 10.5,-59.2 56.5,-59.2 56.5,-40.2 10.5,-40.2"/>
<text text-anchor="start" x="13.5" y="-46.3" font-family="Helvetica,sans-Serif" font-size="11.00" fill="#000000">&lt; 0</text>
<polygon fill="#ffffff" stroke="transparent" points="56.5,-40.2 56.5,-59.2 119.5,-59.2 119.5,-40.2 56.5,-40.2"/>
<polygon fill="none" stroke="#000000" points="56.5,-40.2 56.5,-59.2 119.5,-59.2 119.5,-40.2 56.5,-40.2"/>
<text text-anchor="start" x="84.1105" y="-46.3" font-family="Helvetica,sans-Serif" font-size="11.00" fill="#000000">3 rows</text>
<polygon fill="#ffffff" stroke="transparent" points="119.5,-40.2 119.5,-59.2 209.5,-59.2 209.5,-40.2 119.5,-40.2"/>
<polygon fill="none" stroke="#000000" points="119.5,-40.2 119.5,-59.2 209.5,-59.2 209.5,-40.2 119.5,-40.2"/>
<text text-anchor="start" x="190.9053" y="-46.3" font-family="Helvetica,sans-Serif" font-size="11.00" fill="#000000">1 &gt;</text>
<polygon fill="none" stroke="#000000" stroke-width="2" points="9,-39.2 9,-215.2 210,-215.2 210,-39.2 9,-39.2"/>
</a>
</g>
</g>
<!-- dispatcher_latest_event&#45;&gt;event_store -->
<g id="edge1" class="edge">
<title>dispatcher_latest_event:w&#45;&gt;event_store:e</title>
<path fill="none" stroke="#000000" stroke-dasharray="5,2" d="M245.776,-180.2C233.7815,-180.2 226.3229,-180.2 209.5,-180.2"/>
<polygon fill="#000000" stroke="#000000" points="252.5,-180.2001 260.5,-183.8 256.5,-180.2 260.5,-180.2 260.5,-180.2 260.5,-180.2 256.5,-180.2 260.5,-176.6 252.5,-180.2001 252.5,-180.2001"/>
<ellipse fill="none" stroke="#000000" cx="249.3" cy="-180.2001" rx="3.2" ry="3.2"/>
</g>
</g>
</svg>
